<svg width="48" height="48" viewBox="0 0 48 48" fill="none" xmlns="http://www.w3.org/2000/svg">
<g clip-path="url(#clip0_1322_591)">
<path d="M38.6934 21.3492C38.7726 21.3487 38.8518 21.3483 38.9334 21.3478C39.1937 21.3465 39.4539 21.3466 39.7141 21.3468C39.8961 21.3464 40.0781 21.346 40.2601 21.3456C40.641 21.3449 41.022 21.3449 41.4029 21.3454C41.8895 21.3459 42.3761 21.3443 42.8627 21.3422C43.2384 21.3408 43.6142 21.3407 43.99 21.341C44.1693 21.3409 44.3486 21.3404 44.528 21.3395C44.7794 21.3383 45.0308 21.339 45.2823 21.3401C45.3554 21.3393 45.4284 21.3386 45.5037 21.3379C46.1212 21.3437 46.7428 21.4361 47.1972 21.8789C47.5197 22.4206 47.5874 22.8142 47.4375 23.4375C47.2241 23.9169 46.9547 24.3657 46.6913 24.819C46.6149 24.9565 46.6149 24.9565 46.537 25.0968C46.4657 25.2198 46.4657 25.2198 46.393 25.3453C46.2664 25.7358 46.4202 25.9957 46.5957 26.3488C46.6289 26.4052 46.6621 26.4615 46.6963 26.5195C46.7329 26.5828 46.7695 26.6461 46.8072 26.7114C46.8451 26.7757 46.8829 26.84 46.9219 26.9062C47.3477 27.6301 47.6479 28.2114 47.4375 29.0625C47.22 29.4818 47.0176 29.703 46.5937 29.9062C46.35 29.9314 46.1296 29.9419 45.8865 29.9381C45.7821 29.9382 45.7821 29.9382 45.6757 29.9383C45.4469 29.9381 45.2181 29.9359 44.9894 29.9337C44.8303 29.9332 44.6712 29.9328 44.5121 29.9325C44.0943 29.9314 43.6765 29.9286 43.2587 29.9255C42.7569 29.9221 42.2551 29.9209 41.7533 29.9192C40.9918 29.9165 40.2303 29.9111 39.4687 29.9062C39.4687 31.1128 39.4687 32.3193 39.4687 33.5625C40.1797 33.5514 40.1797 33.5514 40.8906 33.5371C41.5296 33.5321 42.0347 33.5507 42.5383 33.9843C42.8323 34.3736 42.9493 34.6366 42.9487 35.1199C42.9489 35.253 42.9489 35.253 42.9491 35.3888C42.9488 35.486 42.9485 35.5831 42.9481 35.6833C42.9481 35.7857 42.9481 35.8882 42.9482 35.9937C42.9481 36.3331 42.9474 36.6724 42.9466 37.0118C42.9465 37.2468 42.9463 37.4818 42.9462 37.7168C42.9459 38.2726 42.9452 38.8284 42.9442 39.3842C42.9431 40.0791 42.9426 40.7739 42.9421 41.4688C42.941 42.7083 42.9395 43.9479 42.9375 45.1875C43.06 45.186 43.1825 45.1845 43.3087 45.183C43.7638 45.1779 44.219 45.1747 44.6741 45.172C44.871 45.1706 45.0679 45.1687 45.2647 45.1662C45.5479 45.1628 45.8311 45.1612 46.1144 45.16C46.2022 45.1585 46.29 45.1571 46.3804 45.1556C46.8416 45.1555 47.159 45.1645 47.5312 45.4687C47.9428 45.9375 48.0339 46.2103 48.026 46.8244C47.9748 47.293 47.7321 47.5379 47.3791 47.8249C47.0001 48.0345 46.6957 48.0522 46.2742 48.0469C46.1566 48.0477 46.1566 48.0477 46.0367 48.0485C45.7734 48.0497 45.5102 48.0483 45.2469 48.047C45.0565 48.0473 44.8661 48.0478 44.6757 48.0485C44.1519 48.0499 43.6282 48.049 43.1045 48.0476C42.5399 48.0466 41.9753 48.0477 41.4107 48.0485C40.3684 48.0498 39.3261 48.0493 38.2838 48.048C37.321 48.0467 36.3583 48.0463 35.3955 48.0465C35.2997 48.0465 35.2997 48.0465 35.202 48.0465C34.9429 48.0466 34.6837 48.0467 34.4246 48.0467C31.9933 48.0474 29.5621 48.0459 27.1308 48.0435C24.9701 48.0413 22.8094 48.0408 20.6487 48.0418C20.0953 48.042 19.542 48.0423 18.9887 48.0425C18.9206 48.0425 18.8525 48.0426 18.7823 48.0426C16.9775 48.0433 15.1727 48.0427 13.3678 48.0417C13.1737 48.0416 12.9795 48.0415 12.7854 48.0414C12.6566 48.0413 12.5278 48.0412 12.399 48.0411C11.4366 48.0406 10.4743 48.0407 9.512 48.0412C8.41804 48.0416 7.32408 48.0411 6.23012 48.0392C5.67165 48.0383 5.11319 48.0378 4.55472 48.0385C4.04394 48.0392 3.53318 48.0386 3.02239 48.0369C2.83718 48.0365 2.65195 48.0366 2.46673 48.0372C2.21578 48.038 1.96489 48.037 1.71393 48.0356C1.64133 48.0363 1.56872 48.0369 1.49391 48.0375C1.07208 48.033 0.804682 47.9777 0.468725 47.7187C0.056852 47.2496 -0.0324409 46.9774 -0.0271245 46.3634C0.0240672 45.913 0.313849 45.564 0.656225 45.2812C0.916908 45.1943 1.07065 45.176 1.33946 45.1768C1.42015 45.1768 1.50083 45.1768 1.58397 45.1768C1.67069 45.1773 1.75742 45.1778 1.84678 45.1783C1.93586 45.1784 2.02494 45.1786 2.11672 45.1787C2.40137 45.1792 2.68602 45.1804 2.97068 45.1816C3.16361 45.1821 3.35654 45.1825 3.54947 45.1829C4.02256 45.1839 4.49564 45.1855 4.96873 45.1875C4.96838 45.0914 4.96803 44.9954 4.96768 44.8965C4.95935 42.5601 4.95319 40.2238 4.9493 37.8874C4.94736 36.7575 4.94473 35.6277 4.94044 34.4978C4.9367 33.5131 4.93428 32.5283 4.93344 31.5436C4.93295 31.0221 4.9318 30.5007 4.92908 29.9793C4.92653 29.4884 4.92575 28.9976 4.92631 28.5067C4.92621 28.3266 4.92546 28.1466 4.92402 27.9665C4.92215 27.7204 4.92261 27.4743 4.92363 27.2282C4.92254 27.1572 4.92144 27.0861 4.92032 27.0129C4.92605 26.5017 5.056 26.2048 5.34373 25.7812C5.77199 25.3919 6.19131 25.3916 6.74588 25.3896C6.82183 25.389 6.89777 25.3884 6.97602 25.3878C7.22745 25.3859 7.47888 25.3848 7.73032 25.3839C7.8592 25.3833 7.8592 25.3833 7.99069 25.3827C8.44541 25.3808 8.90013 25.3794 9.35486 25.3785C9.82427 25.3775 10.2936 25.3743 10.763 25.3706C11.1242 25.3681 11.4854 25.3673 11.8466 25.367C12.0196 25.3665 12.1927 25.3654 12.3657 25.3637C12.608 25.3614 12.8503 25.3615 13.0927 25.3622C13.1639 25.361 13.235 25.3598 13.3084 25.3585C13.7947 25.3633 14.0695 25.4649 14.4375 25.7812C14.7978 26.223 14.866 26.5723 14.8576 27.1267C14.8579 27.2042 14.8582 27.2816 14.8585 27.3614C14.8592 27.6201 14.8571 27.8787 14.855 28.1374C14.8549 28.3231 14.855 28.5088 14.8552 28.6946C14.8553 29.1983 14.8531 29.7021 14.8505 30.2059C14.8482 30.7325 14.8479 31.2591 14.8475 31.7858C14.8463 32.7828 14.8432 33.7799 14.8395 34.7769C14.8353 35.9121 14.8332 37.0473 14.8313 38.1825C14.8274 40.5175 14.8205 42.8525 14.8125 45.1875C16.2047 45.1875 17.5968 45.1875 19.0312 45.1875C19.0293 44.7422 19.0273 44.2969 19.0253 43.8381C19.0191 42.3679 19.0149 40.8977 19.0118 39.4275C19.0099 38.536 19.0072 37.6445 19.0029 36.7531C18.9992 35.976 18.9968 35.1989 18.9959 34.4218C18.9955 34.0104 18.9943 33.599 18.9916 33.1876C18.989 32.8001 18.9882 32.4127 18.9888 32.0253C18.9887 31.8833 18.988 31.7413 18.9865 31.5993C18.9734 30.2341 18.9734 30.2341 19.4062 29.7187C19.8339 29.3413 20.2033 29.2893 20.7552 29.2952C20.8321 29.2945 20.909 29.2939 20.9882 29.2932C21.2412 29.2916 21.4941 29.2926 21.747 29.2939C21.9236 29.2937 22.1001 29.2933 22.2766 29.2928C22.646 29.2923 23.0154 29.2931 23.3849 29.2948C23.8578 29.297 24.3306 29.2957 24.8034 29.2935C25.1678 29.2921 25.5321 29.2926 25.8964 29.2935C26.0708 29.2938 26.2451 29.2935 26.4194 29.2926C26.6633 29.2917 26.9071 29.2931 27.151 29.2952C27.2584 29.2941 27.2584 29.2941 27.368 29.2929C27.8546 29.3006 28.1317 29.4022 28.5 29.7187C28.8227 30.1295 28.9217 30.3942 28.9201 30.9148C28.9204 30.9761 28.9207 31.0375 28.921 31.1007C28.9217 31.305 28.9196 31.5091 28.9175 31.7134C28.9174 31.8604 28.9175 32.0073 28.9177 32.1542C28.9178 32.5523 28.9156 32.9502 28.913 33.3483C28.9107 33.7645 28.9104 34.1808 28.91 34.5971C28.9088 35.385 28.9057 36.1728 28.902 36.9607C28.8978 37.8578 28.8957 38.755 28.8938 39.6521C28.8899 41.4973 28.8831 43.3424 28.875 45.1875C30.2672 45.1875 31.6594 45.1875 33.0937 45.1875C33.0918 44.87 33.0898 44.5525 33.0878 44.2254C33.0816 43.1762 33.0774 42.1269 33.0743 41.0777C33.0724 40.4416 33.0697 39.8055 33.0654 39.1694C33.0613 38.5554 33.0591 37.9415 33.0581 37.3275C33.0575 37.0934 33.0561 36.8592 33.0541 36.625C33.0513 36.2969 33.051 35.9688 33.0512 35.6407C33.0498 35.544 33.0485 35.4473 33.0471 35.3477C33.0504 34.7636 33.1221 34.4131 33.4687 33.9375C33.9109 33.6059 34.299 33.5504 34.8413 33.5533C34.9917 33.5538 34.9917 33.5538 35.1452 33.5542C35.2494 33.555 35.3536 33.5558 35.4609 33.5566C35.6193 33.5572 35.6193 33.5572 35.781 33.5579C36.0415 33.559 36.302 33.5605 36.5625 33.5625C36.5621 33.5055 36.5618 33.4485 36.5614 33.3898C36.5531 32.0025 36.5469 30.6152 36.543 29.2278C36.5411 28.5569 36.5385 27.886 36.5342 27.2151C36.5304 26.6303 36.528 26.0454 36.5272 25.4605C36.5267 25.1509 36.5254 24.8414 36.5228 24.5318C36.5201 24.1859 36.5197 23.8401 36.5199 23.4942C36.5186 23.3919 36.5172 23.2896 36.5158 23.1842C36.5189 22.6109 36.5593 22.2827 36.9375 21.8437C36.9781 21.7896 37.0187 21.7354 37.0605 21.6797C37.5288 21.3327 38.1364 21.3475 38.6934 21.3492ZM39.4687 24.2812C39.4687 25.1784 39.4687 26.0756 39.4687 27C40.83 27 42.1912 27 43.5937 27C43.47 26.7215 43.3462 26.4431 43.2187 26.1562C43.1083 25.5774 43.2151 25.1207 43.5117 24.6181C43.6088 24.4697 43.6088 24.4697 43.5937 24.2812C42.2325 24.2812 40.8712 24.2812 39.4687 24.2812ZM7.87498 28.3125C7.87498 33.8812 7.87498 39.45 7.87498 45.1875C9.20529 45.1875 10.5356 45.1875 11.9062 45.1875C11.9062 39.6187 11.9062 34.05 11.9062 28.3125C10.5759 28.3125 9.2456 28.3125 7.87498 28.3125ZM21.9375 32.25C21.9375 36.5193 21.9375 40.7887 21.9375 45.1875C23.2678 45.1875 24.5981 45.1875 25.9687 45.1875C25.9687 40.9181 25.9687 36.6487 25.9687 32.25C24.6384 32.25 23.3081 32.25 21.9375 32.25ZM36 36.4687C36 39.3459 36 42.2231 36 45.1875C37.3303 45.1875 38.6606 45.1875 40.0312 45.1875C40.0312 42.3103 40.0312 39.4331 40.0312 36.4687C38.7009 36.4687 37.3706 36.4687 36 36.4687Z" fill="white"/>
<path d="M21.7928 -0.0166249C21.9534 -0.0184299 21.9534 -0.0184299 22.1172 -0.0202713C22.2915 -0.0213101 22.2915 -0.0213101 22.4693 -0.0223699C22.5884 -0.0231266 22.7075 -0.0238833 22.8302 -0.024663C23.0827 -0.0259616 23.3352 -0.0269941 23.5877 -0.0277028C23.9103 -0.0287383 24.2329 -0.0319611 24.5555 -0.0356877C24.864 -0.0387367 25.1725 -0.0391518 25.481 -0.039948C25.5965 -0.0415894 25.7119 -0.0432308 25.8309 -0.0449219C26.4338 -0.0433937 26.8284 -0.0423331 27.2813 0.374969C27.6253 0.783759 27.6292 1.23925 27.6681 1.75192C27.6749 1.83138 27.6818 1.91084 27.6889 1.99271C27.7028 2.15281 27.7163 2.31295 27.7293 2.47313C27.7627 2.86796 27.8032 3.26207 27.8438 3.65622C27.9288 3.58262 28.0138 3.50902 28.1013 3.4332C28.3966 3.17795 28.6936 2.92481 28.9913 2.6723C29.1294 2.55426 29.2658 2.43421 29.4017 2.31369C29.7993 1.97552 30.1137 1.77948 30.645 1.76291C31.7377 1.86353 32.631 3.07683 33.3675 3.80849C33.4822 3.92207 33.5973 4.03523 33.7128 4.14797C33.8819 4.31309 34.0498 4.47943 34.2174 4.64609C34.294 4.72024 34.294 4.72024 34.3722 4.7959C34.8123 5.23855 35.152 5.7399 35.2091 6.37497C35.1585 7.16499 34.4945 7.73357 33.9845 8.27707C33.7399 8.54229 33.5102 8.81495 33.2813 9.09372C33.3603 9.10028 33.4392 9.10683 33.5205 9.11359C33.8161 9.1389 34.1115 9.16562 34.4069 9.19328C34.5342 9.20492 34.6616 9.21601 34.789 9.22652C36.1752 9.34157 36.1752 9.34157 36.6563 9.74997C37.0814 10.3354 37.0863 10.9332 37.0811 11.6338C37.0815 11.7412 37.0819 11.8487 37.0822 11.9594C37.0825 12.1856 37.0818 12.4119 37.0802 12.6382C37.0782 12.9833 37.0802 13.3281 37.0826 13.6732C37.0824 13.8938 37.0819 14.1143 37.0811 14.3349C37.0819 14.4374 37.0827 14.5399 37.0834 14.6454C37.0762 15.244 37.0151 15.7246 36.6563 16.2187C36.0719 16.7148 35.3374 16.697 34.5997 16.7578C34.4717 16.7695 34.3437 16.7813 34.2157 16.7933C33.9044 16.8219 33.5929 16.8491 33.2813 16.875C33.3482 16.9464 33.415 17.0178 33.4839 17.0914C35.211 18.9487 35.211 18.9487 35.1853 19.7694C35.0822 20.4798 34.5757 20.9779 34.0844 21.4588C34.0174 21.5258 33.9504 21.5927 33.8813 21.6617C33.7403 21.8021 33.5989 21.9421 33.457 22.0816C33.2403 22.2949 33.0252 22.5096 32.8102 22.7246C32.6725 22.8614 32.5348 22.998 32.3969 23.1346C32.3329 23.1985 32.2688 23.2623 32.2028 23.3282C31.7037 23.8174 31.2997 24.1402 30.5864 24.1919C29.9015 24.1776 29.5019 23.7331 29.0293 23.2903C28.6511 22.9428 28.2475 22.6293 27.8438 22.3125C27.8391 22.3767 27.8344 22.4409 27.8296 22.5071C27.8077 22.8017 27.7847 23.0961 27.7618 23.3906C27.7544 23.4916 27.7471 23.5927 27.7395 23.6967C27.6261 25.127 27.6261 25.127 27.2403 25.582C26.867 25.8916 26.677 25.9923 26.1967 25.996C26.0897 25.9972 25.9826 25.9984 25.8724 25.9996C25.6988 25.9999 25.6988 25.9999 25.5217 26.0002C25.4027 26.0008 25.2838 26.0015 25.1612 26.0021C24.9093 26.0031 24.6573 26.0036 24.4054 26.0035C24.0835 26.0034 23.7617 26.006 23.4399 26.0092C23.1319 26.0118 22.8238 26.0117 22.5158 26.0119C22.4007 26.0133 22.2855 26.0146 22.1669 26.016C21.5647 26.0128 21.1719 26.0091 20.7188 25.5937C20.3921 25.2219 20.3315 24.892 20.297 24.4072C20.2892 24.3036 20.2815 24.2001 20.2735 24.0934C20.2579 23.8748 20.2423 23.6563 20.2267 23.4378C20.2189 23.3343 20.2112 23.2307 20.2032 23.124C20.1964 23.0291 20.1897 22.9341 20.1827 22.8363C20.1639 22.5832 20.1639 22.5832 20.0626 22.3125C19.9933 22.3782 19.9241 22.444 19.8528 22.5117C18.1098 24.1501 18.1098 24.1501 17.275 24.2208C16.5373 24.1051 16.1143 23.6671 15.6106 23.1537C15.537 23.08 15.4635 23.0064 15.3877 22.9306C15.2331 22.7754 15.0789 22.6197 14.9252 22.4636C14.6897 22.2247 14.4527 21.9873 14.2155 21.7502C14.0652 21.5989 13.915 21.4476 13.7649 21.2962C13.6941 21.2252 13.6233 21.1542 13.5503 21.0811C13.4522 20.9811 13.4522 20.9811 13.352 20.8791C13.2657 20.7917 13.2657 20.7917 13.1776 20.7025C12.8275 20.2924 12.7907 19.9196 12.8039 19.393C12.924 18.5865 13.6738 17.9698 14.2135 17.4001C14.4451 17.1607 14.4451 17.1607 14.6251 16.875C14.5727 16.8698 14.5203 16.8646 14.4664 16.8592C14.2243 16.8352 13.9823 16.8112 13.7403 16.7871C13.6168 16.7748 13.6168 16.7748 13.4908 16.7624C13.3252 16.7459 13.1597 16.7291 12.9943 16.7122C12.8332 16.6959 12.6721 16.6804 12.5108 16.6659C12.4366 16.6587 12.3623 16.6516 12.2857 16.6443C12.22 16.6383 12.1542 16.6323 12.0864 16.6262C11.6717 16.5514 11.4179 16.3 11.1437 15.9992C10.8477 15.5377 10.9155 14.9804 10.919 14.4521C10.9187 14.3356 10.9183 14.2192 10.9179 14.0991C10.9176 13.7905 10.9191 13.4819 10.9212 13.1732C10.922 12.9845 10.9212 12.7958 10.92 12.6071C10.9176 12.2436 10.9179 11.8801 10.919 11.5166C10.9183 11.4044 10.9175 11.2921 10.9167 11.1765C10.9234 10.5804 10.9359 10.1994 11.3438 9.74997C11.837 9.30168 12.3484 9.29943 12.9845 9.26364C13.1749 9.25076 13.3653 9.2377 13.5558 9.22446C13.644 9.21861 13.7322 9.21276 13.8231 9.20674C14.0939 9.18495 14.3585 9.14621 14.6251 9.09372C14.5504 9.00767 14.4757 8.92163 14.3988 8.83298C12.8319 7.02099 12.8319 7.02099 12.8145 6.35153C12.811 6.26404 12.8075 6.17654 12.8039 6.08639C12.8997 5.42928 13.4812 4.9575 13.9297 4.50766C13.9983 4.43837 14.067 4.36909 14.1377 4.2977C14.2825 4.15193 14.4276 4.00642 14.5729 3.86114C14.7943 3.63936 15.0141 3.41612 15.2339 3.19278C15.3752 3.0509 15.5167 2.90911 15.6582 2.76743C15.7233 2.70092 15.7885 2.63441 15.8556 2.56589C16.2829 2.14253 16.6675 1.82874 17.2849 1.75449C17.8837 1.81901 18.2102 2.0467 18.6563 2.43747C18.768 2.53233 18.8799 2.62705 18.9918 2.72165C19.8905 3.48415 19.8905 3.48415 20.0626 3.65622C20.1568 3.37348 20.1789 3.15094 20.1966 2.85458C20.2035 2.75228 20.2104 2.64998 20.2175 2.54459C20.2313 2.32978 20.2445 2.11494 20.257 1.90005C20.3034 1.2322 20.3445 0.721969 20.8653 0.251922C21.2051 0.0167204 21.3819 -0.0126108 21.7928 -0.0166249ZM23.1563 2.81247C23.1357 3.02681 23.115 3.24116 23.0945 3.45551C23.0771 3.63675 23.0595 3.81798 23.0419 3.9992C22.9958 4.47651 22.9569 4.95291 22.9278 5.43161C22.8921 5.83729 22.8458 6.13542 22.5938 6.46872C21.9102 7.02582 21.0738 7.35049 20.1959 7.36227C19.6299 7.23812 19.1871 6.76057 18.7618 6.38669C18.3023 5.98724 17.8384 5.60603 17.3438 5.24997C17.1685 5.41266 16.9951 5.57678 16.8224 5.74216C16.7474 5.81122 16.7474 5.81122 16.6709 5.88168C16.3996 6.13069 16.3996 6.13069 16.2979 6.46945C16.4561 6.74188 16.6631 6.959 16.881 7.18356C18.3273 8.71514 18.3273 8.71514 18.3202 9.70163C18.2424 10.3621 17.9809 11.0873 17.5002 11.5576C17.0524 11.8461 16.6149 11.9297 16.0888 11.9622C15.9777 11.9697 15.8666 11.9771 15.7521 11.9848C15.6374 11.9917 15.5226 11.9987 15.4044 12.0058C15.1755 12.0203 14.9466 12.035 14.7177 12.0501C14.5663 12.0594 14.5663 12.0594 14.4117 12.0688C14.1477 12.085 14.1477 12.085 13.8751 12.1875C13.8751 12.7134 13.8751 13.2393 13.8751 13.7812C14.1682 13.8789 14.4033 13.8981 14.7112 13.9153C14.8211 13.9221 14.931 13.929 15.0442 13.9361C15.2747 13.9499 15.5051 13.9631 15.7356 13.9757C17.1596 14.0675 17.1596 14.0675 17.6562 14.5609C17.8201 14.8245 17.9473 15.0817 18.0645 15.3691C18.1036 15.4628 18.1426 15.5564 18.1828 15.6529C18.3797 16.2216 18.4223 16.6829 18.1876 17.25C18.0336 17.4884 17.8529 17.6925 17.6602 17.9004C17.6103 17.9567 17.5603 18.0131 17.5087 18.0712C17.2826 18.3252 17.0517 18.574 16.8183 18.8214C16.75 18.8945 16.6818 18.9676 16.6114 19.0429C16.5509 19.1051 16.4903 19.1672 16.4279 19.2312C16.2964 19.3963 16.2964 19.3963 16.3111 19.5857C16.4501 19.8711 16.6529 20.0541 16.881 20.2734C16.9671 20.357 17.0533 20.4407 17.1421 20.5268C17.2086 20.5901 17.2752 20.6535 17.3438 20.7187C17.7923 20.4026 18.2022 20.0617 18.6036 19.6875C19.7581 18.6347 19.7581 18.6347 20.4024 18.5859C20.8374 18.6146 21.2335 18.7492 21.6388 18.9023C21.6982 18.9243 21.7577 18.9464 21.819 18.9691C22.2788 19.1594 22.5003 19.3853 22.7813 19.7812C22.8767 20.0674 22.9009 20.2999 22.922 20.6001C22.9297 20.7062 22.9374 20.8123 22.9454 20.9216C22.9531 21.0325 22.9609 21.1435 22.9688 21.2578C22.9843 21.4761 22.9999 21.6943 23.0157 21.9126C23.0259 22.0579 23.0259 22.0579 23.0362 22.2062C23.0648 22.5241 23.1112 22.8402 23.1563 23.1562C23.7132 23.1562 24.2701 23.1562 24.8438 23.1562C24.8609 22.8867 24.8609 22.8867 24.8783 22.6117C24.8941 22.3733 24.91 22.1349 24.9259 21.8965C24.9332 21.7783 24.9406 21.6602 24.9482 21.5385C25.0599 19.8931 25.0599 19.8931 25.4257 19.4198C26.0776 18.9193 26.8881 18.591 27.7146 18.5998C28.295 18.7466 28.7282 19.1233 29.1505 19.5293C29.2475 19.6204 29.3445 19.7115 29.4416 19.8025C29.4884 19.8466 29.5352 19.8907 29.5835 19.9362C29.8716 20.2049 30.1705 20.4616 30.4688 20.7187C30.9264 20.3492 31.318 19.9575 31.6876 19.5C31.6365 19.4443 31.5854 19.3885 31.5327 19.3311C29.5941 17.2004 29.5941 17.2004 29.6063 16.3273C29.6372 15.9949 29.7483 15.7099 29.877 15.4043C29.8999 15.3445 29.9228 15.2847 29.9464 15.2232C30.1149 14.8099 30.3103 14.5311 30.6563 14.25C31.054 14.0914 31.4122 14.0318 31.8381 14.0064C31.9535 13.999 32.0688 13.9916 32.1877 13.9839C32.3069 13.977 32.4261 13.97 32.5489 13.9629C32.7866 13.9484 33.0243 13.9337 33.2619 13.9185C33.4193 13.9093 33.4193 13.9093 33.5799 13.8998C33.8511 13.8843 33.8511 13.8843 34.1251 13.7812C34.1251 13.2553 34.1251 12.7293 34.1251 12.1875C33.8249 12.0874 33.5809 12.0703 33.2652 12.0534C33.1507 12.0465 33.0361 12.0397 32.9181 12.0326C32.6774 12.0187 32.4366 12.0055 32.1959 11.993C31.4786 11.9486 30.9332 11.9126 30.3531 11.4624C30.1381 11.1865 30.0092 10.8931 29.8829 10.5703C29.8578 10.5112 29.8326 10.4521 29.8067 10.3912C29.5868 9.84034 29.521 9.36254 29.7415 8.79306C29.9068 8.5305 30.0799 8.31678 30.2931 8.09177C30.6117 7.74642 30.923 7.39741 31.2247 7.03708C31.2954 6.95309 31.3661 6.8691 31.4389 6.78256C31.6208 6.56899 31.6208 6.56899 31.5938 6.28122C31.4264 6.09342 31.2598 5.92091 31.0782 5.74802C31.029 5.7001 30.9798 5.65218 30.9292 5.60281C30.8076 5.48456 30.6852 5.36718 30.5626 5.24997C30.4756 5.32538 30.3886 5.40079 30.2989 5.47848C29.9129 5.80965 29.5187 6.13029 29.1241 6.45114C28.9126 6.62536 28.7057 6.80317 28.5001 6.98434C28.1027 7.3155 27.785 7.35571 27.2843 7.35129C26.5257 7.24767 25.6913 6.89246 25.2188 6.28122C24.9499 5.5968 24.971 4.79596 24.9259 4.07223C24.9178 3.95084 24.9097 3.82945 24.9013 3.70438C24.8816 3.40711 24.8626 3.10979 24.8438 2.81247C24.287 2.81247 23.7301 2.81247 23.1563 2.81247Z" fill="white"/>
<path d="M26.4872 9.48018C27.3718 10.1534 28.0401 11.0706 28.2186 12.1876C28.3448 13.5215 28.1376 14.6811 27.2811 15.7501C26.4881 16.697 25.4821 17.159 24.2628 17.2797C22.9902 17.3273 21.8529 16.8961 20.9036 16.0493C20.043 15.1435 19.635 13.9736 19.6643 12.7398C19.7399 11.8522 20.0153 11.1288 20.5311 10.4063C20.5783 10.3397 20.6254 10.2732 20.674 10.2045C22.0663 8.43527 24.7006 8.25063 26.4872 9.48018ZM22.8456 12.211C22.6397 12.5466 22.5751 12.8262 22.5936 13.2188C22.7708 13.7504 23.1251 14.0939 23.6249 14.3438C24.1164 14.3816 24.4275 14.3308 24.8436 14.0626C25.2375 13.6262 25.3456 13.3566 25.3391 12.7801C25.2875 12.3603 25.0518 12.1007 24.744 11.8302C24.0057 11.3776 23.4138 11.6582 22.8456 12.211Z" fill="white"/>
</g>
<defs>
<clipPath id="clip0_1322_591">
<rect width="48" height="48" fill="white"/>
</clipPath>
</defs>
</svg>
