<svg width="48" height="48" viewBox="0 0 48 48" fill="none" xmlns="http://www.w3.org/2000/svg">
<g clip-path="url(#clip0_1322_607)">
<g clip-path="url(#clip1_1322_607)">
<path d="M9.0037 -0.0479553C9.09707 -0.0486124 9.19044 -0.0492695 9.28664 -0.0499466C9.59474 -0.0515943 9.90276 -0.0505046 10.2109 -0.049237C10.426 -0.0494898 10.6411 -0.0498539 10.8562 -0.0503242C11.3071 -0.0508769 11.758 -0.0500743 12.209 -0.0483215C12.7846 -0.0461922 13.3601 -0.0474107 13.9357 -0.0496612C14.3802 -0.0510226 14.8246 -0.0505819 15.2691 -0.0496132C15.4811 -0.0493645 15.6932 -0.0496652 15.9053 -0.0505431C17.5495 -0.0558533 18.7942 0.0368437 20.0594 1.20137C21.4241 2.63776 21.3101 4.43307 21.3063 6.27596C21.3065 6.49446 21.3066 6.71295 21.3069 6.93145C21.3071 7.38785 21.3067 7.84425 21.3059 8.30065C21.3048 8.88315 21.3054 9.46564 21.3065 10.0481C21.3072 10.4989 21.307 10.9496 21.3065 11.4003C21.3064 11.615 21.3065 11.8297 21.307 12.0444C21.3125 15.4922 21.3125 15.4922 20.0568 16.8697C18.6504 18.1518 16.9546 18.1234 15.1624 18.1192C14.9701 18.1193 14.7778 18.1195 14.5855 18.1198C14.1845 18.12 13.7835 18.1196 13.3826 18.1188C12.8696 18.1177 12.3566 18.1183 11.8436 18.1194C11.4474 18.1201 11.0511 18.1199 10.6548 18.1194C10.4657 18.1193 10.2765 18.1194 10.0873 18.1199C9.82311 18.1203 9.55891 18.1196 9.29467 18.1186C9.21727 18.119 9.13988 18.1193 9.06013 18.1197C8.54239 18.116 8.00986 18.0998 7.59758 17.7515C7.55384 17.6945 7.51009 17.6375 7.46502 17.5787C7.41982 17.5217 7.37462 17.4646 7.32805 17.4058C7.0904 17.0677 7.11383 16.8164 7.11453 16.4049C7.11452 16.3372 7.1145 16.2696 7.11449 16.1998C7.11455 15.9756 7.11528 15.7514 7.11602 15.5272C7.11619 15.3719 7.11633 15.2166 7.11642 15.0614C7.11678 14.6523 7.1177 14.2433 7.11874 13.8342C7.11969 13.417 7.12012 12.9997 7.12059 12.5825C7.1216 11.7635 7.1232 10.9445 7.12517 10.1256C6.65306 10.132 6.18102 10.1403 5.70897 10.1502C5.54848 10.1533 5.38799 10.1559 5.22749 10.158C4.99636 10.1612 4.76532 10.1661 4.53423 10.1713C4.42712 10.1722 4.42712 10.1722 4.31785 10.1732C3.89497 10.1848 3.61811 10.2398 3.28142 10.5006C2.87166 11.0567 2.89269 11.6285 2.89389 12.2908C2.89367 12.3769 2.89346 12.463 2.89324 12.5517C2.89265 12.8402 2.89273 13.1287 2.8928 13.4172C2.89252 13.624 2.8922 13.8309 2.89185 14.0377C2.89102 14.5996 2.8908 15.1615 2.89074 15.7234C2.89065 16.1924 2.89031 16.6614 2.88998 17.1304C2.88926 18.1736 2.88898 19.2168 2.88904 20.26C2.88904 20.3539 2.88904 20.3539 2.88905 20.4496C2.88905 20.5122 2.88906 20.5749 2.88906 20.6394C2.8891 21.6547 2.8882 22.67 2.88688 23.6853C2.88553 24.7283 2.8849 25.7712 2.88497 26.8142C2.88499 27.3996 2.88472 27.9849 2.88373 28.5703C2.88283 29.1208 2.88282 29.6713 2.8835 30.2218C2.8836 30.4238 2.88338 30.6258 2.88281 30.8278C2.88209 31.1036 2.88252 31.3794 2.88324 31.6553C2.88276 31.7351 2.88228 31.8149 2.88178 31.8972C2.88519 32.4863 2.92777 32.9921 3.32244 33.4576C3.62262 33.7065 3.84201 33.7615 4.22009 33.7698C4.29515 33.7717 4.3702 33.7736 4.44753 33.7755C4.52811 33.7771 4.60868 33.7786 4.6917 33.7802C4.77454 33.7822 4.85738 33.7841 4.94272 33.7861C5.20731 33.7923 5.4719 33.7978 5.7365 33.8033C5.91588 33.8074 6.09527 33.8114 6.27465 33.8156C6.7144 33.8256 7.15416 33.8351 7.59392 33.8443C7.5934 33.7662 7.5934 33.7662 7.59287 33.6866C7.58458 32.4181 7.57841 31.1497 7.57449 29.8812C7.57254 29.2678 7.56988 28.6544 7.56563 28.041C7.56156 27.4489 7.55932 26.8569 7.55834 26.2648C7.55765 26.039 7.5563 25.8132 7.55427 25.5874C7.55155 25.271 7.55118 24.9546 7.55135 24.6381C7.55 24.5449 7.54865 24.4517 7.54727 24.3557C7.55068 23.7804 7.62944 23.4387 7.96892 22.9693C8.40722 22.6406 8.79509 22.5827 9.33256 22.5817C9.43898 22.5813 9.5454 22.5809 9.65504 22.5805C9.77199 22.5805 9.88894 22.5805 10.0094 22.5805C10.1349 22.5802 10.2604 22.5799 10.3858 22.5795C10.7309 22.5785 11.076 22.5782 11.4211 22.5779C11.7932 22.5776 12.1653 22.5767 12.5373 22.5759C13.436 22.574 14.3346 22.5731 15.2332 22.5722C15.6564 22.5718 16.0796 22.5713 16.5027 22.5708C17.9093 22.5692 19.3159 22.5679 20.7225 22.5672C21.0875 22.567 21.4524 22.5668 21.8174 22.5666C21.9081 22.5666 21.9988 22.5666 22.0923 22.5665C23.5622 22.5657 25.0321 22.5634 26.502 22.5603C28.011 22.5572 29.52 22.5555 31.029 22.5552C31.8763 22.555 32.7236 22.5542 33.5709 22.5518C34.2924 22.5498 35.0139 22.549 35.7354 22.5499C36.1034 22.5504 36.4715 22.5502 36.8395 22.5484C37.1767 22.5467 37.5138 22.5468 37.851 22.5483C38.0303 22.5486 38.2096 22.5471 38.3889 22.5455C39.043 22.5504 39.4778 22.6112 40.0314 22.9693C40.5616 23.5947 40.5138 24.2751 40.5108 25.0532C40.5108 25.1484 40.5108 25.2436 40.5109 25.3416C40.5108 25.6551 40.5101 25.9686 40.5093 26.2821C40.5092 26.4999 40.509 26.7176 40.5089 26.9354C40.5086 27.5079 40.5076 28.0803 40.5066 28.6527C40.5056 29.2371 40.5052 29.8215 40.5047 30.406C40.5037 31.5521 40.5021 32.6982 40.5002 33.8443C41.0106 33.8378 41.521 33.8296 42.0314 33.8197C42.2049 33.8166 42.3784 33.814 42.5519 33.8118C42.8018 33.8087 43.0517 33.8038 43.3017 33.7985C43.4173 33.7976 43.4173 33.7976 43.5352 33.7967C43.9963 33.785 44.3192 33.7234 44.7189 33.4693C45.1353 32.9237 45.1076 32.3351 45.1065 31.6791C45.1067 31.593 45.1069 31.5069 45.1071 31.4182C45.1077 31.1297 45.1076 30.8412 45.1075 30.5527C45.1078 30.3459 45.1081 30.139 45.1085 29.9322C45.1093 29.3703 45.1095 28.8084 45.1096 28.2465C45.1097 27.7775 45.11 27.3085 45.1104 26.8395C45.1111 25.7963 45.1114 24.7531 45.1113 23.7099C45.1113 23.6473 45.1113 23.5847 45.1113 23.5203C45.1113 23.4576 45.1113 23.395 45.1113 23.3304C45.1112 22.3152 45.1121 21.2999 45.1135 20.2846C45.1148 19.2416 45.1154 18.1986 45.1154 17.1557C45.1154 16.5703 45.1156 15.985 45.1166 15.3996C45.1175 14.8491 45.1175 14.2986 45.1168 13.7481C45.1167 13.5461 45.117 13.3441 45.1175 13.1421C45.1183 12.8663 45.1178 12.5905 45.1171 12.3146C45.1178 12.1949 45.1178 12.1949 45.1186 12.0727C45.1151 11.4815 45.0745 10.9751 44.672 10.5123C44.2867 10.1847 43.9815 10.2001 43.4936 10.1897C43.3816 10.1867 43.3816 10.1867 43.2674 10.1838C43.0286 10.1776 42.7898 10.1721 42.551 10.1666C42.3892 10.1625 42.2275 10.1584 42.0657 10.1543C41.6689 10.1443 41.272 10.1348 40.8752 10.1256C40.876 10.2124 40.8768 10.2992 40.8777 10.3887C40.8852 11.208 40.8909 12.0274 40.8946 12.8467C40.8966 13.2679 40.8992 13.6891 40.9035 14.1103C40.9075 14.517 40.9098 14.9236 40.9108 15.3303C40.9114 15.4853 40.9128 15.6402 40.9148 15.7952C40.9176 16.0127 40.9179 16.23 40.9177 16.4475C40.9186 16.5712 40.9194 16.6948 40.9203 16.8222C40.8674 17.2142 40.7465 17.4137 40.5002 17.7193C39.9665 18.1062 39.4746 18.1083 38.8328 18.1079C38.7081 18.1084 38.7081 18.1084 38.5809 18.1089C38.3057 18.1098 38.0306 18.11 37.7554 18.1101C37.5634 18.1104 37.3714 18.1107 37.1794 18.111C36.7762 18.1116 36.3731 18.1117 35.97 18.1117C35.4562 18.1117 34.9425 18.113 34.4287 18.1146C34.0316 18.1156 33.6345 18.1158 33.2374 18.1158C33.0482 18.1159 32.859 18.1163 32.6697 18.117C30.832 18.1234 29.2676 18.0744 27.8619 16.7273C27.0106 15.788 26.7696 14.7411 26.7748 13.5028C26.7738 13.3405 26.7738 13.3405 26.7728 13.1749C26.7711 12.8197 26.7715 12.4645 26.772 12.1093C26.7717 11.9238 26.7714 11.7382 26.771 11.5527C26.7696 10.9701 26.7698 10.3875 26.7709 9.80497C26.7719 9.2066 26.7706 8.60827 26.7681 8.00991C26.766 7.49363 26.7654 6.97737 26.7659 6.46109C26.7663 6.15385 26.7659 5.84664 26.7644 5.5394C26.763 5.1964 26.764 4.85348 26.7656 4.51048C26.7647 4.41046 26.7638 4.31045 26.7629 4.2074C26.7737 3.09362 27.1844 2.02578 27.941 1.19808C28.8737 0.31959 29.891 -0.028501 31.1498 -0.0251815C31.2442 -0.0256607 31.3386 -0.0261398 31.4359 -0.0266335C31.7467 -0.0279318 32.0574 -0.027847 32.3681 -0.0276306C32.5846 -0.0279951 32.8012 -0.0284015 33.0177 -0.0288479C33.4708 -0.0295465 33.924 -0.0295209 34.3771 -0.0290268C34.9579 -0.0284825 35.5387 -0.0300737 36.1194 -0.0322466C36.5663 -0.0336269 37.0131 -0.0337101 37.46 -0.0334175C37.6742 -0.0334657 37.8883 -0.0339573 38.1025 -0.0348999C38.4016 -0.0360553 38.7007 -0.0354246 38.9999 -0.0343368C39.0883 -0.0350534 39.1768 -0.03577 39.2679 -0.0365083C39.8583 -0.031758 40.1696 0.0712725 40.6174 0.469318C40.912 0.806006 40.8866 1.11706 40.8858 1.5466C40.8858 1.6079 40.8858 1.66921 40.8859 1.73237C40.8858 1.93477 40.8851 2.13716 40.8843 2.33956C40.8842 2.47998 40.884 2.62041 40.8839 2.76083C40.8836 3.13027 40.8826 3.4997 40.8816 3.86913C40.8806 4.24617 40.8802 4.62322 40.8797 5.00026C40.8787 5.73995 40.8771 6.47963 40.8752 7.21932C41.0367 7.21637 41.0367 7.21637 41.2016 7.21337C41.6062 7.20651 42.0109 7.20225 42.4155 7.19872C42.5898 7.19685 42.7639 7.1943 42.9381 7.19103C44.4912 7.16261 45.6841 7.32681 46.8719 8.42012C47.4958 9.07686 48.0101 9.97967 48.013 10.902C48.0135 10.982 48.014 11.062 48.0145 11.1445C48.0145 11.2756 48.0145 11.2756 48.0146 11.4094C48.015 11.5027 48.0154 11.596 48.0158 11.692C48.0171 12.0054 48.0177 12.3188 48.0182 12.6323C48.019 12.8566 48.0198 13.081 48.0206 13.3054C48.0228 13.9794 48.0242 14.6535 48.0255 15.3276C48.0258 15.5181 48.0262 15.7087 48.0266 15.8992C48.0289 17.0837 48.031 18.2681 48.0322 19.4525C48.0324 19.7267 48.0327 20.001 48.033 20.2752C48.0331 20.3434 48.0331 20.4115 48.0332 20.4818C48.0344 21.5846 48.0375 22.6874 48.0414 23.7902C48.0454 24.9236 48.0476 26.0571 48.0481 27.1905C48.0484 27.8264 48.0495 28.4623 48.0526 29.0982C48.0554 29.697 48.056 30.2957 48.0549 30.8944C48.0549 31.1136 48.0557 31.3327 48.0573 31.5519C48.0688 33.1653 47.9687 34.4119 46.7814 35.6256C45.8621 36.4521 44.8787 36.7825 43.6587 36.7689C43.5228 36.7685 43.5228 36.7685 43.3841 36.7681C43.0966 36.767 42.8091 36.7647 42.5217 36.7623C42.3259 36.7613 42.1302 36.7605 41.9344 36.7597C41.4563 36.7577 40.9783 36.7544 40.5002 36.7506C40.5006 36.8722 40.501 36.9939 40.5014 37.1192C40.5052 38.2669 40.508 39.4145 40.5099 40.5621C40.5109 41.1521 40.5122 41.7421 40.5143 42.332C40.5164 42.9016 40.5175 43.4712 40.518 44.0407C40.5183 44.2578 40.519 44.4749 40.52 44.692C40.5214 44.9965 40.5215 45.301 40.5215 45.6055C40.5221 45.6949 40.5228 45.7842 40.5235 45.8763C40.5217 46.4471 40.5134 47.0497 40.1812 47.5373C39.7596 47.916 39.5093 48.0122 38.9527 48.0132C38.8447 48.0136 38.7368 48.014 38.6255 48.0144C38.5063 48.0144 38.3872 48.0144 38.2644 48.0144C38.1369 48.0147 38.0095 48.015 37.882 48.0154C37.531 48.0163 37.18 48.0167 36.829 48.0169C36.4507 48.0173 36.0724 48.0182 35.6942 48.019C34.7803 48.0209 33.8665 48.0218 32.9527 48.0227C32.5225 48.0231 32.0924 48.0236 31.6623 48.0241C30.2327 48.0257 28.8032 48.027 27.3737 48.0277C27.0027 48.0279 26.6317 48.0281 26.2607 48.0282C26.1224 48.0283 26.1224 48.0283 25.9812 48.0284C24.4867 48.0292 22.9921 48.0315 21.4975 48.0346C19.9637 48.0377 18.4299 48.0394 16.8961 48.0397C16.0347 48.0399 15.1732 48.0407 14.3118 48.0431C13.5783 48.0451 12.8449 48.0459 12.1114 48.045C11.7371 48.0445 11.3628 48.0447 10.9885 48.0465C10.6458 48.0482 10.3032 48.0481 9.96059 48.0466C9.77787 48.0463 9.59516 48.0478 9.41245 48.0494C8.81125 48.045 8.42074 48.0405 7.96892 47.6256C7.52143 47.1343 7.54235 46.6831 7.55135 46.0526C7.5513 45.9519 7.55124 45.8512 7.55118 45.7475C7.55145 45.4157 7.55436 45.084 7.5573 44.7523C7.558 44.5219 7.55853 44.2915 7.55891 44.0611C7.56034 43.4553 7.56402 42.8497 7.56817 42.244C7.57201 41.6256 7.57372 41.0072 7.57561 40.3889C7.57963 39.1761 7.58596 37.9633 7.59392 36.7506C7.47202 36.7525 7.35011 36.7545 7.22451 36.7565C6.76744 36.7634 6.31038 36.7676 5.85328 36.7712C5.65634 36.773 5.45941 36.7756 5.26249 36.7789C3.54673 36.8066 2.3672 36.6746 1.04937 35.4707C0.458863 34.8433 -0.00991414 33.9386 -0.0126727 33.0679C-0.0131484 32.9879 -0.0136238 32.9079 -0.0141139 32.8254C-0.0141606 32.738 -0.0142075 32.6505 -0.0142555 32.5604C-0.0146664 32.4672 -0.0150775 32.3739 -0.0155008 32.2779C-0.0167557 31.9644 -0.0173349 31.651 -0.0179091 31.3376C-0.0186498 31.1133 -0.019425 30.8889 -0.0202322 30.6645C-0.0224783 29.9904 -0.0239028 29.3164 -0.0251131 28.6423C-0.0254613 28.4517 -0.0258335 28.2612 -0.0262146 28.0706C-0.0285812 26.8862 -0.030648 25.7018 -0.0318144 24.5174C-0.032089 24.2432 -0.0323665 23.9689 -0.0326491 23.6947C-0.032719 23.6265 -0.0327887 23.5583 -0.0328608 23.4881C-0.0340457 22.3853 -0.0371592 21.2825 -0.0410683 20.1797C-0.045053 19.0462 -0.0472556 17.9128 -0.0477445 16.7793C-0.0480638 16.1434 -0.0491551 15.5076 -0.0522535 14.8717C-0.0550792 14.2729 -0.0556636 13.6742 -0.0545616 13.0755C-0.054541 12.8563 -0.0553154 12.6372 -0.0569663 12.418C-0.0688433 10.75 0.0708288 9.52731 1.28008 8.27803C2.12059 7.49685 3.137 7.18719 4.25957 7.20101C4.34188 7.20127 4.42419 7.20154 4.50899 7.20181C4.76973 7.20285 5.03045 7.20521 5.29119 7.2076C5.46886 7.20854 5.64653 7.2094 5.82421 7.21016C6.25787 7.21222 6.69152 7.21545 7.12517 7.21932C7.12434 7.14187 7.12351 7.06443 7.12265 6.98464C7.11512 6.25361 7.10942 5.5226 7.10574 4.79154C7.10379 4.41573 7.10114 4.03994 7.09688 3.66414C7.0928 3.30124 7.09056 2.93837 7.08959 2.57545C7.0889 2.43723 7.08755 2.29901 7.08552 2.1608C7.08279 1.96667 7.08243 1.77267 7.0826 1.57852C7.08177 1.46819 7.08094 1.35785 7.08008 1.24417C7.1527 0.751189 7.38077 0.482224 7.74605 0.155944C8.17533 -0.054718 8.53155 -0.0520569 9.0037 -0.0479553ZM10.0314 2.90682C10.0314 6.95963 10.0314 11.0124 10.0314 15.1881C10.9286 15.1881 11.8258 15.1881 12.7502 15.1881C12.7502 11.1353 12.7502 7.08244 12.7502 2.90682C11.853 2.90682 10.9558 2.90682 10.0314 2.90682ZM15.6564 2.90682C15.6564 6.95963 15.6564 11.0124 15.6564 15.1881C16.979 15.2741 16.979 15.2741 18.0353 14.69C18.3852 14.1114 18.4027 13.5844 18.4009 12.9271C18.4014 12.833 18.4019 12.7389 18.4024 12.6419C18.4037 12.3315 18.4036 12.0212 18.4034 11.7109C18.4037 11.4947 18.4041 11.2785 18.4046 11.0622C18.4053 10.6093 18.4053 10.1564 18.4048 9.70353C18.4042 9.12369 18.4058 8.54388 18.408 7.96405C18.4094 7.5176 18.4094 7.07115 18.4092 6.6247C18.4092 6.41094 18.4097 6.19718 18.4106 5.98342C18.4118 5.68432 18.4112 5.38527 18.4101 5.08616C18.4108 4.99824 18.4115 4.91031 18.4122 4.81972C18.407 4.15832 18.3064 3.7077 17.8537 3.19979C17.1513 2.58746 17.0124 2.90682 15.6564 2.90682ZM29.9767 3.37557C29.7268 3.66116 29.7071 3.9045 29.7051 4.26942C29.7045 4.35655 29.7038 4.44368 29.7031 4.53346C29.7028 4.62887 29.7026 4.72428 29.7023 4.82258C29.7017 4.92322 29.7011 5.02385 29.7005 5.12754C29.6986 5.46115 29.6975 5.79476 29.6966 6.12838C29.6962 6.24222 29.6958 6.35607 29.6954 6.47337C29.6935 7.0758 29.6921 7.67823 29.6912 8.28067C29.6902 8.9033 29.687 9.5259 29.6833 10.1485C29.6808 10.627 29.68 11.1054 29.6797 11.5839C29.6792 11.8134 29.6781 12.043 29.6764 12.2725C29.6741 12.5937 29.6742 12.9147 29.6749 13.2359C29.6737 13.3308 29.6725 13.4256 29.6712 13.5233C29.6753 14.077 29.7256 14.3911 30.0939 14.8131C30.8374 15.3521 31.4625 15.1881 32.4377 15.1881C32.4377 11.1353 32.4377 7.08244 32.4377 2.90682C30.9408 2.77272 30.9408 2.77272 29.9767 3.37557ZM35.3439 2.90682C35.3439 6.95963 35.3439 11.0124 35.3439 15.1881C36.2411 15.1881 37.1383 15.1881 38.0627 15.1881C38.0627 11.1353 38.0627 7.08244 38.0627 2.90682C37.1655 2.90682 36.2683 2.90682 35.3439 2.90682ZM10.5002 25.5006C10.5002 31.9665 10.5002 38.4324 10.5002 45.0943C19.4411 45.0943 28.382 45.0943 37.5939 45.0943C37.5939 38.6284 37.5939 32.1624 37.5939 25.5006C28.653 25.5006 19.712 25.5006 10.5002 25.5006Z" fill="white"/>
<path d="M15.5103 28.1705C15.6253 28.1698 15.7403 28.1692 15.8589 28.1685C16.1725 28.1672 16.486 28.1675 16.7996 28.1687C17.129 28.1696 17.4583 28.1687 17.7877 28.1681C18.3406 28.1675 18.8935 28.1683 19.4464 28.1701C20.0841 28.1722 20.7219 28.1715 21.3597 28.1695C21.9088 28.1677 22.4579 28.1675 23.0071 28.1685C23.3344 28.1691 23.6617 28.1692 23.989 28.1679C24.354 28.1666 24.7191 28.1684 25.0841 28.1705C25.1916 28.1697 25.299 28.169 25.4098 28.1682C26.0123 28.1746 26.5051 28.2268 27.0003 28.594C27.4107 29.0991 27.4803 29.4787 27.4842 30.1145C27.4851 30.2324 27.486 30.3504 27.4869 30.472C27.4874 30.6005 27.4878 30.729 27.4881 30.8576C27.4887 30.99 27.4892 31.1224 27.4897 31.2548C27.4907 31.5323 27.4913 31.8098 27.4916 32.0872C27.4921 32.4416 27.4944 32.7958 27.497 33.1501C27.4988 33.4237 27.4993 33.6972 27.4994 33.9708C27.4997 34.1013 27.5004 34.2319 27.5017 34.3624C27.5145 35.8171 27.5145 35.8171 27.0439 36.3511C26.6422 36.6491 26.4491 36.7619 25.9528 36.7641C25.85 36.7647 25.7473 36.7654 25.6414 36.7661C25.4714 36.7665 25.4714 36.7665 25.2981 36.7669C25.1792 36.7675 25.0603 36.7681 24.9378 36.7687C24.5428 36.7707 24.1478 36.7717 23.7528 36.7726C23.6168 36.773 23.4808 36.7734 23.3448 36.7738C22.7059 36.7756 22.067 36.7769 21.4281 36.7777C20.6907 36.7786 19.9533 36.7811 19.2159 36.7848C18.6459 36.7877 18.0759 36.7891 17.5059 36.7894C17.1655 36.7896 16.8252 36.7904 16.4848 36.7928C16.1048 36.7954 15.7248 36.795 15.3448 36.7943C15.2323 36.7955 15.1198 36.7967 15.0039 36.798C14.4294 36.7944 14.0302 36.7915 13.5941 36.3753C13.2532 35.966 13.1719 35.6851 13.1706 35.1569C13.1696 35.0624 13.1696 35.0624 13.1686 34.9659C13.1669 34.759 13.168 34.5523 13.1693 34.3454C13.169 34.2006 13.1687 34.0559 13.1682 33.9111C13.1676 33.6082 13.1684 33.3054 13.1702 33.0026C13.1723 32.6157 13.1711 32.2289 13.1688 31.842C13.1675 31.5432 13.1679 31.2444 13.1689 30.9456C13.1691 30.803 13.1688 30.6604 13.168 30.5178C13.1611 29.0791 13.1611 29.0791 13.5941 28.594C14.2337 28.1886 14.7643 28.1652 15.5103 28.1705ZM16.1253 31.1253C16.1253 32.0225 16.1253 32.9197 16.1253 33.844C18.9097 33.844 21.6941 33.844 24.5628 33.844C24.5628 32.9468 24.5628 32.0497 24.5628 31.1253C21.7785 31.1253 18.9941 31.1253 16.1253 31.1253Z" fill="white"/>
<path d="M15.5116 39.4224C15.6268 39.4219 15.7419 39.4214 15.8606 39.4209C16.1746 39.4199 16.4885 39.4206 16.8025 39.4221C17.1322 39.4234 17.4618 39.4228 17.7914 39.4225C18.3447 39.4222 18.898 39.4235 19.4513 39.4257C20.0898 39.4282 20.7283 39.4283 21.3669 39.4272C21.9828 39.4262 22.5986 39.4268 23.2145 39.4281C23.4759 39.4287 23.7373 39.4287 23.9987 39.4282C24.364 39.4277 24.7293 39.4295 25.0946 39.4315C25.2563 39.4309 25.2563 39.4309 25.4212 39.4303C26.0973 39.4365 26.6234 39.4677 27.1232 39.9675C27.4084 40.4216 27.5248 40.8004 27.4385 41.3419C27.304 41.7453 27.0078 42.0695 26.6471 42.2888C26.3945 42.3936 26.2034 42.3998 25.9301 42.4007C25.8271 42.4015 25.724 42.4023 25.6179 42.4032C25.4489 42.403 25.4489 42.403 25.2766 42.4029C25.1577 42.4035 25.0387 42.4042 24.9162 42.4048C24.5902 42.4065 24.2642 42.4069 23.9382 42.407C23.7344 42.4072 23.5306 42.4076 23.3269 42.4081C22.6156 42.4098 21.9044 42.4106 21.1931 42.4104C20.5307 42.4103 19.8682 42.4123 19.2057 42.4152C18.6365 42.4177 18.0673 42.4187 17.4981 42.4186C17.1584 42.4185 16.8186 42.4191 16.4788 42.4211C16.0998 42.4232 15.7208 42.4224 15.3417 42.4212C15.2295 42.4223 15.1172 42.4233 15.0016 42.4244C14.41 42.4199 14.0402 42.4045 13.5939 42.0007C13.2265 41.5946 13.1582 41.2624 13.1837 40.7318C13.2483 40.3074 13.3905 39.9964 13.7398 39.7354C14.3208 39.416 14.8595 39.4169 15.5116 39.4224Z" fill="white"/>
<path d="M34.1318 34.0536C34.454 34.3158 34.6922 34.553 34.7815 34.9695C34.8296 35.4668 34.8073 35.8087 34.5299 36.2311C34.2435 36.5667 33.9462 36.7173 33.5225 36.7895C33.02 36.8185 32.6764 36.748 32.2883 36.4204C31.9655 36.0814 31.8588 35.7556 31.8342 35.2976C31.8498 34.8762 31.9719 34.6366 32.2502 34.3132C32.7874 33.8164 33.4714 33.661 34.1318 34.0536Z" fill="white"/>
<path d="M34.1077 28.4041C34.4437 28.6654 34.6411 28.9464 34.7815 29.3441C34.8368 29.8418 34.8074 30.1832 34.5299 30.6057C34.2427 30.9424 33.9458 31.0953 33.5192 31.1609C33.1213 31.1795 32.861 31.1477 32.4963 30.9789C32.0739 30.5867 31.8573 30.2394 31.8284 29.6664C31.8548 29.1306 32.0979 28.8288 32.4846 28.4711C32.9661 28.1461 33.5904 28.1265 34.1077 28.4041Z" fill="white"/>
<path d="M34.1318 39.6783C34.454 39.9405 34.6922 40.1777 34.7815 40.5942C34.8296 41.0915 34.8073 41.4334 34.5299 41.8558C34.2435 42.1914 33.9462 42.342 33.5225 42.4142C33.0246 42.443 32.6743 42.3758 32.2883 42.0517C31.9757 41.7078 31.862 41.3237 31.8342 40.8696C31.8932 40.3392 32.0996 40.0773 32.4846 39.7211C32.9793 39.3872 33.6137 39.3703 34.1318 39.6783Z" fill="white"/>
</g>
<path d="M24.5624 21.1877C24.9441 21.3785 25.1762 21.5824 25.4062 21.9377C25.5627 22.5291 25.512 22.9978 25.2187 23.5314C25.1188 23.7325 25.0192 23.9337 24.9198 24.135C24.8321 24.3089 24.7443 24.4827 24.6562 24.6564C24.7287 24.6589 24.8012 24.6613 24.8759 24.6638C25.6518 24.706 26.212 24.7981 26.7655 25.3654C27.0203 25.9492 26.9872 26.58 26.7572 27.1713C26.6902 27.3218 26.6211 27.4715 26.5502 27.6202C26.5136 27.7006 26.4771 27.7811 26.4394 27.8639C26.3233 28.1179 26.2046 28.3705 26.0859 28.6232C26.0076 28.7944 25.9294 28.9656 25.8515 29.1368C25.7759 29.3013 25.7003 29.4656 25.6244 29.6299C25.572 29.7438 25.572 29.7438 25.5184 29.8599C24.9829 30.9975 24.9829 30.9975 24.4687 31.3127C23.9972 31.4698 23.593 31.4633 23.1327 31.2951C22.7983 31.0747 22.585 30.8266 22.4062 30.4689C22.2138 29.4695 22.7285 28.6178 23.1562 27.7502C23.0612 27.7467 22.9662 27.7432 22.8683 27.7396C22.7416 27.7334 22.6149 27.7272 22.4882 27.7209C22.4258 27.7188 22.3635 27.7167 22.2992 27.7145C21.74 27.6843 21.3486 27.5538 20.9706 27.135C20.6416 26.6597 20.6255 26.2555 20.7187 25.6877C20.9248 25.1096 21.236 24.5736 21.5273 24.0353C21.604 23.8892 21.6805 23.743 21.7569 23.5966C23.1034 21.0353 23.1034 21.0353 24.5624 21.1877Z" fill="white"/>
</g>
<defs>
<clipPath id="clip0_1322_607">
<rect width="48" height="48" fill="white"/>
</clipPath>
<clipPath id="clip1_1322_607">
<rect width="48" height="48" fill="white" transform="translate(0.000244141 0.000488281)"/>
</clipPath>
</defs>
</svg>
