<svg width="48" height="48" viewBox="0 0 48 48" fill="none" xmlns="http://www.w3.org/2000/svg">
<g clip-path="url(#clip0_1322_622)">
<path d="M14.502 -0.0528564C14.5932 -0.0587781 14.6844 -0.0646997 14.7784 -0.0708008C15.5583 0.104006 16.1861 0.877082 16.7345 1.42739C16.8092 1.50156 16.8838 1.57574 16.9607 1.65216C17.2049 1.89499 17.4483 2.1385 17.6917 2.38208C17.8621 2.55217 18.0326 2.72224 18.2031 2.89229C18.5591 3.24761 18.9147 3.60327 19.2702 3.95919C19.6802 4.3698 20.0911 4.77954 20.5024 5.18887C20.8997 5.58435 21.2963 5.9806 21.6925 6.37716C21.8606 6.54517 22.0289 6.71296 22.1974 6.88052C22.4325 7.11451 22.6667 7.34938 22.9008 7.5845C22.9703 7.65333 23.0399 7.72216 23.1115 7.79307C23.5729 8.25924 23.9462 8.68663 23.9473 9.37488C23.9491 9.45029 23.9509 9.5257 23.9528 9.60339C23.8478 10.1456 23.4237 10.5364 23.0435 10.9122C22.9982 10.9572 22.953 11.0022 22.9063 11.0485C22.7635 11.1903 22.6201 11.3314 22.4766 11.4725C22.3789 11.5693 22.2812 11.6661 22.1836 11.7629C21.9458 11.9987 21.7074 12.2338 21.4688 12.4686C21.8502 12.9272 22.251 13.3568 22.6758 13.7753C22.7314 13.8304 22.787 13.8856 22.8442 13.9424C22.9793 14.0764 23.1146 14.21 23.25 14.3436C23.7435 13.9315 24.2023 13.497 24.6547 13.0404C24.7264 12.9684 24.7981 12.8963 24.872 12.8221C25.0267 12.6668 25.1813 12.5113 25.3358 12.3558C25.5802 12.1097 25.825 11.8639 26.0699 11.6183C26.7658 10.9201 27.4611 10.2215 28.156 9.52242C28.5818 9.09404 29.0082 8.66613 29.4348 8.23849C29.5971 8.07554 29.7593 7.91242 29.9213 7.74912C30.1473 7.52135 30.3738 7.29417 30.6005 7.06711C30.6673 6.99941 30.7342 6.93172 30.8031 6.86197C30.896 6.76933 30.896 6.76933 30.9907 6.67481C31.0441 6.6211 31.0975 6.56738 31.1525 6.51204C31.4673 6.24216 31.7336 6.16 32.1445 6.15808C32.2602 6.15572 32.2602 6.15572 32.3782 6.15332C32.9743 6.23558 33.3421 6.5847 33.7383 7.00183C33.7849 7.04975 33.8316 7.09766 33.8796 7.14703C33.9933 7.26401 34.1061 7.38186 34.2188 7.49988C34.5689 7.35598 34.7714 7.14215 35.0273 6.86707C35.9196 5.95913 36.9807 5.46717 38.2559 5.41394C39.2383 5.43048 40.0789 5.71455 40.875 6.28113C40.9736 6.35074 41.0722 6.42035 41.1738 6.49207C42.0555 7.35419 42.5326 8.43233 42.5859 9.66199C42.5612 11.2924 41.7814 12.3087 40.6816 13.4178C40.6217 13.4759 40.5618 13.5339 40.5 13.5936C40.6468 13.954 40.877 14.1711 41.1562 14.4374C41.7802 15.0323 41.7802 15.0323 41.844 15.5236C41.8452 15.6098 41.8464 15.6961 41.8477 15.785C41.8503 15.8708 41.853 15.9566 41.8557 16.045C41.7469 16.7179 41.1431 17.1949 40.6806 17.653C40.5667 17.767 40.5667 17.767 40.4505 17.8833C40.2003 18.1333 39.9495 18.3826 39.6987 18.632C39.5248 18.8056 39.3508 18.9792 39.177 19.1529C38.7666 19.5627 38.3558 19.9719 37.9449 20.381C37.4768 20.847 37.0092 21.3136 36.5417 21.7801C35.5805 22.7394 34.6186 23.698 33.6562 24.6561C33.7463 24.7617 33.8364 24.8671 33.9265 24.9726C33.9767 25.0313 34.0269 25.0901 34.0785 25.1506C34.2266 25.3214 34.3797 25.4841 34.5403 25.6431C34.62 25.7224 34.62 25.7224 34.7014 25.8033C34.7548 25.8559 34.8082 25.9085 34.8633 25.9628C34.9189 26.0179 34.9745 26.0731 35.0317 26.1299C35.1668 26.2639 35.3021 26.3975 35.4375 26.5311C36.0596 26.0162 36.6175 25.4481 37.1805 24.87C37.2524 24.797 37.3244 24.724 37.3986 24.6488C37.4954 24.5496 37.4954 24.5496 37.5942 24.4484C37.9812 24.1023 38.3248 24.0375 38.8338 24.0549C39.603 24.1695 40.2203 24.8986 40.7431 25.4268C40.8187 25.5021 40.8943 25.5773 40.9721 25.6548C41.2195 25.9014 41.4658 26.149 41.7122 26.3967C41.8847 26.5693 42.0573 26.7418 42.2299 26.9143C42.5905 27.2748 42.9505 27.6359 43.3102 27.9973C43.7254 28.4145 44.1414 28.8308 44.5578 29.2467C44.9599 29.6482 45.3614 30.0502 45.7626 30.4525C45.9329 30.6231 46.1032 30.7936 46.2737 30.964C46.5116 31.2018 46.7488 31.4402 46.9859 31.6788C47.0563 31.749 47.1268 31.8192 47.1993 31.8915C47.6759 32.373 48.0388 32.7431 48.0527 33.451C48.0587 33.5883 48.0587 33.5883 48.0648 33.7283C47.9179 34.4145 47.2979 34.9483 46.8131 35.4298C46.7236 35.5198 46.7236 35.5198 46.6322 35.6116C46.4371 35.8076 46.2414 36.0028 46.0455 36.198C45.9087 36.3349 45.7719 36.4719 45.6351 36.6089C45.3495 36.8949 45.0635 37.1805 44.7772 37.4658C44.4107 37.8313 44.045 38.1976 43.6796 38.5641C43.3977 38.8467 43.1154 39.1288 42.8329 39.4108C42.6979 39.5457 42.563 39.6807 42.4283 39.8159C42.2401 40.0046 42.0513 40.1927 41.8623 40.3806C41.807 40.4363 41.7517 40.4919 41.6947 40.5493C41.2629 40.9767 40.9059 41.29 40.2715 41.2909C40.144 41.2936 40.144 41.2936 40.014 41.2964C39.3313 41.1761 38.8453 40.5594 38.3779 40.0895C38.2589 39.971 38.2589 39.971 38.1375 39.8501C37.9212 39.6345 37.7053 39.4185 37.4897 39.2022C37.2634 38.9755 37.0368 38.7493 36.8101 38.523C36.43 38.1431 36.0502 37.7629 35.6706 37.3825C35.2321 36.9429 34.7928 36.504 34.3532 36.0654C33.9752 35.6883 33.5976 35.3108 33.2203 34.933C32.9952 34.7076 32.77 34.4823 32.5444 34.2573C32.2932 34.0067 32.0427 33.7554 31.7923 33.504C31.7176 33.4296 31.6429 33.3553 31.5659 33.2787C31.4979 33.2101 31.4298 33.1415 31.3597 33.0708C31.2708 32.9819 31.2708 32.9819 31.1801 32.8911C30.9048 32.5722 30.8151 32.305 30.8086 31.8866C30.8059 31.8095 30.8033 31.7324 30.8005 31.653C30.8963 31.1062 31.3249 30.7147 31.7065 30.3375C31.7744 30.2701 31.7744 30.2701 31.8437 30.2012C31.9865 30.0594 32.1299 29.9183 32.2734 29.7772C32.3711 29.6805 32.4688 29.5837 32.5664 29.4868C32.8042 29.2511 33.0426 29.0159 33.2812 28.7811C32.8998 28.3226 32.499 27.893 32.0742 27.4745C32.0186 27.4193 31.963 27.3642 31.9058 27.3073C31.7707 27.1734 31.6354 27.0397 31.5 26.9061C30.9056 27.391 30.3719 27.9322 29.8338 28.4773C29.6653 28.6478 29.4965 28.8179 29.3276 28.988C28.8477 29.4709 28.3683 29.9543 27.8898 30.4386C27.5961 30.7359 27.3016 31.0325 27.0067 31.3287C26.8949 31.4413 26.7833 31.5542 26.6719 31.6673C26.5165 31.8253 26.3602 31.9823 26.2036 32.1392C26.1581 32.1858 26.1126 32.2325 26.0658 32.2806C25.6958 32.6484 25.3429 32.836 24.8203 32.8593C23.707 32.8038 22.8464 31.5968 22.1191 30.8553C21.9921 30.7269 21.8649 30.5984 21.7377 30.4701C21.4286 30.1578 21.1203 29.8447 20.8125 29.5311C20.4972 29.6678 20.2926 29.8416 20.0522 30.0856C19.9815 30.1569 19.9109 30.2282 19.838 30.3016C19.7651 30.3761 19.6923 30.4505 19.6172 30.5272C19.5429 30.6024 19.4685 30.6776 19.392 30.755C19.2088 30.9404 19.0261 31.1262 18.8438 31.3124C18.9013 31.4166 18.9013 31.4166 18.96 31.5229C19.1102 31.7957 19.2582 32.0696 19.4062 32.3436C19.4476 32.4177 19.4889 32.4918 19.5315 32.5681C20.7029 34.758 20.8441 37.3876 20.1562 39.7499C19.651 41.3022 18.7764 42.8952 17.4375 43.8749C17.2114 43.9879 17.0569 43.9875 16.8047 43.9921C16.7259 43.9945 16.6471 43.9969 16.5659 43.9994C15.9337 43.9226 15.5439 43.52 15.1208 43.0857C15.0346 42.9989 15.0346 42.9989 14.9467 42.9103C14.7646 42.7266 14.5835 42.542 14.4023 42.3573C14.2785 42.2321 14.1546 42.1069 14.0306 41.9818C13.728 41.676 13.4263 41.3694 13.125 41.0624C13.0193 41.1522 12.9137 41.2422 12.8082 41.3323C12.72 41.4074 12.72 41.4074 12.63 41.4841C12.4584 41.6339 12.3014 41.7919 12.1465 41.9589C11.3125 42.7947 10.249 43.1583 9.07617 43.1659C8.04896 43.1483 7.31538 42.8471 6.46875 42.2811C6.38561 42.227 6.30246 42.1728 6.2168 42.1171C5.32092 41.2454 4.8688 40.1879 4.8457 38.953C4.84427 37.5605 5.35715 36.5482 6.32041 35.5678C6.52348 35.3652 6.72967 35.1663 6.9375 34.9686C6.39972 34.3121 5.79251 33.7273 5.18401 33.1375C5.04582 33.0033 4.90854 32.8682 4.77136 32.7329C4.64933 32.614 4.64933 32.614 4.52483 32.4927C4.18757 32.107 3.99106 31.7345 3.99023 31.2186C3.98842 31.1432 3.98661 31.0678 3.98474 30.9901C4.13918 30.1924 4.9687 29.5835 5.60005 29.1342C7.81593 27.6519 10.4331 27.1176 13.0547 27.6151C14.3453 27.8886 15.5182 28.3918 16.5938 29.1561C17.2648 28.6099 17.8618 27.99 18.4688 27.3749C18.3485 27.1102 18.2244 26.9206 18.0163 26.7181C17.9631 26.6659 17.9099 26.6136 17.8551 26.5597C17.7978 26.5042 17.7405 26.4488 17.6814 26.3916C17.5598 26.2719 17.4382 26.1522 17.3167 26.0325C17.1254 25.8453 16.9338 25.6583 16.7421 25.4716C16.5565 25.2906 16.3719 25.1087 16.1873 24.9268C16.1303 24.8719 16.0734 24.8169 16.0147 24.7604C15.6187 24.369 15.2551 23.9577 15.141 23.396C15.1437 23.2976 15.1437 23.2976 15.1465 23.1971C15.1466 23.1313 15.1467 23.0654 15.1469 22.9976C15.2552 22.4204 15.6109 22.0365 16.017 21.6384C16.0719 21.5835 16.1268 21.5285 16.1834 21.4719C16.3638 21.2917 16.5452 21.1125 16.7267 20.9332C16.8525 20.808 16.9782 20.6827 17.1038 20.5573C17.4338 20.2284 17.7646 19.9003 18.0956 19.5725C18.4336 19.2374 18.7707 18.9015 19.108 18.5657C19.7691 17.9075 20.4312 17.2503 21.0938 16.5936C20.6661 16.0871 20.6661 16.0871 20.2097 15.6067C20.1565 15.5538 20.1034 15.5009 20.0486 15.4465C19.9952 15.3938 19.9418 15.3412 19.8867 15.287C19.8311 15.2318 19.7755 15.1767 19.7183 15.1198C19.5832 14.9859 19.4479 14.8522 19.3125 14.7186C18.6904 15.2336 18.1325 15.8017 17.5695 16.3798C17.4976 16.4528 17.4256 16.5257 17.3514 16.601C17.2546 16.7002 17.2546 16.7002 17.1558 16.8014C16.8322 17.0908 16.568 17.1846 16.1367 17.1913C16.0596 17.1939 15.9825 17.1966 15.9031 17.1993C15.2324 17.0819 14.7423 16.4563 14.2841 15.9958C14.2048 15.9168 14.1255 15.8378 14.0437 15.7564C13.8274 15.5408 13.6116 15.3247 13.3959 15.1085C13.1697 14.8818 12.943 14.6555 12.7164 14.4292C12.3362 14.0494 11.9564 13.6692 11.5769 13.2887C11.1383 12.8491 10.6991 12.4102 10.2595 11.9716C9.8815 11.5945 9.50388 11.217 9.12656 10.8392C8.90145 10.6138 8.67621 10.3885 8.45064 10.1636C8.19949 9.9129 7.94896 9.66164 7.69858 9.41022C7.62387 9.33589 7.54916 9.26156 7.47219 9.18498C7.40411 9.11637 7.33604 9.04777 7.26591 8.97709C7.17704 8.88812 7.17704 8.88812 7.08638 8.79735C6.80306 8.46913 6.71787 8.18786 6.70312 7.75769C6.69587 7.63225 6.69587 7.63225 6.68848 7.50427C6.83481 6.82489 7.46741 6.28621 7.94701 5.80986C8.00775 5.74879 8.06849 5.68771 8.13108 5.62479C8.32968 5.42537 8.52895 5.22664 8.72827 5.02795C8.86742 4.88868 9.00655 4.74937 9.14565 4.61004C9.43612 4.31929 9.72693 4.02888 10.018 3.73871C10.391 3.36673 10.7632 2.99391 11.1352 2.62084C11.4218 2.33354 11.7089 2.0467 11.9961 1.75998C12.1335 1.62264 12.2708 1.48516 12.408 1.34754C12.5994 1.15569 12.7914 0.96445 12.9835 0.773361C13.04 0.716479 13.0965 0.659597 13.1547 0.600992C13.2336 0.522954 13.2336 0.522954 13.314 0.443339C13.3592 0.398166 13.4045 0.352993 13.4511 0.306451C13.7792 0.0325944 14.0798 -0.0357492 14.502 -0.0528564ZM14.2584 3.71898C14.1855 3.79226 14.1126 3.86554 14.0376 3.94104C13.9137 4.06492 13.9137 4.06492 13.7873 4.1913C13.6972 4.28243 13.607 4.37357 13.5168 4.46472C13.4247 4.55725 13.3325 4.64973 13.2402 4.74217C12.9972 4.98589 12.7548 5.23017 12.5124 5.47457C12.2652 5.72374 12.0174 5.97238 11.7697 6.22107C11.2834 6.70932 10.7978 7.19816 10.3125 7.68738C10.4602 7.99908 10.6202 8.20453 10.8669 8.44763C10.9382 8.51833 11.0095 8.58903 11.083 8.66187C11.1575 8.73474 11.2319 8.80761 11.3086 8.88269C11.3838 8.95701 11.4589 9.03134 11.5364 9.10791C11.7218 9.29108 11.9076 9.4738 12.0938 9.65613C12.6297 9.21069 13.1228 8.73305 13.6139 8.23889C13.6941 8.15853 13.7743 8.07817 13.857 7.99538C14.1113 7.74059 14.3652 7.48547 14.6191 7.23035C14.7923 7.05674 14.9654 6.88316 15.1386 6.70959C15.5614 6.28577 15.9839 5.86168 16.4062 5.43738C16.0224 4.98517 15.6301 4.55043 15.2109 4.13074C15.1569 4.07557 15.1029 4.0204 15.0472 3.96356C14.9102 3.82604 14.768 3.69371 14.625 3.56238C14.4214 3.54181 14.4214 3.54181 14.2584 3.71898ZM18.2973 7.66004C18.1852 7.77246 18.1852 7.77246 18.0708 7.88715C17.9442 8.01384 17.9442 8.01384 17.8149 8.14309C17.7222 8.2363 17.6295 8.32951 17.5367 8.42273C17.4423 8.51733 17.3479 8.61192 17.2534 8.70649C17.0043 8.95596 16.7554 9.20572 16.5067 9.45553C16.253 9.71019 15.999 9.96458 15.7451 10.219C15.2464 10.7186 14.7481 11.2185 14.25 11.7186C14.6776 12.2252 14.6776 12.2252 15.134 12.7056C15.1872 12.7584 15.2404 12.8113 15.2952 12.8658C15.3753 12.9447 15.3753 12.9447 15.457 13.0253C15.5404 13.108 15.5404 13.108 15.6255 13.1924C15.7605 13.3264 15.8959 13.46 16.0312 13.5936C16.3544 13.4546 16.5631 13.272 16.8103 13.0234C16.9285 12.9052 16.9285 12.9052 17.0491 12.7846C17.1333 12.6994 17.2175 12.6142 17.3042 12.5265C17.4345 12.3958 17.4345 12.3958 17.5674 12.2625C17.7978 12.0314 18.0276 11.7997 18.2573 11.568C18.492 11.3314 18.7272 11.0953 18.9624 10.8591C19.4234 10.3961 19.8838 9.93258 20.3438 9.46863C20.1965 9.15833 20.0372 8.95153 19.7926 8.70837C19.6863 8.60233 19.6863 8.60233 19.5778 8.49414C19.5038 8.42127 19.4298 8.3484 19.3535 8.27332C19.2419 8.16183 19.2419 8.16183 19.1281 8.0481C18.7491 7.55034 18.7491 7.55034 18.2973 7.66004ZM36.9853 9.0135C36.7785 9.22475 36.5756 9.43894 36.375 9.65613C36.7723 10.1311 37.1882 10.5749 37.6289 11.0096C37.689 11.0693 37.749 11.1289 37.8109 11.1904C37.9571 11.3354 38.1034 11.4803 38.25 11.6249C39.2367 10.8182 39.2367 10.8182 39.6562 9.65613C39.5719 9.22613 39.403 8.93415 39.0938 8.62488C38.2375 8.18926 37.6543 8.35529 36.9853 9.0135ZM31.6899 10.0983C31.6386 10.1501 31.5874 10.2019 31.5346 10.2553C31.48 10.3096 31.4255 10.364 31.3693 10.42C31.1855 10.6035 31.0023 10.7877 30.8192 10.9719C30.688 11.1031 30.5568 11.2343 30.4256 11.3654C30.0684 11.7225 29.7118 12.0802 29.3553 12.4381C28.983 12.8115 28.6102 13.1844 28.2375 13.5574C27.5312 14.2642 26.8254 14.9715 26.1198 15.679C25.3167 16.4843 24.5131 17.2889 23.7094 18.0936C22.0556 19.7493 20.4026 21.4056 18.75 23.0624C18.9286 23.4508 19.1913 23.7162 19.4924 24.0135C19.5491 24.0703 19.6058 24.127 19.6642 24.1855C19.8515 24.3726 20.0394 24.559 20.2273 24.7455C20.3574 24.8752 20.4874 25.005 20.6174 25.1348C20.9595 25.4762 21.3021 25.8169 21.6448 26.1576C21.9946 26.5054 22.3438 26.8537 22.693 27.202C23.3781 27.8852 24.0639 28.5677 24.75 29.2499C25.1306 29.0982 25.3856 28.8274 25.6684 28.5416C25.7223 28.4878 25.7762 28.434 25.8318 28.3787C26.0124 28.1983 26.1924 28.0173 26.3724 27.8363C26.5017 27.7069 26.6311 27.5775 26.7605 27.4482C27.1119 27.0969 27.4627 26.745 27.8133 26.393C28.1799 26.0254 28.5469 25.6582 28.9139 25.291C29.6089 24.5954 30.3033 23.8994 30.9977 23.2032C31.7881 22.4107 32.5791 21.6187 33.3701 20.8267C34.9973 19.1975 36.6239 17.5677 38.25 15.9374C38.0717 15.5499 37.8102 15.2837 37.5106 14.9862C37.4542 14.9295 37.3978 14.8727 37.3397 14.8143C37.1533 14.6271 36.9663 14.4407 36.7793 14.2543C36.6497 14.1245 36.5201 13.9947 36.3905 13.8649C36.1191 13.5932 35.8473 13.3219 35.5753 13.0507C35.226 12.7025 34.8775 12.3534 34.5293 12.004C34.2619 11.736 33.9942 11.4685 33.7263 11.2011C33.5976 11.0725 33.469 10.9437 33.3405 10.8149C33.1614 10.6353 32.9817 10.4563 32.8019 10.2775C32.7485 10.2237 32.6951 10.17 32.6401 10.1146C32.2077 9.68682 32.1242 9.6674 31.6899 10.0983ZM38.3521 27.8127C38.2792 27.886 38.2064 27.9593 38.1313 28.0348C38.0074 28.1587 38.0074 28.1587 37.8811 28.285C37.7909 28.3762 37.7007 28.4673 37.6106 28.5585C37.5184 28.651 37.4262 28.7435 37.334 28.8359C37.0909 29.0796 36.8485 29.3239 36.6062 29.5683C36.3589 29.8175 36.1111 30.0661 35.8634 30.3148C35.3772 30.8031 34.8915 31.2919 34.4062 31.7811C34.554 32.0928 34.7139 32.2983 34.9607 32.5414C35.032 32.6121 35.1033 32.6828 35.1768 32.7556C35.2512 32.8285 35.3256 32.9014 35.4023 32.9764C35.4775 33.0508 35.5527 33.1251 35.6301 33.2017C35.8155 33.3848 36.0013 33.5675 36.1875 33.7499C36.7235 33.3044 37.2166 32.8268 37.7076 32.3326C37.7879 32.2523 37.8681 32.1719 37.9507 32.0891C38.205 31.8343 38.459 31.5792 38.7129 31.3241C38.886 31.1505 39.0592 30.9769 39.2324 30.8033C39.6552 30.3795 40.0777 29.9554 40.5 29.5311C40.1162 29.0789 39.7239 28.6442 39.3047 28.2245C39.2507 28.1693 39.1966 28.1142 39.141 28.0573C39.0039 27.9198 38.8617 27.7875 38.7188 27.6561C38.5151 27.6356 38.5151 27.6356 38.3521 27.8127ZM7.6875 31.3124C7.82207 31.6195 7.9874 31.8233 8.22372 32.0599C8.29628 32.133 8.36884 32.2061 8.4436 32.2814C8.56312 32.4003 8.56312 32.4003 8.68506 32.5217C8.76891 32.6059 8.85276 32.6901 8.93915 32.7768C9.16882 33.0073 9.39908 33.2372 9.62948 33.467C9.8704 33.7075 10.1109 33.9484 10.3514 34.1892C10.7552 34.5934 11.1594 34.9971 11.5638 35.4007C12.0319 35.8677 12.4992 36.3354 12.9662 36.8034C13.367 37.205 13.7681 37.6063 14.1696 38.0072C14.4094 38.2468 14.6492 38.4865 14.8886 38.7265C15.1552 38.9937 15.4225 39.2602 15.6899 39.5266C15.7696 39.6066 15.8493 39.6867 15.9314 39.7692C16.004 39.8412 16.0765 39.9132 16.1513 39.9875C16.2145 40.0506 16.2776 40.1137 16.3428 40.1787C16.4894 40.3326 16.4894 40.3326 16.6875 40.3124C17.6067 38.6947 17.9123 36.9498 17.4286 35.1392C16.9787 33.6249 16.1025 32.4093 14.8125 31.4999C14.7045 31.4234 14.7045 31.4234 14.5942 31.3453C12.4671 29.9578 9.83592 30.0917 7.6875 31.3124ZM42.3911 31.7538C42.279 31.8662 42.279 31.8662 42.1646 31.9809C42.0379 32.1076 42.0379 32.1076 41.9087 32.2368C41.8159 32.3301 41.7232 32.4233 41.6305 32.5165C41.5361 32.6111 41.4416 32.7057 41.3471 32.8002C41.098 33.0497 40.8492 33.2995 40.6004 33.5493C40.3467 33.8039 40.0927 34.0583 39.8388 34.3127C39.3402 34.8124 38.8419 35.3123 38.3438 35.8124C38.7714 36.3189 38.7714 36.3189 39.2278 36.7993C39.281 36.8522 39.3341 36.9051 39.3889 36.9595C39.469 37.0385 39.469 37.0385 39.5508 37.119C39.6342 37.2018 39.6342 37.2018 39.7192 37.2862C39.8543 37.4201 39.9896 37.5538 40.125 37.6874C40.4481 37.5483 40.6569 37.3658 40.904 37.1171C41.0222 36.9989 41.0222 36.9989 41.1428 36.8783C41.227 36.7931 41.3112 36.708 41.3979 36.6202C41.5282 36.4895 41.5282 36.4895 41.6612 36.3562C41.8915 36.1251 42.1213 35.8935 42.351 35.6617C42.5857 35.4251 42.821 35.189 43.0562 34.9529C43.5171 34.4899 43.9775 34.0263 44.4375 33.5624C44.2903 33.2521 44.131 33.0453 43.8864 32.8021C43.78 32.6961 43.78 32.6961 43.6716 32.5879C43.5975 32.515 43.5235 32.4421 43.4473 32.3671C43.3357 32.2556 43.3357 32.2556 43.2219 32.1418C42.8429 31.6441 42.8429 31.6441 42.3911 31.7538ZM8.53711 37.4647C8.45505 37.5452 8.373 37.6257 8.28845 37.7086C7.91244 38.1413 7.72579 38.5285 7.74756 39.0977C7.82339 39.5106 8.11916 39.8619 8.4375 40.1249C8.93127 40.2895 9.31792 40.2817 9.79102 40.0839C10.2431 39.7961 10.6035 39.3875 10.9688 38.9999C10.8326 38.6875 10.6608 38.4803 10.4209 38.2396C10.3504 38.1689 10.28 38.0982 10.2074 38.0254C10.1338 37.9525 10.0602 37.8796 9.98438 37.8046C9.91078 37.7302 9.83718 37.6559 9.76135 37.5793C9.6909 37.5091 9.62044 37.4389 9.54785 37.3666C9.48326 37.3022 9.41866 37.2378 9.35211 37.1715C8.99137 36.8639 8.81605 37.187 8.53711 37.4647Z" fill="white"/>
<path d="M2.13865 40.6054C2.68678 41.0752 2.87296 41.4152 2.9531 42.1171C3.10116 43.1106 3.37856 43.8148 4.17771 44.4667C4.76129 44.8707 5.31129 45.0036 6.0117 45.0761C6.57444 45.1436 6.87781 45.283 7.27915 45.6793C7.58813 46.0791 7.5416 46.5822 7.49998 47.0624C7.33605 47.4723 7.03422 47.7737 6.65623 47.9999C6.38804 48.0644 6.13402 48.0625 5.85935 48.0527C5.78506 48.051 5.71077 48.0493 5.63423 48.0475C4.06533 47.9844 2.69025 47.3139 1.60632 46.1978C0.444263 44.9327 -0.0785197 43.4506 -0.0457977 41.7524C-0.014677 41.2872 0.143188 41.0238 0.485208 40.7076C0.956823 40.3935 1.62479 40.3999 2.13865 40.6054Z" fill="white"/>
</g>
<defs>
<clipPath id="clip0_1322_622">
<rect width="48" height="48" fill="white"/>
</clipPath>
</defs>
</svg>
