<svg width="48" height="48" viewBox="0 0 48 48" fill="none" xmlns="http://www.w3.org/2000/svg">
<g clip-path="url(#clip0_1322_492)">
<path d="M17.1927 2.51687C17.3163 2.5162 17.44 2.51553 17.5674 2.51484C17.7043 2.51457 17.8412 2.51432 17.9781 2.51408C18.1225 2.51349 18.2668 2.51287 18.4111 2.51221C18.885 2.51024 19.3589 2.50927 19.8328 2.50833C19.9962 2.50795 20.1596 2.50757 20.3231 2.50717C21.0912 2.50539 21.8593 2.50405 22.6274 2.50327C23.5125 2.50236 24.3976 2.49989 25.2827 2.4961C25.9678 2.49327 26.6528 2.49188 27.3379 2.49157C27.7466 2.49135 28.1552 2.49052 28.5639 2.48816C28.9489 2.48596 29.3338 2.48558 29.7188 2.48654C29.8595 2.48659 30.0001 2.486 30.1407 2.48471C31.4484 2.47335 32.5058 2.75163 33.4822 3.65567C34.1336 4.33746 34.6055 5.19774 34.6028 6.15662C34.6028 6.24293 34.6028 6.32924 34.6028 6.41817C34.6023 6.51056 34.6018 6.60296 34.6013 6.69815C34.6012 6.84094 34.6012 6.84094 34.6009 6.98661C34.6004 7.29036 34.5992 7.59411 34.5981 7.89786C34.5976 8.10391 34.5972 8.30997 34.5968 8.51602C34.5957 9.02091 34.5942 9.52579 34.5922 10.0307C34.7146 10.03 34.837 10.0294 34.9632 10.0288C36.119 10.0231 37.2748 10.0189 38.4307 10.0161C39.0249 10.0146 39.619 10.0126 40.2132 10.0095C40.787 10.0064 41.3609 10.0047 41.9347 10.004C42.1532 10.0035 42.3717 10.0025 42.5902 10.0009C42.8971 9.99888 43.2041 9.99861 43.511 9.99874C43.6006 9.99773 43.6901 9.99672 43.7824 9.99568C44.9686 10.0011 46.0081 10.4405 46.8811 11.2421C47.7779 12.2137 48.0413 13.2133 48.0354 14.5014C48.036 14.6192 48.0366 14.7369 48.0371 14.8583C48.0387 15.1832 48.0385 15.5082 48.038 15.8332C48.0377 16.1844 48.0391 16.5356 48.0402 16.8869C48.0422 17.5743 48.0426 18.2617 48.0425 18.9491C48.0423 19.5082 48.0427 20.0672 48.0434 20.6263C48.0436 20.7875 48.0438 20.9488 48.044 21.1101C48.0441 21.2305 48.0441 21.2305 48.0443 21.3533C48.046 22.8704 48.0459 24.3875 48.0453 25.9046C48.0448 27.2908 48.0467 28.677 48.0498 30.0632C48.053 31.4882 48.0544 32.9132 48.054 34.3382C48.0538 35.1376 48.0543 35.937 48.0566 36.7363C48.0586 37.417 48.0589 38.0976 48.0571 38.7782C48.0563 39.1251 48.0562 39.4719 48.0581 39.8188C48.0602 40.1958 48.0586 40.5728 48.0567 40.9498C48.0579 41.0581 48.0591 41.1663 48.0603 41.2778C48.0467 42.5289 47.5798 43.5197 46.7185 44.4095C45.9454 45.128 44.9503 45.4986 43.9016 45.4923C43.8316 45.4926 43.7615 45.493 43.6893 45.4933C43.4549 45.4942 43.2205 45.4937 42.9861 45.4932C42.8162 45.4936 42.6463 45.494 42.4763 45.4945C42.0097 45.4957 41.543 45.4957 41.0764 45.4954C40.573 45.4954 40.0696 45.4964 39.5662 45.4973C38.58 45.4989 37.5938 45.4994 36.6076 45.4995C35.8059 45.4996 35.0042 45.5 34.2025 45.5006C31.9294 45.5022 29.6563 45.5031 27.3832 45.5029C27.2606 45.5029 27.1381 45.5029 27.0118 45.5029C26.8891 45.5029 26.7664 45.5029 26.64 45.5029C24.6518 45.5028 22.6635 45.5046 20.6752 45.5073C18.6336 45.5099 16.5919 45.5112 14.5502 45.5111C13.404 45.511 12.2578 45.5115 11.1117 45.5136C10.1357 45.5153 9.15977 45.5157 8.18382 45.5144C7.68603 45.5138 7.18825 45.5138 6.69045 45.5154C6.23434 45.5169 5.77826 45.5166 5.32214 45.515C5.15754 45.5147 4.99294 45.515 4.82835 45.5161C3.37005 45.5247 2.22886 45.2818 1.12674 44.2674C0.464991 43.5709 -0.0119657 42.6617 -0.0144005 41.6932C-0.0148762 41.5927 -0.0153523 41.4921 -0.0158424 41.3885C-0.0158891 41.278 -0.015936 41.1676 -0.0159841 41.0538C-0.0163949 40.9365 -0.0168053 40.8191 -0.0172286 40.6981C-0.0183492 40.3721 -0.0188801 40.0461 -0.0193086 39.7201C-0.0198674 39.3685 -0.0209557 39.017 -0.0219607 38.6654C-0.024259 37.8161 -0.0256314 36.9668 -0.0268416 36.1176C-0.0271897 35.8776 -0.0275619 35.6376 -0.0279431 35.3976C-0.0303094 33.9067 -0.032376 32.4157 -0.0335422 30.9248C-0.0338168 30.5795 -0.034095 30.2342 -0.0343776 29.8888C-0.0344475 29.803 -0.0345172 29.7172 -0.0345893 29.6288C-0.0357747 28.2395 -0.0388882 26.8503 -0.0427961 25.461C-0.0467776 24.0339 -0.048983 22.6068 -0.0494723 21.1797C-0.0497919 20.3787 -0.0508888 19.5778 -0.0539827 18.7768C-0.0566143 18.0945 -0.0576359 17.4121 -0.0565891 16.7298C-0.0561045 16.382 -0.0563624 16.0342 -0.0586948 15.6864C-0.0612091 15.3083 -0.0600427 14.9303 -0.0585561 14.5522C-0.0605082 14.3893 -0.0605084 14.3893 -0.0625 14.2232C-0.0508703 13.0173 0.376208 12.0186 1.21719 11.1557C1.94225 10.4811 2.90237 10.0182 3.90083 10.0194C3.98509 10.0193 4.06935 10.0191 4.15616 10.019C4.2474 10.0193 4.33864 10.0197 4.43264 10.02C4.57813 10.02 4.57813 10.02 4.72656 10.02C5.04664 10.0201 5.36672 10.0208 5.6868 10.0215C5.90893 10.0217 6.13106 10.0218 6.35319 10.0219C6.93747 10.0223 7.52175 10.0232 8.10603 10.0242C8.70239 10.0252 9.29875 10.0256 9.89511 10.0261C11.065 10.0271 12.2348 10.0287 13.4047 10.0307C13.4039 9.97893 13.403 9.9272 13.4022 9.87389C13.3938 9.33088 13.3882 8.78788 13.3841 8.24482C13.3822 8.04269 13.3797 7.84057 13.3764 7.63847C13.3718 7.34638 13.3697 7.05436 13.3681 6.76224C13.3661 6.67323 13.3642 6.58422 13.3622 6.49252C13.3618 5.3944 13.7876 4.44222 14.5297 3.64066C15.2815 2.92243 16.1542 2.52074 17.1927 2.51687ZM16.4984 5.81192C15.7176 6.98315 16.3109 8.62303 16.3109 10.0307C21.3847 10.0307 26.4584 10.0307 31.6859 10.0307C31.9589 7.66604 31.9589 7.66604 31.3109 5.62442C30.983 5.40581 30.8528 5.41303 30.4652 5.41185C30.2881 5.41065 30.2881 5.41065 30.1075 5.40943C29.9764 5.40949 29.8454 5.40958 29.7143 5.40968C29.5765 5.40912 29.4387 5.40848 29.3008 5.40778C28.9262 5.40612 28.5516 5.40568 28.177 5.40556C27.8643 5.40538 27.5517 5.40469 27.239 5.40403C26.5014 5.4025 25.7637 5.40204 25.0261 5.40218C24.265 5.40229 23.504 5.40031 22.743 5.39735C22.0897 5.3949 21.4364 5.39389 20.7831 5.39401C20.3929 5.39406 20.0027 5.39352 19.6125 5.39154C19.2454 5.38973 18.8784 5.38971 18.5113 5.39107C18.3767 5.39127 18.242 5.39083 18.1074 5.38969C17.9234 5.38825 17.7395 5.38934 17.5555 5.39056C17.4012 5.39041 17.4012 5.39041 17.2437 5.39025C16.8996 5.44832 16.7472 5.57166 16.4984 5.81192ZM3.11563 13.4877C2.7814 13.9519 2.79737 14.3914 2.8003 14.9481C2.80029 15.0167 2.80027 15.0854 2.80026 15.1561C2.80032 15.3818 2.80105 15.6076 2.80179 15.8333C2.80196 15.9903 2.8021 16.1472 2.80219 16.3042C2.80255 16.7165 2.80347 17.1288 2.80451 17.541C2.80547 17.9621 2.80589 18.3831 2.80637 18.8042C2.80737 19.6297 2.80897 20.4552 2.81094 21.2807C4.27047 21.3202 5.72985 21.3499 7.18978 21.3681C7.86779 21.3768 8.54546 21.3886 9.22325 21.408C9.8145 21.4249 10.4055 21.4357 10.997 21.4394C11.3101 21.4416 11.622 21.4476 11.9349 21.4591C13.2137 21.555 13.2137 21.555 14.3654 21.117C14.7214 20.7204 14.9517 20.2802 15.173 19.7989C15.4431 19.278 15.8974 18.8761 16.3109 18.4682C16.3778 18.4015 16.4446 18.3348 16.5135 18.266C18.5261 16.37 21.2616 15.4557 23.9984 15.4682C26.6689 15.5668 29.1323 16.4884 31.1234 18.2807C31.2012 18.3496 31.2789 18.4184 31.3589 18.4894C32.0056 19.0965 32.487 19.7933 32.9698 20.5315C33.0102 20.5931 33.0506 20.6547 33.0922 20.7182C33.1335 20.8135 33.1749 20.9089 33.2174 21.0071C33.5031 21.32 33.5542 21.3236 33.9572 21.3483C34.1666 21.3499 34.3761 21.3484 34.5855 21.3445C34.757 21.3447 34.757 21.3447 34.932 21.3448C35.2453 21.3445 35.5583 21.3416 35.8716 21.3377C36.199 21.3342 36.5264 21.3339 36.8539 21.3332C37.4738 21.3314 38.0936 21.3268 38.7135 21.3212C39.4193 21.3149 40.1251 21.3118 40.8309 21.309C42.2826 21.3031 43.7343 21.2932 45.1859 21.2807C45.1903 20.3752 45.1936 19.4698 45.1957 18.5644C45.1966 18.1439 45.198 17.7235 45.2001 17.303C45.2021 16.8969 45.2032 16.4909 45.2037 16.0848C45.2041 15.9302 45.2048 15.7756 45.2058 15.621C45.2071 15.4038 45.2073 15.1866 45.2072 14.9694C45.2076 14.8459 45.2081 14.7225 45.2085 14.5953C45.1758 14.0932 45.1047 13.6283 44.7231 13.2768C44.6522 13.209 44.6522 13.209 44.5799 13.1398C44.2456 12.8864 43.8936 12.925 43.4918 12.9246C43.4236 12.9244 43.3553 12.9242 43.285 12.924C43.0545 12.9235 42.8241 12.9236 42.5936 12.9238C42.4274 12.9235 42.2612 12.9232 42.095 12.9229C41.637 12.9222 41.1789 12.922 40.7208 12.9219C40.2273 12.9217 39.7338 12.921 39.2403 12.9204C38.1607 12.9191 37.081 12.9186 36.0013 12.9182C35.3276 12.9179 34.6539 12.9175 33.9802 12.9171C32.116 12.9159 30.2518 12.915 28.3876 12.9146C28.2682 12.9146 28.1489 12.9146 28.0259 12.9146C27.8464 12.9146 27.8464 12.9146 27.6633 12.9145C27.4208 12.9145 27.1783 12.9144 26.9359 12.9144C26.8156 12.9144 26.6953 12.9144 26.5714 12.9143C24.6215 12.914 22.6715 12.9123 20.7216 12.9101C18.7212 12.9079 16.7207 12.9068 14.7203 12.9066C13.5965 12.9066 12.4727 12.906 11.3489 12.9043C10.3921 12.9029 9.43542 12.9024 8.47869 12.9032C7.99028 12.9035 7.50189 12.9034 7.01348 12.9021C6.5667 12.9009 6.11994 12.901 5.67316 12.9022C5.51121 12.9024 5.34926 12.9021 5.18732 12.9013C4.96774 12.9002 4.74824 12.9009 4.52866 12.9021C4.34547 12.902 4.34547 12.902 4.15857 12.9019C3.67363 12.9556 3.44747 13.1408 3.11563 13.4877ZM18.1142 20.6837C16.6574 22.2165 15.8761 24.1468 15.807 26.2494C15.87 28.2465 16.584 30.0918 17.9047 31.5932C17.9984 31.7003 17.9984 31.7003 18.094 31.8096C19.4555 33.2671 21.4379 34.1218 23.4125 34.239C25.5542 34.307 27.4842 33.6145 29.0961 32.2025C29.2423 32.0637 29.387 31.9231 29.5297 31.7807C29.595 31.7165 29.6602 31.6523 29.7274 31.5862C31.079 30.1692 31.7538 28.1848 31.8149 26.2494C31.7385 23.9229 30.7777 21.8786 29.0844 20.2787C25.8145 17.4492 21.1772 17.7678 18.1142 20.6837ZM2.81094 24.1869C2.80671 26.4003 2.80326 28.6136 2.80123 30.8269C2.80026 31.8546 2.79894 32.8823 2.7968 33.91C2.79493 34.8058 2.79372 35.7015 2.7933 36.5973C2.79306 37.0716 2.79248 37.5459 2.79112 38.0201C2.78985 38.4667 2.78946 38.9132 2.78974 39.3597C2.78969 39.5235 2.78931 39.6872 2.78859 39.851C2.78766 40.0749 2.78789 40.2988 2.7884 40.5227C2.78785 40.5872 2.7873 40.6517 2.78674 40.7181C2.79017 41.2763 2.85565 41.7409 3.22696 42.1693C4.19911 42.9992 4.19018 42.5619 6.18594 42.5619C6.18594 36.4982 6.18594 30.4344 6.18594 24.1869C5.07219 24.1869 3.95844 24.1869 2.81094 24.1869ZM8.99844 24.1869C8.99844 30.2507 8.99844 36.3144 8.99844 42.5619C10.8547 42.5619 12.7109 42.5619 14.6234 42.5619C14.6453 40.7134 14.6453 40.7134 14.6601 38.8648C14.6645 38.11 14.6697 37.3552 14.68 36.6004C14.6882 35.9913 14.6927 35.3823 14.6946 34.7731C14.696 34.5417 14.6987 34.3102 14.7027 34.0788C14.7262 32.6873 14.6663 31.7283 13.8734 30.5619C13.7502 30.2951 13.6514 30.0275 13.5629 29.7475C13.5294 29.6437 13.5294 29.6437 13.4953 29.5379C12.9503 27.755 12.9918 26.0303 13.1234 24.1869C11.7622 24.1869 10.4009 24.1869 8.99844 24.1869ZM34.4984 24.1869C34.5294 24.651 34.5603 25.115 34.5922 25.5932C34.6417 27.0177 34.4976 28.3941 34.0531 29.7533C34.0329 29.8155 34.0127 29.8778 33.9919 29.9419C33.8828 30.2526 33.7711 30.5272 33.5898 30.8045C32.9058 31.9144 33.0088 33.0741 33.0281 34.3405C33.0293 34.5782 33.0303 34.816 33.0309 35.0537C33.0332 35.6122 33.0383 36.1706 33.0449 36.729C33.0543 37.5404 33.0577 38.3518 33.0619 39.1632C33.0682 40.2962 33.0808 41.4289 33.0922 42.5619C34.9175 42.5619 36.7428 42.5619 38.6234 42.5619C38.6234 36.4982 38.6234 30.4344 38.6234 24.1869C37.2622 24.1869 35.9009 24.1869 34.4984 24.1869ZM41.5297 24.1869C41.5297 30.2507 41.5297 36.3144 41.5297 42.5619C43.9841 42.8133 43.9841 42.8133 44.8109 42.1869C45.1907 41.6763 45.1998 41.1625 45.1972 40.5453C45.1973 40.4752 45.1974 40.4051 45.1975 40.3329C45.1976 40.0986 45.1971 39.8643 45.1966 39.6299C45.1966 39.4618 45.1966 39.2936 45.1966 39.1254C45.1967 38.6691 45.1961 38.2128 45.1954 37.7565C45.1949 37.2795 45.1948 36.8026 45.1947 36.3256C45.1944 35.4225 45.1936 34.5194 45.1927 33.6163C45.1916 32.5881 45.1911 31.56 45.1907 30.5318C45.1897 28.4168 45.188 26.3019 45.1859 24.1869C43.9794 24.1869 42.7728 24.1869 41.5297 24.1869ZM29.6586 35.349C27.2637 36.8767 24.3902 37.4057 21.6016 36.8461C20.2615 36.5478 19.0965 36.0127 17.9047 35.3432C17.7809 35.2813 17.6572 35.2194 17.5297 35.1557C17.5297 37.5997 17.5297 40.0438 17.5297 42.5619C21.7063 42.5619 25.8828 42.5619 30.1859 42.5619C30.1859 40.0869 30.1859 37.6119 30.1859 35.0619C29.9967 35.0619 29.8078 35.2489 29.6586 35.349Z" fill="white"/>
<path d="M24.561 21.1867C24.9426 21.3776 25.1747 21.5814 25.4047 21.9367C25.5612 22.5281 25.5106 22.9968 25.2172 23.5305C25.1173 23.7315 25.0177 23.9327 24.9184 24.134C24.8307 24.3079 24.7428 24.4818 24.6547 24.6555C24.7272 24.6579 24.7997 24.6603 24.8744 24.6628C25.6504 24.705 26.2106 24.7971 26.7641 25.3644C27.0188 25.9482 26.9857 26.579 26.7557 27.1703C26.6887 27.3209 26.6197 27.4705 26.5487 27.6192C26.5122 27.6996 26.4756 27.7801 26.4379 27.863C26.3219 28.1169 26.2031 28.3695 26.0844 28.6223C26.0061 28.7934 25.928 28.9646 25.85 29.1359C25.7745 29.3003 25.6988 29.4647 25.623 29.629C25.5705 29.7428 25.5705 29.7428 25.517 29.8589C24.9814 30.9965 24.9814 30.9965 24.4672 31.3117C23.9958 31.4689 23.5915 31.4623 23.1313 31.2941C22.7968 31.0737 22.5836 30.8257 22.4047 30.468C22.2124 29.4686 22.7271 28.6169 23.1547 27.7492C23.0597 27.7457 22.9647 27.7422 22.8669 27.7386C22.7401 27.7324 22.6134 27.7262 22.4867 27.7199C22.4244 27.7178 22.362 27.7157 22.2978 27.7135C21.7385 27.6833 21.3471 27.5528 20.9692 27.134C20.6401 26.6587 20.624 26.2545 20.7172 25.6867C20.9234 25.1087 21.2345 24.5726 21.5258 24.0344C21.6025 23.8882 21.6791 23.742 21.7554 23.5956C23.1019 21.0343 23.1019 21.0343 24.561 21.1867Z" fill="white"/>
</g>
<defs>
<clipPath id="clip0_1322_492">
<rect width="48" height="48" fill="white"/>
</clipPath>
</defs>
</svg>
