<svg width="48" height="48" viewBox="0 0 48 48" fill="none" xmlns="http://www.w3.org/2000/svg">
<g clip-path="url(#clip0_1322_631)">
<path d="M2.15333 -0.0587757C2.28876 -0.0592488 2.42419 -0.0599266 2.55962 -0.0607911C2.93139 -0.0625663 3.30311 -0.0614176 3.67489 -0.0597859C4.07597 -0.0585329 4.47704 -0.059979 4.87812 -0.0610817C5.66369 -0.0628055 6.44923 -0.0620057 7.2348 -0.0603234C7.87319 -0.059009 8.51158 -0.0586434 9.14997 -0.0589586C9.2408 -0.0590034 9.33162 -0.0590481 9.4252 -0.0590942C9.60971 -0.0591905 9.79422 -0.0592894 9.97873 -0.059391C11.6106 -0.0601944 13.2425 -0.0586302 14.8743 -0.0558446C16.4581 -0.053141 18.0419 -0.0524769 19.6257 -0.053922C21.35 -0.055493 23.0743 -0.055872 24.7986 -0.0542304C24.9824 -0.0540574 25.1663 -0.0538854 25.3501 -0.0537144C25.4405 -0.0536288 25.531 -0.0535433 25.6242 -0.0534552C26.2619 -0.0529295 26.8996 -0.05324 27.5373 -0.0538592C28.3143 -0.0545837 29.0913 -0.0539529 29.8684 -0.0515928C30.2649 -0.0504202 30.6614 -0.0498465 31.0579 -0.0508936C31.4209 -0.0518338 31.7838 -0.0510446 32.1467 -0.0488703C32.278 -0.048386 32.4094 -0.0485342 32.5407 -0.0493761C33.7718 -0.0566111 33.7718 -0.0566111 34.2188 0.375117C34.6156 0.869953 34.6466 1.41694 34.6364 2.02783C34.6364 2.1148 34.6365 2.20178 34.6365 2.29139C34.6363 2.5765 34.6334 2.86151 34.6304 3.1466C34.6297 3.34521 34.6292 3.54382 34.6288 3.74243C34.6274 4.26337 34.6237 4.78428 34.6195 5.30521C34.6157 5.8375 34.614 6.3698 34.6121 6.90209C34.6081 7.94521 34.6015 8.98828 34.5938 10.0314C35.5528 10.0314 36.5119 10.0314 37.5 10.0314C37.4968 9.70628 37.4935 9.3812 37.4901 9.04626C37.4879 8.73071 37.4862 8.41516 37.4846 8.0996C37.4832 7.88064 37.4813 7.66167 37.4788 7.44271C37.4754 7.12761 37.4738 6.81255 37.4726 6.49743C37.4711 6.39985 37.4697 6.30227 37.4682 6.20174C37.468 5.68897 37.4853 5.31468 37.7813 4.87512C38.2746 4.42989 38.5941 4.39184 39.2416 4.38977C39.3249 4.38916 39.4081 4.38854 39.4939 4.38791C39.7702 4.38605 40.0465 4.38496 40.3228 4.38403C40.4171 4.38365 40.5113 4.38326 40.6085 4.38287C41.1076 4.38091 41.6067 4.37957 42.1058 4.3787C42.6213 4.37766 43.1368 4.37443 43.6524 4.37071C44.0487 4.36826 44.445 4.36747 44.8414 4.36714C45.0314 4.36668 45.2215 4.36559 45.4115 4.36385C45.6776 4.36157 45.9437 4.36166 46.2099 4.36231C46.3274 4.36051 46.3274 4.36051 46.4473 4.35867C46.947 4.36312 47.2267 4.45277 47.625 4.78137C47.9293 5.12764 48.0116 5.41774 48.0126 5.87303C48.013 5.96299 48.0135 6.05295 48.0139 6.14564C48.0139 6.29421 48.0139 6.29421 48.0138 6.44578C48.0142 6.55084 48.0145 6.65589 48.0149 6.76413C48.0159 7.11801 48.0163 7.47189 48.0166 7.82577C48.0172 8.07875 48.0178 8.33172 48.0185 8.5847C48.0203 9.34516 48.0213 10.1056 48.0221 10.8661C48.0225 11.2242 48.023 11.5822 48.0235 11.9403C48.0251 13.1306 48.0265 14.3208 48.0272 15.5111C48.0273 15.82 48.0275 16.1288 48.0277 16.4377C48.0277 16.5145 48.0278 16.5913 48.0278 16.6704C48.0286 17.9142 48.031 19.158 48.034 20.4019C48.0371 21.6788 48.0388 22.9557 48.0391 24.2326C48.0393 24.9495 48.0401 25.6665 48.0425 26.3835C48.0446 26.9941 48.0453 27.6046 48.0444 28.2152C48.044 28.5267 48.0444 28.8381 48.046 29.1496C48.0476 29.4874 48.047 29.8252 48.0458 30.1631C48.0473 30.3104 48.0473 30.3104 48.0489 30.4607C48.0429 31.1369 47.9163 31.5222 47.481 32.0496C47.4361 32.0924 47.3912 32.1353 47.3449 32.1794C47.2945 32.2284 47.2441 32.2774 47.1922 32.3279C47.1135 32.4025 47.1135 32.4025 47.0332 32.4786C46.9231 32.5858 46.8131 32.6931 46.7033 32.8005C46.6512 32.8514 46.5992 32.9023 46.5456 32.9547C46.381 33.1192 46.2281 33.291 46.0782 33.4689C45.7351 33.8736 45.3562 34.2407 44.9788 34.6129C44.6933 34.8958 44.4208 35.1822 44.1621 35.4904C43.7972 35.9133 43.4581 36.1843 42.8965 36.2755C42.3543 36.309 42.009 36.1731 41.6075 35.8196C41.2143 35.4351 40.8524 35.0266 40.4949 34.6092C40.2289 34.3133 39.9445 34.0364 39.6613 33.757C39.3527 33.451 39.0644 33.1342 38.7832 32.8031C38.5544 32.5457 38.3046 32.3115 38.0526 32.0769C37.4946 31.4429 37.4474 30.9514 37.4634 30.1294C37.4639 30.0263 37.4645 29.9232 37.465 29.8169C37.4671 29.4893 37.4718 29.1617 37.4766 28.8341C37.4785 28.6113 37.4802 28.3884 37.4817 28.1656C37.4855 27.6208 37.4929 27.0762 37.5 26.5314C36.541 26.5314 35.5819 26.5314 34.5938 26.5314C34.5938 32.657 34.5938 38.7826 34.5938 45.0939C38.5752 45.0827 38.5752 45.0827 42.5565 45.0685C43.3272 45.0673 43.3272 45.0673 43.6881 45.067C43.9398 45.0666 44.1915 45.0657 44.4432 45.0642C44.8248 45.0619 45.2064 45.0618 45.588 45.0619C45.6998 45.0609 45.8116 45.0599 45.9268 45.0589C46.6577 45.0616 47.1401 45.1164 47.7071 45.6095C48.0334 45.9934 48.0324 46.3437 48.026 46.8279C47.9743 47.2946 47.7306 47.5393 47.3791 47.8251C47.0002 48.0346 46.6959 48.0524 46.2745 48.0473C46.1962 48.0479 46.1178 48.0484 46.0371 48.049C45.7739 48.0503 45.5108 48.049 45.2476 48.0477C45.0572 48.0482 44.8669 48.0488 44.6766 48.0495C44.153 48.0511 43.6295 48.0503 43.1059 48.0491C42.5415 48.0483 41.9771 48.0496 41.4127 48.0506C40.3707 48.0522 39.3288 48.0521 38.2868 48.051C37.3243 48.0501 36.3617 48.0499 35.3992 48.0503C35.3353 48.0503 35.2715 48.0504 35.2058 48.0504C34.9467 48.0505 34.6876 48.0506 34.4285 48.0507C31.9977 48.0519 29.5669 48.0509 27.136 48.0488C24.976 48.0471 22.8159 48.0472 20.6558 48.049C18.2294 48.051 15.8031 48.0518 13.3767 48.0507C13.1181 48.0505 12.8595 48.0504 12.6009 48.0503C12.5372 48.0503 12.4735 48.0502 12.4079 48.0502C11.4459 48.0498 10.484 48.0503 9.52197 48.0512C8.42825 48.0523 7.33454 48.052 6.24082 48.05C5.68252 48.049 5.12425 48.0486 4.56595 48.0499C4.05522 48.051 3.54452 48.0504 3.03378 48.0484C2.84869 48.048 2.66359 48.0482 2.4785 48.0491C2.22747 48.0502 1.97655 48.0491 1.72552 48.0473C1.65316 48.0482 1.5808 48.0491 1.50625 48.05C1.01985 48.0432 0.74317 47.9418 0.37503 47.6251C0.00204787 47.1915 -0.0538237 46.8285 -0.046898 46.2744C-0.047415 46.196 -0.047932 46.1176 -0.0484646 46.0368C-0.0497416 45.7735 -0.0483412 45.5103 -0.0469576 45.247C-0.0473224 45.0566 -0.0478512 44.8662 -0.0485299 44.6758C-0.0499163 44.1521 -0.0489567 43.6284 -0.047617 43.1047C-0.0465777 42.54 -0.0476944 41.9754 -0.0485397 41.4108C-0.0497719 40.3685 -0.0493029 39.3263 -0.0479702 38.284C-0.0467471 37.3212 -0.0462593 36.3584 -0.0465 35.3956C-0.046515 35.3318 -0.0465301 35.2679 -0.0465456 35.2022C-0.0466078 34.943 -0.0466736 34.6839 -0.0467448 34.4248C-0.0474034 31.9935 -0.0459505 29.5622 -0.0434988 27.1309C-0.0413315 24.9702 -0.0408268 22.8095 -0.0417863 20.6488C-0.0420302 20.0955 -0.0422725 19.5422 -0.0424985 18.9888C-0.0425403 18.8867 -0.0425404 18.8867 -0.0425831 18.7824C-0.0432967 16.9776 -0.042696 15.1728 -0.0416833 13.368C-0.0415757 13.1738 -0.0414686 12.9797 -0.0413621 12.7855C-0.0412913 12.6567 -0.0412194 12.5279 -0.0411466 12.3991C-0.0406158 11.4368 -0.0407412 10.4745 -0.0411681 9.51215C-0.0416466 8.41818 -0.0410719 7.32422 -0.0392092 6.23026C-0.0382818 5.67179 -0.0378071 5.11333 -0.0385429 4.55487C-0.0392022 4.04408 -0.0385721 3.53332 -0.0368927 3.02254C-0.036512 2.83732 -0.0366097 2.6521 -0.0372226 2.46688C-0.0379821 2.21592 -0.0370252 1.96503 -0.0356242 1.71408C-0.0362558 1.64147 -0.0368876 1.56886 -0.0375384 1.49405C-0.0312762 0.917613 0.138479 0.639974 0.498262 0.208876C0.966086 -0.155739 1.59 -0.0639328 2.15333 -0.0587757ZM2.90628 2.81262C2.90628 16.7654 2.90628 30.7182 2.90628 45.0939C3.77253 45.0939 4.63878 45.0939 5.53128 45.0939C5.53216 44.74 5.53303 44.3861 5.53394 44.0214C5.5371 42.8517 5.54229 41.682 5.54852 40.5122C5.55225 39.8031 5.55529 39.094 5.55669 38.3848C5.55791 37.7665 5.56044 37.1482 5.56453 36.5299C5.56664 36.2027 5.56812 35.8755 5.56802 35.5483C5.56794 35.1825 5.57078 34.8167 5.57385 34.4509C5.57338 34.3431 5.57291 34.2353 5.57242 34.1243C5.58067 33.489 5.65715 33.0713 6.00003 32.5314C6.51724 32.1305 7.04159 32.1426 7.67395 32.1432C7.80112 32.1428 7.80112 32.1428 7.93086 32.1424C8.21557 32.1415 8.50027 32.1414 8.78497 32.1413C8.98886 32.1408 9.19274 32.1404 9.39663 32.1399C9.951 32.1386 10.5054 32.138 11.0598 32.1376C11.4061 32.1373 11.7524 32.1369 12.0987 32.1365C13.1821 32.1352 14.2655 32.1343 15.349 32.134C16.5998 32.1335 17.8507 32.1319 19.1015 32.1292C20.0683 32.1272 21.035 32.1262 22.0017 32.1261C22.5792 32.126 23.1566 32.1254 23.7341 32.1238C24.2773 32.1222 24.8206 32.122 25.3638 32.1228C25.5631 32.1229 25.7623 32.1225 25.9615 32.1216C26.2339 32.1204 26.5062 32.1209 26.7785 32.1219C26.857 32.1212 26.9356 32.1204 27.0165 32.1196C27.5396 32.124 27.929 32.2191 28.4063 32.4376C28.7878 32.8289 28.8862 33.1373 28.8899 33.6734C28.8912 33.8243 28.8912 33.8243 28.8926 33.9782C28.8932 34.0885 28.8937 34.1988 28.8943 34.3125C28.8952 34.4287 28.8961 34.5448 28.8971 34.6645C28.8995 34.9831 28.9016 35.3017 28.9035 35.6204C28.9055 35.9533 28.9081 36.2862 28.9106 36.6192C28.9153 37.2497 28.9195 37.8802 28.9235 38.5107C28.9282 39.2285 28.9333 39.9463 28.9385 40.6641C28.9492 42.1407 28.9591 43.6173 28.9688 45.0939C29.866 45.0939 30.7632 45.0939 31.6875 45.0939C31.6875 31.1411 31.6875 17.1882 31.6875 2.81262C22.1897 2.81262 12.6919 2.81262 2.90628 2.81262ZM40.4063 7.31262C40.3773 10.2164 40.3531 13.12 40.3393 16.0238C40.3376 16.3672 40.3359 16.7105 40.3342 17.0538C40.3338 17.1222 40.3335 17.1905 40.3331 17.2609C40.3274 18.3656 40.3171 19.4701 40.305 20.5747C40.2927 21.7093 40.2854 22.8439 40.2828 23.9785C40.2812 24.6154 40.2772 25.2521 40.2675 25.8889C40.2586 26.489 40.2559 27.0888 40.2578 27.689C40.2575 27.9086 40.2549 28.1282 40.2498 28.3477C40.2041 29.7266 40.2041 29.7266 40.8671 30.8817C41.0906 31.092 41.3226 31.2851 41.5663 31.4716C41.7737 31.6379 41.9418 31.8293 42.1114 32.0333C42.2853 32.2404 42.4627 32.4361 42.6563 32.6251C43.2911 32.3402 43.7219 31.7534 44.1624 31.2314C44.3438 31.0314 44.3438 31.0314 44.5373 30.8639C44.8974 30.5505 45.1366 30.3179 45.1861 29.8304C45.1892 29.66 45.1882 29.4895 45.184 29.3192C45.1846 29.2248 45.1853 29.1303 45.1859 29.033C45.1871 28.7178 45.183 28.4029 45.1789 28.0878C45.1787 27.8614 45.1788 27.635 45.1793 27.4086C45.1794 26.9218 45.1773 26.4351 45.1731 25.9483C45.167 25.2446 45.165 24.5409 45.1641 23.8372C45.1624 22.6952 45.1575 21.5534 45.1504 20.4115C45.1435 19.3026 45.1382 18.1937 45.135 17.0847C45.1347 16.9821 45.1347 16.9821 45.1344 16.8774C45.1334 16.5342 45.1325 16.191 45.1315 15.8478C45.1238 13.0027 45.1099 10.1577 45.0938 7.31262C43.5469 7.31262 42 7.31262 40.4063 7.31262ZM34.5938 12.9376C34.5938 16.4645 34.5938 19.9914 34.5938 23.6251C35.5528 23.6251 36.5119 23.6251 37.5 23.6251C37.5 20.0982 37.5 16.5714 37.5 12.9376C36.541 12.9376 35.5819 12.9376 34.5938 12.9376ZM8.43753 34.9689C8.43753 38.3101 8.43753 41.6514 8.43753 45.0939C10.8816 45.0939 13.3257 45.0939 15.8438 45.0939C15.8438 41.7526 15.8438 38.4114 15.8438 34.9689C13.3997 34.9689 10.9557 34.9689 8.43753 34.9689ZM18.75 34.9689C18.75 38.3101 18.75 41.6514 18.75 45.0939C21.1632 45.0939 23.5763 45.0939 26.0625 45.0939C26.0625 41.7526 26.0625 38.4114 26.0625 34.9689C23.6494 34.9689 21.2363 34.9689 18.75 34.9689Z" fill="white"/>
<path d="M20.508 6.04537C20.5774 6.04471 20.6469 6.04405 20.7185 6.04338C20.9461 6.04174 21.1737 6.04282 21.4014 6.04409C21.5607 6.04383 21.72 6.04347 21.8794 6.043C22.2126 6.04245 22.5457 6.04325 22.8789 6.045C23.3048 6.04714 23.7306 6.04591 24.1565 6.04366C24.4853 6.0423 24.8141 6.04274 25.1429 6.04371C25.2998 6.04396 25.4568 6.04366 25.6138 6.04278C25.8337 6.04182 26.0534 6.04329 26.2733 6.04537C26.3694 6.04423 26.3694 6.04423 26.4675 6.04307C26.9444 6.05138 27.2944 6.16365 27.6563 6.46889C28.0143 6.894 28.0782 7.29142 28.0783 7.84477C28.079 7.9478 28.079 7.9478 28.0798 8.05291C28.081 8.27799 28.0795 8.50297 28.0778 8.72805C28.0778 8.88551 28.0779 9.04296 28.0782 9.20042C28.0783 9.52959 28.0771 9.85872 28.075 10.1879C28.0723 10.6089 28.0726 11.0299 28.0738 11.451C28.0744 11.7758 28.0737 12.1007 28.0725 12.4255C28.0721 12.5808 28.0721 12.736 28.0725 12.8912C28.0727 13.1084 28.0712 13.3255 28.0691 13.5426C28.0686 13.666 28.0681 13.7893 28.0676 13.9164C28.0167 14.3836 27.8704 14.6922 27.5391 15.0236C27.0464 15.3371 26.5449 15.3987 25.9701 15.4009C25.9082 15.4014 25.8464 15.4018 25.7827 15.4023C25.5803 15.4036 25.3779 15.4036 25.1755 15.4033C25.0335 15.4037 24.8914 15.4041 24.7493 15.4046C24.4522 15.4053 24.1552 15.4052 23.8581 15.4047C23.4793 15.4042 23.1006 15.4058 22.7218 15.408C22.4286 15.4093 22.1353 15.4094 21.8421 15.4091C21.7025 15.4092 21.5629 15.4097 21.4234 15.4106C19.6929 15.4209 19.6929 15.4209 19.1619 14.9644C18.7419 14.4953 18.7381 14.0969 18.7334 13.4889C18.7328 13.4224 18.7322 13.3558 18.7315 13.2873C18.7297 13.0677 18.7286 12.8482 18.7277 12.6286C18.7273 12.5533 18.7269 12.478 18.7265 12.4005C18.7246 12.0021 18.7232 11.6037 18.7223 11.2053C18.7213 10.7951 18.7181 10.3849 18.7143 9.97467C18.7119 9.6581 18.7111 9.34154 18.7108 9.02496C18.7103 8.87381 18.7092 8.72266 18.7075 8.57152C18.6903 6.98617 18.6903 6.98617 19.125 6.46889C19.5914 6.1496 19.9394 6.03864 20.508 6.04537ZM21.6563 9.00014C21.6563 10.1448 21.6563 11.2895 21.6563 12.4689C22.8009 12.4689 23.9456 12.4689 25.125 12.4689C25.125 11.3242 25.125 10.1795 25.125 9.00014C23.9803 9.00014 22.8356 9.00014 21.6563 9.00014Z" fill="white"/>
<path d="M8.17503 6.07855C8.24457 6.07808 8.3141 6.07761 8.38574 6.07714C8.61638 6.07576 8.84701 6.07513 9.07765 6.07461C9.23788 6.07407 9.39811 6.07353 9.55834 6.07299C9.89471 6.072 10.2311 6.07146 10.5674 6.07113C10.9979 6.07062 11.4282 6.06837 11.8587 6.06569C12.1899 6.06395 12.5211 6.06346 12.8523 6.06332C13.0109 6.06303 13.1695 6.06228 13.3281 6.06105C13.5505 6.05945 13.7728 6.05963 13.9952 6.06024C14.093 6.05894 14.093 6.05894 14.1927 6.05762C14.6236 6.06129 14.9148 6.14997 15.2813 6.3749C15.7096 6.83794 15.7643 7.20047 15.7666 7.81056C15.7672 7.88011 15.7678 7.94966 15.7685 8.02131C15.7703 8.25144 15.7714 8.48156 15.7724 8.71169C15.7727 8.79037 15.7731 8.86906 15.7735 8.95012C15.7755 9.36655 15.7768 9.78297 15.7777 10.1994C15.7787 10.6291 15.7819 11.0587 15.7857 11.4884C15.7881 11.8192 15.7889 12.15 15.7892 12.4808C15.7897 12.6392 15.7908 12.7975 15.7925 12.9559C15.7948 13.1778 15.7947 13.3997 15.7941 13.6216C15.7953 13.6866 15.7965 13.7517 15.7977 13.8187C15.7927 14.2852 15.6659 14.5465 15.375 14.9062C14.8279 15.3369 14.3913 15.3861 13.7101 15.39C13.6174 15.3907 13.6174 15.3907 13.5228 15.3914C13.3194 15.3928 13.116 15.3934 12.9126 15.3939C12.8078 15.3943 12.8078 15.3943 12.7008 15.3947C12.3309 15.3962 11.961 15.397 11.591 15.3974C11.2108 15.3979 10.8305 15.4002 10.4503 15.4029C10.1562 15.4046 9.86218 15.4051 9.56812 15.4052C9.42804 15.4055 9.28796 15.4063 9.14788 15.4075C7.37741 15.422 7.37741 15.422 6.80275 14.8769C6.51726 14.3858 6.4451 13.9534 6.44302 13.3893C6.44254 13.3245 6.44206 13.2596 6.44156 13.1928C6.44027 12.9798 6.44035 12.7669 6.44057 12.554C6.4402 12.405 6.4398 12.2561 6.43935 12.1071C6.43865 11.7954 6.43868 11.4838 6.43917 11.1721C6.43971 10.7739 6.43813 10.3757 6.43595 9.97743C6.43457 9.66995 6.43449 9.36247 6.43478 9.05499C6.43473 8.90822 6.43424 8.76144 6.4333 8.61467C6.43213 8.40895 6.43278 8.20332 6.43386 7.99761C6.4338 7.88085 6.43374 7.76409 6.43368 7.64379C6.47987 7.20746 6.5976 6.82912 6.89394 6.49282C7.35651 6.14973 7.60963 6.07944 8.17503 6.07855ZM9.37501 8.9999C9.37501 10.1446 9.37501 11.2893 9.37501 12.4687C10.5197 12.4687 11.6644 12.4687 12.8438 12.4687C12.8438 11.324 12.8438 10.1793 12.8438 8.9999C11.6991 8.9999 10.5544 8.9999 9.37501 8.9999Z" fill="white"/>
<path d="M20.4223 18.2329C20.5295 18.2319 20.5295 18.2319 20.6387 18.2309C20.8735 18.2292 21.1081 18.2303 21.3428 18.2316C21.5067 18.2313 21.6706 18.231 21.8345 18.2305C22.1775 18.2299 22.5204 18.2307 22.8634 18.2325C23.3022 18.2346 23.7409 18.2334 24.1798 18.2312C24.518 18.2298 24.8563 18.2302 25.1946 18.2312C25.3564 18.2315 25.5181 18.2312 25.6799 18.2303C25.9063 18.2293 26.1326 18.2308 26.359 18.2329C26.4253 18.2321 26.4917 18.2313 26.56 18.2306C27.0291 18.2385 27.2929 18.366 27.6563 18.6564C28.0225 19.0731 28.0458 19.453 28.0479 19.9882C28.0485 20.0567 28.0491 20.1252 28.0497 20.1957C28.0516 20.4224 28.0527 20.649 28.0536 20.8756C28.054 20.9532 28.0544 21.0307 28.0548 21.1106C28.0567 21.521 28.0581 21.9315 28.0589 22.3419C28.06 22.7651 28.0632 23.1882 28.0669 23.6114C28.0694 23.9374 28.0702 24.2635 28.0705 24.5895C28.071 24.7455 28.072 24.9014 28.0738 25.0573C28.0761 25.2761 28.076 25.4948 28.0753 25.7136C28.0765 25.7774 28.0777 25.8412 28.079 25.907C28.0738 26.3875 27.9526 26.724 27.6563 27.0939C27.2435 27.4527 26.9007 27.5236 26.3691 27.5174C26.2987 27.5181 26.2284 27.5187 26.1559 27.5194C25.9247 27.521 25.6935 27.52 25.4623 27.5187C25.3007 27.5189 25.1392 27.5193 24.9776 27.5198C24.6394 27.5203 24.3013 27.5195 23.9632 27.5178C23.5308 27.5156 23.0986 27.5169 22.6663 27.5191C22.3328 27.5205 21.9993 27.52 21.6657 27.5191C21.5064 27.5188 21.347 27.5191 21.1877 27.52C20.9645 27.521 20.7414 27.5195 20.5181 27.5174C20.4204 27.5186 20.4204 27.5186 20.3207 27.5197C19.8151 27.511 19.5323 27.3734 19.125 27.0939C18.5872 26.4503 18.6956 25.57 18.7002 24.7794C18.7 24.6268 18.6996 24.4741 18.6991 24.3214C18.6986 24.0024 18.6994 23.6835 18.7011 23.3645C18.7033 22.9572 18.702 22.55 18.6998 22.1427C18.6984 21.8278 18.6989 21.5128 18.6998 21.1979C18.7001 21.0478 18.6998 20.8977 18.6989 20.7476C18.6921 19.2493 18.6921 19.2493 19.125 18.6564C19.5511 18.3087 19.8858 18.2267 20.4223 18.2329ZM21.6563 21.1876C21.6563 22.3014 21.6563 23.4151 21.6563 24.5626C22.801 24.5626 23.9457 24.5626 25.125 24.5626C25.125 23.4489 25.125 22.3351 25.125 21.1876C23.9803 21.1876 22.8357 21.1876 21.6563 21.1876Z" fill="white"/>
<path d="M8.09851 18.2645C8.20555 18.2636 8.20555 18.2636 8.31475 18.2626C8.55148 18.2608 8.7882 18.2597 9.02493 18.2588C9.10577 18.2584 9.1866 18.258 9.26989 18.2576C9.69786 18.2556 10.1258 18.2543 10.5538 18.2534C10.9956 18.2524 11.4373 18.2492 11.8791 18.2454C12.219 18.243 12.5588 18.2422 12.8987 18.2419C13.0616 18.2414 13.2244 18.2403 13.3872 18.2386C13.6154 18.2363 13.8435 18.2364 14.0718 18.237C14.1722 18.2352 14.1722 18.2352 14.2746 18.2334C14.7465 18.2383 15.0099 18.3634 15.375 18.6561C15.7419 19.0735 15.7643 19.4534 15.7651 19.9894C15.7658 20.0924 15.7658 20.0924 15.7665 20.1974C15.7679 20.4245 15.7686 20.6515 15.7691 20.8786C15.7696 21.0366 15.7702 21.1946 15.7707 21.3526C15.7717 21.684 15.7722 22.0154 15.7726 22.3468C15.7731 22.7708 15.7753 23.1948 15.778 23.6188C15.7797 23.9452 15.7802 24.2717 15.7804 24.5981C15.7806 24.7544 15.7814 24.9107 15.7826 25.0669C15.7842 25.286 15.7841 25.5049 15.7834 25.7239C15.7843 25.7881 15.7852 25.8522 15.7861 25.9183C15.7824 26.3464 15.6922 26.6358 15.4688 26.9998C15.012 27.4121 14.7299 27.4829 14.1304 27.4852C14.0601 27.4858 13.9898 27.4864 13.9174 27.4871C13.6841 27.4889 13.4509 27.49 13.2177 27.4909C13.138 27.4913 13.0583 27.4917 12.9762 27.4921C12.5542 27.4941 12.1322 27.4954 11.7102 27.4963C11.2749 27.4973 10.8397 27.5005 10.4045 27.5043C10.0694 27.5067 9.73423 27.5075 9.39907 27.5078C9.23869 27.5083 9.0783 27.5094 8.91793 27.5111C8.69286 27.5134 8.4679 27.5133 8.24282 27.5127C8.14423 27.5145 8.14423 27.5145 8.04366 27.5163C7.53572 27.511 7.25338 27.3726 6.84378 27.0936C6.48274 26.6122 6.4569 26.1881 6.45367 25.5981C6.45321 25.5332 6.45274 25.4684 6.45226 25.4016C6.4509 25.1876 6.45025 24.9737 6.44974 24.7597C6.4492 24.6105 6.44866 24.4613 6.44812 24.312C6.44713 23.9993 6.44658 23.6865 6.44626 23.3737C6.44574 22.974 6.44349 22.5743 6.44082 22.1746C6.43907 21.8663 6.43859 21.558 6.43844 21.2497C6.43816 21.1024 6.43741 20.9551 6.43618 20.8078C6.43457 20.6012 6.43476 20.3947 6.43536 20.188C6.43502 20.0707 6.43468 19.9534 6.43433 19.8325C6.49906 19.2074 6.74078 18.7916 7.21878 18.3748C7.50009 18.2342 7.78988 18.2657 8.09851 18.2645ZM9.37503 21.1873C9.37503 22.3011 9.37503 23.4148 9.37503 24.5623C10.5197 24.5623 11.6644 24.5623 12.8438 24.5623C12.8438 23.4486 12.8438 22.3348 12.8438 21.1873C11.6991 21.1873 10.5544 21.1873 9.37503 21.1873Z" fill="white"/>
</g>
<defs>
<clipPath id="clip0_1322_631">
<rect width="48" height="48" fill="white"/>
</clipPath>
</defs>
</svg>
