<svg width="48" height="48" viewBox="0 0 48 48" fill="none" xmlns="http://www.w3.org/2000/svg">
<path d="M4.78125 20.7188C13.2581 20.7188 21.735 20.7188 30.4688 20.7188C30.4688 21.8016 30.4688 22.8844 30.4688 24C27.2822 24 24.0956 24 20.8125 24C20.8125 27.1556 20.8125 30.3112 20.8125 33.5625C23.9991 33.5625 27.1856 33.5625 30.4688 33.5625C30.4688 34.6453 30.4688 35.7281 30.4688 36.8438C23.0747 36.8438 15.6806 36.8438 8.0625 36.8438C8.0625 37.8956 8.0625 38.9475 8.0625 40.0312C6.97969 40.0312 5.89687 40.0312 4.78125 40.0312C4.78125 33.6581 4.78125 27.285 4.78125 20.7188ZM8.31445 27.8965C8.1041 28.2003 8.05075 28.4355 8.04442 28.7963C8.04291 28.8746 8.04141 28.9529 8.03986 29.0335C8.03566 29.3919 8.03184 29.7502 8.02968 30.1086C8.02813 30.2971 8.02557 30.4856 8.02199 30.674C8.01683 30.9468 8.0148 31.2195 8.01343 31.4923C8.0113 31.5757 8.00918 31.6592 8.00699 31.7451C8.00896 32.3338 8.12628 32.7487 8.53125 33.1875C9.15035 33.7441 10.0886 33.6168 10.8662 33.6123C11.021 33.6126 11.1758 33.6129 11.3305 33.6134C11.6539 33.6139 11.9773 33.6131 12.3007 33.6114C12.7137 33.6093 13.1265 33.6105 13.5395 33.6127C13.8588 33.6141 14.1781 33.6137 14.4974 33.6127C14.6496 33.6124 14.8018 33.6127 14.954 33.6136C16.083 33.6595 16.083 33.6595 17.0625 33.1875C17.5341 32.6746 17.5995 32.1778 17.5869 31.5022C17.5869 31.4151 17.5869 31.328 17.5869 31.2383C17.5864 31.0554 17.5848 30.8724 17.5821 30.6895C17.5781 30.4103 17.5782 30.1313 17.5789 29.8521C17.5779 29.6736 17.5767 29.4951 17.5752 29.3167C17.5752 29.2337 17.5752 29.1508 17.5751 29.0654C17.5648 28.5239 17.4911 28.102 17.1061 27.6896C16.6391 27.3325 16.3843 27.2668 15.8078 27.2647C15.7007 27.2637 15.7007 27.2637 15.5915 27.2628C15.3548 27.2609 15.1181 27.2598 14.8813 27.2589C14.8005 27.2585 14.7197 27.2581 14.6364 27.2578C14.2084 27.2558 13.7804 27.2545 13.3525 27.2536C12.9107 27.2525 12.469 27.2493 12.0272 27.2456C11.6873 27.2431 11.3474 27.2424 11.0075 27.242C10.8447 27.2416 10.6819 27.2405 10.5191 27.2387C10.2909 27.2364 10.0627 27.2365 9.8345 27.2372C9.76757 27.236 9.70063 27.2348 9.63166 27.2336C9.03955 27.2397 8.70268 27.4663 8.31445 27.8965Z" fill="white"/>
<path d="M33.5625 15.9375C34.6453 15.9375 35.7281 15.9375 36.8438 15.9375C36.8438 23.8575 36.8438 31.7775 36.8438 39.9375C38.4216 39.9375 39.9994 39.9375 41.625 39.9375C43.2188 42.9656 43.2188 42.9656 43.2188 43.2188C37.9284 43.2188 32.6381 43.2188 27.1875 43.2188C27.3301 42.7909 27.4769 42.4294 27.6771 42.0304C27.7201 41.9445 27.7201 41.9445 27.7639 41.8569C27.824 41.737 27.8843 41.6172 27.9448 41.4974C28.0376 41.3136 28.1298 41.1294 28.2219 40.9451C28.6737 40.0451 28.6737 40.0451 28.7812 39.9375C30.3591 39.9375 31.9369 39.9375 33.5625 39.9375C33.5625 32.0175 33.5625 24.0975 33.5625 15.9375Z" fill="white"/>
<path d="M7.96875 4.78125C11.1553 4.78125 14.3419 4.78125 17.625 4.78125C17.625 6.885 17.625 8.98875 17.625 11.1562C18.6769 11.1562 19.7288 11.1562 20.8125 11.1562C20.8125 12.2391 20.8125 13.3219 20.8125 14.4375C15.5222 14.4375 10.2319 14.4375 4.78125 14.4375C4.78125 13.3547 4.78125 12.2719 4.78125 11.1562C5.83312 11.1562 6.885 11.1562 7.96875 11.1562C7.96875 9.0525 7.96875 6.94875 7.96875 4.78125Z" fill="white"/>
<path d="M38.3438 4.78125C38.9006 4.78125 39.4575 4.78125 40.0312 4.78125C40.0365 4.97286 40.0365 4.97286 40.0419 5.16833C40.048 5.33814 40.0543 5.50794 40.0605 5.67773C40.0637 5.80363 40.0637 5.80363 40.067 5.93207C40.0906 6.51932 40.1519 7.01 40.5436 7.47583C40.968 7.80227 41.2661 7.88113 41.7905 7.90466C41.8739 7.90859 41.9573 7.91252 42.0432 7.91656C42.1726 7.92209 42.1726 7.92209 42.3047 7.92773C42.3924 7.93178 42.4802 7.93583 42.5706 7.94C42.7866 7.94992 43.0027 7.95938 43.2188 7.96875C43.2188 8.52562 43.2188 9.0825 43.2188 9.65625C43.0154 9.66151 43.0154 9.66151 42.8079 9.66687C42.6284 9.67303 42.449 9.67926 42.2695 9.68555C42.1358 9.68872 42.1358 9.68872 41.9993 9.69196C41.4235 9.71395 40.9769 9.76728 40.5333 10.1719C40.2257 10.567 40.1163 10.8391 40.0953 11.3331C40.0894 11.465 40.0894 11.465 40.0834 11.5995C40.0797 11.6911 40.0761 11.7826 40.0723 11.877C40.0662 12.0159 40.0662 12.0159 40.06 12.1577C40.0501 12.3863 40.0406 12.615 40.0312 12.8438C39.4744 12.8438 38.9175 12.8438 38.3438 12.8438C38.3424 12.7036 38.3411 12.5634 38.3397 12.4189C38.3353 12.2324 38.3308 12.0459 38.3262 11.8594C38.3256 11.7673 38.3251 11.6752 38.3245 11.5803C38.3058 10.9556 38.2112 10.5014 37.7812 10.0312C37.2954 9.66576 36.7377 9.69877 36.1523 9.68555C36.0086 9.68074 36.0086 9.68074 35.8619 9.67584C35.6267 9.66815 35.3915 9.66204 35.1562 9.65625C35.1562 9.09937 35.1562 8.5425 35.1562 7.96875C35.2918 7.96525 35.4274 7.96174 35.5671 7.95813C35.7466 7.95197 35.926 7.94574 36.1055 7.93945C36.2392 7.93628 36.2392 7.93628 36.3757 7.93304C36.9515 7.91105 37.3981 7.85772 37.8417 7.45312C38.1493 7.05802 38.2587 6.78591 38.2797 6.29187C38.2856 6.15999 38.2856 6.15999 38.2916 6.02545C38.2953 5.93391 38.2989 5.84236 38.3027 5.74805C38.3088 5.6091 38.3088 5.6091 38.315 5.46735C38.3249 5.23866 38.3344 5.00996 38.3438 4.78125Z" fill="white"/>
<path d="M32.5312 5.06263C33.0798 5.42833 33.4268 5.93023 33.6204 6.56483C33.7634 7.30342 33.6202 7.95826 33.2812 8.62513C32.8676 9.23323 32.2949 9.48878 31.5937 9.65638C30.8359 9.7783 30.1873 9.51457 29.5488 9.11732C28.8925 8.44222 28.7401 7.80411 28.7494 6.88087C28.8137 6.23881 29.0943 5.73767 29.5664 5.30287C30.4508 4.6358 31.5375 4.55703 32.5312 5.06263Z" fill="white"/>
<path d="M42.5625 16.2185C42.9311 16.5379 43.1855 16.8102 43.2502 17.3014C43.2588 17.9056 43.2109 18.2635 42.8437 18.7498C42.3588 19.1992 41.966 19.2522 41.3243 19.2445C40.92 19.2044 40.7284 19.0934 40.4062 18.8435C39.9895 18.3172 39.8819 17.9165 39.9375 17.2498C40.1421 16.6549 40.4436 16.3025 41.0039 16.0076C41.5888 15.8405 42.033 15.9342 42.5625 16.2185Z" fill="white"/>
<path d="M29.5547 12.9082C30.0314 13.1737 30.3184 13.5362 30.4687 14.0625C30.5319 14.6205 30.4058 15.0136 30.0937 15.4688C29.7165 15.8677 29.3583 16.0441 28.8105 16.0664C28.2877 16.0596 27.9487 15.9123 27.5625 15.5625C27.1733 15.1393 27.1285 14.6843 27.1516 14.1237C27.2259 13.609 27.4345 13.3181 27.8496 12.9961C28.4195 12.6809 28.9645 12.6346 29.5547 12.9082Z" fill="white"/>
</svg>
