<svg width="48" height="48" viewBox="0 0 48 48" fill="none" xmlns="http://www.w3.org/2000/svg">
<path d="M33.0326 26.3064C33.15 26.3061 33.2673 26.3059 33.3883 26.3056C33.6979 26.3054 34.0075 26.3065 34.3171 26.3081C34.5059 26.3086 34.6947 26.3081 34.8835 26.3071C35.2489 26.3054 35.6144 26.3056 35.9799 26.3064C36.1473 26.3056 36.1473 26.3056 36.3182 26.3047C37.1877 26.312 37.9366 26.434 38.625 27C39.1817 27.6234 39.4027 28.157 39.3867 29.0039C39.385 29.1207 39.3833 29.2374 39.3816 29.3577C39.3794 29.4459 39.3773 29.5341 39.375 29.625C39.4359 29.6231 39.4968 29.6211 39.5596 29.6191C39.8398 29.6112 40.1201 29.6064 40.4004 29.6016C40.5441 29.5969 40.5441 29.5969 40.6906 29.5921C41.4587 29.5822 42.0323 29.7196 42.6328 30.211C43.0933 30.7737 43.4159 31.2652 43.4201 32.0063C43.4211 32.1292 43.4211 32.1292 43.4221 32.2547C43.4223 32.3439 43.4226 32.4332 43.4229 32.5251C43.4235 32.6196 43.4241 32.7142 43.4247 32.8116C43.4266 33.1247 43.4277 33.4377 43.4286 33.7507C43.429 33.8578 43.4294 33.9649 43.4298 34.0753C43.4317 34.6423 43.4331 35.2093 43.4339 35.7763C43.435 36.3607 43.4382 36.9451 43.4419 37.5296C43.4444 37.98 43.4452 38.4303 43.4455 38.8808C43.4459 39.0961 43.447 39.3115 43.4488 39.5268C43.4511 39.8291 43.451 40.1312 43.4503 40.4334C43.4521 40.5655 43.4521 40.5655 43.454 40.7003C43.448 41.4653 43.2602 42.1608 42.7383 42.7383C41.9639 43.4326 41.0669 43.4611 40.0723 43.4548C39.937 43.4553 39.8016 43.456 39.6663 43.4568C39.3014 43.4585 38.9365 43.4578 38.5716 43.4566C38.1881 43.4557 37.8047 43.4566 37.4213 43.4572C36.7776 43.4578 36.1339 43.4569 35.4902 43.4552C34.748 43.4531 34.0058 43.4538 33.2635 43.4558C32.6241 43.4575 31.9848 43.4578 31.3454 43.4568C30.9645 43.4562 30.5835 43.4561 30.2026 43.4574C29.8443 43.4585 29.486 43.4577 29.1277 43.4555C28.9969 43.455 28.8661 43.4552 28.7352 43.456C27.829 43.4613 27.1218 43.3553 26.3555 42.8555C25.6684 42.1684 25.5657 41.479 25.565 40.5528C25.5643 40.4555 25.5635 40.3582 25.5627 40.2579C25.5604 39.9367 25.5596 39.6156 25.559 39.2944C25.5581 39.0705 25.5573 38.8465 25.5564 38.6226C25.5549 38.1532 25.5541 37.6838 25.5539 37.2145C25.5534 36.6145 25.5498 36.0145 25.5455 35.4145C25.5428 34.9519 25.5421 34.4893 25.542 34.0267C25.5416 33.8055 25.5404 33.5844 25.5385 33.3633C25.5359 33.0532 25.5364 32.7433 25.5376 32.4332C25.5362 32.3428 25.5348 32.2524 25.5334 32.1592C25.541 31.4433 25.7386 30.8291 26.2243 30.2888C26.8285 29.7109 27.4925 29.5926 28.3012 29.6003C28.3977 29.6027 28.4943 29.605 28.5938 29.6074C28.6932 29.6087 28.7927 29.61 28.8952 29.6113C29.1385 29.6146 29.3817 29.6192 29.625 29.625C29.6196 29.5344 29.6141 29.4437 29.6085 29.3504C29.5772 28.4471 29.6539 27.7952 30.2589 27.0883C31.0344 26.3317 31.997 26.3011 33.0326 26.3064ZM31.5 28.3125C31.2172 28.6804 31.2172 28.6804 31.3125 29.625C33.4163 29.625 35.52 29.625 37.6875 29.625C37.7539 28.8087 37.7539 28.8087 37.4063 28.2188C36.8754 27.9737 36.3352 28.0026 35.7627 28.0031C35.6587 28.0027 35.5547 28.0023 35.4476 28.0019C35.2282 28.0013 35.0088 28.0013 34.7895 28.0017C34.4543 28.002 34.1192 27.9998 33.7841 27.9974C33.5706 27.9972 33.3571 27.9971 33.1436 27.9972C32.9937 27.9959 32.9937 27.9959 32.8408 27.9946C32.3271 27.9978 31.9372 28.0098 31.5 28.3125ZM27.2813 31.7813C27.2813 32.6475 27.2813 33.5138 27.2813 34.4063C32.0456 34.4063 36.81 34.4063 41.7188 34.4063C41.9823 32.1044 41.9823 32.1044 41.3438 31.4063C41.0951 31.2819 40.9065 31.2996 40.6279 31.2981C40.5155 31.2973 40.4031 31.2965 40.2874 31.2956C40.1622 31.2952 40.037 31.2948 39.9118 31.2944C39.7804 31.2937 39.6491 31.2929 39.5177 31.2921C39.0858 31.2897 38.6538 31.2882 38.2218 31.2869C38.0732 31.2864 37.9245 31.2859 37.7759 31.2854C37.1577 31.2833 36.5395 31.2816 35.9213 31.2805C35.0349 31.279 34.1486 31.2759 33.2623 31.2706C32.6392 31.2669 32.0162 31.2651 31.3932 31.2646C31.021 31.2643 30.6488 31.2631 30.2766 31.2601C29.9264 31.2573 29.5763 31.2567 29.226 31.2578C29.0364 31.2578 28.8467 31.2555 28.657 31.2532C28.5439 31.2539 28.4307 31.2547 28.3141 31.2555C28.1668 31.2551 28.1668 31.2551 28.0165 31.2546C27.6742 31.3038 27.6742 31.3038 27.2813 31.7813ZM27.2813 36.1875C27.272 36.8866 27.2652 37.5856 27.2607 38.2846C27.2588 38.5224 27.2562 38.7602 27.253 38.998C27.2484 39.3399 27.2463 39.6817 27.2446 40.0236C27.2427 40.1298 27.2408 40.2361 27.2388 40.3456C27.2342 40.929 27.2342 40.929 27.4593 41.4556C27.7743 41.7265 27.9558 41.7308 28.365 41.7319C28.5312 41.7327 28.5312 41.7327 28.7008 41.7336C28.823 41.7337 28.9452 41.7338 29.071 41.7339C29.2005 41.7343 29.33 41.7348 29.4595 41.7353C29.8119 41.7365 30.1642 41.7371 30.5166 41.7375C30.7367 41.7378 30.9567 41.7382 31.1768 41.7386C31.8653 41.7399 32.5537 41.7408 33.2421 41.7412C34.0371 41.7416 34.832 41.7432 35.627 41.7459C36.2412 41.748 36.8555 41.7489 37.4698 41.749C37.8367 41.7491 38.2037 41.7497 38.5706 41.7514C38.9159 41.7529 39.2612 41.7531 39.6064 41.7523C39.7934 41.7522 39.9804 41.7535 40.1674 41.7548C40.279 41.7543 40.3906 41.7538 40.5056 41.7532C40.6024 41.7534 40.6992 41.7535 40.7989 41.7536C41.1057 41.7131 41.2817 41.6174 41.5313 41.4375C41.7299 41.1529 41.7417 40.9143 41.74 40.5724C41.74 40.4749 41.74 40.3773 41.74 40.2768C41.739 40.1721 41.7381 40.0674 41.7371 39.9595C41.7368 39.8518 41.7365 39.7441 41.7363 39.6332C41.7352 39.2893 41.7329 38.9455 41.7305 38.6016C41.7295 38.3684 41.7287 38.1353 41.7279 37.9021C41.7258 37.3306 41.7226 36.759 41.7188 36.1875C41.2238 36.1875 40.7288 36.1875 40.2188 36.1875C40.1936 36.3673 40.1685 36.5472 40.1426 36.7324C40.0685 37.2622 40.0685 37.2622 39.9038 37.4846C39.648 37.6662 39.4011 37.6713 39.0938 37.6875C38.8215 37.6139 38.7478 37.5505 38.6074 37.3067C38.5068 36.943 38.4792 36.5625 38.4375 36.1875C35.8078 36.1875 33.1781 36.1875 30.4688 36.1875C30.4378 36.5588 30.4069 36.93 30.375 37.3125C30.1817 37.5762 30.1817 37.5762 29.9063 37.6875C29.635 37.7108 29.4124 37.6871 29.1563 37.5938C28.7818 37.2194 28.8147 36.6896 28.7813 36.1875C28.2863 36.1875 27.7913 36.1875 27.2813 36.1875Z" fill="white"/>
<path d="M12.3164 25.5317C12.4573 25.531 12.4573 25.531 12.6011 25.5303C12.7993 25.53 12.9976 25.5309 13.1959 25.5328C13.499 25.5353 13.8018 25.5329 14.105 25.5299C14.2978 25.5302 14.4907 25.5308 14.6836 25.5317C14.774 25.5307 14.8645 25.5298 14.9577 25.5288C15.3892 25.5363 15.5931 25.5468 15.9473 25.8114C16.1756 26.1342 16.1902 26.3557 16.2012 26.7482C16.2079 26.9246 16.2079 26.9246 16.2147 27.1046C16.216 27.1939 16.2174 27.2832 16.2187 27.3752C16.4363 27.4501 16.4363 27.4501 16.6875 27.4689C16.8693 27.3447 16.8693 27.3447 17.0156 27.1584C17.2655 26.888 17.44 26.7016 17.8125 26.6252C18.5107 26.6875 18.8341 27.0926 19.3125 27.5627C19.4175 27.6643 19.4175 27.6643 19.5247 27.768C19.7656 28.0013 20.005 28.2359 20.2441 28.4709C20.323 28.5477 20.4019 28.6246 20.4832 28.7038C21.3607 29.5767 21.3607 29.5767 21.3867 30.176C21.2541 30.5444 21.046 30.7608 20.7744 31.038C20.6159 31.23 20.5598 31.3484 20.5312 31.5939C20.5622 31.6558 20.5931 31.7177 20.625 31.7814C20.9529 31.8076 21.279 31.811 21.6079 31.8155C22.0354 31.8929 22.1467 31.9965 22.4062 32.3439C22.4753 32.6682 22.472 32.986 22.4685 33.3166C22.469 33.4105 22.4694 33.5045 22.4699 33.6013C22.4702 33.7995 22.4693 33.9978 22.4674 34.1961C22.4648 34.4992 22.4673 34.802 22.4703 35.1052C22.47 35.298 22.4694 35.4909 22.4685 35.6838C22.4695 35.7742 22.4704 35.8647 22.4714 35.9578C22.4639 36.3889 22.4525 36.5938 22.1901 36.9487C21.8608 37.1787 21.591 37.1785 21.2051 37.1545C21.1401 37.1524 21.0752 37.1503 21.0082 37.1481C20.8492 37.1426 20.6902 37.1342 20.5312 37.1252C20.4937 37.5248 20.4937 37.5248 20.6682 37.8697C20.7274 37.9198 20.7866 37.97 20.8477 38.0217C21.1161 38.2695 21.2991 38.4429 21.375 38.8127C21.3627 39.3993 21.0619 39.6577 20.6634 40.0421C20.6016 40.1035 20.5398 40.1649 20.476 40.2281C20.2787 40.4235 20.0798 40.6171 19.8809 40.8107C19.7473 40.9428 19.6138 41.0749 19.4804 41.2072C19.2364 41.448 18.9924 41.6887 18.7467 41.9278C18.6975 41.9759 18.6482 42.0239 18.5974 42.0734C18.3937 42.2544 18.2624 42.2845 17.9883 42.3283C17.5328 42.2695 17.3647 42.0993 17.0435 41.7871C16.8668 41.6078 16.8668 41.6078 16.5937 41.4377C16.3457 41.467 16.3457 41.467 16.125 41.5314C16.1299 41.6772 16.1299 41.6772 16.1349 41.8259C16.1375 41.9543 16.1401 42.0827 16.1426 42.2111C16.1449 42.2751 16.1473 42.339 16.1497 42.4049C16.154 42.6991 16.1433 42.9042 16.0009 43.1647C15.7444 43.4062 15.4956 43.4187 15.1593 43.423C15.0378 43.4248 15.0378 43.4248 14.9137 43.4267C14.8264 43.4274 14.7391 43.4281 14.6492 43.4288C14.5141 43.4299 14.5141 43.4299 14.3763 43.4311C14.1857 43.4324 13.9952 43.4334 13.8046 43.4341C13.5135 43.4357 13.2224 43.4398 12.9313 43.444C12.7461 43.4449 12.5609 43.4457 12.3757 43.4464C12.2453 43.4488 12.2453 43.4488 12.1123 43.4513C11.7127 43.45 11.4965 43.4431 11.1503 43.2282C10.8299 42.881 10.8649 42.6412 10.8691 42.176C10.87 42.0558 10.8708 41.9357 10.8717 41.812C10.8728 41.7194 10.8739 41.6268 10.875 41.5314C10.6579 41.4564 10.6579 41.4564 10.4062 41.4377C10.218 41.5614 10.218 41.5614 10.0664 41.7482C9.7688 42.0802 9.58212 42.2641 9.12304 42.3342C8.78792 42.3231 8.63382 42.2444 8.38843 42.0192C8.32354 41.9597 8.25865 41.9002 8.19179 41.8389C7.78832 41.4523 7.39036 41.0606 6.99607 40.6647C6.84793 40.5161 6.69929 40.368 6.5506 40.2199C6.45602 40.1252 6.36148 40.0306 6.26697 39.9359C6.1819 39.8507 6.09682 39.7655 6.00918 39.6777C5.72625 39.3774 5.67109 39.1572 5.67261 38.7405C5.7487 38.3957 5.97055 38.1927 6.21313 37.9466C6.39305 37.7733 6.39305 37.7733 6.5625 37.5002C6.53358 37.2984 6.53358 37.2984 6.46875 37.1252C6.37944 37.1295 6.29013 37.1339 6.19812 37.1384C6.08053 37.1418 5.96294 37.1451 5.84179 37.1486C5.72542 37.153 5.60904 37.1573 5.48913 37.1618C5.10284 37.1193 4.95863 37.0218 4.6875 36.7502C4.57975 36.5347 4.58079 36.4099 4.57864 36.1702C4.57774 36.0891 4.57684 36.0081 4.57591 35.9245C4.57531 35.7929 4.57531 35.7929 4.57471 35.6585C4.57417 35.5683 4.57364 35.4782 4.57309 35.3852C4.5722 35.1941 4.57159 35.003 4.57123 34.8119C4.57032 34.5199 4.56741 34.228 4.56445 33.936C4.56384 33.7504 4.56335 33.5648 4.56299 33.3792C4.56183 33.292 4.56067 33.2048 4.55948 33.1149C4.56105 32.658 4.57024 32.3364 4.875 31.9689C5.16237 31.8253 5.46258 31.8656 5.77734 31.8693C5.87668 31.87 5.87668 31.87 5.97803 31.8706C6.1416 31.8717 6.30518 31.8734 6.46875 31.8752C6.55263 31.6142 6.55263 31.6142 6.5625 31.3127C6.36583 31.0774 6.14549 30.9076 5.90661 30.7161C5.67144 30.4067 5.66458 30.2286 5.67437 29.8488C5.75694 29.4327 6.03652 29.1946 6.33471 28.9103C6.39789 28.8473 6.46106 28.7842 6.52615 28.7192C6.65961 28.5868 6.7941 28.4554 6.92953 28.325C7.13642 28.1255 7.33958 27.9226 7.54248 27.7191C7.67289 27.5906 7.8035 27.4623 7.93432 27.3342C8.02533 27.2435 8.02533 27.2435 8.11816 27.151C8.45925 26.8257 8.69306 26.6294 9.1875 26.6252C9.62055 26.7786 9.87032 27.0084 10.1543 27.3558C10.3892 27.5238 10.5946 27.4865 10.875 27.4689C10.8696 27.3729 10.8641 27.2768 10.8585 27.1778C10.8541 27.0502 10.8499 26.9227 10.8457 26.7951C10.8418 26.732 10.8378 26.6688 10.8338 26.6038C10.8256 26.2689 10.8586 26.0861 11.0514 25.8101C11.4686 25.5016 11.8098 25.5264 12.3164 25.5317ZM12.5625 27.2814C12.5538 27.5222 12.5538 27.5222 12.5449 27.7678C12.5319 28.1269 12.4976 28.2762 12.2721 28.5617C11.9731 28.8032 11.6761 28.9563 11.3203 29.092C11.2581 29.1159 11.196 29.1398 11.1319 29.1644C10.2212 29.4971 10.2212 29.4971 9.75 29.3439C9.51704 29.175 9.37152 29.0079 9.1875 28.7814C8.80558 28.9324 8.55327 29.2069 8.27344 29.4963C8.22594 29.5446 8.17845 29.593 8.12951 29.6428C8.01299 29.7615 7.89706 29.8808 7.78125 30.0002C7.84052 30.07 7.84052 30.07 7.901 30.1412C7.95236 30.2049 8.00372 30.2686 8.05664 30.3342C8.10776 30.3962 8.15888 30.4582 8.21155 30.522C8.39249 30.8343 8.4301 31.0436 8.4375 31.4064C8.35202 31.7252 8.22599 32.0195 8.09179 32.3205C8.05874 32.4001 8.02569 32.4798 7.99164 32.5618C7.81642 32.9674 7.6978 33.2291 7.3125 33.4689C6.96828 33.5319 6.63164 33.5418 6.28125 33.5627C6.28125 34.1814 6.28125 34.8002 6.28125 35.4377C6.66119 35.4514 6.66119 35.4514 7.04114 35.4652C7.41385 35.5562 7.54225 35.7015 7.78125 36.0002C7.92398 36.2542 8.03592 36.5153 8.14453 36.7853C8.1745 36.8537 8.20447 36.9221 8.23535 36.9926C8.42163 37.4462 8.47735 37.7623 8.34375 38.2502C8.18193 38.5295 7.98791 38.7496 7.78125 39.0002C8.18344 39.4024 8.58562 39.8046 9 40.2189C9.11021 40.1281 9.22043 40.0372 9.33398 39.9435C9.68287 39.6559 9.95214 39.5719 10.4062 39.5627C10.725 39.6482 11.0194 39.7742 11.3203 39.9084C11.4 39.9414 11.4796 39.9745 11.5616 40.0086C11.9672 40.1838 12.2289 40.3024 12.4687 40.6877C12.5317 41.0319 12.5416 41.3685 12.5625 41.7189C13.1812 41.7189 13.8 41.7189 14.4375 41.7189C14.4462 41.4782 14.4462 41.4782 14.4551 41.2326C14.4679 40.8787 14.5023 40.7251 14.7213 40.442C15.0578 40.1727 15.3877 40.0155 15.7852 39.8557C15.8536 39.8257 15.922 39.7957 15.9924 39.7648C16.446 39.5786 16.7621 39.5228 17.25 39.6564C17.5293 39.8183 17.7494 40.0123 18 40.2189C18.4022 39.8168 18.8044 39.4146 19.2187 39.0002C19.067 38.6307 19.067 38.6307 18.832 38.467C18.5987 38.1792 18.6233 37.9995 18.6312 37.639C18.6726 37.2549 18.8071 36.9261 18.9609 36.5744C18.9891 36.5046 19.0173 36.4347 19.0463 36.3627C19.3225 35.7093 19.3225 35.7093 19.6875 35.5314C20.0317 35.4685 20.3684 35.4585 20.7187 35.4377C20.7187 34.8189 20.7187 34.2002 20.7187 33.5627C20.5235 33.5414 20.3282 33.5202 20.127 33.4982C19.7941 33.462 19.7941 33.462 19.5 33.3752C19.3389 33.1727 19.3389 33.1727 19.2187 32.9064C19.1691 32.8064 19.1194 32.7063 19.0682 32.6032C18.4881 31.314 18.4881 31.314 18.6562 30.7502C18.8215 30.4677 19.0017 30.2489 19.2187 30.0002C18.8166 29.598 18.4144 29.1958 18 28.7814C17.8936 28.8743 17.7873 28.9671 17.6777 29.0627C17.34 29.3574 17.0642 29.3877 16.6314 29.3723C16.2526 29.3246 15.9229 29.1955 15.5742 29.0451C15.5044 29.0177 15.4345 28.9904 15.3625 28.9622C15.0447 28.8293 14.849 28.7323 14.6283 28.4621C14.4713 28.0686 14.4656 27.7029 14.4375 27.2814C13.8187 27.2814 13.2 27.2814 12.5625 27.2814Z" fill="white"/>
<path d="M19.2711 6.64118C21.0087 8.17858 22.2571 10.2904 22.4256 12.6462C22.4346 12.9233 22.4371 13.1993 22.4355 13.4765C22.4348 13.6239 22.4348 13.6239 22.4341 13.7743C22.4023 15.8939 21.6237 17.7974 20.25 19.4062C20.1608 19.5226 20.1608 19.5226 20.0698 19.6413C18.7873 21.1793 16.5868 22.192 14.625 22.4062C12.0812 22.5484 9.68219 22.0782 7.72267 20.3481C7.48656 20.1333 7.25857 19.9116 7.03124 19.6874C6.92827 19.5863 6.92827 19.5863 6.82323 19.4831C5.23806 17.8161 4.54014 15.5212 4.56078 13.2592C4.62695 10.8678 5.59598 8.76475 7.2777 7.06305C10.5936 3.93584 15.763 3.71867 19.2711 6.64118ZM10.3125 7.03119C10.2202 7.07735 10.1278 7.12352 10.0327 7.17108C8.32586 8.09525 7.17641 9.59974 6.56285 11.4356C6.42047 11.9295 6.31236 12.4234 6.28124 12.9374C6.27628 13.0178 6.27133 13.0982 6.26622 13.181C6.2034 15.2102 6.93484 17.0559 8.31346 18.5362C9.63692 19.9028 11.4059 20.6957 13.3025 20.758C15.4404 20.7748 17.2359 19.9568 18.75 18.4687C18.8087 18.4112 18.8675 18.3536 18.928 18.2944C20.2607 16.8832 20.797 14.997 20.7473 13.0956C20.6484 11.118 19.7229 9.44114 18.3047 8.09174C16.0656 6.16016 12.9705 5.70217 10.3125 7.03119Z" fill="white"/>
<path d="M39.3773 4.56645C39.4905 4.56465 39.4905 4.56465 39.6059 4.56282C39.7276 4.56251 39.7276 4.56251 39.8518 4.56219C39.9356 4.56156 40.0194 4.56094 40.1058 4.5603C40.2831 4.55935 40.4604 4.55891 40.6377 4.55894C40.9085 4.55853 41.1792 4.55512 41.45 4.55157C41.6223 4.55102 41.7947 4.55065 41.967 4.55047C42.0882 4.54845 42.0882 4.54845 42.2118 4.54639C42.5971 4.54931 42.7938 4.56221 43.1271 4.77216C43.4498 5.11417 43.4184 5.34556 43.4194 5.8091C43.4197 5.87707 43.42 5.94505 43.4203 6.01508C43.4211 6.24402 43.4212 6.47295 43.4214 6.70189C43.4218 6.86556 43.4223 7.02924 43.4228 7.19291C43.424 7.63842 43.4246 8.08394 43.425 8.52945C43.4253 8.80763 43.4257 9.08582 43.4261 9.36401C43.4274 10.2339 43.4283 11.1039 43.4287 11.9738C43.4291 12.9788 43.4307 13.9839 43.4334 14.9889C43.4355 15.7652 43.4364 16.5414 43.4365 17.3177C43.4366 17.7816 43.4372 18.2455 43.4389 18.7094C43.4404 19.1458 43.4406 19.5821 43.4398 20.0185C43.4397 20.1787 43.4401 20.3389 43.441 20.4991C43.4422 20.7178 43.4417 20.9364 43.4407 21.1551C43.4408 21.2774 43.441 21.3998 43.4411 21.5259C43.4039 21.8655 43.3305 22.0426 43.125 22.3124C42.9141 22.4179 42.7962 22.4196 42.5622 22.4228C42.4463 22.4246 42.4463 22.4246 42.328 22.4264C42.2443 22.4271 42.1606 22.4278 42.0743 22.4285C41.9883 22.4293 41.9023 22.43 41.8137 22.4308C41.6314 22.4321 41.4491 22.4331 41.2668 22.4339C40.9884 22.4355 40.7101 22.4396 40.4317 22.4437C40.2546 22.4447 40.0776 22.4455 39.9005 22.4461C39.7758 22.4486 39.7758 22.4486 39.6486 22.4511C39.2615 22.4497 39.0529 22.4382 38.7152 22.2338C38.3936 21.8796 38.4254 21.5572 38.4243 21.0971C38.4241 21.0302 38.4238 20.9634 38.4235 20.8945C38.4227 20.67 38.4225 20.4454 38.4224 20.2209C38.422 20.0601 38.4215 19.8994 38.421 19.7386C38.4198 19.3014 38.4192 18.8642 38.4187 18.427C38.4185 18.154 38.4181 17.8809 38.4177 17.6078C38.4164 16.7535 38.4155 15.8993 38.4151 15.045C38.4147 14.0586 38.413 13.0722 38.4103 12.0858C38.4083 11.3235 38.4074 10.5613 38.4072 9.79899C38.4071 9.34363 38.4066 8.88829 38.4049 8.43293C38.4034 8.00455 38.4032 7.57619 38.404 7.14781C38.4041 6.99067 38.4036 6.83353 38.4027 6.67639C38.4015 6.46166 38.4021 6.24701 38.4031 6.03228C38.4029 5.91218 38.4028 5.79207 38.4026 5.66833C38.4411 5.31002 38.5286 5.08579 38.7188 4.78118C39.0023 4.59218 39.0592 4.56988 39.3773 4.56645ZM40.2188 6.28118C40.2188 11.0456 40.2188 15.8099 40.2188 20.7187C40.7138 20.7187 41.2088 20.7187 41.7188 20.7187C41.7188 15.9543 41.7188 11.1899 41.7188 6.28118C41.2238 6.28118 40.7288 6.28118 40.2188 6.28118Z" fill="white"/>
<path d="M33.4596 8.60946C33.5415 8.60915 33.6235 8.60884 33.7079 8.60852C33.8812 8.60804 34.0545 8.60782 34.2278 8.60784C34.4928 8.60763 34.7578 8.60593 35.0228 8.60415C35.1912 8.60388 35.3596 8.60369 35.528 8.6036C35.6072 8.60293 35.6864 8.60226 35.768 8.60156C35.8421 8.60185 35.9163 8.60214 35.9927 8.60244C36.0901 8.60224 36.0901 8.60224 36.1894 8.60203C36.4137 8.63005 36.5587 8.69278 36.75 8.81271C36.9617 9.1303 36.9615 9.23988 36.9632 9.61223C36.9641 9.72 36.9651 9.82778 36.966 9.93883C36.9661 10.0572 36.9662 10.1755 36.9662 10.2975C36.9669 10.4233 36.9677 10.5491 36.9686 10.6749C36.9706 11.0168 36.9715 11.3587 36.9719 11.7006C36.9723 11.9142 36.9729 12.1278 36.9735 12.3414C36.9758 13.0865 36.9771 13.8317 36.9774 14.5769C36.9777 15.2715 36.9805 15.966 36.9845 16.6606C36.9877 17.257 36.9892 17.8533 36.9892 18.4497C36.9893 18.8058 36.9901 19.162 36.9928 19.5181C36.9952 19.8532 36.9955 20.1882 36.9939 20.5232C36.9937 20.7046 36.9958 20.886 36.9979 21.0674C36.9912 21.86 36.9912 21.86 36.7251 22.245C36.4735 22.4035 36.3536 22.4655 36.0615 22.4671C35.9842 22.4686 35.907 22.4701 35.8273 22.4716C35.7451 22.4706 35.6629 22.4697 35.5781 22.4687C35.4925 22.4692 35.4069 22.4696 35.3187 22.4701C35.1381 22.4704 34.9574 22.4695 34.7769 22.4676C34.5009 22.4651 34.2252 22.4675 33.9492 22.4705C33.7734 22.4702 33.5977 22.4696 33.4219 22.4687C33.3396 22.4697 33.2574 22.4706 33.1727 22.4716C33.0567 22.4694 33.0567 22.4694 32.9385 22.4671C32.871 22.4667 32.8035 22.4664 32.7339 22.466C32.385 22.3635 32.2711 22.2393 32.0625 21.9377C31.9924 21.5294 32.0005 21.1248 32.0048 20.7114C32.0045 20.5854 32.004 20.4594 32.0032 20.3334C32.0019 19.9919 32.0035 19.6505 32.0057 19.309C32.0076 18.9515 32.007 18.5939 32.0068 18.2364C32.0068 17.6361 32.0087 17.0358 32.0117 16.4355C32.0151 15.7415 32.016 15.0476 32.0153 14.3537C32.0147 13.6859 32.0157 13.0181 32.0176 12.3502C32.0183 12.0661 32.0186 11.782 32.0184 11.4979C32.0184 11.1634 32.0197 10.8289 32.0221 10.4944C32.0231 10.3131 32.0227 10.1318 32.0223 9.95049C32.0239 9.78863 32.0239 9.78863 32.0255 9.6235C32.0259 9.52974 32.0262 9.43598 32.0266 9.33938C32.0685 9.05274 32.143 8.92538 32.3437 8.71896C32.7154 8.59509 33.0721 8.60997 33.4596 8.60946ZM33.75 10.3127C33.75 13.7468 33.75 17.1808 33.75 20.719C34.245 20.719 34.74 20.719 35.25 20.719C35.25 17.2849 35.25 13.8508 35.25 10.3127C34.755 10.3127 34.26 10.3127 33.75 10.3127Z" fill="white"/>
<path d="M27.1022 11.797C27.2121 11.7965 27.2121 11.7965 27.3242 11.796C27.4789 11.7955 27.6336 11.7953 27.7882 11.7953C28.0242 11.7951 28.2602 11.7934 28.4962 11.7917C28.6467 11.7914 28.7973 11.7912 28.9479 11.7911C29.0181 11.7904 29.0883 11.7898 29.1607 11.7891C29.6206 11.7911 29.9753 11.8279 30.3386 12.1229C30.502 12.3219 30.5045 12.4234 30.5057 12.6787C30.5068 12.7597 30.5079 12.8406 30.509 12.924C30.5085 13.0569 30.5085 13.0569 30.5081 13.1924C30.5089 13.2858 30.5097 13.3793 30.5105 13.4756C30.5127 13.7853 30.5128 14.095 30.5127 14.4048C30.5134 14.6197 30.5141 14.8347 30.5149 15.0497C30.5161 15.5006 30.5163 15.9516 30.5157 16.4025C30.5152 16.9806 30.518 17.5586 30.5218 18.1367C30.5242 18.5808 30.5245 19.0249 30.5242 19.4691C30.5243 19.6822 30.5252 19.8953 30.5269 20.1084C30.529 20.4065 30.5281 20.7045 30.5264 21.0025C30.5277 21.0907 30.5289 21.1789 30.5302 21.2697C30.5248 21.6892 30.511 21.8802 30.2562 22.2267C30.002 22.4051 29.8962 22.4654 29.5928 22.4671C29.5155 22.4686 29.4382 22.4701 29.3586 22.4716C29.2763 22.4706 29.1941 22.4697 29.1094 22.4687C29.0238 22.4692 28.9381 22.4696 28.8499 22.4701C28.6693 22.4704 28.4887 22.4695 28.3081 22.4676C28.0321 22.4651 27.7565 22.4676 27.4805 22.4705C27.3047 22.4702 27.1289 22.4696 26.9531 22.4687C26.8298 22.4701 26.8298 22.4701 26.7039 22.4716C26.6266 22.4701 26.5494 22.4686 26.4697 22.4671C26.3685 22.4666 26.3685 22.4666 26.2652 22.466C25.9306 22.3677 25.7998 22.2171 25.5938 21.9377C25.5261 21.6296 25.5306 21.3286 25.5346 21.0141C25.5339 20.9215 25.5332 20.829 25.5326 20.7336C25.531 20.4279 25.5328 20.1223 25.5348 19.8166C25.5347 19.604 25.5345 19.3914 25.5341 19.1788C25.5338 18.7334 25.5352 18.288 25.5378 17.8426C25.541 17.2716 25.5404 16.7008 25.5387 16.1298C25.5377 15.6908 25.5385 15.2519 25.5399 14.8129C25.5404 14.6024 25.5404 14.3919 25.5398 14.1814C25.5393 13.8871 25.5412 13.593 25.5437 13.2988C25.5431 13.2118 25.5425 13.1248 25.5419 13.0352C25.5478 12.6393 25.5594 12.4299 25.7742 12.0878C26.1591 11.7291 26.599 11.7977 27.1022 11.797ZM27.2813 13.594C27.2813 15.9452 27.2813 18.2965 27.2813 20.719C27.7763 20.719 28.2713 20.719 28.7813 20.719C28.7813 18.3677 28.7813 16.0165 28.7813 13.594C28.2863 13.594 27.7913 13.594 27.2813 13.594Z" fill="white"/>
<path d="M14.0625 7.96877C14.2864 8.19057 14.3405 8.30991 14.3712 8.62648C14.368 8.72655 14.3647 8.82661 14.3613 8.92971C14.3575 9.08125 14.3575 9.08125 14.3536 9.23586C14.3504 9.31272 14.3471 9.38958 14.3438 9.46877C14.4534 9.46224 14.563 9.45572 14.6759 9.44899C14.8211 9.44372 14.9662 9.4386 15.1113 9.43361C15.1834 9.4289 15.2555 9.42419 15.3298 9.41933C15.8513 9.4059 15.8513 9.4059 16.0937 9.58268C16.2762 9.7865 16.3958 9.96878 16.4414 10.2404C16.3897 10.5104 16.3442 10.7366 16.1836 10.9629C15.8356 11.1905 15.5033 11.1692 15.1 11.1727C14.9702 11.1749 14.8403 11.1772 14.7105 11.1795C14.5064 11.1828 14.3024 11.1856 14.0983 11.1868C13.9009 11.1883 13.7036 11.192 13.5062 11.1962C13.3882 11.1976 13.2702 11.1989 13.1487 11.2003C12.7932 11.2583 12.6805 11.3385 12.4688 11.625C12.4063 11.9063 12.4063 11.9063 12.4688 12.1875C12.6091 12.4032 12.6091 12.4032 12.8438 12.5625C13.0944 12.5979 13.314 12.6141 13.5645 12.6153C14.4746 12.6486 15.1001 12.7731 15.7756 13.4096C16.2182 13.9132 16.3791 14.4598 16.4297 15.1172C16.3798 15.8664 16.1119 16.5382 15.5625 17.0625C15.1762 17.3104 14.8092 17.5313 14.3438 17.5313C14.3535 17.6551 14.3535 17.6551 14.3635 17.7814C14.4038 18.6446 14.4038 18.6446 14.2383 18.9353C14.0089 19.1396 13.7927 19.2167 13.4942 19.2715C13.1552 19.2066 12.9955 19.0823 12.75 18.8438C12.626 18.5958 12.6472 18.4052 12.6504 18.1289C12.6512 18.0349 12.6521 17.9409 12.653 17.844C12.6541 17.7717 12.6551 17.6995 12.6563 17.625C12.5223 17.6299 12.5223 17.6299 12.3856 17.6349C12.268 17.6374 12.1505 17.64 12.0293 17.6426C11.8547 17.6475 11.8547 17.6475 11.6766 17.6525C11.2311 17.6157 10.9986 17.4673 10.6875 17.1563C10.6206 16.7535 10.6146 16.4167 10.8516 16.0781C11.2431 15.8172 11.6162 15.8307 12.0795 15.824C12.2052 15.8214 12.3308 15.8187 12.4565 15.8159C12.6536 15.8121 12.8506 15.8086 13.0478 15.8061C13.2387 15.8036 13.4296 15.7993 13.6205 15.7947C13.7345 15.7928 13.8484 15.791 13.9659 15.7891C14.2481 15.7739 14.2481 15.7739 14.4252 15.6176C14.5558 15.4343 14.6051 15.319 14.625 15.0938C14.5575 14.836 14.5099 14.6769 14.2899 14.5192C13.9645 14.4023 13.6424 14.4138 13.3008 14.4082C12.4525 14.3745 11.8043 14.2002 11.209 13.5586C10.6579 12.8265 10.5814 12.1586 10.6875 11.25C10.8799 10.6112 11.2358 10.0947 11.8125 9.75002C12.089 9.63404 12.3661 9.54378 12.6563 9.46877C12.6508 9.393 12.6454 9.31722 12.6398 9.23916C12.605 8.41448 12.605 8.41448 12.8731 8.04494C13.3274 7.73852 13.5582 7.77966 14.0625 7.96877Z" fill="white"/>
<path d="M15.4336 31.4649C16.2208 32.0292 16.7957 32.7452 17.0229 33.6955C17.1916 34.7277 17.0363 35.734 16.4238 36.5977C15.7831 37.3717 15.0331 37.8688 14.0347 38.0387C12.9064 38.1447 11.9363 37.843 11.0662 37.1236C10.3179 36.3954 9.99942 35.5265 9.9375 34.5022C9.9375 33.3988 10.3687 32.5996 11.1094 31.8066C11.464 31.4846 11.8369 31.2958 12.2812 31.125C12.3857 31.0844 12.4901 31.0438 12.5977 31.002C13.6108 30.8098 14.5507 30.9216 15.4336 31.4649ZM12 33.375C11.6811 33.8109 11.6597 34.2518 11.6741 34.7773C11.7585 35.3161 12.0348 35.6749 12.4252 36.0414C12.9072 36.3813 13.4988 36.3681 14.0625 36.2813C14.5428 36.0913 14.9149 35.7841 15.1875 35.3438C15.3961 34.8273 15.4152 34.3787 15.2812 33.8438C15.0032 33.3083 14.6137 32.9282 14.0566 32.6895C13.2419 32.4988 12.5776 32.7975 12 33.375Z" fill="white"/>
</svg>
