<svg width="73" height="73" viewBox="0 0 73 73" fill="none" xmlns="http://www.w3.org/2000/svg">
<path d="M2.28125 18.25H18.25V25.0938C18.25 28.7437 21.4438 31.9375 25.0938 31.9375H47.9062C51.5563 31.9375 54.75 28.7437 54.75 25.0938V18.25H70.7188C72.0875 18.25 73 17.3375 73 15.9688C73 14.6 72.0875 13.6875 70.7188 13.6875H54.75V6.84375C54.75 3.19375 51.5563 0 47.9062 0H25.0938C21.4438 0 18.25 3.19375 18.25 6.84375V13.6875H2.28125C0.9125 13.6875 0 14.6 0 15.9688C0 17.3375 0.9125 18.25 2.28125 18.25ZM22.8125 6.84375C22.8125 5.475 23.725 4.5625 25.0938 4.5625H47.9062C49.275 4.5625 50.1875 5.475 50.1875 6.84375V25.0938C50.1875 26.4625 49.275 27.375 47.9062 27.375H25.0938C23.725 27.375 22.8125 26.4625 22.8125 25.0938V6.84375Z" fill="#3B5BA6"/>
<path d="M70.7188 50.1875H63.875V43.3438C63.875 39.6937 60.6813 36.5 57.0312 36.5H15.9688C12.3188 36.5 9.125 39.6937 9.125 43.3438V50.1875H2.28125C0.9125 50.1875 0 51.1 0 52.4688C0 53.8375 0.9125 54.75 2.28125 54.75H9.125V61.5938C9.125 65.2437 12.3188 68.4375 15.9688 68.4375H57.0312C60.6813 68.4375 63.875 65.2437 63.875 61.5938V54.75H70.7188C72.0875 54.75 73 53.8375 73 52.4688C73 51.1 72.0875 50.1875 70.7188 50.1875ZM59.3125 61.5938C59.3125 62.9625 58.4 63.875 57.0312 63.875H15.9688C14.6 63.875 13.6875 62.9625 13.6875 61.5938V43.3438C13.6875 41.975 14.6 41.0625 15.9688 41.0625H57.0312C58.4 41.0625 59.3125 41.975 59.3125 43.3438V61.5938Z" fill="#3B5BA6"/>
</svg>
