<svg width="73" height="73" viewBox="0 0 73 73" fill="none" xmlns="http://www.w3.org/2000/svg">
<g clip-path="url(#clip0_89_687)">
<path d="M67.8596 27.723L65.4256 26.3178L67.8596 24.9125C70.7101 23.2668 70.7138 19.1514 67.8596 17.5036L38.5338 0.571178C37.2145 -0.190474 35.5754 -0.190474 34.2565 0.571178L5.14029 17.3824C2.28958 19.0282 2.28616 23.1436 5.14029 24.7914L7.57424 26.1967L5.14029 27.6021C3.80105 28.3753 3.00162 29.7602 3.00162 31.3065V43.2983C3.00162 44.8447 3.80105 46.2295 5.14029 47.0027L6.07988 47.5452L5.14029 48.0878C2.28958 49.7335 2.28616 53.8489 5.14029 55.4967L34.4662 72.4288C35.7853 73.1903 37.4243 73.1906 38.7435 72.4288L67.8597 55.6177C70.7104 53.972 70.7138 49.8566 67.8597 48.2088L66.9201 47.6663L67.8597 47.1238C69.1989 46.3506 69.9984 44.9657 69.9984 43.4193V31.4275C69.9984 31.4274 69.9984 31.4274 69.9984 31.4272C69.9981 29.881 69.1986 28.4962 67.8596 27.723ZM38.6386 59.0562V51.999C38.6735 51.9801 38.709 51.9629 38.7434 51.9431L65.7205 36.3671L65.7199 43.42L38.6386 59.0562ZM7.27896 43.2974V36.2457L34.3612 51.8825V58.935L7.27896 43.2974ZM36.3951 4.27579L65.721 21.2079L36.6051 38.0192L36.6049 38.019L7.27896 21.0867L36.3951 4.27579ZM11.8516 28.6662L34.4662 41.7235C35.7853 42.485 37.4243 42.4853 38.7435 41.7235L61.1484 28.7874L65.721 31.4275L36.6047 48.2386L7.27953 31.306L11.8516 28.6662ZM65.7209 51.9131L36.6047 68.7242L7.27953 51.7917L10.3572 50.0147L34.4663 63.9349C35.7855 64.6963 37.4243 64.6965 38.7435 63.9347L62.6429 50.1358L65.7209 51.9131Z" fill="#3B5BA6"/>
<path d="M36.5034 31.8411C37.6846 31.8411 38.6421 30.8836 38.6421 29.7025C38.6421 28.5213 37.6846 27.5638 36.5034 27.5638C35.3223 27.5638 34.3647 28.5213 34.3647 29.7025C34.3647 30.8836 35.3223 31.8411 36.5034 31.8411Z" fill="#3B5BA6"/>
<path d="M53.6201 23.286C54.8013 23.286 55.7588 22.3285 55.7588 21.1473C55.7588 19.9662 54.8013 19.0087 53.6201 19.0087C52.439 19.0087 51.4814 19.9662 51.4814 21.1473C51.4814 22.3285 52.439 23.286 53.6201 23.286Z" fill="#3B5BA6"/>
<path d="M45.0513 19.0085C46.2324 19.0085 47.1899 18.051 47.1899 16.8699C47.1899 15.6887 46.2324 14.7312 45.0513 14.7312C43.8701 14.7312 42.9126 15.6887 42.9126 16.8699C42.9126 18.051 43.8701 19.0085 45.0513 19.0085Z" fill="#3B5BA6"/>
<path d="M36.4966 23.286C37.6777 23.286 38.6353 22.3285 38.6353 21.1473C38.6353 19.9662 37.6777 19.0087 36.4966 19.0087C35.3154 19.0087 34.3579 19.9662 34.3579 21.1473C34.3579 22.3285 35.3154 23.286 36.4966 23.286Z" fill="#3B5BA6"/>
<path d="M36.4966 14.7309C37.6777 14.7309 38.6353 13.7734 38.6353 12.5922C38.6353 11.4111 37.6777 10.4536 36.4966 10.4536C35.3154 10.4536 34.3579 11.4111 34.3579 12.5922C34.3579 13.7734 35.3154 14.7309 36.4966 14.7309Z" fill="#3B5BA6"/>
<path d="M27.938 27.5637C29.1191 27.5637 30.0767 26.6061 30.0767 25.425C30.0767 24.2438 29.1191 23.2863 27.938 23.2863C26.7568 23.2863 25.7993 24.2438 25.7993 25.425C25.7993 26.6061 26.7568 27.5637 27.938 27.5637Z" fill="#3B5BA6"/>
<path d="M45.0654 27.5637C46.2466 27.5637 47.2041 26.6061 47.2041 25.425C47.2041 24.2438 46.2466 23.2863 45.0654 23.2863C43.8843 23.2863 42.9268 24.2438 42.9268 25.425C42.9268 26.6061 43.8843 27.5637 45.0654 27.5637Z" fill="#3B5BA6"/>
<path d="M27.938 19.0085C29.1191 19.0085 30.0767 18.051 30.0767 16.8699C30.0767 15.6887 29.1191 14.7312 27.938 14.7312C26.7568 14.7312 25.7993 15.6887 25.7993 16.8699C25.7993 18.051 26.7568 19.0085 27.938 19.0085Z" fill="#3B5BA6"/>
<path d="M19.3799 23.286C20.561 23.286 21.5186 22.3285 21.5186 21.1473C21.5186 19.9662 20.561 19.0087 19.3799 19.0087C18.1987 19.0087 17.2412 19.9662 17.2412 21.1473C17.2412 22.3285 18.1987 23.286 19.3799 23.286Z" fill="#3B5BA6"/>
</g>
<defs>
<clipPath id="clip0_89_687">
<rect width="73" height="73" fill="white"/>
</clipPath>
</defs>
</svg>
