<svg width="73" height="74" viewBox="0 0 73 74" fill="none" xmlns="http://www.w3.org/2000/svg">
<path d="M66.1562 10.8658H52.1836V7.15875C52.1818 5.72237 51.6104 4.34534 50.5947 3.32967C49.579 2.314 48.202 1.74259 46.7656 1.74078H26.2344C24.798 1.74259 23.421 2.314 22.4053 3.32967C21.3896 4.34534 20.8182 5.72237 20.8164 7.15875V10.8658H6.84375C5.10495 10.8679 3.43797 11.5596 2.20846 12.7891C0.97894 14.0186 0.287269 15.6856 0.285156 17.4244V28.8306C0.285156 29.36 0.495458 29.8677 0.869799 30.2421C1.24414 30.6164 1.75185 30.8267 2.28125 30.8267H3.70703V65.3306C3.70914 67.0694 4.40082 68.7364 5.63033 69.9659C6.85985 71.1954 8.52683 71.8871 10.2656 71.8892H62.7344C64.4732 71.8871 66.1402 71.1954 67.3697 69.9659C68.5992 68.7364 69.2909 67.0694 69.293 65.3306V30.8267H70.7188C71.2481 30.8267 71.7559 30.6164 72.1302 30.2421C72.5045 29.8677 72.7148 29.36 72.7148 28.8306V17.4244C72.7127 15.6856 72.0211 14.0186 70.7915 12.7891C69.562 11.5596 67.8951 10.8679 66.1562 10.8658ZM24.8086 7.15875C24.8092 6.7808 24.9596 6.41849 25.2269 6.15124C25.4941 5.88398 25.8564 5.73357 26.2344 5.73297H46.7656C47.1436 5.73357 47.5059 5.88398 47.7731 6.15124C48.0404 6.41849 48.1908 6.7808 48.1914 7.15875V10.8658H24.8086V7.15875ZM4.27734 17.4244C4.27825 16.744 4.54893 16.0918 5.03003 15.6107C5.51113 15.1296 6.16337 14.8589 6.84375 14.858H66.1562C66.8366 14.8589 67.4889 15.1296 67.97 15.6107C68.4511 16.0918 68.7217 16.744 68.7227 17.4244V26.8345H61.3086V24.8384C61.3086 24.309 61.0983 23.8013 60.724 23.427C60.3496 23.0526 59.8419 22.8423 59.3125 22.8423H50.1875C49.6581 22.8423 49.1504 23.0526 48.776 23.427C48.4017 23.8013 48.1914 24.309 48.1914 24.8384V26.8345H24.8086V24.8384C24.8086 24.309 24.5983 23.8013 24.224 23.427C23.8496 23.0526 23.3419 22.8423 22.8125 22.8423H13.6875C13.1581 22.8423 12.6504 23.0526 12.276 23.427C11.9017 23.8013 11.6914 24.309 11.6914 24.8384V26.8345H4.27734V17.4244ZM52.1836 26.8345H57.3164V30.8267H52.1836V26.8345ZM15.6836 26.8345H20.8164V30.8267H15.6836V26.8345ZM65.3008 65.3306C65.2999 66.011 65.0292 66.6633 64.5481 67.1443C64.067 67.6255 63.4147 67.8961 62.7344 67.897H10.2656C9.58525 67.8961 8.933 67.6255 8.4519 67.1443C7.9708 66.6633 7.70012 66.011 7.69922 65.3306V30.8267H11.6914V32.8228C11.6914 33.3522 11.9017 33.8599 12.276 34.2343C12.6504 34.6086 13.1581 34.8189 13.6875 34.8189H22.8125C23.3419 34.8189 23.8496 34.6086 24.224 34.2343C24.5983 33.8599 24.8086 33.3522 24.8086 32.8228V30.8267H48.1914V32.8228C48.1914 33.3522 48.4017 33.8599 48.776 34.2343C49.1504 34.6086 49.6581 34.8189 50.1875 34.8189H59.3125C59.8419 34.8189 60.3496 34.6086 60.724 34.2343C61.0983 33.8599 61.3086 33.3522 61.3086 32.8228V30.8267H65.3008V65.3306Z" fill="#3B5BA6"/>
<path d="M53.6094 47.9361C54.4125 47.9407 55.1919 48.2088 55.8279 48.6992C56.2504 49.0183 56.7823 49.1566 57.3067 49.0835C57.8311 49.0105 58.305 48.7321 58.6241 48.3097C58.9433 47.8872 59.0815 47.3553 59.0085 46.8309C58.9354 46.3065 58.6571 45.8326 58.2346 45.5134C56.9067 44.4973 55.2815 43.9458 53.6094 43.9439C51.9168 43.9469 50.2723 44.507 48.9298 45.5378C47.5873 46.5685 46.6216 48.0126 46.1816 49.647H26.8184C26.3785 48.0126 25.4127 46.5685 24.0702 45.5378C22.7277 44.507 21.0832 43.9469 19.3906 43.9439C17.7185 43.9458 16.0933 44.4973 14.7654 45.5134C14.3429 45.8326 14.0646 46.3065 13.9915 46.8309C13.9185 47.3553 14.0567 47.8872 14.3759 48.3097C14.695 48.7321 15.1689 49.0105 15.6933 49.0835C16.2177 49.1566 16.7497 49.0183 17.1721 48.6992C17.8081 48.2088 18.5875 47.9407 19.3906 47.9361C19.9809 47.9307 20.564 48.0663 21.0913 48.3317C21.6186 48.5971 22.0749 48.9846 22.4223 49.4619C22.7696 49.9393 22.9979 50.4927 23.0882 51.0761C23.1784 51.6594 23.1281 52.256 22.9413 52.816C22.7545 53.376 22.4367 53.8833 22.0142 54.2956C21.5918 54.708 21.077 55.0135 20.5127 55.1868C19.9483 55.36 19.3508 55.396 18.7697 55.2917C18.1887 55.1874 17.641 54.9458 17.1721 54.5871C16.7497 54.2679 16.2177 54.1297 15.6933 54.2027C15.1689 54.2758 14.695 54.5541 14.3759 54.9766C14.0567 55.3991 13.9185 55.931 13.9915 56.4554C14.0646 56.9798 14.3429 57.4537 14.7654 57.7728C15.7674 58.537 16.9425 59.0422 18.1864 59.2437C19.4304 59.4452 20.7048 59.3367 21.8968 58.9279C23.0888 58.5191 24.1616 57.8226 25.0201 56.9C25.8786 55.9775 26.4962 54.8575 26.8184 53.6392H46.1816C46.6216 55.2736 47.5873 56.7177 48.9298 57.7485C50.2723 58.7793 51.9168 59.3394 53.6094 59.3423C55.2815 59.3405 56.9067 58.789 58.2346 57.7728C58.6571 57.4537 58.9354 56.9798 59.0085 56.4554C59.0815 55.931 58.9433 55.3991 58.6241 54.9766C58.305 54.5541 57.8311 54.2758 57.3067 54.2027C56.7823 54.1297 56.2504 54.2679 55.8279 54.5871C55.1919 55.0774 54.4125 55.3455 53.6094 55.3502C52.6262 55.3502 51.6833 54.9596 50.9881 54.2644C50.2929 53.5692 49.9023 52.6263 49.9023 51.6431C49.9023 50.66 50.2929 49.7171 50.9881 49.0219C51.6833 48.3267 52.6262 47.9361 53.6094 47.9361Z" fill="#3B5BA6"/>
</svg>
