<svg width="24" height="24" viewBox="0 0 24 24" fill="none" xmlns="http://www.w3.org/2000/svg">
<g clip-path="url(#clip0_763_269)">
<path d="M15.4524 -0.0082972C15.5069 -0.00889886 15.5613 -0.00950051 15.6174 -0.0101204C15.6763 -0.0104667 15.7352 -0.0108129 15.7959 -0.0111697C15.8564 -0.011548 15.9169 -0.0119264 15.9793 -0.0123162C16.1075 -0.01302 16.2356 -0.0134814 16.3638 -0.0138361C16.5276 -0.0143544 16.6913 -0.0159668 16.8551 -0.0178286C17.0118 -0.0193526 17.1685 -0.0195605 17.3252 -0.0199587C17.3838 -0.0207794 17.4424 -0.0216001 17.5028 -0.0224457C18.0079 -0.0211836 18.0079 -0.0211837 18.2339 0.1875C18.3866 0.361264 18.4275 0.505865 18.426 0.734436C18.4259 0.77628 18.4257 0.818124 18.4256 0.861236C18.4252 0.904772 18.4248 0.948308 18.4244 0.993164C18.4241 1.03724 18.4239 1.08132 18.4237 1.12674C18.4232 1.23554 18.4224 1.34433 18.4214 1.45312C18.5715 1.5008 18.5715 1.5008 18.7496 1.5C18.8634 1.41071 18.9442 1.33517 19.0367 1.22754C19.2244 1.0168 19.3588 0.868882 19.6517 0.829651C19.7026 0.829379 19.7026 0.829379 19.7544 0.829101C19.7882 0.828316 19.822 0.82753 19.8568 0.826721C20.1973 0.878725 20.4101 1.12438 20.6412 1.35736C20.6779 1.39395 20.7147 1.43054 20.7525 1.46824C20.8299 1.54549 20.907 1.62292 20.984 1.70051C21.1017 1.81893 21.2201 1.93658 21.3386 2.05417C21.4138 2.12947 21.489 2.20482 21.5641 2.28021C21.5994 2.31523 21.6347 2.35025 21.6711 2.38633C21.8981 2.61643 22.0607 2.80269 22.0982 3.13477C22.0797 3.49679 21.8995 3.70093 21.6412 3.94043C21.5988 3.97674 21.5564 4.01306 21.5128 4.05048C21.4021 4.1704 21.4021 4.1704 21.4311 4.3504C21.4434 4.39977 21.4557 4.44914 21.4683 4.5C21.4952 4.49926 21.5222 4.49853 21.5499 4.49777C21.6731 4.49483 21.7963 4.49301 21.9195 4.49121C21.9618 4.49003 22.0042 4.48885 22.0478 4.48764C22.2973 4.48491 22.4721 4.4987 22.6871 4.64062C22.8708 4.84427 22.9271 4.9577 22.9297 5.22881C22.9303 5.28326 22.9309 5.33772 22.9316 5.39382C22.9321 5.48251 22.9321 5.48251 22.9326 5.573C22.933 5.63358 22.9334 5.69417 22.9337 5.75659C22.9345 5.88505 22.9349 6.01351 22.9353 6.14198C22.9358 6.30612 22.9374 6.47022 22.9393 6.63435C22.9408 6.79131 22.941 6.94826 22.9414 7.10522C22.9422 7.16397 22.943 7.22272 22.9439 7.28325C22.9426 7.78986 22.9426 7.78986 22.7339 8.01562C22.5602 8.16833 22.4156 8.20916 22.187 8.2077C22.1452 8.20755 22.1033 8.2074 22.0602 8.20724C21.9949 8.20666 21.9949 8.20666 21.9283 8.20605C21.8842 8.20584 21.8401 8.20563 21.7947 8.20541C21.6859 8.20486 21.5771 8.20409 21.4683 8.20312C21.4253 8.35586 21.4253 8.35586 21.4214 8.53125C21.5104 8.6603 21.5104 8.6603 21.6412 8.76562C21.8942 9.00095 22.0804 9.17789 22.1011 9.53906C22.1055 9.83519 21.9115 10.0644 21.7177 10.2688C21.6492 10.3382 21.5802 10.4073 21.511 10.476C21.4743 10.5128 21.4377 10.5496 21.4 10.5874C21.3228 10.6647 21.2454 10.7418 21.1679 10.8187C21.0494 10.9365 20.9317 11.055 20.814 11.1736C20.7387 11.2487 20.6635 11.3238 20.5881 11.3989C20.553 11.4343 20.5179 11.4697 20.4817 11.5061C20.432 11.5552 20.432 11.5552 20.3812 11.6053C20.3523 11.6341 20.3234 11.6628 20.2937 11.6925C20.1316 11.8228 19.9662 11.8729 19.7603 11.874C19.7265 11.8748 19.6927 11.8756 19.6579 11.8764C19.3348 11.8271 19.1482 11.6125 18.948 11.3754C18.8777 11.295 18.8777 11.295 18.7496 11.2031C18.5729 11.2047 18.5729 11.2047 18.4214 11.25C18.4224 11.2767 18.4234 11.3034 18.4244 11.3309C18.4283 11.4533 18.4308 11.5757 18.4332 11.6982C18.4347 11.7402 18.4363 11.7822 18.4379 11.8254C18.4421 12.1144 18.4107 12.2835 18.2339 12.5156C17.9679 12.7641 17.6773 12.7295 17.3285 12.7264C17.2378 12.7265 17.2378 12.7265 17.1453 12.7266C17.0178 12.7266 16.8903 12.7261 16.7627 12.725C16.5996 12.7237 16.4366 12.7238 16.2735 12.7244C16.1173 12.7248 15.9612 12.7241 15.805 12.7234C15.7466 12.7236 15.6882 12.7237 15.6281 12.7239C15.5464 12.723 15.5464 12.723 15.4631 12.7221C15.4153 12.7218 15.3676 12.7216 15.3183 12.7213C15.106 12.6919 14.9866 12.6011 14.8472 12.4424C14.7324 12.2824 14.7126 12.2042 14.7137 12.0099C14.714 11.9437 14.714 11.9437 14.7142 11.8762C14.7148 11.807 14.7148 11.807 14.7154 11.7363C14.7156 11.6898 14.7158 11.6433 14.716 11.5953C14.7166 11.4802 14.7173 11.3651 14.7183 11.25C14.5656 11.207 14.5656 11.207 14.3902 11.2031C14.2611 11.2921 14.2611 11.2921 14.1558 11.4229C13.908 11.6889 13.7347 11.8636 13.356 11.8828C13.056 11.8867 12.8629 11.6962 12.658 11.4987C12.5884 11.4297 12.5191 11.3605 12.45 11.291C12.4132 11.2543 12.3763 11.2175 12.3384 11.1797C12.2609 11.1022 12.1835 11.0247 12.1063 10.9471C11.9879 10.8282 11.8691 10.7099 11.7502 10.5916C11.6748 10.5161 11.5995 10.4407 11.5242 10.3652C11.4887 10.3299 11.4531 10.2945 11.4165 10.2581C11.3836 10.2249 11.3508 10.1918 11.3169 10.1576C11.288 10.1286 11.2591 10.0996 11.2293 10.0697C11.0495 9.86087 11.0411 9.67413 11.0481 9.40631C11.0747 9.16761 11.1967 9.04889 11.368 8.8905C11.4327 8.83014 11.4327 8.83014 11.4986 8.76855C11.5409 8.73139 11.5833 8.69423 11.6269 8.65594C11.7374 8.53289 11.7374 8.53289 11.7086 8.35236C11.6963 8.30311 11.6841 8.25386 11.6714 8.20312C11.6431 8.20411 11.6147 8.20509 11.5855 8.2061C11.456 8.21002 11.3264 8.21244 11.1968 8.21484C11.1522 8.21641 11.1076 8.21799 11.0617 8.2196C10.7859 8.22344 10.6228 8.20409 10.4058 8.01562C10.204 7.79741 10.1661 7.64062 10.1639 7.34961C10.1634 7.30095 10.163 7.25228 10.1625 7.20214C10.1623 7.1498 10.1621 7.09745 10.1619 7.04352C10.1616 6.98942 10.1614 6.93532 10.1611 6.87958C10.1607 6.76512 10.1604 6.65065 10.1602 6.53619C10.1597 6.36151 10.1583 6.18685 10.1568 6.01218C10.1565 5.90088 10.1562 5.78958 10.1561 5.67828C10.1555 5.62622 10.1549 5.57416 10.1543 5.52052C10.1552 5.20701 10.1676 4.94516 10.384 4.69958C10.5772 4.5563 10.6728 4.49398 10.9115 4.49542C10.9557 4.49557 10.9998 4.49572 11.0452 4.49588C11.0914 4.49627 11.1375 4.49667 11.1851 4.49707C11.2316 4.49728 11.2782 4.49749 11.3261 4.49771C11.4412 4.49826 11.5563 4.49904 11.6714 4.5C11.7191 4.35001 11.7191 4.35001 11.7183 4.17188C11.6461 4.05481 11.5492 3.97145 11.4458 3.88184C11.0786 3.54925 11.0786 3.54925 11.0463 3.30066C11.0457 3.25752 11.0451 3.21437 11.0445 3.16992C11.0431 3.12702 11.0418 3.08412 11.0405 3.03992C11.095 2.7026 11.399 2.46189 11.6304 2.23169C11.6672 2.19485 11.7039 2.15802 11.7418 2.12007C11.8192 2.04258 11.8967 1.96521 11.9744 1.88795C12.0932 1.7696 12.2116 1.65076 12.3299 1.53186C12.4053 1.45651 12.4807 1.38119 12.5562 1.30591C12.5916 1.27036 12.6269 1.23482 12.6633 1.19819C12.6965 1.16532 12.7297 1.13245 12.7638 1.09859C12.7928 1.06967 12.8218 1.04074 12.8517 1.01095C13.0453 0.844386 13.2193 0.817377 13.469 0.823242C13.8245 0.881881 14.0711 1.16713 14.2909 1.43243C14.3945 1.51798 14.3945 1.51798 14.5656 1.487C14.6412 1.47023 14.6412 1.47023 14.7183 1.45312C14.7168 1.4106 14.7168 1.4106 14.7153 1.36723C14.7114 1.23766 14.709 1.10811 14.7066 0.978515C14.705 0.933922 14.7034 0.889328 14.7018 0.843384C14.6971 0.501481 14.7575 0.359565 14.979 0.102539C15.1226 -0.0160105 15.2751 -0.00659173 15.4524 -0.0082972ZM16.1714 1.40625C16.1676 1.51453 16.1637 1.62281 16.1597 1.73437C16.1435 2.01056 16.128 2.26998 15.9371 2.48437C15.8204 2.57175 15.6981 2.62092 15.5621 2.67187C15.5153 2.69 15.4685 2.70813 15.4203 2.72681C15.3164 2.76679 15.2123 2.80621 15.108 2.84509C14.9612 2.90291 14.8217 2.96852 14.6802 3.03809C14.453 3.14181 14.3105 3.18135 14.0621 3.14062C13.7968 3.02183 13.6016 2.83553 13.4058 2.625C13.2333 2.69702 13.1251 2.80226 12.9957 2.93555C12.9582 2.97386 12.9207 3.01217 12.8821 3.05164C12.8538 3.081 12.8256 3.11037 12.7964 3.14062C12.814 3.16105 12.8316 3.18147 12.8497 3.20251C12.8998 3.26079 12.9498 3.31914 12.9997 3.37756C13.0485 3.43465 13.0976 3.49157 13.1469 3.54822C13.2869 3.71114 13.3513 3.81898 13.3743 4.03491C13.354 4.27792 13.2653 4.45839 13.1597 4.67578C13.1205 4.75896 13.0814 4.84221 13.0425 4.92554C13.024 4.96527 13.0054 5.005 12.9863 5.04593C12.9257 5.18161 12.8774 5.31965 12.8316 5.46094C12.7657 5.65297 12.6978 5.75635 12.5152 5.85938C12.3411 5.91741 12.1724 5.92293 11.9908 5.93262C11.8095 5.94277 11.8095 5.94277 11.6246 5.95312C11.6246 6.21609 11.6246 6.47906 11.6246 6.75C11.8 6.7558 11.8 6.7558 11.979 6.76172C12.4826 6.78934 12.4826 6.78934 12.7027 6.98438C12.8749 7.2289 12.9597 7.53548 13.0634 7.81329C13.1215 7.96086 13.187 8.10163 13.2564 8.24414C13.3727 8.49691 13.4028 8.67785 13.315 8.94727C13.1711 9.16522 12.9858 9.337 12.7964 9.51562C12.9609 9.71176 13.1283 9.89981 13.3121 10.0781C13.4608 10.0117 13.5676 9.93045 13.6871 9.82031C13.8978 9.62602 14.0376 9.54047 14.3348 9.54852C14.5201 9.57386 14.6777 9.65384 14.8443 9.73535C14.9182 9.77023 14.9923 9.80496 15.0664 9.83954C15.1026 9.85646 15.1387 9.87339 15.176 9.89083C15.3235 9.95652 15.4738 10.0079 15.6265 10.0605C15.9153 10.1682 15.9153 10.1682 16.0191 10.3184C16.1125 10.5333 16.1377 10.723 16.1509 10.9541C16.1577 11.0672 16.1645 11.1803 16.1714 11.2969C16.4344 11.2969 16.6974 11.2969 16.9683 11.2969C16.9763 11.0473 16.9763 11.0473 16.9823 10.7977C16.9952 10.5132 17.0776 10.3382 17.2876 10.1376C17.4257 10.0575 17.5656 10.016 17.7183 9.96973C17.9577 9.89521 18.1734 9.80819 18.3951 9.68848C18.6283 9.56699 18.7698 9.52199 19.0308 9.5625C19.329 9.65767 19.5244 9.90295 19.7339 10.125C19.9301 9.96052 20.1181 9.7931 20.2964 9.60938C20.2069 9.40363 20.0624 9.26181 19.911 9.09943C19.7773 8.93986 19.7566 8.77614 19.7583 8.57062C19.7927 8.367 19.8838 8.19301 19.9756 8.0102C20.0798 7.80225 20.1579 7.5985 20.229 7.37695C20.318 7.1171 20.387 6.98321 20.6246 6.84375C20.7915 6.78809 20.9514 6.78044 21.1255 6.77051C21.2386 6.76374 21.3518 6.75697 21.4683 6.75C21.4683 6.48703 21.4683 6.22406 21.4683 5.95312C21.2496 5.94333 21.2496 5.94333 21.0308 5.93494C20.7614 5.91992 20.5766 5.85609 20.3829 5.66693C20.2673 5.48546 20.2015 5.29766 20.1324 5.09473C20.0543 4.86895 19.9768 4.65008 19.8658 4.43811C19.7601 4.23368 19.7409 4.07098 19.7808 3.84375C19.8987 3.57022 20.0794 3.38811 20.2964 3.1875C20.2244 3.01497 20.1192 2.90682 19.9859 2.77734C19.9284 2.72115 19.9284 2.72115 19.8698 2.66382C19.8404 2.63554 19.8111 2.60726 19.7808 2.57812C19.7604 2.59571 19.74 2.61329 19.7189 2.63141C19.6606 2.68148 19.6023 2.73147 19.5439 2.78137C19.4868 2.83021 19.4299 2.87925 19.3732 2.92859C19.1703 3.10292 19.0286 3.15687 18.7584 3.15317C18.5772 3.13102 18.429 3.04889 18.2691 2.96484C18.0298 2.84444 17.8009 2.74085 17.5425 2.66602C17.3001 2.59152 17.197 2.51091 17.0621 2.29687C16.9848 2.14236 16.9973 1.969 16.9888 1.79883C16.9787 1.6045 16.9787 1.6045 16.9683 1.40625C16.7053 1.40625 16.4424 1.40625 16.1714 1.40625Z" fill="white"/>
<path d="M15.4423 13.5393C15.4958 13.5389 15.5493 13.5384 15.6044 13.538C15.6625 13.5378 15.7206 13.5376 15.7805 13.5374C15.84 13.5371 15.8996 13.5368 15.9609 13.5365C16.0872 13.5361 16.2135 13.5358 16.3397 13.5356C16.501 13.5354 16.6623 13.5342 16.8236 13.5329C16.9778 13.5318 17.1321 13.5317 17.2864 13.5315C17.3441 13.5309 17.4018 13.5303 17.4613 13.5297C17.9639 13.531 17.9639 13.531 18.1865 13.6875C18.2636 13.7783 18.2636 13.7783 18.3183 13.875C18.337 13.9069 18.3557 13.9388 18.3749 13.9717C18.4209 14.0625 18.4209 14.0625 18.4678 14.2031C18.5243 14.1683 18.5243 14.1683 18.582 14.1328C18.7917 14.0445 18.9472 14.0267 19.1709 14.0625C19.4695 14.1983 19.6983 14.4287 19.9262 14.6585C19.9607 14.6929 19.9952 14.7273 20.0308 14.7627C20.1031 14.835 20.1753 14.9074 20.2474 14.98C20.3574 15.0908 20.4682 15.2009 20.5791 15.3108C20.6496 15.3814 20.72 15.4521 20.7905 15.5228C20.8234 15.5554 20.8564 15.5881 20.8903 15.6218C21.1121 15.8467 21.2668 16.0311 21.2978 16.3564C21.291 16.5537 21.2273 16.6997 21.1396 16.875C21.1679 16.8858 21.1962 16.8966 21.2253 16.9078C21.4568 17.0022 21.6134 17.0765 21.749 17.2969C21.7972 17.4416 21.8024 17.5426 21.8034 17.6943C21.8039 17.7468 21.8043 17.7994 21.8048 17.8536C21.8051 17.9388 21.8051 17.9388 21.8054 18.0258C21.8057 18.0843 21.8059 18.1427 21.8062 18.2029C21.8067 18.3267 21.807 18.4504 21.8071 18.5742C21.8074 18.7009 21.808 18.8276 21.8091 18.9543C21.8105 19.137 21.811 19.3197 21.8113 19.5024C21.8118 19.5589 21.8124 19.6155 21.813 19.6737C21.8121 20.0107 21.7987 20.2472 21.5498 20.4961C21.3968 20.5934 21.2686 20.6305 21.0928 20.6719C21.115 20.6999 21.1372 20.7279 21.1601 20.7568C21.2777 20.9214 21.2885 21.0674 21.3002 21.2659C21.2362 21.6157 20.9548 21.8617 20.7135 22.101C20.6769 22.1378 20.6403 22.1746 20.6025 22.2124C20.5254 22.2897 20.448 22.3668 20.3705 22.4437C20.252 22.5615 20.1342 22.68 20.0166 22.7986C19.9413 22.8737 19.866 22.9488 19.7907 23.0239C19.7556 23.0593 19.7205 23.0947 19.6843 23.1311C19.6345 23.1802 19.6345 23.1802 19.5838 23.2303C19.5549 23.2591 19.526 23.2878 19.4962 23.3175C19.2848 23.4874 19.0752 23.5013 18.8138 23.497C18.6717 23.4809 18.5789 23.4327 18.4678 23.3437C18.4569 23.372 18.4461 23.4003 18.435 23.4294C18.3243 23.7007 18.2222 23.865 17.9521 24C17.8653 24.005 17.7783 24.007 17.6913 24.0076C17.6367 24.008 17.5821 24.0085 17.5259 24.0089C17.4369 24.0092 17.4369 24.0092 17.3462 24.0095C17.2552 24.0099 17.2552 24.0099 17.1623 24.0103C17.0336 24.0108 16.905 24.0111 16.7763 24.0113C16.6118 24.0115 16.4472 24.0126 16.2827 24.014C16.1255 24.0151 15.9683 24.0152 15.8111 24.0154C15.7521 24.016 15.6931 24.0165 15.6323 24.0171C15.5773 24.017 15.5222 24.0169 15.4655 24.0167C15.4172 24.0169 15.3688 24.017 15.3191 24.0172C15.1119 23.9903 14.9909 23.9004 14.8496 23.751C14.76 23.6181 14.7138 23.4975 14.6709 23.3437C14.6341 23.367 14.5974 23.3902 14.5596 23.4141C14.3451 23.5028 14.15 23.5287 13.9209 23.4844C13.6591 23.3331 13.4586 23.1294 13.2463 22.916C13.2095 22.8793 13.1727 22.8425 13.1347 22.8047C13.0572 22.7272 12.9798 22.6497 12.9026 22.5721C12.7842 22.4532 12.6654 22.3349 12.5465 22.2166C12.4711 22.1411 12.3958 22.0657 12.3205 21.9902C12.285 21.9549 12.2494 21.9195 12.2128 21.8831C12.18 21.8499 12.1471 21.8168 12.1132 21.7826C12.0843 21.7536 12.0554 21.7246 12.0256 21.6947C11.8444 21.4842 11.8418 21.2992 11.8457 21.03C11.8609 20.8815 11.9039 20.7869 11.999 20.6719C11.9429 20.6554 11.8869 20.639 11.8291 20.6221C11.606 20.5389 11.4678 20.4043 11.3428 20.2031C11.2973 20.0578 11.2892 19.9241 11.2876 19.7722C11.287 19.7237 11.2864 19.6752 11.2858 19.6252C11.2854 19.573 11.2851 19.5208 11.2847 19.467C11.2843 19.4131 11.284 19.3591 11.2836 19.3034C11.2829 19.1892 11.2824 19.0749 11.282 18.9606C11.2812 18.7865 11.2792 18.6123 11.2771 18.4382C11.2766 18.327 11.2762 18.2159 11.2759 18.1047C11.2747 18.027 11.2747 18.027 11.2734 17.9477C11.2745 17.5795 11.3245 17.3151 11.5947 17.0449C11.7263 16.9634 11.8502 16.9165 11.999 16.875C11.9758 16.847 11.9526 16.8189 11.9287 16.79C11.827 16.574 11.817 16.3598 11.8584 16.125C12.0088 15.8634 12.2126 15.6627 12.4251 15.4504C12.4617 15.4136 12.4984 15.3768 12.5361 15.3388C12.6133 15.2613 12.6907 15.184 12.7681 15.1067C12.8866 14.9884 13.0043 14.8695 13.1221 14.7506C13.1973 14.6753 13.2726 14.5999 13.3479 14.5247C13.3831 14.4891 13.4182 14.4536 13.4544 14.4169C13.4875 14.3841 13.5207 14.3512 13.5548 14.3173C13.5837 14.2884 13.6126 14.2595 13.6424 14.2297C13.8399 14.0703 14.0393 14.0426 14.2853 14.0468C14.4506 14.0717 14.5429 14.145 14.6709 14.25C14.6778 14.2223 14.6847 14.1945 14.6918 14.166C14.771 13.8868 14.8525 13.7574 15.0928 13.5937C15.2149 13.5327 15.3054 13.5402 15.4423 13.5393ZM16.1709 15C16.166 15.1092 16.1612 15.2185 16.1562 15.3311C16.137 15.6514 16.1131 15.8894 15.8896 16.1338C15.5828 16.3191 15.2664 16.4531 14.9047 16.3876C14.6096 16.2983 14.4083 16.0609 14.2021 15.8437C14.0296 15.9158 13.9215 16.021 13.792 16.1543C13.7358 16.2118 13.7358 16.2118 13.6785 16.2704C13.6502 16.2998 13.6219 16.3291 13.5928 16.3594C13.6103 16.3798 13.6279 16.4002 13.646 16.4213C13.6963 16.4797 13.7463 16.5384 13.7962 16.5972C13.8435 16.6521 13.8917 16.7062 13.9416 16.7587C14.1027 16.9333 14.1998 17.1052 14.2021 17.3437C14.1375 17.6868 14.0433 17.997 13.7803 18.2344C13.5706 18.3442 13.3643 18.3481 13.1328 18.3574C13.0061 18.3632 12.8795 18.369 12.749 18.375C12.749 18.638 12.749 18.9009 12.749 19.1719C12.981 19.1817 12.981 19.1817 13.2131 19.1901C13.4729 19.2037 13.7149 19.2458 13.9055 19.4387C14.0775 19.7371 14.236 20.0578 14.1963 20.4111C14.1124 20.719 13.823 20.9347 13.5928 21.1406C13.7572 21.3368 13.9247 21.5248 14.1084 21.7031C14.2681 21.6337 14.3755 21.5416 14.501 21.4219C14.7224 21.2228 14.8662 21.1406 15.1689 21.1406C15.4717 21.1915 15.7933 21.3262 16.0125 21.5444C16.1929 21.8424 16.1598 22.2605 16.1709 22.5937C16.4339 22.5937 16.6968 22.5937 16.9678 22.5937C16.969 22.5361 16.9702 22.4785 16.9714 22.4191C16.9741 22.3425 16.9767 22.266 16.9795 22.1895C16.9801 22.1516 16.9808 22.1137 16.9815 22.0746C16.9918 21.8211 17.0327 21.6688 17.2021 21.4687C17.4434 21.2515 17.8001 21.1189 18.125 21.1318C18.3778 21.1756 18.5264 21.3406 18.7021 21.5156C18.7563 21.5622 18.8109 21.6081 18.8662 21.6533C18.9242 21.7012 18.9242 21.7012 18.9834 21.75C19.1535 21.5798 19.3237 21.4097 19.499 21.2344C19.417 21.0704 19.3723 21.0061 19.2441 20.8887C19.0492 20.6974 18.951 20.5429 18.9131 20.2676C18.9258 19.9682 19.0506 19.6419 19.2441 19.4136C19.4701 19.2193 19.6918 19.2076 19.9765 19.1924C20.1578 19.1822 20.1578 19.1822 20.3428 19.1719C20.3428 18.9089 20.3428 18.6459 20.3428 18.375C20.0953 18.367 20.0953 18.367 19.8478 18.361C19.5887 18.3492 19.4279 18.2955 19.2178 18.1406C19.1361 18.0145 19.1361 18.0145 19.083 17.8799C19.0647 17.8353 19.0465 17.7908 19.0277 17.7449C18.9268 17.4719 18.8844 17.2457 19.0068 16.9717C19.129 16.7455 19.3108 16.578 19.499 16.4062C19.3345 16.2101 19.1671 16.0221 18.9834 15.8437C18.7828 15.9295 18.6651 16.0668 18.5192 16.2246C18.3627 16.3645 18.2371 16.402 18.0289 16.4196C17.8386 16.4047 17.6974 16.3596 17.5215 16.2861C17.4657 16.2638 17.4099 16.2415 17.3525 16.2186C17.1735 16.1072 17.0832 15.9929 17.0146 15.7969C16.9888 15.6567 16.9822 15.5202 16.9795 15.3779C16.9756 15.2532 16.9717 15.1285 16.9678 15C16.7048 15 16.4418 15 16.1709 15Z" fill="white"/>
<path d="M5.31901 8.47075C5.37034 8.47016 5.42167 8.46956 5.47456 8.46894C5.52983 8.46884 5.58511 8.46873 5.64206 8.46862C5.69917 8.46831 5.75628 8.468 5.81512 8.46768C5.936 8.4672 6.05689 8.46698 6.17778 8.467C6.36214 8.4668 6.54645 8.46509 6.7308 8.46331C6.84835 8.46304 6.96591 8.46285 7.08346 8.46277C7.1658 8.46175 7.1658 8.46175 7.24981 8.46072C7.5741 8.46253 7.78731 8.49652 8.06271 8.67187C8.1387 8.76727 8.1387 8.76727 8.17697 8.8623C8.19044 8.89378 8.20392 8.92526 8.2178 8.9577C8.24548 9.03386 8.27146 9.11062 8.29708 9.1875C8.31932 9.16526 8.34156 9.14302 8.36447 9.12011C8.53576 9.01567 8.70656 8.9857 8.90646 9C9.22835 9.10201 9.41959 9.29976 9.65298 9.53741C9.71126 9.59575 9.71126 9.59575 9.77071 9.65527C9.85244 9.73728 9.93394 9.81951 10.0152 9.90196C10.1398 10.0282 10.265 10.1537 10.3904 10.2791C10.4699 10.359 10.5492 10.4389 10.6286 10.5189C10.666 10.5564 10.7035 10.594 10.742 10.6327C10.7939 10.6854 10.7939 10.6854 10.8469 10.7393C10.8773 10.7701 10.9078 10.8009 10.9391 10.8326C11.1035 11.0238 11.1267 11.18 11.1222 11.4252C11.1045 11.5739 11.0467 11.6861 10.969 11.8125C11.0165 11.8322 11.0165 11.8322 11.0649 11.8522C11.1067 11.871 11.1485 11.8898 11.1916 11.9092C11.2329 11.9271 11.2743 11.9451 11.3169 11.9636C11.478 12.0746 11.5596 12.1937 11.6252 12.375C11.6525 12.5807 11.6515 12.7846 11.6501 12.9919C11.6503 13.0511 11.6505 13.1103 11.6507 13.1713C11.6508 13.2962 11.6505 13.421 11.6497 13.5459C11.6486 13.7053 11.6492 13.8647 11.6503 14.0242C11.6512 14.1772 11.6506 14.3301 11.6501 14.4831C11.6505 14.5401 11.6509 14.5971 11.6513 14.6558C11.6479 14.9556 11.6432 15.149 11.4377 15.375C11.2864 15.5186 11.177 15.5856 10.969 15.6094C11.0038 15.679 11.0038 15.679 11.0393 15.75C11.1389 15.9848 11.1536 16.1947 11.0624 16.4388C10.9306 16.6574 10.7609 16.8265 10.5821 17.0076C10.5438 17.0465 10.5056 17.0854 10.4662 17.1255C10.3854 17.2075 10.3043 17.2893 10.2231 17.3708C10.0995 17.4954 9.97736 17.6213 9.85522 17.7473C9.7763 17.827 9.69729 17.9066 9.61819 17.9861C9.58209 18.0237 9.54599 18.0613 9.50879 18.1C9.26742 18.3385 9.06351 18.4577 8.71896 18.4687C8.54628 18.4466 8.42292 18.4071 8.29708 18.2812C8.28681 18.309 8.27654 18.3367 8.26596 18.3653C8.16008 18.6291 8.06415 18.7769 7.82833 18.9375C7.68671 18.9847 7.58923 18.9911 7.44103 18.9927C7.36544 18.9936 7.36544 18.9936 7.28832 18.9945C7.23383 18.9948 7.17934 18.9952 7.1232 18.9955C7.06706 18.9959 7.01092 18.9963 6.95309 18.9967C6.83413 18.9973 6.71517 18.9978 6.59621 18.9982C6.41483 18.999 6.23349 19.0011 6.05212 19.0031C5.93649 19.0036 5.82086 19.004 5.70523 19.0043C5.6242 19.0056 5.6242 19.0056 5.54154 19.0068C5.23916 19.006 4.98035 18.9885 4.73459 18.7969C4.61343 18.645 4.53109 18.4742 4.50021 18.2812C4.46831 18.3035 4.4364 18.3257 4.40353 18.3486C4.18981 18.4623 4.0167 18.4848 3.77951 18.4366C3.58911 18.3676 3.49108 18.2887 3.34591 18.1487C3.31025 18.1147 3.31025 18.1147 3.27386 18.08C3.19769 18.007 3.12237 17.9332 3.04709 17.8594C2.99645 17.8104 2.94579 17.7615 2.89511 17.7126C2.76717 17.5887 2.64046 17.4635 2.51427 17.3378C2.43677 17.2608 2.35878 17.1843 2.28079 17.1077C2.23053 17.0578 2.18029 17.0078 2.13009 16.9578C2.09574 16.9243 2.09574 16.9243 2.0607 16.8901C1.87586 16.7041 1.71345 16.4974 1.66446 16.2347C1.67038 15.9918 1.69479 15.8208 1.82834 15.6094C1.75438 15.5934 1.75438 15.5934 1.67892 15.5771C1.43538 15.5081 1.30936 15.3465 1.17209 15.1406C1.15955 15.0188 1.15955 15.0188 1.15847 14.8709C1.15787 14.8156 1.15727 14.7602 1.15665 14.7031C1.15655 14.6432 1.15645 14.5833 1.15634 14.5215C1.15603 14.46 1.15571 14.3984 1.15539 14.335C1.15483 14.2046 1.15466 14.0742 1.15471 13.9438C1.15472 13.7772 1.15344 13.6106 1.15183 13.444C1.15053 13.2847 1.15059 13.1253 1.15048 12.9659C1.14981 12.9063 1.14913 12.8466 1.14844 12.7852C1.15111 12.2687 1.15111 12.2687 1.35959 12.0469C1.50648 11.9414 1.65922 11.8753 1.82834 11.8125C1.80513 11.7835 1.78193 11.7545 1.75802 11.7246C1.66038 11.5212 1.64689 11.3312 1.68771 11.1094C1.82656 10.8261 2.01059 10.6259 2.23391 10.4055C2.26847 10.3709 2.30302 10.3364 2.33862 10.3007C2.41138 10.2281 2.48431 10.1556 2.5574 10.0833C2.66905 9.97276 2.78005 9.86161 2.89099 9.75036C2.96197 9.67965 3.03298 9.60897 3.10403 9.53833C3.13709 9.50522 3.17016 9.47211 3.20422 9.438C3.45666 9.18917 3.65746 9.02768 4.01791 8.99633C4.19388 9.00234 4.37267 9.05995 4.50021 9.1875C4.51858 9.13046 4.53695 9.07341 4.55587 9.01465C4.6385 8.79444 4.75773 8.65013 4.96045 8.52587C5.08568 8.47505 5.18391 8.47182 5.31901 8.47075ZM6.00021 9.9375C5.99634 10.0535 5.99248 10.1695 5.98849 10.2891C5.9556 10.8678 5.9556 10.8678 5.76583 11.0625C5.42457 11.284 5.09366 11.3877 4.68771 11.3437C4.42464 11.2175 4.23137 10.9903 4.03146 10.7812C3.83532 10.9457 3.64728 11.1132 3.46896 11.2969C3.53309 11.4436 3.60453 11.531 3.72384 11.6367C3.94709 11.8553 4.02919 12.0515 4.03439 12.3633C3.98025 12.6625 3.83684 13.0092 3.60537 13.21C3.40816 13.2904 3.22022 13.2923 3.009 13.2978C2.96758 13.2994 2.92616 13.3011 2.88348 13.3027C2.78179 13.3065 2.68006 13.3096 2.57834 13.3125C2.57834 13.5909 2.57834 13.8694 2.57834 14.1562C2.63936 14.1575 2.70039 14.1587 2.76327 14.1599C2.84421 14.1625 2.92514 14.1652 3.00607 14.168C3.04619 14.1686 3.08631 14.1693 3.12765 14.17C3.38614 14.1799 3.54981 14.2119 3.75021 14.3906C3.93734 14.6769 4.07093 15.0282 4.01718 15.3728C3.92942 15.6781 3.69813 15.8706 3.46896 16.0781C3.54098 16.2507 3.64622 16.3588 3.77951 16.4883C3.81782 16.5257 3.85613 16.5632 3.8956 16.6018C3.92496 16.6301 3.95433 16.6584 3.98459 16.6875C4.01522 16.6611 4.01522 16.6611 4.04647 16.6342C4.66263 16.1047 4.66263 16.1047 5.01876 16.1089C5.29301 16.141 5.5928 16.2372 5.79458 16.4326C5.95163 16.661 5.96543 16.8975 5.9797 17.165C5.98985 17.3463 5.98985 17.3463 6.00021 17.5312C6.26318 17.5312 6.52615 17.5312 6.79708 17.5312C6.80689 17.2817 6.80689 17.2817 6.81527 17.0321C6.82624 16.8084 6.8623 16.647 6.98458 16.4531C7.30173 16.2008 7.58776 16.0954 7.9891 16.1091C8.32178 16.1531 8.54492 16.4565 8.76583 16.6875C8.96197 16.523 9.15002 16.3556 9.32833 16.1719C9.24258 15.9713 9.1053 15.8536 8.94748 15.7077C8.81618 15.5608 8.7729 15.4244 8.74533 15.2314C8.78059 14.914 8.89821 14.5677 9.12619 14.335C9.26775 14.224 9.346 14.197 9.52206 14.1883C9.55609 14.1865 9.59011 14.1847 9.62517 14.1829C9.66837 14.1809 9.71156 14.1788 9.75607 14.1768C9.962 14.1666 9.962 14.1666 10.1721 14.1562C10.1721 13.8778 10.1721 13.5994 10.1721 13.3125C9.9071 13.3045 9.9071 13.3045 9.64206 13.2985C9.39388 13.2879 9.24172 13.2454 9.04708 13.0781C8.9819 12.9877 8.9819 12.9877 8.94162 12.8965C8.92711 12.8638 8.91261 12.8311 8.89767 12.7974C8.8851 12.7663 8.87253 12.7352 8.85958 12.7031C8.83058 12.6321 8.83058 12.6321 8.80099 12.5596C8.74616 12.3448 8.74073 12.1707 8.80978 11.959C8.95363 11.741 9.139 11.5692 9.32833 11.3906C9.25631 11.2181 9.15108 11.1099 9.01779 10.9805C8.96032 10.9243 8.96032 10.9243 8.9017 10.8669C8.87233 10.8387 8.84297 10.8104 8.81271 10.7812C8.79229 10.7988 8.77186 10.8164 8.75082 10.8345C8.69255 10.8846 8.63419 10.9346 8.57577 10.9845C8.51868 11.0333 8.46177 11.0824 8.40512 11.1317C8.19595 11.3114 8.04523 11.3632 7.76645 11.36C7.47305 11.322 7.17287 11.212 6.97085 10.9927C6.86913 10.8431 6.83844 10.7233 6.82913 10.5463C6.82734 10.5143 6.82556 10.4823 6.82372 10.4493C6.82068 10.3889 6.82068 10.3889 6.81759 10.3271C6.80744 10.1343 6.80744 10.1343 6.79708 9.9375C6.53412 9.9375 6.27115 9.9375 6.00021 9.9375Z" fill="white"/>
<path d="M18.174 4.26581C18.5939 4.62525 18.9133 5.04809 19.0787 5.57813C19.0892 5.61057 19.0997 5.64302 19.1106 5.67645C19.2881 6.32682 19.1875 7.06968 18.859 7.65527C18.421 8.3161 17.8623 8.73567 17.092 8.93518C16.2805 9.05389 15.5855 8.87284 14.9041 8.42029C14.4073 8.03251 14.0606 7.41798 13.9693 6.79688C13.9319 6.26984 13.9524 5.79094 14.1568 5.29688C14.1704 5.26256 14.1839 5.22823 14.1979 5.19287C14.4744 4.57055 15.0121 4.14629 15.629 3.88898C16.4802 3.57234 17.4474 3.72637 18.174 4.26581ZM15.5926 5.70392C15.3836 6.00108 15.3896 6.30405 15.4225 6.65625C15.5057 6.9914 15.7622 7.20784 16.0318 7.40625C16.2771 7.53424 16.5578 7.53529 16.8287 7.5C17.1897 7.38398 17.4475 7.18147 17.6269 6.84796C17.7543 6.55259 17.7658 6.25314 17.6666 5.94727C17.5197 5.60686 17.2921 5.39702 16.9558 5.24451C16.3927 5.06115 15.9583 5.2791 15.5926 5.70392Z" fill="white"/>
<path d="M17.6357 17.2354C18.0906 17.6134 18.3737 18.0328 18.4321 18.6299C18.4491 19.2201 18.2596 19.7222 17.8584 20.1563C17.4373 20.5264 16.9445 20.6602 16.3919 20.6428C15.827 20.5851 15.4174 20.3397 15.0547 19.9102C14.7148 19.4391 14.6538 18.9406 14.7178 18.375C14.8176 17.888 15.1047 17.4991 15.5093 17.2163C16.1676 16.8172 16.9884 16.7824 17.6357 17.2354ZM16.2646 18.4688C16.1474 18.6446 16.1458 18.7293 16.1709 18.9375C16.2857 19.0963 16.352 19.1619 16.5459 19.1982C16.7242 19.1648 16.7996 19.1196 16.9209 18.9844C16.9805 18.7915 16.9915 18.7018 16.8974 18.5215C16.7062 18.3589 16.4749 18.313 16.2646 18.4688Z" fill="white"/>
<path d="M7.53655 12.2368C7.97562 12.6134 8.20749 13.0135 8.26238 13.5947C8.2789 14.1543 8.10694 14.6361 7.73485 15.0577C7.39622 15.3846 6.96717 15.5881 6.49376 15.6123C5.94806 15.5989 5.45228 15.4371 5.04393 15.0644C4.63681 14.6242 4.52231 14.1305 4.53288 13.5525C4.55687 13.0321 4.82408 12.6374 5.19628 12.293C5.87133 11.7328 6.82682 11.7171 7.53655 12.2368ZM6.09276 13.4531C5.98281 13.618 5.97183 13.6808 5.99901 13.875C6.09811 13.9989 6.18301 14.0834 6.32421 14.1562C6.47781 14.1562 6.57404 14.0964 6.70214 14.0156C6.80257 13.8933 6.79589 13.8245 6.79589 13.6641C6.76261 13.4901 6.76261 13.4901 6.61424 13.3857C6.38703 13.2721 6.29334 13.3143 6.09276 13.4531Z" fill="white"/>
</g>
<defs>
<clipPath id="clip0_763_269">
<rect width="24" height="24" fill="white"/>
</clipPath>
</defs>
</svg>
