<svg width="25" height="24" viewBox="0 0 25 24" fill="none" xmlns="http://www.w3.org/2000/svg">
<g clip-path="url(#clip0_763_256)">
<path d="M12.4485 -0.0205078C12.5103 -0.0214142 12.572 -0.0223206 12.6357 -0.0232544C12.9957 0.000594774 13.3213 0.218945 13.6292 0.392578C13.665 0.412601 13.7007 0.432625 13.7376 0.453255C14.0842 0.648231 14.4274 0.849111 14.7705 1.05018C15.1377 1.26516 15.5066 1.47691 15.8763 1.6875C16.332 1.94716 16.7861 2.20939 17.2388 2.47422C17.7321 2.7627 18.2272 3.04799 18.7224 3.33323C18.9769 3.47985 19.2313 3.62665 19.4856 3.77344C19.5872 3.83203 19.6888 3.89063 19.7903 3.94922C19.9934 4.06641 20.1966 4.18359 20.3997 4.30078C20.45 4.32982 20.5004 4.35885 20.5522 4.38876C20.6532 4.44704 20.7542 4.50533 20.8552 4.56363C21.0901 4.69921 21.325 4.83466 21.5603 4.96955C21.6427 5.01682 21.7251 5.06414 21.8075 5.11148C21.9102 5.17048 22.013 5.22938 22.1159 5.28818C23.3392 5.99137 23.3392 5.99137 23.4962 6.49109C23.5713 6.92034 23.5779 7.35332 23.3484 7.73584C23.0581 8.14224 22.5929 8.39677 22.1575 8.625C22.2838 8.7732 22.4458 8.85104 22.6145 8.94141C23.0141 9.16331 23.3586 9.43122 23.4978 9.88807C23.5176 9.988 23.523 10.0788 23.5235 10.1806C23.5237 10.2193 23.524 10.2581 23.5243 10.298C23.5243 10.3402 23.5244 10.3823 23.5244 10.4257C23.5247 10.4704 23.5249 10.5151 23.5251 10.5611C23.5258 10.709 23.5261 10.8568 23.5264 11.0046C23.5267 11.1075 23.5269 11.2104 23.5272 11.3133C23.5277 11.5291 23.528 11.7448 23.5281 11.9606C23.5284 12.2367 23.5295 12.5127 23.5309 12.7887C23.5317 13.0013 23.532 13.2139 23.5321 13.4264C23.5322 13.5282 23.5326 13.6299 23.5332 13.7317C23.534 13.8742 23.5339 14.0168 23.5336 14.1594C23.534 14.2012 23.5345 14.2429 23.5349 14.2859C23.5319 14.7438 23.3781 15.0322 23.0652 15.3651C22.9268 15.4945 22.7972 15.5762 22.6263 15.6562C22.6636 15.6813 22.7009 15.7063 22.7394 15.7321C23.1116 15.9938 23.3686 16.2427 23.5169 16.6875C23.5616 17.1758 23.5432 17.5919 23.2356 18C22.9828 18.2647 22.6642 18.4319 22.3479 18.6094C22.266 18.656 22.184 18.7026 22.1021 18.7493C22.0463 18.7811 21.9904 18.8128 21.9345 18.8445C21.6637 18.9982 21.3949 19.1551 21.1263 19.3125C20.585 19.6288 20.0421 19.9422 19.4989 20.2551C19.2444 20.4017 18.99 20.5485 18.7356 20.6953C18.6341 20.7539 18.5325 20.8125 18.4309 20.8711C18.3807 20.9001 18.3304 20.9291 18.2786 20.959C17.3138 21.5156 16.3489 22.0723 15.3841 22.6289C15.3337 22.658 15.2834 22.687 15.2315 22.7169C15.1307 22.7751 15.0299 22.8332 14.929 22.8913C14.692 23.028 14.4551 23.1648 14.2187 23.3025C14.1076 23.3672 13.9964 23.4318 13.8852 23.4963C13.8072 23.5417 13.7293 23.5872 13.6514 23.6328C12.9754 24.025 12.9754 24.025 12.554 24.0205C12.4922 24.0214 12.4305 24.0223 12.3669 24.0233C11.9487 23.9941 11.5646 23.715 11.2093 23.5137C11.1581 23.4849 11.107 23.4561 11.0543 23.4264C10.6137 23.1774 10.1764 22.9229 9.73985 22.667C9.44427 22.4938 9.14768 22.3224 8.85087 22.1514C8.80024 22.1222 8.74961 22.093 8.69744 22.0629C8.59479 22.0038 8.49214 21.9447 8.38949 21.8855C8.13501 21.7389 7.88064 21.5921 7.62626 21.4453C7.5247 21.3867 7.42314 21.3281 7.32157 21.2695C6.7122 20.918 6.10282 20.5664 5.49345 20.2148C5.44317 20.1858 5.39289 20.1568 5.34108 20.1269C5.23959 20.0684 5.13811 20.0098 5.03662 19.9513C4.7816 19.8041 4.52653 19.657 4.2714 19.5101C4.01823 19.3642 3.7652 19.2181 3.51225 19.0719C3.40952 19.0126 3.30674 18.9534 3.2039 18.8943C3.05094 18.8064 2.89816 18.7182 2.7454 18.6299C2.69959 18.6037 2.65378 18.5774 2.60658 18.5504C1.90915 18.1462 1.90915 18.1462 1.70243 17.8594C1.6808 17.8304 1.65917 17.8014 1.63688 17.7715C1.43992 17.4303 1.43649 17.0236 1.48563 16.6406C1.63236 16.161 1.96879 15.9146 2.37626 15.6562C2.2555 15.5568 2.14011 15.4677 2.00419 15.3896C1.75424 15.2009 1.5802 14.9233 1.48563 14.625C1.47149 14.475 1.47187 14.3254 1.47202 14.1748C1.4717 14.1297 1.47139 14.0846 1.47106 14.0382C1.47017 13.8893 1.46999 13.7404 1.46989 13.5916C1.46959 13.4878 1.46927 13.3841 1.46894 13.2803C1.46838 13.0628 1.46821 12.8453 1.46826 12.6278C1.46827 12.3497 1.46699 12.0716 1.46538 11.7935C1.46433 11.5792 1.46415 11.3648 1.4642 11.1505C1.46408 11.048 1.46367 10.9455 1.46294 10.843C1.46202 10.6993 1.4623 10.5557 1.46286 10.412C1.46233 10.37 1.46181 10.3281 1.46126 10.2849C1.46527 9.88095 1.60837 9.53902 1.88224 9.24042C2.12072 9.04046 2.5712 8.67188 2.89189 8.67188C2.79878 8.57299 2.70941 8.49974 2.59196 8.43182C2.56175 8.41409 2.53153 8.39635 2.50041 8.37808C2.45346 8.35094 2.45346 8.35094 2.40556 8.32324C1.83964 7.99552 1.83964 7.99552 1.66142 7.68457C1.63797 7.64439 1.61453 7.60421 1.59037 7.56281C1.43204 7.26267 1.44236 6.89385 1.48563 6.5625C1.67873 5.94253 2.11529 5.69331 2.65458 5.39062C2.70896 5.35975 2.76332 5.32883 2.81766 5.29787C2.90122 5.25027 2.98479 5.20269 3.06844 5.15525C3.33721 5.00276 3.60386 4.84678 3.8704 4.69043C4.3049 4.43623 4.74149 4.18584 5.17884 3.9366C5.60655 3.69279 6.03257 3.44624 6.45752 3.19765C6.95083 2.90917 7.44597 2.62389 7.94116 2.33865C8.19563 2.19202 8.45 2.04522 8.70439 1.89844C8.80595 1.83984 8.90751 1.78125 9.00907 1.72266C9.05935 1.69365 9.10962 1.66465 9.16142 1.63477C9.31376 1.54688 9.4661 1.45898 9.61845 1.37109C9.66879 1.34204 9.71914 1.313 9.77101 1.28307C9.87183 1.22491 9.97267 1.16677 10.0735 1.10866C10.3106 0.97204 10.5474 0.835196 10.7838 0.697495C10.8949 0.632799 11.0061 0.568239 11.1173 0.503689C11.1953 0.458331 11.2732 0.412777 11.3511 0.367218C12.0271 -0.0250086 12.0271 -0.0250086 12.4485 -0.0205078ZM12.1462 1.59412C12.0933 1.62457 12.0403 1.65502 11.9857 1.6864C11.9281 1.71996 11.8704 1.75353 11.8128 1.78711C11.7531 1.82156 11.6935 1.85598 11.6338 1.89038C11.4539 1.99419 11.2744 2.09858 11.095 2.20312C11.0452 2.23211 10.9955 2.2611 10.9442 2.29097C10.7613 2.3976 10.5785 2.50433 10.3958 2.61129C10.0365 2.82141 9.6754 3.02831 9.31376 3.23438C8.85808 3.49406 8.40397 3.75627 7.95125 4.0211C7.45794 4.30958 6.9628 4.59486 6.46761 4.8801C6.21314 5.02673 5.95877 5.17353 5.70438 5.32031C5.34329 5.52865 4.98217 5.73697 4.62102 5.94522C4.51828 6.00449 4.41558 6.06381 4.3129 6.12317C4.07639 6.25989 3.8396 6.39601 3.60178 6.53046C3.55985 6.55431 3.51791 6.57816 3.4747 6.60274C3.39671 6.64706 3.31857 6.69111 3.24025 6.73485C3.15383 6.78415 3.06945 6.837 2.98563 6.89062C2.98563 6.92156 2.98563 6.9525 2.98563 6.98438C3.03349 7.0106 3.08135 7.03682 3.13065 7.06384C3.59492 7.31942 4.05425 7.58262 4.51157 7.85041C4.85962 8.05421 5.20844 8.25662 5.5579 8.45801C5.60851 8.48717 5.65911 8.51634 5.71125 8.54639C5.81392 8.60555 5.9166 8.66471 6.01928 8.72385C6.27376 8.87047 6.52813 9.01728 6.78251 9.16406C6.88407 9.22266 6.98563 9.28125 7.0872 9.33984C10.1341 11.0977 10.1341 11.0977 10.2866 11.1857C10.3874 11.2438 10.4882 11.302 10.589 11.3601C10.8264 11.497 11.0636 11.6339 11.3007 11.7713C11.4123 11.8359 11.5239 11.9005 11.6355 11.9651C11.714 12.0105 11.7924 12.056 11.8708 12.1015C11.9186 12.1292 11.9664 12.1568 12.0157 12.1853C12.0784 12.2217 12.0784 12.2217 12.1424 12.2588C12.1835 12.2817 12.2246 12.3045 12.2669 12.3281C12.3134 12.3565 12.36 12.3848 12.4079 12.414C12.5436 12.4831 12.5436 12.4831 12.6698 12.4349C12.7102 12.4108 12.7507 12.3868 12.7924 12.362C12.8386 12.3353 12.8847 12.3087 12.9323 12.2812C12.9815 12.2512 13.0307 12.2213 13.0813 12.1904C13.159 12.145 13.159 12.145 13.2382 12.0987C13.3463 12.0353 13.4541 11.9716 13.5616 11.9072C13.7086 11.8193 13.8562 11.7328 14.0044 11.647C14.1897 11.5395 14.3748 11.4316 14.5595 11.3232C14.8551 11.1501 15.1517 10.9787 15.4485 10.8076C15.4992 10.7784 15.5498 10.7493 15.602 10.7192C15.7046 10.66 15.8073 10.6009 15.9099 10.5418C16.1644 10.3952 16.4188 10.2483 16.6731 10.1016C16.7747 10.043 16.8763 9.98437 16.9778 9.92578C17.0281 9.89678 17.0784 9.86777 17.1302 9.83789C18.8059 8.87109 18.8059 8.87109 18.9583 8.78318C19.0598 8.72467 19.1612 8.66615 19.2626 8.60763C19.5187 8.45981 19.7749 8.31212 20.0313 8.16467C20.2844 8.01906 20.5372 7.87292 20.7899 7.72655C20.9412 7.63921 21.0929 7.55257 21.2445 7.46594C21.3399 7.41092 21.4352 7.35586 21.5306 7.30078C21.575 7.27561 21.6195 7.25043 21.6654 7.22449C21.7056 7.20109 21.7458 7.17768 21.7873 7.15356C21.8227 7.13325 21.8582 7.11293 21.8947 7.092C21.932 7.06193 21.932 7.06193 21.97 7.03125C21.97 6.98484 21.97 6.93844 21.97 6.89062C21.9256 6.86596 21.9256 6.86596 21.8803 6.8408C21.2356 6.48235 20.595 6.11808 19.9586 5.74512C19.663 5.57193 19.3664 5.40054 19.0696 5.22949C19.019 5.20031 18.9684 5.17113 18.9162 5.14106C18.8135 5.08192 18.7109 5.02278 18.6082 4.96365C18.3538 4.81702 18.0994 4.67022 17.845 4.52344C17.7434 4.46484 17.6419 4.40625 17.5403 4.34766C16.9309 3.99609 16.3216 3.64453 15.7122 3.29297C15.6619 3.26396 15.6116 3.23495 15.5598 3.20506C15.4584 3.14654 15.357 3.08803 15.2556 3.0295C14.9994 2.88169 14.7432 2.734 14.4869 2.58655C14.3836 2.5271 14.2803 2.46766 14.177 2.4082C14.1271 2.37947 14.0771 2.35073 14.0256 2.32113C13.7754 2.17693 13.5262 2.03131 13.2785 1.88287C13.231 1.85442 13.1834 1.82597 13.1344 1.79665C13.0445 1.74272 12.9547 1.68852 12.8651 1.63401C12.8254 1.61015 12.7856 1.58629 12.7446 1.56171C12.7099 1.54065 12.6752 1.5196 12.6394 1.49791C12.4405 1.40032 12.3228 1.49197 12.1462 1.59412ZM4.04289 9.62494C4.01424 9.64143 3.9856 9.65792 3.95608 9.67491C3.89565 9.70984 3.83538 9.74504 3.77525 9.7805C3.68321 9.83478 3.59074 9.88827 3.49815 9.94162C3.20109 10.1036 3.20109 10.1036 2.93876 10.3125C2.96553 10.3275 2.9923 10.3425 3.01988 10.358C3.58408 10.675 4.14579 10.9958 4.70417 11.3229C5.06744 11.5354 5.43245 11.7448 5.79813 11.9531C6.25382 12.2128 6.70793 12.475 7.16065 12.7398C7.65396 13.0283 8.14909 13.3136 8.64428 13.5989C8.89876 13.7455 9.15313 13.8923 9.40751 14.0391C9.50907 14.0977 9.61063 14.1563 9.7122 14.2148C10.3216 14.5664 10.3216 14.5664 10.4742 14.6545C10.5749 14.7126 10.6756 14.7705 10.7764 14.8284C11.0151 14.9656 11.2531 15.1037 11.4894 15.2448C11.6013 15.3116 11.7134 15.3779 11.8256 15.4441C11.9048 15.4912 11.9836 15.539 12.0624 15.5868C12.1104 15.615 12.1583 15.6433 12.2077 15.6724C12.2709 15.7102 12.2709 15.7102 12.3352 15.7488C12.4805 15.8074 12.5414 15.7993 12.6888 15.75C12.8078 15.6953 12.8078 15.6953 12.9284 15.6249C12.9748 15.5989 13.0211 15.5728 13.0688 15.5459C13.1184 15.5176 13.1679 15.4892 13.219 15.46C13.271 15.4305 13.323 15.4011 13.3765 15.3708C13.8198 15.119 14.2603 14.8623 14.7002 14.6045C14.9957 14.4313 15.2923 14.2599 15.5892 14.0889C15.6398 14.0597 15.6904 14.0305 15.7426 14.0004C15.8452 13.9413 15.9479 13.8822 16.0505 13.823C16.305 13.6764 16.5594 13.5296 16.8138 13.3828C16.9153 13.3242 17.0169 13.2656 17.1184 13.207C17.1687 13.178 17.219 13.149 17.2708 13.1191C17.8294 12.7969 18.388 12.4746 18.9466 12.1523C18.9969 12.1233 19.0472 12.0943 19.099 12.0644C19.2003 12.0059 19.3017 11.9475 19.4031 11.889C19.66 11.7408 19.9168 11.5926 20.1736 11.4443C20.8027 11.081 21.4326 10.7191 22.0638 10.3594C21.8087 10.1467 21.529 9.99179 21.2405 9.8291C21.1873 9.79825 21.134 9.76741 21.0791 9.73563C21.0279 9.70671 20.9767 9.6778 20.9239 9.64801C20.8773 9.62146 20.8307 9.59492 20.7827 9.56757C20.6654 9.5079 20.6654 9.5079 20.5625 9.52256C20.445 9.57329 20.3349 9.63127 20.2234 9.69415C20.1752 9.72119 20.1271 9.74823 20.0774 9.77608C20.0006 9.81973 20.0006 9.81973 19.9222 9.86426C19.8426 9.90913 19.8426 9.90913 19.7615 9.95491C19.4425 10.1353 19.1251 10.3182 18.8099 10.5052C18.5141 10.6806 18.2163 10.8527 17.9183 11.0244C17.8404 11.0693 17.8404 11.0693 17.761 11.115C17.6545 11.1764 17.5481 11.2377 17.4417 11.299C17.1854 11.4466 16.9293 11.5944 16.6731 11.7422C16.5716 11.8008 16.47 11.8594 16.3684 11.918C16.3182 11.947 16.2679 11.976 16.2161 12.0059C16.0638 12.0938 15.9114 12.1816 15.7591 12.2695C15.7087 12.2986 15.6584 12.3276 15.6066 12.3575C15.5055 12.4158 15.4045 12.4741 15.3034 12.5324C15.0691 12.6675 14.8349 12.8027 14.6009 12.9383C14.5193 12.9856 14.4376 13.0329 14.3558 13.0802C14.2542 13.1391 14.1527 13.1979 14.0512 13.2569C12.9753 13.8794 12.9753 13.8794 12.5686 13.8896C12.5241 13.8914 12.4796 13.8932 12.4337 13.895C11.9908 13.842 11.614 13.6221 11.2386 13.3945C11.1395 13.3356 11.0405 13.2768 10.9414 13.218C10.8643 13.1721 10.8643 13.1721 10.7856 13.1253C10.5429 12.9821 10.2981 12.8427 10.0531 12.7035C9.56947 12.4285 9.08773 12.1504 8.6075 11.8695C8.11419 11.581 7.61905 11.2958 7.12386 11.0105C6.92003 10.8931 6.71627 10.7755 6.51252 10.6579C6.41189 10.5999 6.31125 10.5419 6.21058 10.4839C5.97216 10.3465 5.73393 10.2088 5.4963 10.0701C5.38384 10.0044 5.27129 9.93899 5.15873 9.87354C5.07917 9.82718 4.99975 9.78058 4.92033 9.73398C4.87223 9.70603 4.82413 9.67809 4.77458 9.64929C4.73226 9.62456 4.68994 9.59982 4.64633 9.57433C4.38521 9.43965 4.30183 9.4743 4.04289 9.62494ZM2.93876 12C2.93876 12.7425 2.93876 13.485 2.93876 14.25C3.2288 14.4153 3.2288 14.4153 3.5247 14.584C3.95563 14.8299 4.38559 15.0774 4.81376 15.3281C5.21852 15.5651 5.62498 15.799 6.03251 16.0312C6.48819 16.2909 6.9423 16.5531 7.39502 16.818C7.88833 17.1065 8.38347 17.3917 8.87866 17.677C9.13313 17.8236 9.3875 17.9704 9.64189 18.1172C9.92956 18.2832 10.2172 18.4492 10.505 18.615C10.6171 18.6796 10.7291 18.7442 10.8412 18.8088C10.9202 18.8543 10.9991 18.8998 11.0781 18.9453C11.126 18.9729 11.174 19.0006 11.2234 19.0291C11.2654 19.0533 11.3075 19.0775 11.3509 19.1025C11.4336 19.1507 11.5156 19.2003 11.5968 19.2511C11.6973 19.3202 11.6973 19.3202 11.7981 19.3125C11.7981 18.57 11.7981 17.8275 11.7981 17.0625C11.6434 16.9755 11.4888 16.8885 11.3294 16.7988C10.8927 16.5525 10.4586 16.302 10.0259 16.0487C9.52861 15.7577 9.0294 15.47 8.53011 15.1824C8.27564 15.0358 8.02127 14.889 7.76689 14.7422C7.66532 14.6836 7.56376 14.625 7.4622 14.5664C6.54814 14.0391 6.54813 14.0391 5.63407 13.5117C5.58374 13.4827 5.5334 13.4536 5.48155 13.4237C5.38059 13.3655 5.27964 13.3072 5.17869 13.249C4.94328 13.1131 4.70785 12.9773 4.4723 12.8417C4.38952 12.7941 4.30675 12.7464 4.22398 12.6987C4.1206 12.6392 4.01721 12.5797 3.9138 12.5202C3.64825 12.3672 3.38486 12.2117 3.12443 12.0501C3.03624 11.9925 3.03624 11.9925 2.93876 12ZM21.7371 12.176C21.6645 12.2181 21.6645 12.2181 21.5904 12.2611C21.5115 12.3073 21.5115 12.3073 21.4309 12.3545C21.3758 12.3866 21.3207 12.4186 21.2656 12.4506C21.1509 12.5173 21.0363 12.584 20.9217 12.6508C20.6623 12.8019 20.4021 12.9517 20.1419 13.1016C20.0403 13.1601 19.9388 13.2187 19.8372 13.2773C15.5716 15.7383 15.5716 15.7383 15.419 15.8263C15.3182 15.8844 15.2175 15.9426 15.1167 16.0007C14.8791 16.1378 14.6414 16.2749 14.4038 16.4119C14.2917 16.4765 14.1796 16.5411 14.0676 16.6057C13.9886 16.6512 13.9097 16.6967 13.8307 16.7422C13.7828 16.7698 13.7348 16.7974 13.6854 16.8259C13.6433 16.8502 13.6013 16.8744 13.5579 16.8994C13.4989 16.9337 13.4989 16.9337 13.4388 16.9688C13.3955 16.9845 13.3522 17.0002 13.3076 17.0164C13.181 17.1305 13.1867 17.1661 13.1778 17.3319C13.1778 17.4264 13.1791 17.5208 13.1815 17.6153C13.1818 17.665 13.1822 17.7148 13.1825 17.766C13.1838 17.9251 13.1868 18.0841 13.1897 18.2432C13.1909 18.3509 13.192 18.4587 13.1929 18.5664C13.1955 18.8308 13.1995 19.0951 13.2044 19.3594C13.3818 19.293 13.5418 19.2115 13.7059 19.1171C13.7581 19.0872 13.8103 19.0573 13.864 19.0265C13.9205 18.9939 13.977 18.9613 14.0335 18.9287C14.0924 18.8949 14.1513 18.861 14.2103 18.8272C14.3616 18.7403 14.5128 18.6532 14.6639 18.566C14.7979 18.4887 14.932 18.4115 15.066 18.3344C15.3172 18.1896 15.5682 18.0447 15.8192 17.8996C16.0725 17.7533 16.326 17.6071 16.5794 17.4609C16.6809 17.4023 16.7825 17.3438 16.8841 17.2852C17.4934 16.9336 17.4934 16.9336 17.6458 16.8457C17.7473 16.7871 17.8488 16.7286 17.9503 16.67C18.2053 16.5229 18.4604 16.3758 18.7155 16.2288C19.2054 15.9465 19.6948 15.6634 20.1829 15.3779C20.8072 15.0128 21.4355 14.655 22.0638 14.2969C22.0638 13.5544 22.0638 12.8119 22.0638 12.0469C21.9289 12.0469 21.8534 12.1081 21.7371 12.176ZM3.64298 16.5992C3.6077 16.62 3.57241 16.6407 3.53605 16.662C3.48112 16.695 3.48112 16.695 3.42509 16.7285C3.36962 16.7609 3.36962 16.7609 3.31303 16.7939C3.11777 16.8969 3.11777 16.8969 2.98563 17.0625C3.01617 17.0801 3.04671 17.0977 3.07817 17.1159C3.12147 17.1409 3.16478 17.1658 3.20939 17.1916C3.2581 17.2197 3.30681 17.2478 3.357 17.2767C3.46642 17.3399 3.57584 17.403 3.68526 17.4661C3.9625 17.6261 4.23977 17.786 4.51713 17.9458C5.00547 18.2272 5.49329 18.5094 5.97978 18.7939C6.38654 19.0318 6.79498 19.2667 7.20438 19.5C7.66006 19.7597 8.11418 20.0219 8.5669 20.2867C8.90698 20.4856 9.24783 20.6831 9.58915 20.8799C9.63966 20.909 9.69017 20.9381 9.7422 20.9681C10.0001 21.1168 10.258 21.2652 10.516 21.4136C10.5673 21.4432 10.6186 21.4727 10.6714 21.5031C10.7732 21.5617 10.8751 21.6203 10.9771 21.6788C11.2269 21.8224 11.4749 21.9683 11.7207 22.1188C11.7914 22.1618 11.7914 22.1618 11.8636 22.2056C11.9524 22.2599 12.041 22.3147 12.1291 22.3701C12.1686 22.3941 12.2081 22.4181 12.2488 22.4429C12.3001 22.4748 12.3001 22.4748 12.3525 22.5074C12.4866 22.5593 12.5525 22.5436 12.6888 22.5C12.8109 22.4416 12.8109 22.4416 12.9354 22.3663C12.9834 22.3384 13.0313 22.3104 13.0807 22.2816C13.1322 22.2512 13.1836 22.2208 13.2366 22.1895C13.291 22.1576 13.3454 22.1258 13.3998 22.0941C13.5129 22.028 13.6259 21.9618 13.7389 21.8955C13.9993 21.7429 14.2611 21.5928 14.5227 21.4424C14.9102 21.2191 15.2969 20.9944 15.6829 20.7686C16.1175 20.5144 16.554 20.2639 16.9914 20.0147C17.371 19.7984 17.7493 19.5801 18.1263 19.3594C18.531 19.1224 18.9375 18.8885 19.345 18.6562C19.8075 18.3927 20.2687 18.127 20.7279 17.8577C20.9492 17.728 21.1709 17.5992 21.3941 17.4728C21.436 17.449 21.4779 17.4252 21.521 17.4007C21.5997 17.356 21.6785 17.3116 21.7575 17.2675C21.8455 17.2174 21.9315 17.1638 22.0169 17.1094C22.0169 17.0784 22.0169 17.0475 22.0169 17.0156C21.8893 16.9073 21.7455 16.8229 21.6038 16.7344C21.5656 16.7078 21.5275 16.6813 21.4882 16.654C21.3648 16.5779 21.2687 16.5284 21.1263 16.5C20.9309 16.5587 20.7779 16.6668 20.6106 16.7812C20.5289 16.828 20.4467 16.8739 20.364 16.9189C20.2792 16.9667 20.1944 17.0146 20.1097 17.0625C20.0633 17.0887 20.0169 17.1149 19.9692 17.1419C19.5926 17.3554 19.2186 17.5729 18.8451 17.7917C18.4819 18.0042 18.1169 18.2136 17.7513 18.4219C17.2956 18.6815 16.8415 18.9438 16.3888 19.2086C15.9475 19.4666 15.5048 19.7221 15.0618 19.9772C14.8762 20.0841 14.6907 20.1913 14.5055 20.2991C14.4236 20.3468 14.3416 20.3944 14.2596 20.442C14.1574 20.5013 14.0553 20.5608 13.9533 20.6204C12.9687 21.1914 12.9687 21.1914 12.5628 21.1992C12.5259 21.2004 12.4889 21.2016 12.4509 21.2029C12.0902 21.1624 11.7787 20.9979 11.4671 20.8213C11.427 20.7989 11.3869 20.7765 11.3455 20.7534C10.9351 20.523 10.529 20.2851 10.1231 20.0469C9.82481 19.872 9.52547 19.699 9.22587 19.5264C9.17526 19.4972 9.12464 19.468 9.0725 19.438C8.96983 19.3788 8.86716 19.3197 8.76449 19.2605C8.51001 19.1139 8.25564 18.9671 8.00126 18.8203C7.8997 18.7617 7.79814 18.7031 7.69657 18.6445C7.0872 18.293 7.0872 18.293 6.9348 18.205C6.83343 18.1466 6.73205 18.0881 6.63068 18.0296C6.32171 17.8514 6.01281 17.673 5.70394 17.4946C5.55192 17.4069 5.39983 17.3193 5.24772 17.2317C5.05282 17.1194 4.85828 17.0066 4.66398 16.8933C4.57426 16.8413 4.48454 16.7893 4.39481 16.7373C4.35374 16.7132 4.31266 16.6891 4.27034 16.6642C4.23268 16.6425 4.19503 16.6207 4.15623 16.5983C4.12348 16.5792 4.09074 16.5601 4.057 16.5405C3.88905 16.4623 3.79164 16.5117 3.64298 16.5992Z" fill="white"/>
<path d="M15.5469 7.64062C15.7519 7.74312 15.8956 7.86687 16.0156 8.0625C16.0854 8.34614 16.0701 8.55746 15.9219 8.8125C15.763 8.99458 15.6505 9.05933 15.4121 9.09668C15.1669 9.10923 14.9924 9.054 14.7969 8.90625C14.6306 8.73582 14.596 8.59845 14.5859 8.36719C14.5953 8.13652 14.6361 8.00156 14.7969 7.82812C15.028 7.61899 15.2475 7.59236 15.5469 7.64062Z" fill="#C5C5C5"/>
<path d="M9.92083 7.64063C10.1478 7.74989 10.2819 7.88161 10.3896 8.10938C10.4255 8.35538 10.4192 8.55721 10.3193 8.78613C10.1391 8.97083 9.97044 9.08269 9.70842 9.10291C9.5152 9.09301 9.35548 9.06567 9.19719 8.9502C9.02372 8.75134 8.93507 8.58671 8.93755 8.31903C8.96824 8.09227 9.01995 7.95383 9.19426 7.80176C9.43128 7.6245 9.62798 7.60864 9.92083 7.64063Z" fill="#C5C5C5"/>
<path d="M18.3594 6.23437C18.5644 6.33687 18.7081 6.46062 18.8281 6.65625C18.8979 6.93989 18.8826 7.15121 18.7344 7.40625C18.5755 7.58833 18.463 7.65308 18.2246 7.69043C17.9794 7.70298 17.8049 7.64775 17.6094 7.5C17.4431 7.32957 17.4085 7.1922 17.3984 6.96094C17.4078 6.73027 17.4486 6.59531 17.6094 6.42187C17.8405 6.21274 18.06 6.18611 18.3594 6.23437Z" fill="#C5C5C5"/>
<path d="M7.10833 6.23438C7.33526 6.34364 7.46941 6.47536 7.57708 6.70313C7.61301 6.94913 7.60666 7.15096 7.50676 7.37988C7.32657 7.56458 7.15794 7.67644 6.89592 7.69666C6.7027 7.68676 6.54298 7.65942 6.38469 7.54395C6.21122 7.34509 6.12257 7.18046 6.12505 6.91278C6.15574 6.68602 6.20745 6.54758 6.38176 6.39551C6.61878 6.21825 6.81548 6.20239 7.10833 6.23438Z" fill="#C5C5C5"/>
<path d="M9.92083 4.82813C10.1478 4.93739 10.2819 5.06911 10.3896 5.29688C10.4255 5.54288 10.4192 5.74471 10.3193 5.97363C10.1391 6.15833 9.97044 6.27019 9.70842 6.29041C9.5152 6.28051 9.35548 6.25317 9.19719 6.1377C9.02372 5.93884 8.93507 5.77421 8.93755 5.50653C8.96824 5.27977 9.01995 5.14133 9.19426 4.98926C9.43128 4.812 9.62798 4.79614 9.92083 4.82813Z" fill="#C5C5C5"/>
<path d="M12.7344 9.04687C12.9223 9.14599 13.1091 9.26533 13.1954 9.46619C13.2654 9.74906 13.2501 9.96032 13.1094 10.2188C12.9564 10.3978 12.8277 10.4668 12.5996 10.5029C12.3544 10.5155 12.1799 10.4603 11.9844 10.3125C11.8181 10.1421 11.7835 10.0047 11.7734 9.77344C11.7828 9.54278 11.8236 9.40781 11.9844 9.23437C12.215 9.02569 12.4355 8.99778 12.7344 9.04687Z" fill="#C5C5C5"/>
<path d="M12.7338 6.23437C12.9608 6.34364 13.0949 6.47536 13.2026 6.70312C13.2385 6.94913 13.2322 7.15096 13.1323 7.37988C12.9521 7.56458 12.7834 7.67644 12.5214 7.69665C12.3169 7.68618 12.1888 7.65081 12.0102 7.54687C11.8408 7.34861 11.7423 7.14953 11.7539 6.88367C11.8012 6.64601 11.9078 6.4979 12.0776 6.32812C12.2865 6.19995 12.4956 6.20422 12.7338 6.23437Z" fill="#C5C5C5"/>
<path d="M15.5463 4.82812C15.7733 4.93739 15.9074 5.06911 16.0151 5.29687C16.051 5.54288 16.0447 5.74471 15.9448 5.97363C15.7646 6.15833 15.5959 6.27019 15.3339 6.2904C15.1294 6.27993 15.0013 6.24456 14.8227 6.14062C14.6533 5.94236 14.5548 5.74328 14.5664 5.47742C14.6137 5.23976 14.7203 5.09165 14.8901 4.92187C15.099 4.7937 15.3081 4.79797 15.5463 4.82812Z" fill="#C5C5C5"/>
<path d="M12.7338 3.42187C12.9608 3.53114 13.0949 3.66286 13.2026 3.89062C13.2385 4.13663 13.2322 4.33846 13.1323 4.56738C12.9521 4.75208 12.7834 4.86394 12.5214 4.88415C12.3169 4.87368 12.1888 4.83831 12.0102 4.73437C11.8408 4.53611 11.7423 4.33703 11.7539 4.07117C11.8012 3.83351 11.9078 3.6854 12.0776 3.51562C12.2865 3.38745 12.4956 3.39172 12.7338 3.42187Z" fill="#C5C5C5"/>
</g>
<defs>
<clipPath id="clip0_763_256">
<rect width="24" height="24" fill="white" transform="translate(0.5)"/>
</clipPath>
</defs>
</svg>
