<svg width="25" height="24" viewBox="0 0 25 24" fill="none" xmlns="http://www.w3.org/2000/svg">
<g clip-path="url(#clip0_763_278)">
<path d="M10.6452 -0.0143656C10.6892 -0.0147557 10.7333 -0.0151459 10.7788 -0.0155479C10.9244 -0.0166764 11.07 -0.0170887 11.2156 -0.0173982C11.3171 -0.0178187 11.4187 -0.0182463 11.5202 -0.0186807C11.7331 -0.0194535 11.946 -0.0198146 12.1589 -0.0199503C12.4309 -0.0202023 12.7029 -0.0219671 12.9748 -0.0241102C13.1846 -0.0255088 13.3944 -0.0258436 13.6042 -0.0258906C13.7045 -0.026087 13.8047 -0.0266677 13.9049 -0.0276492C14.943 -0.0370044 14.943 -0.0370044 15.2668 0.234372C15.5216 0.508321 15.656 0.759306 15.6477 1.13965C15.6468 1.18974 15.646 1.23983 15.6451 1.29144C15.6435 1.34827 15.6435 1.34827 15.6418 1.40625C15.6998 1.40573 15.7577 1.40521 15.8174 1.40467C16.3656 1.3999 16.9139 1.3964 17.4621 1.3941C17.7439 1.39288 18.0257 1.39123 18.3075 1.38857C18.5798 1.38601 18.8521 1.38461 19.1244 1.38401C19.2279 1.38358 19.3315 1.38274 19.435 1.38147C20.2662 1.37166 20.8589 1.44973 21.4858 2.0429C21.8372 2.4151 22.023 2.87737 22.0221 3.38228C22.0221 3.41568 22.0221 3.44908 22.0221 3.4835C22.0221 3.59357 22.0217 3.70364 22.0214 3.81372C22.0213 3.89017 22.0212 3.96662 22.0212 4.04307C22.021 4.24405 22.0205 4.44502 22.02 4.646C22.0195 4.85118 22.0193 5.05635 22.0191 5.26153C22.0186 5.66394 22.0178 6.06634 22.0168 6.46875C22.0979 6.46752 22.0979 6.46752 22.1806 6.46628C22.2526 6.46562 22.3246 6.46498 22.3966 6.46435C22.4321 6.46376 22.4676 6.46317 22.5041 6.46257C23.0573 6.45899 23.4809 6.66648 23.8918 7.03125C24.3134 7.45208 24.5253 7.96371 24.5325 8.55816C24.532 8.61141 24.5315 8.66467 24.5309 8.71954C24.5313 8.77782 24.5317 8.8361 24.532 8.89615C24.5328 9.05609 24.5325 9.21597 24.5318 9.3759C24.5313 9.54909 24.5321 9.72228 24.5327 9.89547C24.5338 10.234 24.5336 10.5726 24.5329 10.9111C24.5324 11.1864 24.5323 11.4617 24.5325 11.7371C24.5326 11.796 24.5326 11.796 24.5326 11.8561C24.5327 11.936 24.5328 12.0158 24.5329 12.0956C24.5335 12.843 24.5328 13.5904 24.5315 14.3377C24.5305 14.978 24.5307 15.6183 24.5317 16.2586C24.533 17.0034 24.5335 17.7483 24.5328 18.4931C24.5327 18.5726 24.5326 18.6522 24.5325 18.7317C24.5325 18.7904 24.5325 18.7904 24.5324 18.8502C24.5322 19.125 24.5326 19.3998 24.5331 19.6745C24.5338 20.0097 24.5336 20.3449 24.5323 20.68C24.5317 20.8508 24.5315 21.0216 24.5323 21.1923C24.5331 21.378 24.5321 21.5636 24.5309 21.7492C24.5315 21.8025 24.532 21.8557 24.5325 21.9106C24.525 22.535 24.2879 23.0215 23.8645 23.469C23.4894 23.8231 23.024 24.0073 22.5156 24.0064C22.4806 24.0065 22.4456 24.0067 22.4095 24.0068C22.2915 24.0072 22.1735 24.0072 22.0555 24.0072C21.9704 24.0074 21.8852 24.0076 21.8 24.0078C21.5653 24.0084 21.3307 24.0087 21.0961 24.0089C20.8432 24.0092 20.5904 24.0097 20.3375 24.0102C19.7266 24.0113 19.1156 24.012 18.5047 24.0126C18.3321 24.0128 18.1595 24.013 17.987 24.0132C16.9155 24.0144 15.844 24.0154 14.7726 24.016C14.5243 24.0161 14.2761 24.0163 14.0279 24.0164C13.9353 24.0165 13.9353 24.0165 13.8409 24.0165C12.8417 24.0171 11.8424 24.0187 10.8431 24.0206C9.81727 24.0226 8.7914 24.0237 7.76554 24.024C7.18953 24.0241 6.61353 24.0247 6.03753 24.0262C5.54692 24.0275 5.05633 24.028 4.56573 24.0275C4.31549 24.0273 4.06527 24.0274 3.81504 24.0286C3.5857 24.0296 3.35638 24.0296 3.12704 24.0287C3.04433 24.0286 2.96161 24.0288 2.8789 24.0295C2.13929 24.0354 1.58262 23.8842 1.03218 23.3633C0.716656 23.0291 0.495927 22.5765 0.494753 22.1155C0.494515 22.0658 0.494277 22.0162 0.494032 21.965C0.494009 21.9106 0.493985 21.8561 0.493961 21.7999C0.493756 21.742 0.49355 21.6841 0.493339 21.6244C0.49282 21.4636 0.492513 21.3027 0.492299 21.1418C0.492019 20.9683 0.491475 20.7948 0.490973 20.6214C0.489824 20.2023 0.489137 19.7832 0.488532 19.3641C0.488358 19.2457 0.488172 19.1273 0.487982 19.0089C0.486798 18.2731 0.485765 17.5374 0.485182 16.8016C0.485045 16.6312 0.484906 16.4608 0.484764 16.2904C0.484729 16.2481 0.484695 16.2057 0.484658 16.1621C0.484066 15.4766 0.482509 14.791 0.480555 14.1055C0.478564 13.4013 0.477462 12.697 0.477217 11.9928C0.477057 11.5976 0.476509 11.2023 0.474962 10.8071C0.473646 10.4704 0.473135 10.1337 0.473659 9.79696C0.473901 9.62533 0.473772 9.45372 0.472606 9.28209C0.471348 9.0955 0.471932 8.90897 0.472675 8.72238C0.471699 8.64206 0.471699 8.64206 0.470703 8.56012C0.47657 7.9595 0.691941 7.46079 1.11055 7.03125C1.4437 6.72131 1.91745 6.46066 2.3813 6.46417C2.41665 6.46432 2.452 6.46447 2.48842 6.46463C2.52485 6.46502 2.56129 6.46541 2.59883 6.46582C2.63599 6.46603 2.67315 6.46624 2.71144 6.46646C2.80281 6.46701 2.89418 6.46785 2.98555 6.46875C2.98477 6.40647 2.98477 6.40647 2.98397 6.34294C2.97925 5.94925 2.9757 5.55556 2.97341 5.16185C2.97219 4.9595 2.97054 4.75717 2.96787 4.55483C2.9653 4.35909 2.96392 4.16337 2.96331 3.96762C2.96288 3.89342 2.96205 3.81921 2.96077 3.74502C2.94971 3.07546 3.07398 2.52041 3.54805 2.01562C3.8781 1.67464 4.35936 1.40704 4.83973 1.39497C4.92406 1.3947 5.00838 1.39495 5.0927 1.3956C5.16203 1.39558 5.16203 1.39558 5.23276 1.39556C5.38494 1.39563 5.53711 1.39636 5.68929 1.39709C5.79503 1.39727 5.90077 1.3974 6.00652 1.39749C6.2844 1.39785 6.56228 1.39877 6.84016 1.39981C7.1239 1.40077 7.40763 1.4012 7.69136 1.40167C8.24776 1.40267 8.80415 1.40427 9.36055 1.40625C9.35946 1.36856 9.35837 1.33088 9.35725 1.29206C9.35641 1.24212 9.35556 1.19219 9.35469 1.14074C9.3536 1.09146 9.35252 1.04218 9.35139 0.991398C9.36882 0.710449 9.48469 0.482117 9.68575 0.28674C9.99781 0.042052 10.2558 -0.0140723 10.6452 -0.0143656ZM10.7668 1.40625C10.7668 1.87031 10.7668 2.33437 10.7668 2.8125C11.9115 2.8125 13.0562 2.8125 14.2356 2.8125C14.2356 2.34843 14.2356 1.88437 14.2356 1.40625C13.0909 1.40625 11.9462 1.40625 10.7668 1.40625ZM4.53242 3.14062C3.91681 4.06404 4.43868 5.35893 4.43868 6.46875C9.75992 6.46875 15.0812 6.46875 20.5637 6.46875C20.7911 4.63713 20.7911 4.63713 20.3762 3C20.1015 2.79578 19.8173 2.80576 19.4892 2.80718C19.4476 2.80717 19.406 2.80716 19.3631 2.80715C19.2259 2.80719 19.0886 2.80755 18.9514 2.80792C18.8561 2.80801 18.7608 2.80807 18.6655 2.80812C18.415 2.8083 18.1645 2.80876 17.914 2.80928C17.6582 2.80976 17.4024 2.80997 17.1467 2.81021C16.645 2.81071 16.1434 2.81151 15.6418 2.8125C15.6384 2.86902 15.6384 2.86902 15.6348 2.92669C15.6313 2.97662 15.6278 3.02655 15.6242 3.078C15.621 3.12728 15.6177 3.17657 15.6143 3.22734C15.5772 3.51009 15.474 3.74599 15.2562 3.93365C15.0468 4.0772 14.8678 4.17705 14.6099 4.17909C14.5526 4.17969 14.5526 4.17969 14.4942 4.18031C14.4525 4.18051 14.4108 4.18071 14.3678 4.18091C14.3238 4.1813 14.2797 4.18168 14.2343 4.18207C14.0882 4.18324 13.942 4.18401 13.7959 4.18469C13.721 4.18506 13.721 4.18506 13.6445 4.18545C13.3798 4.1867 13.1152 4.18761 12.8505 4.18828C12.6319 4.18891 12.4132 4.19021 12.1946 4.19213C11.9303 4.19444 11.6661 4.1956 11.4018 4.19593C11.3013 4.19625 11.2008 4.19696 11.1003 4.19808C10.0732 4.20893 10.0732 4.20893 9.73555 3.9375C9.6299 3.82727 9.6299 3.82727 9.56856 3.7207C9.54723 3.68529 9.5259 3.64988 9.50392 3.6134C9.41424 3.43668 9.39577 3.28048 9.38106 3.08496C9.37713 3.03402 9.3732 2.98308 9.36916 2.9306C9.36632 2.89163 9.36348 2.85265 9.36055 2.8125C8.81005 2.81032 8.25955 2.80866 7.70905 2.80764C7.45341 2.80715 7.19778 2.80649 6.94215 2.80542C6.69536 2.8044 6.44857 2.80384 6.20177 2.8036C6.10771 2.80343 6.01365 2.80309 5.91959 2.80258C5.78764 2.8019 5.6557 2.80181 5.52375 2.80185C5.46569 2.80135 5.46569 2.80135 5.40645 2.80083C5.04123 2.80213 4.77918 2.85156 4.53242 3.14062ZM2.05977 8.19726C1.69705 8.70103 1.90743 9.70314 1.90743 10.125C8.8993 10.125 15.8912 10.125 23.0949 10.125C23.1916 9.22661 23.1916 9.22661 22.9354 8.15808C22.9117 8.1362 22.8879 8.11433 22.8635 8.09179C22.828 8.0579 22.828 8.0579 22.7919 8.02331C22.6248 7.8966 22.4487 7.9159 22.2479 7.91571C22.2137 7.91562 22.1796 7.91552 22.1445 7.91542C22.0292 7.91515 21.914 7.91522 21.7988 7.91529C21.7157 7.91517 21.6326 7.91503 21.5495 7.91487C21.3204 7.91449 21.0914 7.9144 20.8623 7.91437C20.6156 7.91428 20.3689 7.91393 20.1221 7.91361C19.5823 7.91298 19.0425 7.91269 18.5026 7.91249C18.1658 7.91236 17.8289 7.91216 17.492 7.91195C16.5599 7.91138 15.6278 7.91089 14.6957 7.91074C14.6361 7.91073 14.5764 7.91072 14.5149 7.9107C14.4252 7.91069 14.4252 7.91069 14.3336 7.91067C14.2124 7.91065 14.0911 7.91063 13.9699 7.91061C13.9097 7.9106 13.8496 7.91059 13.7876 7.91058C12.8127 7.91039 11.8377 7.90958 10.8628 7.90848C9.86253 7.90737 8.8623 7.90679 7.86208 7.90673C7.30018 7.90669 6.73829 7.90642 6.17639 7.90557C5.69802 7.90485 5.21966 7.90461 4.7413 7.905C4.49709 7.90518 4.2529 7.90513 4.00869 7.90448C3.7853 7.90388 3.56192 7.90393 3.33853 7.90451C3.25756 7.9046 3.17658 7.90445 3.09561 7.90404C2.98582 7.90353 2.87607 7.90387 2.76628 7.90444C2.67469 7.9044 2.67469 7.9044 2.58124 7.90435C2.33877 7.93121 2.22569 8.0238 2.05977 8.19726ZM4.86055 11.5312C4.86055 12.413 4.86055 13.2947 4.86055 14.2031C5.30914 14.2031 5.75774 14.2031 6.21992 14.2031C6.21992 13.3214 6.21992 12.4397 6.21992 11.5312C5.77133 11.5312 5.32274 11.5312 4.86055 11.5312ZM1.90743 11.5312C1.90526 12.8763 1.90358 14.2213 1.90257 15.5663C1.90208 16.1908 1.90143 16.8154 1.90035 17.4399C1.89942 17.9842 1.89881 18.5284 1.8986 19.0727C1.89848 19.361 1.89819 19.6492 1.89751 19.9374C1.89688 20.2087 1.89668 20.48 1.89682 20.7513C1.8968 20.8508 1.89661 20.9504 1.89625 21.0499C1.89578 21.1859 1.8959 21.3219 1.89615 21.4579C1.89588 21.4972 1.89561 21.5366 1.89532 21.5771C1.89681 21.8689 1.91722 22.1219 2.11543 22.3506C2.38542 22.5811 2.58692 22.5996 2.93414 22.5994C2.9821 22.5994 2.9821 22.5994 3.03104 22.5995C3.13784 22.5996 3.24465 22.5993 3.35145 22.5991C3.42815 22.5991 3.50484 22.5991 3.58154 22.5991C3.78955 22.5991 3.99756 22.5988 4.20558 22.5985C4.42304 22.5982 4.64049 22.5982 4.85795 22.5981C5.26966 22.598 5.68136 22.5976 6.09306 22.5971C6.56181 22.5966 7.03056 22.5963 7.4993 22.5961C8.46347 22.5956 9.42763 22.5948 10.3918 22.5937C10.4005 22.4043 10.4058 22.2148 10.4105 22.0252C10.413 21.9716 10.4155 21.9181 10.4181 21.8629C10.4302 21.5795 10.4302 21.5795 10.3274 21.3242C10.2044 21.2083 10.0655 21.1149 9.91151 21.0456C9.23604 20.7093 8.77999 19.86 8.52971 19.1723C8.13915 17.9796 8.27074 16.7719 8.81929 15.6586C9.13536 15.0717 9.70224 14.3923 10.3449 14.1562C10.7107 14.0745 11.0395 14.1118 11.3678 14.2985C11.5633 14.4435 11.6814 14.6301 11.7512 14.8594C11.7773 15.1239 11.7777 15.3877 11.7775 15.6533C11.7423 16.3444 11.7423 16.3444 12.0067 16.9501C12.2026 17.1202 12.3347 17.1708 12.5938 17.1661C12.8049 17.1441 12.91 17.0292 13.052 16.8809C13.2224 16.6442 13.2109 16.4152 13.2125 16.1314C13.2136 16.0591 13.2148 15.9868 13.2159 15.9145C13.2176 15.8016 13.2189 15.6887 13.2196 15.5757C13.2253 14.7122 13.2253 14.7122 13.5275 14.3895C13.8575 14.157 14.1282 14.0814 14.5316 14.1323C15.1323 14.2468 15.6282 14.8389 15.967 15.316C16.6116 16.3342 16.8547 17.5127 16.625 18.7081C16.3676 19.803 15.6924 20.7202 14.7512 21.3281C14.6816 21.3745 14.6816 21.3745 14.6106 21.4219C14.591 21.5445 14.591 21.5445 14.5968 21.6874C14.5973 21.7399 14.5977 21.7925 14.5982 21.8467C14.6 21.9293 14.6 21.9293 14.6018 22.0137C14.6027 22.0969 14.6027 22.0969 14.6037 22.1818C14.6053 22.3191 14.6077 22.4564 14.6106 22.5937C15.6194 22.5959 16.6283 22.5976 17.6372 22.5986C18.1056 22.5991 18.5741 22.5997 19.0425 22.6008C19.4509 22.6018 19.8592 22.6024 20.2675 22.6026C20.4837 22.6027 20.6999 22.603 20.916 22.6037C21.1196 22.6043 21.3232 22.6045 21.5268 22.6044C21.6014 22.6044 21.676 22.6046 21.7506 22.6049C21.8527 22.6054 21.9548 22.6053 22.0569 22.605C22.1426 22.6052 22.1426 22.6052 22.2299 22.6053C22.4774 22.5876 22.6626 22.5497 22.8518 22.3857C23.1042 22.09 23.1018 21.8404 23.1006 21.4692C23.1006 21.4267 23.1006 21.3841 23.1007 21.3404C23.1008 21.1979 23.1005 21.0555 23.1002 20.9131C23.1002 20.811 23.1002 20.7089 23.1003 20.6068C23.1003 20.3295 23.1 20.0523 23.0997 19.775C23.0994 19.4853 23.0994 19.1956 23.0993 18.9058C23.0992 18.3572 23.0988 17.8085 23.0983 17.2599C23.0978 16.6352 23.0975 16.0106 23.0973 15.386C23.0968 14.1011 23.096 12.8162 23.0949 11.5312C22.5999 11.5312 22.1049 11.5312 21.5949 11.5312C21.5932 11.7395 21.5914 11.9478 21.5896 12.1624C21.5878 12.3294 21.5859 12.4965 21.5839 12.6635C21.5818 12.8393 21.5799 13.015 21.5787 13.1908C21.5775 13.3604 21.5756 13.53 21.5732 13.6996C21.5724 13.764 21.5719 13.8284 21.5716 13.8929C21.5687 14.4711 21.5074 14.8482 21.1015 15.2732C20.7563 15.5764 20.3562 15.6165 19.9109 15.6172C19.8584 15.6175 19.8584 15.6175 19.8048 15.6177C19.731 15.618 19.6572 15.6181 19.5834 15.6181C19.4717 15.6182 19.36 15.619 19.2483 15.6199C18.6758 15.6221 18.1934 15.6011 17.7536 15.1974C16.8999 14.299 17.3427 12.3756 17.3293 11.5312C14.1427 11.5312 10.9562 11.5312 7.67305 11.5312C7.65758 12.5058 7.64211 13.4803 7.62617 14.4844C7.4154 15.0113 7.25796 15.2819 6.76027 15.5198C6.50846 15.6105 6.25411 15.6168 5.98903 15.6172C5.9365 15.6175 5.9365 15.6175 5.88292 15.6177C5.80913 15.618 5.73534 15.6181 5.66156 15.6181C5.54985 15.6182 5.43816 15.619 5.32646 15.6199C4.75393 15.6221 4.27156 15.6011 3.83168 15.1974C3.44288 14.7882 3.4328 14.3413 3.43031 13.7972C3.42952 13.7316 3.42867 13.666 3.42776 13.6004C3.42555 13.4291 3.42414 13.2578 3.42291 13.0864C3.42151 12.9111 3.41934 12.7357 3.41722 12.5604C3.41313 12.2173 3.41031 11.8743 3.40743 11.5312C2.91243 11.5312 2.41743 11.5312 1.90743 11.5312ZM18.7824 11.5312C18.7824 12.413 18.7824 13.2947 18.7824 14.2031C19.231 14.2031 19.6796 14.2031 20.1418 14.2031C20.1418 13.3214 20.1418 12.4397 20.1418 11.5312C19.6932 11.5312 19.2446 11.5312 18.7824 11.5312ZM10.3449 15.9844C9.78991 16.5973 9.69221 17.3252 9.72639 18.1172C9.74672 18.3774 9.81863 18.6062 9.92305 18.8437C9.95205 18.9097 9.95205 18.9097 9.98164 18.977C10.2529 19.5258 10.6577 19.893 11.1748 20.1998C11.4411 20.3671 11.6306 20.5114 11.7512 20.8125C11.7718 20.9516 11.774 21.0891 11.7752 21.2296C11.776 21.2687 11.7768 21.3079 11.7777 21.3482C11.7802 21.4724 11.7818 21.5965 11.7834 21.7207C11.785 21.8052 11.7866 21.8898 11.7883 21.9743C11.7923 22.1808 11.7952 22.3872 11.798 22.5937C12.2621 22.5937 12.7262 22.5937 13.2043 22.5937C13.205 22.4695 13.2056 22.3453 13.2063 22.2173C13.2078 22.096 13.2096 21.9746 13.2115 21.8533C13.2125 21.7695 13.2132 21.6857 13.2135 21.6018C13.2139 21.4808 13.2158 21.3598 13.218 21.2388C13.2178 21.2017 13.2177 21.1647 13.2175 21.1266C13.2247 20.8488 13.3047 20.6503 13.4856 20.4375C13.5719 20.3721 13.658 20.3189 13.7523 20.2657C14.4874 19.8404 15.0109 19.2365 15.2375 18.41C15.3717 17.6057 15.2726 16.8059 14.7981 16.125C14.7009 16.0418 14.7009 16.0418 14.6106 15.9844C14.6104 16.011 14.6102 16.0376 14.61 16.0651C14.6002 16.841 14.534 17.4714 13.9543 18.0469C13.4053 18.4984 12.8192 18.6101 12.1262 18.5625C11.6143 18.4816 11.1264 18.1766 10.8137 17.7656C10.6112 17.4311 10.4416 17.0934 10.4238 16.6985C10.4219 16.6568 10.4199 16.6151 10.4179 16.5721C10.416 16.529 10.4142 16.4859 10.4123 16.4414C10.4093 16.3756 10.4093 16.3756 10.4062 16.3085C10.4012 16.2004 10.3964 16.0924 10.3918 15.9844C10.3763 15.9844 10.3609 15.9844 10.3449 15.9844Z" fill="white"/>
</g>
<defs>
<clipPath id="clip0_763_278">
<rect width="24" height="24" fill="white" transform="translate(0.5)"/>
</clipPath>
</defs>
</svg>
