<svg width="73" height="73" viewBox="0 0 73 73" fill="none" xmlns="http://www.w3.org/2000/svg">
<g clip-path="url(#clip0_1682_331)">
<path d="M2.58615 42.9987C2.7156 42.9977 2.84505 42.9967 2.97842 42.9957C3.40558 42.9931 3.83265 42.9937 4.25981 42.9945C4.55722 42.9938 4.85464 42.9931 5.15205 42.9922C5.77517 42.9909 6.39827 42.9913 7.02139 42.9927C7.81935 42.9943 8.61722 42.9915 9.41517 42.9873C10.0293 42.9847 10.6435 42.9847 11.2576 42.9855C11.5518 42.9856 11.846 42.9847 12.1401 42.9829C12.5517 42.9808 12.9632 42.9823 13.3747 42.9848C13.5564 42.9827 13.5564 42.9827 13.7418 42.9806C14.5062 42.9901 14.9378 43.1224 15.5463 43.6266C16.0841 44.2523 16.0249 44.8842 16.0008 45.6673C15.9979 45.846 15.9979 45.846 15.9949 46.0284C15.9899 46.321 15.9822 46.6135 15.974 46.9059C16.0937 46.8352 16.2133 46.7644 16.3366 46.6915C17.4043 46.0808 18.4777 45.6018 19.6454 45.2128C19.8272 45.1517 19.8272 45.1517 20.0126 45.0894C21.5884 44.5832 23.0897 44.4263 24.7426 44.4286C24.8832 44.4287 24.8832 44.4287 25.0265 44.4289C28.1509 44.4407 31.7327 45.1861 34.1454 47.328C35.6506 48.6448 36.7848 48.8535 38.7437 48.7901C39.0077 48.7882 39.2717 48.7873 39.5357 48.7872C40.2246 48.785 40.9129 48.7734 41.6016 48.7589C42.7046 48.7369 43.8077 48.7282 44.9109 48.7225C45.2924 48.7189 45.6735 48.7102 46.0549 48.7008C48.2378 48.6649 49.8094 49.1631 51.4292 50.6959C52.4003 51.7246 52.8899 52.9385 53.0444 54.32C53.8569 53.7853 54.6693 53.2504 55.4816 52.7153C55.9131 52.4312 56.3448 52.1473 56.7764 51.8633C58.0673 51.0135 59.357 50.1624 60.6366 49.2958C60.8308 49.1646 61.025 49.0335 61.2191 48.9024C61.5694 48.6658 61.9184 48.4275 62.2669 48.1881C64.1504 46.9073 65.9519 46.2935 68.2323 46.7132C69.8665 47.1674 71.1654 48.0875 72.1498 49.4723C73.0623 51.1452 73.2873 52.9263 72.9078 54.8017C72.1455 57.0254 70.5291 58.2404 68.6533 59.4989C67.9842 59.9518 67.323 60.4161 66.6606 60.8786C65.6476 61.5843 64.6329 62.2874 63.6146 62.9855C62.7738 63.5626 61.9369 64.1453 61.1 64.7282C58.6533 66.4316 58.6533 66.4316 57.4433 67.2562C57.171 67.4427 56.9002 67.6312 56.6294 67.8198C55.5378 68.5733 54.4434 69.2668 53.1869 69.7184C53.0875 69.7545 52.988 69.7906 52.8855 69.8277C51.3029 70.3106 49.6602 70.2026 48.0228 70.1947C47.6728 70.1946 47.3228 70.1947 46.9727 70.1949C46.2219 70.195 45.4711 70.1938 44.7203 70.1914C43.6348 70.1879 42.5492 70.1868 41.4637 70.1862C39.7021 70.1853 37.9405 70.1825 36.1789 70.1784C34.4686 70.1745 32.7584 70.1715 31.0481 70.1696C30.9425 70.1695 30.8369 70.1694 30.7281 70.1693C30.1984 70.1687 29.6686 70.1682 29.1388 70.1677C24.7505 70.1632 20.3623 70.1557 15.974 70.1461C15.9782 70.3073 15.9782 70.3073 15.9825 70.4717C15.9858 70.6833 15.9858 70.6833 15.9891 70.8991C15.9919 71.0389 15.9947 71.1787 15.9975 71.3227C15.9642 71.8791 15.7782 72.1652 15.4037 72.57C14.7568 73.0783 14.1809 73.0595 13.3932 73.0553C13.2637 73.0563 13.1343 73.0573 13.0009 73.0583C12.5738 73.0609 12.1467 73.0603 11.7195 73.0595C11.4221 73.0602 11.1247 73.0609 10.8273 73.0618C10.2042 73.0631 9.58108 73.0627 8.95796 73.0613C8.16 73.0597 7.36212 73.0625 6.56417 73.0667C5.95002 73.0693 5.33589 73.0693 4.72174 73.0685C4.42756 73.0685 4.13339 73.0693 3.83922 73.0711C3.42762 73.0732 3.01619 73.0717 2.6046 73.0692C2.42291 73.0713 2.42291 73.0713 2.23755 73.0734C1.47632 73.064 1.02732 72.9467 0.433033 72.4274C-0.0180002 71.8352 -0.0559205 71.3157 -0.0499764 70.5953C-0.0507442 70.4835 -0.051512 70.3717 -0.0523031 70.2565C-0.054341 69.8824 -0.0533259 69.5083 -0.0523108 69.1342C-0.0531239 68.8658 -0.0541168 68.5974 -0.0552761 68.329C-0.0578361 67.6002 -0.0576653 66.8714 -0.0568525 66.1426C-0.0564122 65.5342 -0.0572798 64.9258 -0.0581413 64.3174C-0.0601447 62.8822 -0.0599205 61.4471 -0.0582979 60.0119C-0.0566608 58.5311 -0.0586678 57.0504 -0.0624892 55.5697C-0.0656471 54.2984 -0.066595 53.0271 -0.0657577 51.7558C-0.0652768 50.9965 -0.0656244 50.2372 -0.0680747 49.4779C-0.0702781 48.7639 -0.0697186 48.05 -0.0670331 47.336C-0.066507 47.074 -0.0669525 46.812 -0.0684426 46.55C-0.0703223 46.1922 -0.068683 45.8346 -0.0661626 45.4768C-0.0682168 45.3215 -0.0682168 45.3215 -0.0703125 45.1631C-0.0599012 44.4442 0.128325 44.0401 0.575611 43.484C1.19551 42.9583 1.81119 42.9946 2.58615 42.9987ZM4.28264 47.3336C4.28264 54.3913 4.28264 61.4489 4.28264 68.7204C6.72928 68.7204 9.17592 68.7204 11.6967 68.7204C11.6967 61.6627 11.6967 54.6051 11.6967 47.3336C9.25006 47.3336 6.80342 47.3336 4.28264 47.3336ZM18.8782 50.4261C18.4753 50.6444 18.071 50.8376 17.6501 51.0182C16.9259 51.3572 16.163 51.7149 15.848 52.4924C15.6503 53.4237 15.7124 54.3697 15.7513 55.3147C15.7555 55.6195 15.7588 55.9243 15.7611 56.2292C15.7697 57.028 15.7921 57.8258 15.8174 58.6242C15.8408 59.4403 15.8512 60.2566 15.8627 61.0729C15.8871 62.672 15.9259 64.2703 15.974 65.8688C20.2497 65.8753 24.5253 65.8804 28.801 65.8834C29.3064 65.8837 29.8118 65.8841 30.3171 65.8845C30.4681 65.8846 30.4681 65.8846 30.622 65.8847C32.2486 65.8859 33.8752 65.8882 35.5018 65.8908C37.1723 65.8935 38.8427 65.8951 40.5132 65.8956C41.4509 65.896 42.3885 65.8969 43.3262 65.899C44.2095 65.9009 45.0928 65.9015 45.9761 65.9011C46.2996 65.9011 46.6231 65.9017 46.9465 65.9028C50.7629 65.9151 52.9127 65.0421 55.9823 62.8336C56.4628 62.49 56.9496 62.156 57.4375 61.8231C58.3764 61.1802 59.3108 60.5309 60.2446 59.8805C61.1695 59.2363 62.0952 58.5931 63.0248 57.9557C63.9826 57.2982 64.939 56.6388 65.8942 55.9774C66.0346 55.8807 66.175 55.7839 66.3197 55.6842C67.6863 54.8518 67.6863 54.8518 68.5854 53.6071C68.6885 52.9476 68.6441 52.4459 68.3537 51.8427C67.859 51.296 67.4319 51.0951 66.714 50.9516C65.065 51.2175 63.419 52.7191 62.0593 53.6453C61.3855 54.104 60.71 54.5603 60.0346 55.0167C59.8249 55.1584 59.8249 55.1584 59.611 55.303C58.1837 56.2669 56.7519 57.224 55.3157 58.1748C55.0458 58.3537 54.7761 58.5329 54.5067 58.7125C52.1292 60.2965 50.2545 61.494 47.3227 61.488C47.0447 61.4891 47.0447 61.4891 46.761 61.4902C46.2556 61.4921 45.7501 61.4922 45.2446 61.4919C44.8219 61.4917 44.3992 61.4924 43.9764 61.4931C42.9793 61.4947 41.9822 61.4948 40.9851 61.4939C39.9573 61.493 38.9296 61.4948 37.9018 61.4978C37.0179 61.5003 36.1339 61.5012 35.25 61.5007C34.7227 61.5005 34.1954 61.5008 33.668 61.5028C33.0807 61.5049 32.4933 61.5036 31.9059 61.502C31.7316 61.5031 31.5573 61.5041 31.3778 61.5053C31.2177 61.5043 31.0576 61.5033 30.8927 61.5022C30.7539 61.5023 30.6151 61.5023 30.4722 61.5023C29.8667 61.4178 29.4921 61.1707 29.1213 60.6914C28.9222 60.2495 28.8915 59.9361 28.8952 59.4528C28.8935 59.2366 28.8935 59.2366 28.8918 59.0161C28.9745 58.407 29.1808 58.0496 29.6498 57.6535C30.3156 57.3553 30.951 57.3964 31.6726 57.3996C31.8324 57.3986 31.9922 57.3976 32.1569 57.3966C32.6852 57.3937 33.2134 57.3938 33.7417 57.3938C34.1091 57.3921 34.4765 57.3902 34.8439 57.3881C35.9106 57.3824 36.9772 57.3796 38.0439 57.3772C39.4928 57.3738 40.9417 57.3681 42.3906 57.3605C42.931 57.3581 43.4714 57.3576 44.0119 57.3572C44.344 57.3558 44.676 57.3543 45.0081 57.3528C45.1581 57.3532 45.308 57.3535 45.4625 57.3539C46.8489 57.3459 46.8489 57.3459 48.0274 56.6814C48.5889 56.0237 48.6879 55.6616 48.6695 54.8201C48.603 54.2926 48.4069 53.998 48.0541 53.6071C47.245 53.0054 46.4294 53.0174 45.4535 53.0301C45.2121 53.0319 44.9707 53.0337 44.7293 53.0354C44.6019 53.0366 44.4744 53.0377 44.3432 53.0389C43.5211 53.0449 42.6991 53.0432 41.877 53.0432C41.1569 53.0436 40.4369 53.0465 39.7168 53.0548C39.0179 53.0628 38.3193 53.0636 37.6204 53.0599C37.3558 53.0597 37.0912 53.062 36.8267 53.067C34.8911 53.1015 33.8254 52.7453 32.3705 51.4684C32.1812 51.3328 31.9896 51.2002 31.7941 51.0735C31.6461 50.9774 31.4982 50.8813 31.3457 50.7823C27.4123 48.2758 22.9352 48.2086 18.8782 50.4261Z" fill="#3B5BA6"/>
<path d="M36.4817 -0.0623382C36.6191 -0.0613618 36.7566 -0.0603854 36.8982 -0.0593794C37.9417 -0.0358876 38.8313 0.112414 39.7788 0.570352C39.89 0.620344 40.0012 0.670335 40.1158 0.721841C42.1828 1.74999 43.445 3.57877 44.1988 5.70316C44.3661 6.28508 44.3572 6.8487 44.3503 7.44975C44.3496 7.55598 44.349 7.66221 44.3483 7.77166C44.3466 8.03269 44.3441 8.29371 44.3413 8.55473C44.514 8.55174 44.6866 8.54875 44.8644 8.54568C45.5069 8.53533 46.1494 8.5288 46.7919 8.5234C47.0696 8.52054 47.3473 8.51665 47.625 8.5117C48.0249 8.50476 48.4248 8.50154 48.8248 8.49903C48.9482 8.49609 49.0717 8.49315 49.1989 8.49011C49.9773 8.48983 50.4363 8.58951 51.0425 9.12504C51.5531 9.78045 51.5898 10.464 51.6751 11.264C51.7009 11.4867 51.7009 11.4867 51.7271 11.7139C51.786 12.229 51.8421 12.7444 51.898 13.2598C51.9192 13.4515 51.9404 13.6433 51.9618 13.835C52.1356 15.3996 52.3033 16.9648 52.47 18.5302C52.4966 18.7798 52.5232 19.0294 52.5498 19.2789C52.6747 20.4501 52.7993 21.6213 52.9234 22.7926C53.0656 24.1332 53.2088 25.4737 53.3529 26.814C53.4652 27.8594 53.5765 28.9048 53.6871 29.9503C53.7528 30.571 53.8189 31.1915 53.886 31.812C53.949 32.3949 54.0108 32.9778 54.0717 33.5609C54.0941 33.7726 54.1168 33.9842 54.14 34.1958C54.2612 35.302 54.3475 36.4061 54.3709 37.5188C54.3749 37.6183 54.3789 37.7178 54.383 37.8202C54.3883 38.543 54.2165 38.9468 53.7515 39.4942C53.1253 40.0297 52.4875 39.9825 51.7029 39.9772C51.5678 39.978 51.4327 39.9787 51.2935 39.9795C50.8406 39.9816 50.3877 39.9805 49.9348 39.9795C49.6102 39.9803 49.2856 39.9813 48.961 39.9825C48.079 39.985 47.197 39.9849 46.3151 39.9841C45.5791 39.9836 44.8432 39.9845 44.1072 39.9853C42.272 39.9875 40.4367 39.987 38.6015 39.9852C37.008 39.9838 35.4145 39.9857 33.821 39.9891C32.1844 39.9925 30.5477 39.9939 28.9111 39.993C27.9924 39.9925 27.0738 39.9928 26.1551 39.9953C25.2913 39.9975 24.4276 39.9969 23.5638 39.9942C23.2466 39.9937 22.9295 39.9942 22.6123 39.9957C22.1796 39.9975 21.747 39.9959 21.3143 39.9934C21.1886 39.9947 21.0629 39.9961 20.9333 39.9975C20.163 39.9883 19.7055 39.8796 19.105 39.3516C18.639 38.7816 18.6163 38.2559 18.6353 37.5457C18.6368 37.4395 18.6384 37.3333 18.64 37.2238C18.6669 36.0096 18.7906 34.8063 18.9214 33.5997C18.9478 33.3481 18.974 33.0965 19.0001 32.8449C19.0706 32.1697 19.1426 31.4947 19.2149 30.8197C19.2908 30.1101 19.3653 29.4003 19.44 28.6906C19.5655 27.501 19.6919 26.3115 19.819 25.122C19.9658 23.7484 20.111 22.3747 20.2554 21.0009C20.3948 19.6749 20.5352 18.349 20.6761 17.0231C20.7358 16.4605 20.7953 15.8978 20.8544 15.3351C20.9241 14.6734 20.9946 14.0117 21.0658 13.3501C21.0917 13.1077 21.1174 12.8653 21.1427 12.6229C21.1773 12.2915 21.2131 11.9602 21.2491 11.6288C21.2688 11.4436 21.2886 11.2585 21.3089 11.0677C21.4552 10.0905 21.6204 9.49203 22.3843 8.83988C22.8217 8.54829 22.9055 8.51933 23.3972 8.52235C23.5142 8.52238 23.6312 8.5224 23.7518 8.52242C23.9403 8.52463 23.9403 8.52463 24.1326 8.52688C24.3263 8.52748 24.3263 8.52748 24.5239 8.5281C24.9365 8.5297 25.3491 8.53328 25.7616 8.5369C26.0413 8.53833 26.321 8.53964 26.6007 8.5408C27.2864 8.54395 27.9721 8.54887 28.6578 8.55473C28.6552 8.40039 28.6526 8.24605 28.6499 8.08703C28.6478 7.88129 28.6458 7.67554 28.6438 7.4698C28.642 7.36846 28.6401 7.26712 28.6382 7.16271C28.6248 5.29216 29.5528 3.5317 30.8053 2.17436C32.3876 0.689296 34.3202 -0.08605 36.4817 -0.0623382ZM33.8084 5.55168C33.0424 6.65565 33.0615 7.03763 32.9351 8.55473C35.2876 8.55473 37.6402 8.55473 40.064 8.55473C39.9062 6.60561 39.9062 6.60561 38.7897 5.15067C37.1644 4.02288 35.1763 4.02241 33.8084 5.55168ZM25.6636 12.8321C25.3335 15.3926 25.0451 17.9554 24.7772 20.523C24.7208 21.0627 24.6636 21.6024 24.6061 22.142C24.5612 22.5643 24.5169 22.9867 24.4729 23.4091C24.452 23.6083 24.4309 23.8074 24.4096 24.0065C24.38 24.2837 24.3513 24.5611 24.3227 24.8384C24.3062 24.9949 24.2898 25.1515 24.2728 25.3127C24.231 25.9037 24.2378 26.4974 24.2378 27.0899C32.3306 27.0899 40.4233 27.0899 48.7613 27.0899C48.7613 26.2225 48.7383 25.4028 48.6457 24.5467C48.6335 24.4281 48.6212 24.3095 48.6085 24.1872C48.5682 23.7995 48.5269 23.4118 48.4856 23.0242C48.4571 22.7528 48.4287 22.4814 48.4003 22.2101C48.3409 21.6434 48.281 21.0768 48.2209 20.5103C48.1438 19.7847 48.0676 19.059 47.9917 18.3332C47.9331 17.7737 47.8742 17.2143 47.8152 16.6548C47.787 16.3872 47.7588 16.1196 47.7308 15.8519C47.6915 15.4783 47.6519 15.1047 47.612 14.7311C47.6006 14.621 47.5891 14.511 47.5772 14.3975C47.5201 13.8661 47.4406 13.3575 47.3355 12.8321C46.3474 12.8321 45.3594 12.8321 44.3413 12.8321C44.3193 13.1982 44.3193 13.1982 44.2968 13.5717C44.239 14.1882 44.191 14.6333 43.771 15.1133C43.2346 15.4978 42.86 15.5996 42.2027 15.5945C42.0586 15.5956 41.9145 15.5967 41.766 15.5979C41.1634 15.5161 40.7826 15.2828 40.3848 14.8282C40.2066 14.4004 40.2066 14.4004 40.064 12.8321C37.7115 12.8321 35.3589 12.8321 32.9351 12.8321C32.888 13.3496 32.841 13.8672 32.7925 14.4004C32.537 15.0137 32.238 15.2447 31.6519 15.5411C31.2331 15.5979 31.2331 15.5979 30.7964 15.5945C30.6523 15.5956 30.5082 15.5967 30.3598 15.5979C29.7571 15.5161 29.3764 15.2828 28.9786 14.8282C28.7056 14.1731 28.7003 13.5389 28.6578 12.8321C27.6697 12.8321 26.6816 12.8321 25.6636 12.8321ZM23.6675 31.3672C23.5264 32.7787 23.3852 34.1903 23.2398 35.6446C31.9912 35.6446 40.7427 35.6446 49.7593 35.6446C49.6182 34.233 49.477 32.8215 49.3316 31.3672C40.8624 31.3672 32.3933 31.3672 23.6675 31.3672Z" fill="#3B5BA6"/>
</g>
<defs>
<clipPath id="clip0_1682_331">
<rect width="73" height="73" fill="white"/>
</clipPath>
</defs>
</svg>
