<svg width="73" height="73" viewBox="0 0 73 73" fill="none" xmlns="http://www.w3.org/2000/svg">
<g clip-path="url(#clip0_1682_353)">
<path d="M23.8976 -0.0383782C24.0091 -0.0390243 24.1207 -0.0396703 24.2356 -0.0403359C24.6106 -0.0421457 24.9856 -0.0419072 25.3606 -0.041672C25.629 -0.042525 25.8973 -0.0434952 26.1657 -0.0445743C26.8957 -0.0470978 27.6257 -0.0477619 28.3557 -0.0479436C28.9647 -0.0482141 29.5738 -0.0492628 30.1829 -0.0502739C31.6199 -0.0525975 33.0568 -0.053292 34.4938 -0.0530894C35.9766 -0.0529181 37.4594 -0.0559263 38.9423 -0.0604304C40.2148 -0.064158 41.4873 -0.0656888 42.7598 -0.0655064C43.52 -0.0654337 44.2803 -0.0662487 45.0405 -0.0692643C45.7557 -0.0720233 46.4708 -0.0720485 47.186 -0.0699724C47.4484 -0.069674 47.7109 -0.0703492 47.9733 -0.0720713C48.3317 -0.0742709 48.69 -0.0729498 49.0484 -0.0707507C49.204 -0.0729508 49.204 -0.0729508 49.3627 -0.0751953C50.0819 -0.065452 50.4918 0.114086 51.0431 0.570063C51.6975 1.63364 52.0676 2.87465 52.5012 4.04262C52.586 4.26946 52.6708 4.49628 52.7556 4.72308C52.9778 5.31725 53.1992 5.9117 53.4205 6.50621C53.6896 7.22891 53.9596 7.9513 54.2295 8.67372C54.4393 9.23561 54.6491 9.79755 54.8584 10.3596C54.897 10.463 54.9355 10.5664 54.9752 10.673C55.0467 10.8649 55.1182 11.0568 55.1896 11.2488C55.3293 11.6234 55.4711 11.9955 55.6259 12.3641C56.1033 13.6327 55.781 15.2157 55.2564 16.4096C54.3515 18.1054 53.0691 19.0643 51.3283 19.8181C49.801 20.2656 47.8768 20.1196 46.4472 19.4689C44.7847 18.5367 43.5358 17.1439 42.9835 15.2877C42.4831 12.9282 43.5116 10.8464 44.3702 8.69912C44.5623 8.21646 44.7499 7.7321 44.9379 7.24784C45.3049 6.30318 45.679 5.36175 46.0529 4.41967C43.6063 4.37262 41.1596 4.32557 38.6388 4.2771C38.6388 10.4407 38.6388 16.6044 38.6388 22.9548C40.9961 22.9499 43.3535 22.9449 45.7822 22.9398C47.2728 22.9376 48.7634 22.9355 50.2539 22.9339C51.0368 22.9331 51.8196 22.9322 52.6025 22.9313C52.7006 22.9312 52.7987 22.9311 52.8998 22.931C54.4839 22.9291 56.0679 22.9258 57.652 22.9218C59.2776 22.9178 60.9033 22.9155 62.5289 22.9146C63.442 22.914 64.3551 22.9127 65.2682 22.9096C66.1274 22.9067 66.9866 22.9058 67.8458 22.9065C68.1614 22.9063 68.4769 22.9055 68.7924 22.9038C69.223 22.9017 69.6534 22.9022 70.084 22.9034C70.2091 22.9021 70.3342 22.9009 70.4631 22.8996C71.1779 22.9049 71.6683 22.9856 72.2873 23.3826C72.8541 24.0106 73.0176 24.3559 73.024 25.1921C73.0257 25.3648 73.0273 25.5375 73.029 25.7154C73.0301 25.9078 73.0311 26.1003 73.0322 26.2927C73.0338 26.4946 73.0354 26.6964 73.0371 26.8983C73.0423 27.5624 73.0459 28.2266 73.0492 28.8908C73.0497 29.0038 73.0503 29.1168 73.0509 29.2332C73.0561 30.2993 73.0606 31.3654 73.0636 32.4315C73.0675 33.7947 73.0747 35.1577 73.0865 36.5208C73.0944 37.4795 73.0985 38.4381 73.0999 39.3968C73.1008 39.9692 73.1033 40.5415 73.11 41.1138C73.1163 41.6529 73.1178 42.1918 73.1157 42.7309C73.1157 42.9282 73.1174 43.1254 73.121 43.3227C73.1374 44.2689 73.1489 44.995 72.5206 45.7423C72.035 46.2242 71.6404 46.3558 70.963 46.3538C70.8403 46.3538 70.7176 46.3538 70.5912 46.3538C70.4593 46.3531 70.3274 46.3523 70.1915 46.3516C70.056 46.3514 69.9205 46.3512 69.7809 46.351C69.348 46.3502 68.9151 46.3484 68.4822 46.3466C68.1888 46.3458 67.8954 46.3452 67.602 46.3446C66.8825 46.343 66.163 46.3406 65.4435 46.3376C65.4232 46.471 65.4029 46.6044 65.382 46.7418C65.0892 48.3721 63.7629 49.7745 62.4761 50.7308C61.0897 51.6472 59.738 52.0656 58.089 52.0547C57.9149 52.0544 57.9149 52.0544 57.7373 52.0541C57.3683 52.0533 56.9994 52.0515 56.6304 52.0497C56.3795 52.049 56.1286 52.0483 55.8777 52.0477C55.2642 52.0462 54.6507 52.0437 54.0373 52.0408C54.0163 52.1516 53.9954 52.2624 53.9738 52.3765C53.6768 53.7928 52.6816 55.0568 51.5137 55.8748C51.1714 56.0807 50.8251 56.2725 50.4728 56.4607C50.3317 56.5548 50.1905 56.6489 50.0451 56.7458C50.079 56.8517 50.079 56.8517 50.1136 56.9597C50.4939 58.7899 50.1808 60.6394 49.1629 62.1995C48.1029 63.6045 46.7283 64.6494 44.9719 64.9758C43.8626 65.1031 42.8426 65.0585 41.7755 64.7302C41.7491 64.842 41.7226 64.9537 41.6953 65.0688C41.0522 66.6906 39.8383 67.8597 38.2701 68.5798C37.3702 68.9526 36.595 69.033 35.6269 69.0432C35.5297 69.0446 35.4325 69.0459 35.3324 69.0473C34.7186 69.0433 34.2192 68.9464 33.6486 68.7224C33.6337 68.8244 33.6188 68.9264 33.6035 69.0315C33.2725 70.4026 32.2165 71.3899 31.0822 72.1443C29.4778 73.111 27.5748 73.2734 25.7544 72.9017C24.8759 72.6031 24.1247 72.1248 23.383 71.574C23.2769 71.5006 23.1709 71.4273 23.0616 71.3518C22.9795 71.2839 22.8973 71.2161 22.8127 71.1462C22.8127 71.0521 22.8127 70.958 22.8127 70.8611C22.7186 70.8611 22.6245 70.8611 22.5275 70.8611C22.5275 70.767 22.5275 70.6729 22.5275 70.5759C22.4334 70.5759 22.3393 70.5759 22.2423 70.5759C22.0675 70.3927 22.0675 70.3927 21.8681 70.1393C21.4572 69.6421 21.007 69.2313 20.5175 68.8132C20.1681 68.5126 19.8444 68.2072 19.5334 67.8669C19.5334 67.7728 19.5334 67.6787 19.5334 67.5818C19.3922 67.5347 19.2511 67.4877 19.1056 67.4392C19.1056 67.3451 19.1056 67.251 19.1056 67.1541C18.9645 67.107 18.8233 67.06 18.6779 67.0115C18.4373 66.8065 18.4373 66.8065 18.2502 66.5837C18.2502 66.4896 18.2502 66.3955 18.2502 66.2986C18.1561 66.2986 18.0619 66.2986 17.965 66.2986C17.965 66.2045 17.965 66.1104 17.965 66.0134C17.8238 65.9664 17.6827 65.9193 17.5373 65.8708C17.2929 65.6401 17.0567 65.4008 16.8244 65.158C16.736 65.0725 16.6476 64.987 16.5565 64.899C16.4655 64.8109 16.3745 64.7229 16.2808 64.6322C16.1515 64.5079 16.1515 64.5079 16.0196 64.381C15.8263 64.1599 15.8263 64.1599 15.8263 63.8748C15.7322 63.8748 15.6381 63.8748 15.5412 63.8748C15.5412 63.7807 15.5412 63.6866 15.5412 63.5896C15.4 63.5425 15.2589 63.4955 15.1134 63.447C15.1134 63.3529 15.1134 63.2588 15.1134 63.1619C14.9723 63.1148 14.8311 63.0678 14.6857 63.0193C14.6857 62.9252 14.6857 62.8311 14.6857 62.7341C14.4975 62.64 14.3093 62.5459 14.1154 62.449C14.1154 62.3549 14.1154 62.2608 14.1154 62.1638C13.9742 62.1168 13.8331 62.0697 13.6877 62.0212C12.7893 61.2471 12.4212 60.3332 12.0697 59.2282C12.0163 59.0682 11.963 58.9082 11.908 58.7434C11.7352 58.2239 11.5664 57.7033 11.3975 57.1825C11.2789 56.8235 11.16 56.4646 11.0408 56.1057C10.8604 55.5621 10.6802 55.0185 10.5015 54.4743C10.1303 53.3448 9.75223 52.2181 9.3652 51.094C9.31831 50.9577 9.27142 50.8215 9.22311 50.6811C9.04689 50.1697 8.87036 49.6583 8.69362 49.147C8.57528 48.8042 8.45751 48.4612 8.33986 48.1182C8.30553 48.0194 8.27121 47.9205 8.23585 47.8187C8.0681 47.3285 7.92854 46.8488 7.84195 46.3376C7.76315 46.3386 7.68435 46.3395 7.60317 46.3405C6.78208 46.35 5.96102 46.3564 5.13989 46.3611C4.83356 46.3633 4.52724 46.3662 4.22093 46.3699C3.78029 46.3751 3.33972 46.3775 2.89905 46.3794C2.76239 46.3816 2.62573 46.3838 2.48492 46.3861C1.51833 46.3863 1.07961 46.2273 0.342912 45.5895C-0.236105 44.8771 -0.0978239 43.9435 -0.0898307 43.0731C-0.0905639 42.8707 -0.0916023 42.6683 -0.0929222 42.4659C-0.0955577 41.9176 -0.0937208 41.3695 -0.0909141 40.8212C-0.0885741 40.2468 -0.0898339 39.6723 -0.0905595 39.0979C-0.0912037 38.1332 -0.088944 37.1687 -0.0849574 36.2041C-0.0803877 35.0898 -0.0803898 33.9756 -0.0828493 32.8613C-0.0851133 31.7882 -0.0841504 30.7151 -0.081718 29.642C-0.0807396 29.1859 -0.0808838 28.7298 -0.0819377 28.2736C-0.0830323 27.7362 -0.0812956 27.1989 -0.0773973 26.6614C-0.0764177 26.4645 -0.0763996 26.2676 -0.0774278 26.0707C-0.0859381 24.2283 -0.0859381 24.2283 0.570463 23.5251C1.27797 22.9034 1.96202 22.9347 2.8649 22.9377C3.06631 22.9375 3.06631 22.9375 3.2718 22.9373C3.72365 22.9371 4.1755 22.9379 4.62736 22.9386C4.9505 22.9387 5.27365 22.9387 5.59679 22.9386C6.47577 22.9385 7.35475 22.9394 8.23374 22.9404C9.15169 22.9413 10.0696 22.9413 10.9876 22.9415C12.5289 22.9419 14.0702 22.9428 15.6114 22.9441C17.1991 22.9454 18.7867 22.9464 20.3743 22.947C20.4731 22.947 20.572 22.9471 20.6738 22.9471C21.5336 22.9474 22.3933 22.9478 23.253 22.9481C26.9558 22.9494 30.6587 22.9522 34.3615 22.9548C34.3615 16.7912 34.3615 10.6275 34.3615 4.2771C31.9148 4.32415 29.4682 4.3712 26.9474 4.41967C27.1739 4.99016 27.4003 5.56065 27.6336 6.14843C27.8142 6.60979 27.9939 7.07143 28.1732 7.53329C28.3615 8.01767 28.551 8.50145 28.744 8.98398C30.5741 13.5668 30.5741 13.5668 29.7901 15.9596C28.9411 17.892 27.5675 18.994 25.6642 19.8181C24.137 20.2656 22.2127 20.1196 20.7831 19.4689C19.1035 18.5271 17.9085 17.1498 17.3163 15.2954C16.9637 13.5112 17.3839 12.0168 18.038 10.3796C18.1197 10.1668 18.2011 9.95394 18.2822 9.74095C18.4944 9.18601 18.7112 8.63292 18.929 8.08013C19.1483 7.52111 19.3634 6.96044 19.5787 6.39989C19.9317 5.48285 20.2869 4.56672 20.6466 3.65228C20.8211 3.20793 20.993 2.76283 21.1592 2.3153C21.2213 2.14926 21.2833 1.98323 21.3472 1.81216C21.4011 1.66573 21.455 1.5193 21.5105 1.36843C21.9775 0.296938 22.7773 -0.0431041 23.8976 -0.0383782ZM23.5255 8.69702C23.256 9.36798 22.9895 10.0401 22.7258 10.7133C22.6358 10.942 22.5449 11.1703 22.4532 11.3982C22.3211 11.7269 22.1921 12.0567 22.0636 12.3868C22.0223 12.4877 21.981 12.5886 21.9385 12.6925C21.6832 13.3594 21.6303 13.8306 21.8146 14.5427C22.2168 15.019 22.6383 15.4939 23.2788 15.5887C24.1004 15.6013 24.6001 15.5447 25.2365 14.9705C25.5943 14.5434 25.6729 14.3622 25.6267 13.8031C25.516 13.2303 25.3434 12.7057 25.1334 12.164C25.0957 12.0641 25.0579 11.9643 25.019 11.8614C24.8994 11.5459 24.7783 11.2309 24.6573 10.9159C24.5754 10.7007 24.4936 10.4854 24.4119 10.2701C24.2126 9.74533 24.012 9.22105 23.8107 8.69702C23.7166 8.69702 23.6225 8.69702 23.5255 8.69702ZM49.1896 8.69702C48.9201 9.36798 48.6536 10.0401 48.3899 10.7133C48.2998 10.942 48.209 11.1703 48.1172 11.3982C47.9852 11.7269 47.8561 12.0567 47.7276 12.3868C47.6863 12.4877 47.6451 12.5886 47.6025 12.6925C47.3473 13.3594 47.2943 13.8306 47.4787 14.5427C47.8808 15.019 48.3024 15.4939 48.9429 15.5887C49.7645 15.6013 50.2642 15.5447 50.9005 14.9705C51.2584 14.5434 51.3369 14.3622 51.2907 13.8031C51.1801 13.2303 51.0075 12.7057 50.7975 12.164C50.7597 12.0641 50.722 11.9643 50.683 11.8614C50.5634 11.5459 50.4424 11.2309 50.3213 10.9159C50.2395 10.7007 50.1577 10.4854 50.076 10.2701C49.8767 9.74533 49.6761 9.22105 49.4748 8.69702C49.3807 8.69702 49.2866 8.69702 49.1896 8.69702ZM4.27749 27.3748C4.27749 32.1739 4.27749 36.9731 4.27749 41.9177C6.88881 41.9883 6.88881 41.9883 9.55289 42.0603C10.8361 42.488 10.8361 42.488 11.1795 42.8833C11.4085 43.3477 11.5942 43.7995 11.7581 44.2907C11.7888 44.3815 11.8195 44.4724 11.8512 44.566C11.9521 44.8656 12.0513 45.1658 12.1505 45.466C12.2222 45.6798 12.294 45.8936 12.3659 46.1074C12.5557 46.6726 12.7441 47.2382 12.9321 47.804C13.0805 48.2502 13.2297 48.6961 13.3791 49.142C13.4527 49.3617 13.5261 49.5815 13.5995 49.8013C13.7852 50.3575 13.973 50.9129 14.1645 51.4672C14.5 52.4438 14.8247 53.4132 15.0695 54.417C16.0292 58.3449 18.2852 60.6238 21.1839 63.3433C21.767 63.8942 22.3395 64.4559 22.9135 65.0162C23.7495 65.8288 24.5882 66.6385 25.4364 67.4384C25.5673 67.5631 25.5673 67.5631 25.7008 67.6903C26.4466 68.3889 26.9709 68.6629 28.0106 68.6444C28.6158 68.5366 28.9922 68.1938 29.3712 67.7244C29.693 67.1824 29.7862 66.6318 29.6564 66.0134C29.1698 65.1371 28.4427 64.5049 27.7174 63.8255C26.9882 63.1209 26.5754 62.5501 26.4662 61.5133C26.5464 60.7781 26.7608 60.3404 27.3039 59.838C27.9027 59.4338 28.3747 59.3965 29.0861 59.4548C29.9853 59.7741 30.6041 60.3278 31.2537 61.0065C31.3457 61.0999 31.4377 61.1934 31.5324 61.2897C31.8234 61.5857 32.1123 61.8835 32.401 62.1816C32.692 62.4805 32.9835 62.779 33.2757 63.0766C33.4568 63.2612 33.6371 63.4465 33.8166 63.6327C33.8985 63.7164 33.9804 63.8002 34.0648 63.8865C34.1717 63.997 34.1717 63.997 34.2808 64.1096C34.7868 64.5467 35.2455 64.6515 35.9165 64.6328C36.5779 64.5328 37.0586 64.2078 37.4804 63.6876C37.7576 63.0254 37.8565 62.5333 37.633 61.8403C37.338 61.1931 36.8645 60.7507 36.357 60.2641C36.2602 60.1687 36.1634 60.0734 36.0636 59.9752C35.756 59.6726 35.4465 59.372 35.1368 59.0717C34.8267 58.7695 34.5171 58.467 34.2084 58.1636C34.0167 57.9753 33.8242 57.7879 33.6309 57.6013C33.5438 57.5161 33.4567 57.4309 33.367 57.3431C33.2904 57.2688 33.2138 57.1946 33.1349 57.1181C32.6014 56.5031 32.5897 55.9208 32.6054 55.134C32.6868 54.441 33.0172 54.074 33.5238 53.627C34.1549 53.38 34.6927 53.3581 35.3595 53.4666C36.426 53.9795 37.24 54.869 38.0529 55.7055C38.2506 55.9057 38.4483 56.1058 38.6461 56.306C38.9892 56.6537 39.3308 57.0028 39.6725 57.3518C40.083 57.771 40.4937 58.1899 40.9061 58.6072C41.1618 58.8661 41.4165 59.126 41.6702 59.3869C41.7858 59.504 41.9015 59.6211 42.0207 59.7418C42.1217 59.845 42.2226 59.9481 42.3266 60.0544C42.7385 60.4006 43.1261 60.5807 43.6642 60.6172C44.494 60.5358 44.91 60.3544 45.4826 59.74C45.8148 59.1812 45.9035 58.5225 45.7677 57.8865C45.2686 57.0013 44.5369 56.3421 43.8156 55.6364C43.6799 55.5023 43.5443 55.3681 43.4088 55.2339C42.8362 54.6669 42.2618 54.1018 41.6869 53.5371C41.334 53.1903 40.9822 52.8425 40.631 52.4941C40.4332 52.2985 40.2342 52.1042 40.0351 51.9099C39.9143 51.79 39.7934 51.67 39.6689 51.5465C39.5626 51.442 39.4564 51.3376 39.3469 51.23C38.8061 50.5936 38.5621 50.005 38.5982 49.1825C38.6877 48.5692 38.9576 48.1671 39.3695 47.7189C39.9176 47.3972 40.4277 47.2806 41.0627 47.3357C41.9317 47.6307 42.4367 48.0675 43.0638 48.7258C43.1553 48.8191 43.2468 48.9125 43.341 49.0086C43.6315 49.3051 43.9201 49.6034 44.2083 49.9021C44.4971 50.2007 44.7864 50.4988 45.0771 50.7956C45.2573 50.9797 45.4366 51.1648 45.6146 51.3511C46.1766 51.9259 46.7111 52.3793 47.5277 52.5303C48.2914 52.5317 48.7378 52.4218 49.3322 51.8982C49.8129 51.3534 49.8141 50.8258 49.8307 50.1299C49.6376 49.1188 48.7116 48.3872 48.0124 47.6944C47.8941 47.5761 47.7758 47.4578 47.6539 47.3359C47.2642 46.9464 46.8736 46.5579 46.4829 46.1694C46.2119 45.899 45.941 45.6285 45.6702 45.358C45.031 44.7197 44.3911 44.0821 43.7509 43.4448C43.0217 42.7188 42.2934 41.9921 41.5651 41.2652C40.0678 39.7709 38.5695 38.2776 37.0705 36.7849C36.5933 37.0111 36.2821 37.2555 35.9106 37.634C35.7958 37.7502 35.681 37.8664 35.5628 37.9861C35.4396 38.1121 35.3165 38.238 35.1897 38.3677C34.9934 38.5662 34.7971 38.7646 34.6008 38.963C34.1185 39.4507 33.6378 39.94 33.1573 40.4295C32.8878 40.704 32.6176 40.9779 32.3469 41.2512C32.0929 41.5077 31.8399 41.765 31.5879 42.0234C29.9138 43.7111 28.2317 44.898 25.7979 44.9564C24.0196 44.9382 22.5724 44.3065 21.271 43.1207C20.0039 41.7088 19.4116 40.2634 19.3908 38.3533C19.6185 35.4583 21.4721 33.6764 23.4414 31.7273C23.5631 31.6062 23.6847 31.4852 23.8099 31.3604C24.193 30.9791 24.5766 30.5982 24.9602 30.2174C25.4702 29.7112 25.9798 29.2045 26.4891 28.6975C26.6067 28.5811 26.7243 28.4647 26.8454 28.3447C26.9526 28.238 27.0598 28.1313 27.1702 28.0213C27.3126 27.8801 27.3126 27.8801 27.4578 27.736C27.6765 27.5496 27.6765 27.5496 27.6603 27.3748C19.944 27.3748 12.2277 27.3748 4.27749 27.3748ZM24.63 36.4491C24.5645 36.5387 24.499 36.6282 24.4316 36.7205C23.9036 37.4813 23.6166 38.2115 23.7305 39.1553C24.0206 39.7819 24.3495 40.1512 24.9513 40.4919C25.5692 40.6839 26.0279 40.7214 26.6302 40.4682C27.143 40.1767 27.5258 39.8251 27.9327 39.4059C28.0121 39.3259 28.0915 39.2458 28.1733 39.1634C28.3446 38.9904 28.5154 38.817 28.6858 38.6432C28.9558 38.3677 29.2271 38.0936 29.4988 37.8198C30.0753 37.2384 30.6502 36.6553 31.2248 36.072C31.8909 35.3958 32.5576 34.7203 33.2262 34.0466C33.493 33.7771 33.7584 33.5064 34.0237 33.2356C34.188 33.0697 34.3524 32.9039 34.5169 32.7381C34.5898 32.663 34.6627 32.5879 34.7378 32.5105C35.3748 31.8733 36.0099 31.4486 36.9279 31.4471C37.7602 31.4781 38.1713 31.8003 38.7948 32.3366C40.8759 34.0765 43.1939 34.8466 45.8943 34.6758C48.1121 34.4584 49.9168 33.3901 51.5477 31.9428C52.131 31.4596 52.6661 31.4609 53.3946 31.4694C54.0679 31.5449 54.4416 31.8917 54.8749 32.3828C55.1124 32.9897 55.1533 33.5774 55.0353 34.2185C54.6767 34.9801 54.256 35.4729 53.5828 35.9829C53.4965 36.0492 53.4102 36.1154 53.3213 36.1837C50.9762 37.9284 48.4794 38.6433 45.6252 39.0662C46.3463 39.9403 47.1354 40.7305 47.9426 41.5251C48.0836 41.6647 48.2245 41.8044 48.3654 41.9441C48.9589 42.5329 49.553 43.1211 50.1486 43.7078C50.5148 44.0685 50.8799 44.4304 51.2443 44.7929C51.4486 44.9955 51.6541 45.1969 51.8596 45.3984C52.413 45.9496 52.902 46.4428 53.2719 47.1345C53.4199 47.4092 53.4199 47.4092 53.6095 47.6208C54.0534 47.7389 54.3095 47.7728 54.7518 47.7573C54.9161 47.7574 54.9161 47.7574 55.0838 47.7575C55.3152 47.7564 55.5466 47.7526 55.778 47.7461C56.1281 47.7368 56.4771 47.7373 56.8273 47.7392C58.0524 47.7321 59.1568 47.6888 60.1681 46.908C61.0611 45.9559 61.3322 45.0378 61.4998 43.7623C61.6383 43.1462 61.8549 42.7503 62.3692 42.3811C64.2397 41.4686 67.1348 41.9595 68.7228 41.9177C68.7228 37.1185 68.7228 32.3194 68.7228 27.3748C62.8128 27.0785 62.8128 27.0785 56.9014 26.8805C56.093 26.8607 55.2846 26.8402 54.4763 26.8187C54.3751 26.816 54.2738 26.8133 54.1695 26.8106C52.7579 26.7725 51.3491 26.7104 49.9393 26.6283C47.508 26.4869 45.0795 26.3922 42.6438 26.3862C42.5492 26.3859 42.4546 26.3855 42.3571 26.3852C34.0412 26.3704 29.3857 29.834 24.63 36.4491Z" fill="#3B5BA6"/>
</g>
<defs>
<clipPath id="clip0_1682_353">
<rect width="73" height="73" fill="white"/>
</clipPath>
</defs>
</svg>
