<svg width="131" height="126" viewBox="0 0 131 126" fill="none" xmlns="http://www.w3.org/2000/svg">
<g clip-path="url(#clip0_1322_377)">
<path d="M99.79 36.0225C99.9931 36.3898 100.083 36.699 100.061 37.1184C99.9802 37.3976 99.8917 37.5503 99.7289 37.7866C99.649 37.9033 99.649 37.9033 99.5674 38.0223C99.5087 38.1072 99.4499 38.1922 99.3893 38.2797C99.3277 38.3694 99.266 38.4592 99.2025 38.5516C98.9982 38.8488 98.7934 39.1456 98.5885 39.4425C98.4469 39.6482 98.3054 39.8539 98.1639 40.0597C97.8291 40.5463 97.494 41.0327 97.1587 41.519C96.777 42.0726 96.3957 42.6265 96.0145 43.1805C95.2303 44.32 94.4455 45.4591 93.6604 46.598C93.7933 46.7134 93.7933 46.7134 93.9289 46.8311C95.1596 47.8996 95.6748 49.6693 95.8349 51.2346C95.9259 52.9984 95.4707 54.591 94.472 56.0424C94.4177 56.1214 94.3635 56.2005 94.3076 56.2819C93.9259 56.8292 93.5332 57.3234 93.0353 57.771C93.0603 57.8407 93.0853 57.9104 93.1111 57.9821C93.2855 58.5038 93.4005 58.9258 93.3559 59.4772C93.3343 60.1618 93.6793 60.5861 94.0464 61.1313C94.3051 61.5172 94.4609 61.8883 94.5573 62.3431C94.5778 62.4388 94.5982 62.5346 94.6193 62.6332C94.7677 63.4913 94.6521 64.2075 94.3941 65.0321C94.3495 65.3551 94.4345 65.5367 94.5603 65.8358C94.9864 66.9754 94.9497 68.1037 94.4865 69.2332C93.7611 70.496 92.9955 71.4372 91.5703 71.8864C91.3319 71.9568 91.3319 71.9568 91.1943 72.2034C91.1929 72.3753 91.1992 72.5473 91.2098 72.7189C91.2273 74.0807 90.6128 75.089 89.7612 76.1099C88.9073 76.9699 87.7689 77.3943 86.5699 77.4433C86.4795 77.4315 86.3891 77.4196 86.2959 77.4075C85.9362 77.4103 85.8001 77.5329 85.5189 77.752C84.4356 78.5365 83.196 78.847 81.8722 78.6515C81.6968 78.5973 81.5221 78.5412 81.348 78.4832C80.7868 78.3227 80.4394 78.4759 79.9129 78.6906C78.92 79.0521 77.819 78.8981 76.8555 78.503C75.5927 77.7775 74.6515 77.0119 74.2023 75.5868C74.1319 75.3484 74.1319 75.3484 73.8853 75.2107C73.7134 75.2094 73.5414 75.2157 73.3698 75.2262C72.008 75.2438 70.9997 74.6293 69.9788 73.7776C69.1188 72.9238 68.6944 71.7853 68.6454 70.5864C68.6584 70.4979 68.6713 70.4095 68.6847 70.3184C68.677 69.9409 68.5004 69.7298 68.2812 69.4403C67.9005 68.9029 67.6514 68.4136 67.5149 67.762C67.4865 67.6306 67.4865 67.6306 67.4575 67.4964C67.3158 66.6682 67.434 65.8695 67.6773 65.0685C67.7235 64.748 67.6368 64.5663 67.512 64.2693C67.0859 63.13 67.1223 62.0013 67.5857 60.8719C68.4321 59.4006 69.3347 58.6595 70.9021 58.0321C70.8982 57.8868 70.8936 57.7416 70.8888 57.5963C70.8863 57.5154 70.8838 57.4346 70.8812 57.3512C70.8473 56.8672 70.7506 56.5017 70.5135 56.0769C70.4607 55.9814 70.4079 55.886 70.3535 55.7876C70.2678 55.6352 70.2678 55.6352 70.1802 55.4796C70.1218 55.3745 70.0634 55.2694 70.0033 55.161C69.8486 54.8827 69.6931 54.6048 69.5374 54.327C69.3784 54.0431 69.2202 53.7586 69.062 53.4742C68.7519 52.917 68.4408 52.3604 68.1292 51.8041C68.1004 51.8465 68.0717 51.8888 68.042 51.9324C67.3412 52.9632 66.6391 53.9932 65.9356 55.0222C65.5954 55.5199 65.2556 56.0178 64.9169 56.5164C64.5899 56.9976 64.2619 57.478 63.933 57.9578C63.8078 58.1411 63.6829 58.3246 63.5584 58.5083C63.3841 58.7657 63.2083 59.022 63.0321 59.2781C62.981 59.3544 62.9298 59.4306 62.8771 59.5091C62.5955 59.915 62.3698 60.184 61.8978 60.3759C61.2855 60.4573 61.0478 60.3751 60.5399 60.0318C60.4838 59.9939 60.4276 59.9561 60.3698 59.9171C60.1836 59.7915 59.998 59.6652 59.8123 59.5388C59.7489 59.4957 59.6855 59.4525 59.6201 59.4081C59.2843 59.1797 58.9489 58.9509 58.6137 58.7216C58.2677 58.4851 57.9205 58.2505 57.5731 58.0162C57.3059 57.8356 57.0396 57.6536 56.7736 57.4712C56.6461 57.3841 56.5182 57.2975 56.3899 57.2115C56.2101 57.0907 56.0318 56.9681 55.8537 56.8449C55.7519 56.7756 55.6501 56.7064 55.5453 56.635C55.1971 56.3181 55.0701 55.9886 55.0147 55.5253C55.0336 55.1639 55.1532 54.9412 55.3535 54.6502C55.4321 54.5355 55.4321 54.5356 55.5123 54.4185C55.599 54.2933 55.599 54.2933 55.6874 54.1655C55.748 54.0773 55.8086 53.9891 55.871 53.8982C56.0719 53.606 56.2733 53.3142 56.4747 53.0223C56.6139 52.8201 56.7531 52.6178 56.8922 52.4155C57.2213 51.9371 57.5508 51.4589 57.8805 50.9808C58.2557 50.4366 58.6306 49.892 59.0054 49.3474C59.7764 48.2271 60.5479 47.1072 61.3198 45.9875C61.2037 45.8835 61.2037 45.8835 61.0852 45.7774C60.7255 45.4381 60.6136 45.2123 60.5887 44.7178C60.6465 44.1216 61.0248 43.6561 61.3497 43.1714C61.4463 43.0234 61.4463 43.0234 61.5448 42.8725C61.7032 42.6304 61.8629 42.3892 62.0239 42.1488C61.9886 42.0859 61.9533 42.023 61.9169 41.9582C61.5834 41.3638 61.2508 40.7688 60.9192 40.1733C60.7487 39.8673 60.5778 39.5614 60.4062 39.2559C60.2405 38.9608 60.0756 38.6653 59.9113 38.3693C59.8487 38.2568 59.7857 38.1445 59.7224 38.0323C59.6334 37.8746 59.5457 37.7161 59.4581 37.5576C59.3828 37.4229 59.3828 37.4229 59.306 37.2855C59.1188 36.8673 59.0611 36.4783 59.0675 36.0223C59.1815 35.8226 59.2984 35.6376 59.4285 35.4489C59.4668 35.3919 59.5052 35.335 59.5447 35.2764C59.6718 35.0882 59.8001 34.9009 59.9286 34.7136C60.0176 34.583 60.1065 34.4524 60.1955 34.3219C60.3822 34.0481 60.5696 33.7748 60.7574 33.5017C60.9975 33.1523 61.2355 32.8014 61.473 32.4501C61.6561 32.1799 61.8407 31.9106 62.0257 31.6416C62.114 31.5127 62.2018 31.3834 62.2891 31.2538C62.4117 31.0722 62.5361 30.8922 62.6611 30.7123C62.7143 30.6321 62.7143 30.6321 62.7685 30.5502C63.0365 30.1709 63.2866 30.0243 63.7303 29.8988C63.9884 29.8836 63.9884 29.8836 64.2407 29.9071C64.3351 29.9156 64.4295 29.9241 64.5268 29.9328C65.0232 29.989 65.518 30.0511 66.0127 30.1209C66.1214 30.1359 66.2301 30.151 66.342 30.1665C66.5695 30.1981 66.7969 30.23 67.0243 30.262C67.3738 30.3111 67.7233 30.3594 68.0729 30.4075C68.2945 30.4384 68.5162 30.4694 68.7378 30.5005C68.8425 30.5149 68.9473 30.5293 69.0553 30.5442C69.1996 30.5647 69.1996 30.5647 69.3469 30.5856C69.4318 30.5975 69.5167 30.6094 69.6041 30.6216C69.8045 30.6603 69.8045 30.6603 69.9591 30.7665C69.9996 30.7049 70.0402 30.6433 70.0819 30.5798C70.2672 30.2998 70.4543 30.0211 70.6414 29.7424C70.7052 29.6455 70.769 29.5485 70.8347 29.4486C70.8976 29.3555 70.9605 29.2623 71.0253 29.1664C71.0825 29.0806 71.1396 28.9948 71.1985 28.9064C71.5 28.5553 71.8034 28.3963 72.2589 28.33C72.7362 28.334 72.9319 28.487 73.2834 28.7908C76.6146 31.6154 79.7817 33.1063 84.1243 33.689C84.2314 33.7034 84.3385 33.7178 84.4488 33.7326C85.7677 33.9074 87.0891 34.0539 88.4126 34.1896C89.8883 34.3415 91.3606 34.5218 92.8334 34.6999C93.0522 34.7264 93.271 34.7528 93.4898 34.7791C93.5966 34.792 93.7033 34.8049 93.8134 34.8182C94.4415 34.8935 95.07 34.9644 95.6992 35.031C96.0869 35.0722 96.4745 35.1152 96.8621 35.1582C97.0408 35.1776 97.2196 35.1962 97.3985 35.2138C99.2033 35.3917 99.2033 35.3917 99.79 36.0225ZM95.3274 37.8507C95.2596 37.8411 95.1917 37.8316 95.1219 37.8218C94.8929 37.7898 94.6639 37.758 94.4349 37.7262C94.2714 37.7034 94.108 37.6806 93.9446 37.6577C93.4993 37.5955 93.054 37.5335 92.6087 37.4716C92.1438 37.407 91.6789 37.3421 91.214 37.2773C90.433 37.1684 89.6521 37.0598 88.8711 36.9512C87.9669 36.8254 87.0627 36.6994 86.1586 36.5732C85.3837 36.4651 84.6089 36.3572 83.834 36.2493C83.3706 36.1848 82.9072 36.1203 82.4438 36.0556C82.0082 35.9948 81.5725 35.9342 81.1369 35.8738C80.9766 35.8515 80.8162 35.8292 80.6559 35.8067C80.438 35.7763 80.22 35.746 80.002 35.7159C79.8797 35.6989 79.7574 35.6818 79.6314 35.6643C79.3797 35.6202 79.3797 35.6202 79.2259 35.6555C79.0994 35.8234 78.9784 35.9954 78.8595 36.1688C78.8216 36.2237 78.7838 36.2786 78.7448 36.3352C78.6172 36.5207 78.4901 36.7065 78.363 36.8924C78.272 37.0248 78.181 37.1573 78.0899 37.2897C77.842 37.6505 77.5945 38.0116 77.3471 38.3727C77.0888 38.7497 76.8301 39.1263 76.5714 39.503C76.0813 40.2168 75.5915 40.9309 75.1019 41.6451C74.5446 42.4579 73.9868 43.2705 73.4291 44.083C72.2814 45.755 71.1343 47.4273 69.9875 49.0998C70.315 49.6962 70.643 50.2924 70.9714 50.8883C71.1239 51.165 71.2763 51.4417 71.4283 51.7187C71.6031 52.0368 71.7783 52.3547 71.9536 52.6725C72.0356 52.8222 72.0356 52.8222 72.1193 52.9749C72.1701 53.0667 72.2208 53.1585 72.2731 53.2531C72.3402 53.375 72.3402 53.375 72.4086 53.4993C72.5097 53.6921 72.5097 53.6921 72.678 53.7924C72.7247 53.7568 72.7714 53.7213 72.8195 53.6847C73.6948 53.0566 74.5844 52.7636 75.6569 52.768C76.2433 52.7287 76.5943 52.4722 77.069 52.153C78.1024 51.4949 79.2443 51.3542 80.4318 51.613C80.4933 51.636 80.5548 51.659 80.6181 51.6827C81.1671 51.8866 81.5835 51.7017 82.11 51.5129C83.1191 51.1613 84.1459 51.2545 85.1188 51.6846C85.4991 51.8702 85.8721 52.0525 86.2212 52.2924C89.4626 47.5753 92.704 42.8582 96.0436 37.9981C95.8627 37.8738 95.5331 37.8793 95.3274 37.8507ZM72.726 31.8715C69.8876 36.0022 67.0492 40.1329 64.1248 44.3887C65.3741 45.2472 66.6235 46.1057 67.9108 46.9903C70.7492 42.8596 73.5876 38.729 76.512 34.4732C75.2626 33.6146 74.0132 32.7561 72.726 31.8715ZM91.9614 49.0705C90.6298 51.0084 89.2982 52.9462 87.9263 54.9428C88.3294 54.957 88.7325 54.9713 89.1478 54.9859C89.6704 55.0801 90.0815 55.1782 90.5509 55.4169C90.7751 55.5094 90.8787 55.5485 91.112 55.4758C91.9478 54.923 92.5468 53.8513 92.7736 52.8981C92.9882 51.654 92.9053 50.5364 92.2946 49.4133C92.1847 49.3002 92.0747 49.1871 91.9614 49.0705ZM67.2545 33.2585C67.1859 33.249 67.1173 33.2394 67.0466 33.2296C66.9015 33.2095 66.7563 33.1896 66.6111 33.1699C66.3883 33.1397 66.1656 33.1087 65.9428 33.0777C65.802 33.0583 65.6612 33.0389 65.5204 33.0196C65.4535 33.0103 65.3865 33.001 65.3175 32.9915C65.0097 32.9399 65.0097 32.9399 64.7015 32.955C64.6177 33.0615 64.539 33.1721 64.4625 33.284C64.4136 33.3551 64.3647 33.4263 64.3143 33.4996C64.2616 33.5772 64.2088 33.6549 64.1545 33.7348C64.1005 33.8137 64.0464 33.8925 63.9908 33.9738C63.8176 34.2268 63.6449 34.4802 63.4722 34.7336C63.3551 34.9048 63.2381 35.0759 63.121 35.247C62.8333 35.6675 62.5461 36.0882 62.2592 36.5092C62.4887 36.9264 62.7184 37.3435 62.9483 37.7604C63.0266 37.9024 63.1048 38.0444 63.1829 38.1864C63.295 38.3901 63.4073 38.5937 63.5196 38.7972C63.5547 38.8612 63.5898 38.9251 63.626 38.991C63.7572 39.2741 63.7572 39.2741 63.9594 39.4976C65.3261 37.5088 66.6927 35.5199 68.1008 33.4708C67.8505 33.2988 67.5501 33.2983 67.2545 33.2585ZM82.9395 54.223C82.5593 54.3325 82.2604 54.536 81.9323 54.7524C81.5864 54.9551 81.2914 54.9498 80.9058 54.8961C80.7354 54.8063 80.5656 54.7155 80.396 54.6241C79.8636 54.3636 79.4406 54.2649 78.8584 54.3993C78.446 54.5476 78.2295 54.7429 77.947 55.074C77.6055 55.4486 77.384 55.6628 76.8888 55.7758C76.6334 55.7818 76.4041 55.754 76.1538 55.7054C75.6159 55.6095 75.1886 55.6458 74.6774 55.8488C74.2629 56.162 73.9242 56.5964 73.8016 57.1078C73.767 57.5897 73.824 57.966 74.0696 58.3886C74.222 58.5519 74.3772 58.7126 74.5342 58.8714C74.9241 59.2695 75.1371 59.5107 75.1902 60.0687C75.1281 60.5819 74.861 60.9534 74.4711 61.2807C74.0586 61.4882 73.7125 61.4943 73.2737 61.3679C73.1221 61.2962 72.972 61.2214 72.8234 61.1438C72.2169 60.865 71.7114 60.8644 71.0836 61.0787C70.6308 61.4416 70.3197 61.8875 70.1527 62.4439C70.1666 63.0592 70.3368 63.5312 70.6501 64.0582C70.8815 64.4656 70.9746 64.7076 70.8797 65.1829C70.7923 65.364 70.7017 65.5436 70.6088 65.7219C70.3412 66.244 70.2498 66.6542 70.3828 67.2302C70.5311 67.6427 70.7264 67.8592 71.0575 68.1417C71.4321 68.4832 71.6463 68.7047 71.7594 69.1999C71.7654 69.4553 71.7375 69.6846 71.6889 69.9348C71.5797 70.5475 71.6094 71.058 71.9487 71.5957C72.3136 72.0392 72.7132 72.2117 73.2762 72.2897C73.7713 72.3278 74.1318 72.1981 74.517 71.8955C74.9307 71.5171 75.0935 71.1493 75.1485 70.6028C75.1501 70.0886 74.9736 69.6784 74.6709 69.2668C74.5473 69.1443 74.421 69.0244 74.2924 68.9072C73.9857 68.6075 73.8074 68.3931 73.7532 67.9537C73.7823 67.4825 74.0388 67.1142 74.342 66.7658C74.6853 66.5238 74.9397 66.4141 75.3607 66.4421C76.1571 66.6713 76.7407 67.3445 77.3165 67.8998C77.8772 67.0838 78.4379 66.2679 79.0155 65.4273C78.4627 65.0235 78.4627 65.0235 77.9082 64.6222C77.4955 64.3161 77.1837 64.0699 76.9872 63.5785C76.9156 63.0485 77.0917 62.7162 77.3894 62.2948C77.6496 61.9843 77.9319 61.8452 78.3288 61.7916C78.7042 61.8166 78.9476 61.9494 79.2594 62.1463C79.333 62.1926 79.4066 62.2388 79.4825 62.2865C79.6219 62.3749 79.6219 62.3749 79.7641 62.4652C80.0603 62.6522 80.3564 62.8393 80.6614 63.032C81.2221 62.2161 81.7828 61.4001 82.3605 60.5595C81.8489 60.3206 81.8489 60.3206 81.3271 60.0769C80.3807 59.4981 80.3807 59.4981 80.1728 58.9425C80.1013 58.4126 80.2773 58.0802 80.575 57.6588C80.8228 57.3632 81.0979 57.2147 81.477 57.1571C81.8076 57.174 82.0394 57.2862 82.3395 57.4241C83.0438 57.7255 83.4905 57.8011 84.2235 57.5172C84.619 57.3147 84.8747 57.0155 85.0683 56.6189C85.2105 56.1206 85.2285 55.6925 85.01 55.2138C84.472 54.415 83.932 54.0761 82.9395 54.223ZM88.4891 57.7965C87.9735 57.907 87.5399 58.1246 87.2125 58.5473C86.9588 58.9675 86.8811 59.4239 86.9513 59.9084C87.0914 60.4652 87.3634 60.8186 87.7798 61.198C88.0865 61.4977 88.2648 61.712 88.319 62.1514C88.2949 62.6459 87.9992 63.0564 87.6772 63.4166C87.346 63.6094 87.1325 63.6654 86.752 63.6767C85.9201 63.4323 85.37 62.7977 84.7557 62.2054C84.195 63.0213 83.6344 63.8373 83.0567 64.6779C83.6095 65.0816 83.6095 65.0816 84.1641 65.483C84.5768 65.789 84.8885 66.0352 85.0851 66.5267C85.1599 67.0812 84.9576 67.4327 84.6461 67.8736C84.4147 68.1416 84.2062 68.2268 83.8639 68.3038C83.2299 68.2973 82.7988 67.9753 82.287 67.6397C81.9978 67.4527 81.7087 67.2658 81.4108 67.0732C80.8501 67.8891 80.2894 68.705 79.7118 69.5457C80.2233 69.7846 80.2233 69.7846 80.7452 70.0283C81.6915 70.6071 81.6915 70.6071 81.8994 71.1627C81.971 71.6926 81.7949 72.025 81.4972 72.4464C81.2495 72.742 80.9743 72.8904 80.5952 72.9481C80.2647 72.9312 80.0329 72.819 79.7327 72.6811C79.0284 72.3796 78.5817 72.3041 77.8487 72.588C77.4669 72.7889 77.2694 73.0348 77.0571 73.409C76.9008 73.9735 76.8473 74.4483 77.0852 74.9924C77.4302 75.5022 77.7777 75.782 78.3739 75.9286C78.9968 75.9942 79.5249 75.7471 80.0499 75.4371C80.4543 75.205 80.6932 75.1145 81.1664 75.209C81.452 75.3401 81.731 75.4816 82.0109 75.6245C82.4538 75.8245 82.7898 75.7891 83.253 75.6902C83.765 75.4852 84.0665 75.1654 84.3897 74.733C84.6348 74.508 84.8657 74.4246 85.1834 74.3293C85.5164 74.3453 85.5164 74.3453 85.8585 74.4022C86.5057 74.4894 86.9942 74.4779 87.5783 74.1549C88.0033 73.6598 88.3091 73.2142 88.2807 72.5462C88.2014 71.9507 87.951 71.6515 87.5381 71.2338C86.9105 70.5878 86.9105 70.5878 86.882 70.0365C86.9969 69.5764 87.1829 69.2416 87.4995 68.8896C87.852 68.6836 88.1123 68.594 88.5137 68.6552C88.8357 68.7745 89.1478 68.9106 89.4623 69.0484C89.9659 69.2522 90.3398 69.2263 90.842 69.0536C91.3304 68.8215 91.587 68.4482 91.8258 67.9736C91.9811 67.4564 91.8849 67.0086 91.6903 66.5155C91.57 66.3099 91.4409 66.1123 91.31 65.9134C91.1297 65.5892 91.1428 65.2797 91.1926 64.9223C91.2824 64.7519 91.3732 64.582 91.4646 64.4125C91.7251 63.88 91.8238 63.4571 91.6894 62.8749C91.5048 62.3615 91.1841 62.1073 90.7771 61.7615C90.5196 61.4852 90.4154 61.2686 90.3129 60.9053C90.3288 60.5723 90.3288 60.5723 90.3857 60.2302C90.4708 59.5697 90.4881 59.0821 90.1234 58.5116C89.6878 57.9748 89.1594 57.8379 88.4891 57.7965ZM63.7151 47.6334C62.0156 50.1067 60.316 52.58 58.565 55.1283C59.4064 55.7065 60.2478 56.2847 61.1148 56.8804C62.8143 54.4071 64.5138 51.9338 66.2649 49.3856C65.4235 48.8074 64.582 48.2292 63.7151 47.6334Z" fill="white"/>
<path d="M105.045 46.9142C105.295 47.3514 105.367 47.7204 105.287 48.2178C105.044 48.7109 104.806 49.0728 104.272 49.2625C103.844 49.3852 103.409 49.4674 102.971 49.5489C102.874 49.5685 102.777 49.5882 102.677 49.6084C101.989 49.738 101.496 49.773 100.863 49.4299C100.507 49.1232 100.351 48.8426 100.252 48.3844C100.282 47.8429 100.428 47.425 100.824 47.0478C101.148 46.8122 101.364 46.7469 101.755 46.6775C101.875 46.6558 101.995 46.634 102.118 46.6116C102.211 46.5961 102.211 46.5961 102.306 46.5802C102.495 46.5484 102.684 46.5142 102.873 46.4796C103.802 46.3157 104.317 46.2653 105.045 46.9142Z" fill="white"/>
<path d="M99.7138 57.7804C99.8161 57.8472 99.8161 57.8472 99.9205 57.9154C100.379 58.2263 100.67 58.5212 100.951 59.0005C101.058 59.6704 100.889 59.9769 100.509 60.5179C100.266 60.8092 100.072 60.9115 99.7012 60.9853C99.0344 60.9891 98.5762 60.6079 98.0507 60.2421C97.9143 60.1518 97.9143 60.1518 97.7752 60.0597C97.277 59.7169 96.9621 59.4885 96.8182 58.8904C96.79 58.783 96.79 58.783 96.7611 58.6735C96.7223 58.2355 97.0059 57.9009 97.245 57.5606C97.4798 57.2844 97.6886 57.1926 98.0394 57.1133C98.7292 57.0959 99.1629 57.4066 99.7138 57.7804Z" fill="white"/>
</g>
<defs>
<clipPath id="clip0_1322_377">
<rect width="48" height="48" fill="white" transform="translate(72.1312 17.0149) rotate(34.4951)"/>
</clipPath>
</defs>
</svg>
