<svg width="73" height="73" viewBox="0 0 73 73" fill="none" xmlns="http://www.w3.org/2000/svg">
<g clip-path="url(#clip0_1682_362)">
<path d="M66.7806 1.17593C68.7514 2.49364 70.0991 4.36997 70.6603 6.67905C70.7541 7.16357 70.7595 7.64461 70.7566 8.13598C70.7571 8.24633 70.7576 8.35668 70.7581 8.47037C70.7594 8.8389 70.7587 9.2074 70.758 9.57593C70.7586 9.8433 70.7592 10.1107 70.76 10.3781C70.7617 11.1119 70.7617 11.8456 70.7614 12.5795C70.7613 13.3712 70.7629 14.1629 70.7642 14.9546C70.7666 16.5051 70.7674 18.0557 70.7676 19.6062C70.7677 20.8661 70.7683 22.126 70.7692 23.3859C70.7713 26.3759 70.773 29.3659 70.7729 32.3559C70.7729 32.4992 70.7729 32.4992 70.7729 32.6455C70.7729 33.1299 70.7728 33.6143 70.7728 34.0987C70.7728 34.1949 70.7728 34.2911 70.7728 34.3902C70.7728 34.5848 70.7728 34.7793 70.7727 34.9739C70.7726 38.0025 70.7747 41.0312 70.7786 44.0598C70.783 47.4628 70.7854 50.8658 70.7852 54.2688C70.7851 56.0706 70.7859 57.8724 70.7889 59.6742C70.7915 61.2076 70.7922 62.741 70.7902 64.2744C70.7893 65.0571 70.7893 65.8397 70.7917 66.6224C70.794 67.3384 70.7936 68.0544 70.7911 68.7705C70.7906 69.0299 70.7912 69.2893 70.7928 69.5487C70.7948 69.9007 70.7933 70.2526 70.7909 70.6046C70.793 70.7565 70.793 70.7565 70.7952 70.9115C70.785 71.6244 70.6075 72.0311 70.1496 72.573C69.6271 72.9797 69.2448 73.0543 68.5899 73.055C68.4191 73.0562 68.2484 73.0574 68.0724 73.0586C67.8854 73.0578 67.6983 73.0569 67.5056 73.056C67.3044 73.0566 67.1033 73.0574 66.9021 73.0584C66.3494 73.0604 65.7968 73.0598 65.2441 73.0588C64.648 73.0581 64.0519 73.0599 63.4558 73.0613C62.2881 73.0638 61.1203 73.0639 59.9526 73.0632C59.0036 73.0626 58.0546 73.0628 57.1056 73.0635C56.9706 73.0637 56.8356 73.0638 56.6965 73.0639C56.4223 73.0641 56.1481 73.0643 55.8739 73.0645C53.3015 73.0665 50.7291 73.0657 48.1567 73.0641C45.8025 73.0627 43.4484 73.0645 41.0943 73.0679C38.6779 73.0714 36.2614 73.0728 33.845 73.0718C32.488 73.0713 31.1311 73.0716 29.7741 73.0741C28.619 73.0762 27.4639 73.0763 26.3087 73.0738C25.7193 73.0726 25.1298 73.0723 24.5403 73.0745C24.0008 73.0765 23.4613 73.0758 22.9217 73.073C22.6339 73.0722 22.3461 73.0743 22.0583 73.0764C20.4668 73.0633 20.4668 73.0634 19.8195 72.4304C19.4409 71.9357 19.3385 71.5838 19.3404 70.966C19.3398 70.8175 19.3392 70.669 19.3386 70.5159C19.3401 70.3545 19.3417 70.1931 19.3432 70.0268C19.3431 69.77 19.3431 69.77 19.343 69.5081C19.3433 69.0401 19.3454 68.5721 19.3484 68.104C19.3511 67.6144 19.3514 67.1248 19.3519 66.6352C19.3532 65.7086 19.3567 64.7821 19.361 63.8555C19.3658 62.8004 19.3681 61.7453 19.3703 60.6902C19.3747 58.5202 19.3823 56.3504 19.3918 54.1805C19.2082 54.1259 19.2082 54.1259 19.0209 54.0702C18.5139 53.8872 18.0891 53.6555 17.6274 53.3784C17.4008 53.2434 17.4008 53.2434 17.1696 53.1055C16.9992 53.0024 16.9992 53.0024 16.8254 52.8972C16.7426 52.9804 16.7426 52.9804 16.6581 53.0653C15.3142 54.4155 13.9694 55.765 12.6238 57.1136C11.9731 57.7658 11.3227 58.4182 10.6728 59.0713C10.0458 59.7015 9.41798 60.331 8.78972 60.96C8.55009 61.2001 8.31071 61.4405 8.07159 61.6812C7.73675 62.0181 7.40103 62.3541 7.06508 62.6899C6.91694 62.8396 6.91694 62.8396 6.76581 62.9923C6.04232 63.7127 5.49643 64.2219 4.43 64.2233C3.6969 64.2035 3.2584 64.1107 2.71015 63.5906C2.33958 63.0679 2.2148 62.6888 2.20222 62.049C2.19615 61.9098 2.19009 61.7707 2.18384 61.6274C2.41655 60.5401 3.42342 59.6999 4.19044 58.9412C4.29209 58.8395 4.39373 58.7379 4.49845 58.6331C4.83103 58.3007 5.16462 57.9693 5.49822 57.638C5.73042 57.4063 5.96255 57.1746 6.19462 56.9428C6.80294 56.3356 7.41211 55.7292 8.02147 55.123C8.64419 54.5032 9.2661 53.8826 9.88807 53.262C11.1066 52.0466 12.3261 50.832 13.5461 49.618C13.4682 49.4826 13.3903 49.3473 13.31 49.2079C13.2066 49.0277 13.1032 48.8475 12.9997 48.6672C12.9485 48.5784 12.8973 48.4895 12.8446 48.398C10.9406 45.0766 10.1402 40.9229 11.0688 37.1513C11.1685 36.785 11.2841 36.433 11.4074 36.073C11.438 35.9827 11.4685 35.8924 11.5 35.7993C12.7516 32.1811 15.1774 29.2423 18.5363 27.3758C18.8203 27.2771 19.1053 27.1815 19.3918 27.0906C19.3905 26.9318 19.3893 26.7729 19.388 26.6092C19.3764 25.1114 19.3678 23.6135 19.3622 22.1157C19.3593 21.3456 19.3552 20.5756 19.3488 19.8056C19.3426 19.0623 19.3392 18.319 19.3377 17.5758C19.3366 17.2923 19.3346 17.0089 19.3315 16.7255C19.3273 16.3282 19.3268 15.931 19.327 15.5336C19.325 15.4167 19.3229 15.2998 19.3208 15.1794C19.3263 14.4246 19.4574 13.9977 19.9621 13.4031C20.4498 12.9442 20.8896 12.7215 21.5245 12.5191C21.6949 12.4639 21.8652 12.4088 22.0408 12.3519C22.2282 12.2929 22.4157 12.234 22.6031 12.175C22.8012 12.1115 22.9992 12.0479 23.1972 11.9841C23.623 11.8472 24.0492 11.7112 24.4756 11.576C25.1581 11.3596 25.84 11.1411 26.5217 10.9222C27.3537 10.6553 28.1858 10.3888 29.0181 10.123C30.4734 9.65816 31.9274 9.1895 33.3806 8.71809C33.5365 8.66752 33.5365 8.66752 33.6955 8.61593C34.2174 8.44662 34.7393 8.27723 35.2611 8.10782C36.2067 7.80091 37.1524 7.49468 38.0982 7.18842C38.4131 7.08645 38.728 6.98446 39.0428 6.88248C42.3022 5.82683 45.5618 4.77176 48.8217 3.7179C49.9475 3.35394 51.0731 2.98962 52.1987 2.62492C53.0269 2.35656 53.8553 2.08847 54.6837 1.82057C55.1717 1.66272 55.6597 1.50475 56.1476 1.34645C56.6823 1.17298 57.2171 1.00011 57.752 0.827281C57.9087 0.776346 58.0653 0.725412 58.2267 0.672935C61.1709 -0.276327 64.0187 -0.424162 66.7806 1.17593ZM58.7434 5.98905C58.0179 7.12971 57.9271 8.21796 58.0305 9.55351C58.3179 10.6786 59.0363 11.6045 60.0087 12.2268C60.7065 12.5912 61.44 12.7107 62.2119 12.8221C62.9882 12.9392 63.5007 13.1021 63.9887 13.7328C64.1878 14.1747 64.2185 14.4882 64.2148 14.9715C64.2159 15.1156 64.217 15.2597 64.2181 15.4081C64.1355 16.0173 63.9291 16.3748 63.4599 16.7708C62.795 17.0687 62.1618 17.0277 61.441 17.0244C61.1991 17.0258 61.1991 17.0258 60.9522 17.0273C60.4106 17.03 59.869 17.0296 59.3274 17.0292C58.9396 17.0303 58.5518 17.032 58.164 17.0336C57.3285 17.0369 56.4931 17.0386 55.6576 17.0392C54.4496 17.0401 53.2416 17.0434 52.0337 17.0472C50.0738 17.0534 48.114 17.0577 46.1541 17.0608C44.2503 17.0637 42.3466 17.0676 40.4428 17.0727C40.2667 17.0732 40.2667 17.0732 40.0872 17.0737C39.4984 17.0753 38.9097 17.0768 38.3209 17.0785C33.437 17.0917 28.5531 17.1016 23.6691 17.1101C23.6691 19.9802 23.6691 22.8503 23.6691 25.8074C25.0807 25.8074 26.4922 25.8074 27.9465 25.8074C28.8243 25.9623 29.5467 26.1008 30.3703 26.3777C30.5276 26.4277 30.685 26.4777 30.8471 26.5292C34.5321 27.8172 37.4751 30.4453 39.2134 33.9262C40.2314 36.0695 40.7175 38.2321 40.6983 40.6088C40.6973 40.7958 40.6964 40.9828 40.6954 41.1755C40.6719 42.5929 40.5167 43.8567 40.0656 45.198C39.9906 45.434 39.9906 45.434 39.9141 45.6748C38.6261 49.3601 35.9978 52.303 32.5165 54.0411C31.68 54.4393 30.8273 54.7624 29.9426 55.0359C29.7864 55.0844 29.6301 55.133 29.4692 55.183C27.5342 55.6678 25.7146 55.4637 23.6691 55.4637C23.6691 59.8394 23.6691 64.2151 23.6691 68.7234C37.7844 68.7234 51.8996 68.7234 66.4426 68.7234C66.4509 58.0643 66.4509 58.0643 66.4565 47.4052C66.4571 45.9685 66.4576 44.5319 66.4582 43.0952C66.4583 42.9151 66.4584 42.7351 66.4585 42.5496C66.4597 39.6422 66.462 36.7348 66.4646 33.8274C66.4672 30.8438 66.4688 27.8603 66.4694 24.8768C66.4698 23.0356 66.471 21.1945 66.4733 19.3533C66.4749 18.0909 66.4753 16.8286 66.4749 15.5662C66.4748 14.8378 66.475 14.1094 66.4766 13.3809C66.478 12.7137 66.478 12.0465 66.4771 11.3793C66.4769 11.1383 66.4773 10.8972 66.4782 10.6562C66.4916 7.90579 66.4916 7.9058 65.1844 5.55965C64.0985 4.54202 63.1293 4.33385 61.6523 4.37168C60.4605 4.49209 59.5331 5.10277 58.7434 5.98905ZM52.5275 7.18649C52.3933 7.23059 52.2591 7.27469 52.1208 7.32013C51.9741 7.36902 51.8274 7.41792 51.6763 7.4683C51.5221 7.5191 51.3679 7.56991 51.209 7.62225C50.8746 7.73248 50.5402 7.84299 50.206 7.95373C49.4073 8.2183 48.6081 8.48123 47.8088 8.74401C47.6258 8.80421 47.4427 8.86442 47.2597 8.92466C45.0359 9.65628 42.806 10.3686 40.5752 11.0784C38.9277 11.6031 37.2843 12.1383 35.6457 12.6902C35.6457 12.7373 35.6457 12.7843 35.6457 12.8328C41.9035 12.8328 48.1612 12.8328 54.6086 12.8328C54.4024 12.212 54.4024 12.212 54.1758 11.5986C53.6325 10.0945 53.6353 8.57135 53.6105 6.9871C53.1851 6.9871 52.9275 7.05398 52.5275 7.18649ZM18.1086 33.2215C15.9964 35.4181 15.1634 38.1202 15.2002 41.1156C15.2695 43.4919 16.1341 45.6591 17.6809 47.4793C17.7867 47.6204 17.8926 47.7616 18.0017 47.907C19.115 49.1983 20.5743 49.9298 22.1008 50.616C22.2134 50.6676 22.3261 50.7193 22.4422 50.7725C24.9362 51.7514 27.8396 51.365 30.2277 50.3308C33.023 49.0671 34.833 46.8569 35.9309 44.0574C36.008 43.8617 36.008 43.8617 36.0868 43.662C36.9121 41.0561 36.4476 38.1162 35.2353 35.7395C34.8624 35.0363 34.451 34.3993 33.9348 33.7918C33.8289 33.6506 33.723 33.5095 33.614 33.364C31.8653 31.3294 29.2129 30.2466 26.6009 29.96C23.3619 29.7969 20.4465 30.9946 18.1086 33.2215Z" fill="#3B5BA6"/>
<path d="M60.882 47.0513C61.541 47.3635 61.8389 47.6931 62.1652 48.3345C62.237 48.7383 62.237 48.7383 62.2454 49.1632C62.2545 49.3719 62.2545 49.3719 62.2637 49.5848C61.9656 50.9779 60.4172 52.1201 59.4423 53.0914C59.2597 53.2741 59.0773 53.4568 58.8948 53.6396C58.5141 54.0208 58.1328 54.4014 57.7512 54.7817C57.2628 55.2685 56.7757 55.7565 56.289 56.2449C55.9132 56.6218 55.5366 56.998 55.1599 57.374C54.98 57.5537 54.8003 57.7336 54.6209 57.9137C54.3701 58.1652 54.1185 58.4157 53.8666 58.666C53.7932 58.74 53.7198 58.814 53.6442 58.8902C52.977 59.5497 52.4512 59.9448 51.4985 59.9635C51.2898 59.9726 51.2898 59.9726 51.0769 59.9819C50.0413 59.7603 49.2331 58.8284 48.5061 58.0961C48.4201 58.0104 48.3341 57.9247 48.2455 57.8364C48.0658 57.6569 47.8865 57.477 47.7075 57.2968C47.4342 57.022 47.1595 56.7488 46.8845 56.4757C46.7091 56.3 46.5337 56.1243 46.3585 55.9485C46.2769 55.8675 46.1954 55.7866 46.1114 55.7032C45.4347 55.0185 44.9947 54.4772 44.9934 53.4762C45.0132 52.7431 45.106 52.3046 45.6261 51.7564C46.1488 51.3858 46.5279 51.261 47.1677 51.2484C47.3069 51.2424 47.446 51.2363 47.5893 51.2301C48.7188 51.4718 49.5522 52.5078 50.3312 53.3069C50.428 53.4051 50.5249 53.5032 50.6247 53.6043C50.8602 53.8432 51.095 54.0826 51.3292 54.3228C51.8416 54.1059 52.1659 53.8042 52.555 53.41C52.7485 53.2151 52.7485 53.2151 52.9458 53.0163C53.0141 52.9469 53.0823 52.8775 53.1527 52.8059C53.3672 52.5877 53.5827 52.3704 53.7984 52.1533C54.334 51.6139 54.868 51.073 55.4021 50.5321C55.8537 50.0749 56.3058 49.6183 56.7587 49.1625C56.9704 48.9489 57.1812 48.7346 57.392 48.5201C57.5214 48.3898 57.6509 48.2594 57.7842 48.1251C57.8974 48.0104 58.0106 47.8957 58.1272 47.7775C58.9971 46.9928 59.7414 46.9122 60.882 47.0513Z" fill="#3B5BA6"/>
<path d="M60.8861 34.2221C61.5451 34.5342 61.8431 34.8638 62.1693 35.5053C62.2412 35.9091 62.2412 35.9091 62.2495 36.334C62.2586 36.5427 62.2586 36.5427 62.2679 36.7556C61.9697 38.1487 60.4213 39.2908 59.4464 40.2621C59.2639 40.4449 59.0814 40.6276 58.899 40.8104C58.5182 41.1916 58.137 41.5722 57.7553 41.9525C57.267 42.4393 56.7799 42.9273 56.2932 43.4157C55.9173 43.7926 55.5408 44.1688 55.1641 44.5448C54.9842 44.7245 54.8045 44.9044 54.625 45.0845C54.3743 45.336 54.1227 45.5865 53.8708 45.8368C53.7974 45.9108 53.7239 45.9848 53.6483 46.061C52.9812 46.7204 52.4553 47.1156 51.5027 47.1343C51.294 47.1434 51.294 47.1434 51.0811 47.1527C50.0455 46.931 49.2373 45.9992 48.5102 45.2669C48.4242 45.1812 48.3383 45.0954 48.2497 45.0071C48.07 44.8276 47.8906 44.6478 47.7117 44.4676C47.4384 44.1928 47.1636 43.9196 46.8887 43.6464C46.7132 43.4708 46.5379 43.2951 46.3626 43.1193C46.2811 43.0383 46.1996 42.9574 46.1155 42.8739C45.4389 42.1893 44.9988 41.6479 44.9976 40.647C45.0174 39.9139 45.1101 39.4754 45.6302 38.9271C46.153 38.5566 46.5321 38.4318 47.1719 38.4192C47.311 38.4131 47.4501 38.4071 47.5935 38.4008C48.723 38.6426 49.5563 39.6786 50.3353 40.4777C50.4322 40.5758 50.529 40.674 50.6288 40.7751C50.8644 41.0139 51.0992 41.2534 51.3334 41.4936C51.8458 41.2767 52.1701 40.975 52.5592 40.5808C52.7526 40.3859 52.7526 40.3859 52.95 40.1871C53.0182 40.1177 53.0865 40.0482 53.1568 39.9767C53.3714 39.7585 53.5869 39.5412 53.8026 39.3241C54.3382 38.7847 54.8722 38.2437 55.4063 37.7029C55.8578 37.2457 56.31 36.7891 56.7629 36.3332C56.9746 36.1197 57.1854 35.9053 57.3962 35.6909C57.5256 35.5606 57.655 35.4302 57.7883 35.2959C57.9015 35.1812 58.0148 35.0665 58.1314 34.9483C59.0013 34.1635 59.7455 34.083 60.8861 34.2221Z" fill="#3B5BA6"/>
<path d="M60.8844 21.3889C61.5434 21.7011 61.8414 22.0307 62.1676 22.6721C62.2394 23.0759 62.2394 23.0759 62.2478 23.5009C62.2569 23.7096 62.2569 23.7096 62.2662 23.9225C61.968 25.3156 60.4196 26.4577 59.4447 27.429C59.2622 27.6117 59.0797 27.7945 58.8973 27.9773C58.5165 28.3584 58.1353 28.7391 57.7536 29.1194C57.2653 29.6061 56.7782 30.0942 56.2915 30.5826C55.9156 30.9594 55.5391 31.3356 55.1624 31.7116C54.9825 31.8913 54.8028 32.0713 54.6233 32.2514C54.3726 32.5028 54.121 32.7534 53.8691 33.0037C53.7957 33.0777 53.7222 33.1517 53.6466 33.2279C52.9794 33.8873 52.4536 34.2824 51.501 34.3012C51.2923 34.3103 51.2923 34.3103 51.0794 34.3196C50.0438 34.0979 49.2356 33.166 48.5085 32.4337C48.4225 32.348 48.3365 32.2623 48.248 32.174C48.0683 31.9945 47.8889 31.8147 47.71 31.6345C47.4367 31.3597 47.1619 31.0864 46.887 30.8133C46.7115 30.6377 46.5362 30.462 46.3609 30.2861C46.2794 30.2052 46.1978 30.1242 46.1138 30.0408C45.4372 29.3562 44.9971 28.8148 44.9958 27.8139C45.0157 27.0808 45.1084 26.6423 45.6285 26.094C46.1513 25.7234 46.5304 25.5987 47.1702 25.5861C47.3093 25.58 47.4484 25.574 47.5918 25.5677C48.7213 25.8095 49.5546 26.8454 50.3336 27.6446C50.4305 27.7427 50.5273 27.8408 50.6271 27.942C50.8626 28.1808 51.0975 28.4203 51.3317 28.6604C51.8441 28.4435 52.1684 28.1419 52.5575 27.7476C52.7509 27.5528 52.7509 27.5528 52.9483 27.354C53.0165 27.2845 53.0848 27.2151 53.1551 27.1436C53.3697 26.9253 53.5852 26.708 53.8009 26.4909C54.3364 25.9515 54.8705 25.4106 55.4045 24.8697C55.8561 24.4125 56.3082 23.9559 56.7612 23.5001C56.9729 23.2866 57.1837 23.0722 57.3945 22.8578C57.5239 22.7274 57.6533 22.5971 57.7866 22.4628C57.8998 22.3481 58.0131 22.2334 58.1297 22.1152C58.9996 21.3304 59.7438 21.2498 60.8844 21.3889Z" fill="#3B5BA6"/>
</g>
<defs>
<clipPath id="clip0_1682_362">
<rect width="73" height="73" fill="white"/>
</clipPath>
</defs>
</svg>
