<svg width="73" height="73" viewBox="0 0 73 73" fill="none" xmlns="http://www.w3.org/2000/svg">
<g clip-path="url(#clip0_1322_301)">
<path d="M34.6802 -0.0288816C34.8149 -0.0298881 34.9496 -0.0308947 35.0884 -0.0319317C40.6564 -0.0641034 40.6564 -0.0641034 43.0594 0.427814C43.2015 0.455383 43.3436 0.482952 43.49 0.511356C50.391 1.87493 56.6921 5.07121 61.7371 9.98055C61.8803 10.1182 61.8803 10.1182 62.0263 10.2585C63.3005 11.4868 64.4985 12.7285 65.5477 14.1555C65.7325 14.4048 65.9222 14.6497 66.1131 14.8945C67.2343 16.3509 68.1448 17.9132 69.0086 19.5333C69.1032 19.7102 69.1032 19.7102 69.1997 19.8906C70.8418 23.0135 71.9355 26.4769 72.5731 29.9415C72.596 30.0556 72.6189 30.1698 72.6426 30.2874C73.48 34.5685 73.3302 39.5159 72.4305 43.7716C72.3992 43.9201 72.3679 44.0687 72.3356 44.2217C71.3477 48.751 69.5645 53.2386 66.87 57.0313C66.776 57.1644 66.6821 57.2975 66.5854 57.4346C61.465 64.5811 61.465 64.5811 58.5041 65.571C57.7806 65.6884 57.1922 65.5834 56.5609 65.209C56.0463 64.7976 55.8053 64.3498 55.6954 63.703C55.6526 62.9186 55.8533 62.3739 56.3192 61.7364C56.6251 61.4214 56.9582 61.1478 57.2994 60.872C58.9347 59.5006 60.4456 58.0225 61.7371 56.3184C61.8068 56.2273 61.8764 56.1362 61.9481 56.0424C63.1214 54.4978 64.1345 52.9131 65.0164 51.1856C65.0933 51.036 65.0933 51.036 65.1717 50.8834C66.4046 48.4545 67.2853 45.8604 67.868 43.2012C67.8962 43.0748 67.9243 42.9484 67.9534 42.8181C69.6475 34.8425 67.9347 26.1481 63.574 19.2977C61.6368 16.3352 59.2747 13.567 56.4618 11.4063C56.3818 11.3448 56.3019 11.2832 56.2196 11.2198C54.9289 10.2321 53.598 9.35561 52.1844 8.55477C52.0578 8.48178 52.0578 8.48178 51.9286 8.40731C48.7523 6.58606 45.2314 5.45975 41.6336 4.84774C41.4539 4.81704 41.2741 4.78635 41.0889 4.75473C32.9808 3.53406 24.4103 5.6437 17.7894 10.4705C15.4196 12.2374 13.2125 14.1887 11.4071 16.5391C11.3147 16.659 11.3147 16.659 11.2206 16.7813C10.2326 18.0723 9.35825 19.4037 8.55551 20.8165C8.50761 20.8986 8.45971 20.9808 8.41035 21.0654C6.06412 25.1013 4.55975 30.1396 4.53436 34.822C4.53336 34.9453 4.53236 35.0685 4.53133 35.1955C4.52884 35.5917 4.52793 35.988 4.52768 36.3842C4.52758 36.5193 4.52748 36.6544 4.52738 36.7936C4.52957 38.724 4.57564 40.5961 4.99106 42.4884C5.02889 42.6705 5.02889 42.6705 5.0675 42.8564C6.35045 48.9654 9.23699 54.3802 13.5457 58.8848C13.6751 59.0201 13.8045 59.1554 13.9378 59.2948C14.5823 59.9539 15.2352 60.5611 15.9607 61.1304C16.6581 61.6924 17.1516 62.1254 17.3046 63.0463C17.3437 63.7079 17.2481 64.2434 16.8813 64.8007C16.3696 65.354 15.7578 65.56 15.025 65.6484C14.0937 65.5277 13.4561 65.0067 12.7705 64.4097C12.6488 64.3052 12.6488 64.3052 12.5246 64.1986C11.9349 63.688 11.376 63.1554 10.8368 62.5919C10.494 62.2463 10.1497 61.9036 9.7975 61.5676C4.31662 56.2792 1.09912 48.5088 0.143398 41.0626C0.130947 40.9674 0.118496 40.8723 0.105668 40.7743C0.00639873 39.9593 -0.0240683 39.1552 -0.0281408 38.3347C-0.0291474 38.1997 -0.0301539 38.0648 -0.031191 37.9258C-0.0633797 32.3446 -0.0633797 32.3446 0.428555 29.9415C0.469908 29.7283 0.469908 29.7283 0.512097 29.5109C1.59978 24.0062 3.84008 18.8515 7.27231 14.4005C7.36402 14.2814 7.45573 14.1623 7.55022 14.0396C9.55834 11.4831 11.8885 9.01823 14.5438 7.12898C14.6318 7.06539 14.7199 7.0018 14.8106 6.93628C20.5356 2.81974 27.5581 0.00667151 34.6802 -0.0288816Z" fill="#3B5BA6"/>
<path d="M42.6133 27.4998C42.8591 27.6929 43.1029 27.8889 43.344 28.0879C43.5081 28.2147 43.5081 28.2147 43.6754 28.3441C45.9312 30.1865 46.9851 32.8214 47.3362 35.6445C47.5817 38.3621 46.6921 41.0522 45.055 43.2012C44.7524 43.5548 44.4447 43.899 44.1237 44.236C43.8837 44.4666 43.8837 44.4666 43.9143 44.7695C44.131 44.9185 44.3556 45.0559 44.5827 45.1884C47.9664 47.2951 50.3123 50.5546 51.2304 54.447C51.5209 55.7024 51.635 56.9211 51.6388 58.2078C51.6402 58.4205 51.6402 58.4205 51.6416 58.6375C51.6444 59.1033 51.6461 59.5691 51.6475 60.0349C51.6481 60.1946 51.6487 60.3543 51.6493 60.5189C51.6523 61.3631 51.6543 62.2074 51.6556 63.0517C51.6572 63.9226 51.6621 64.7935 51.6678 65.6645C51.6715 66.3356 51.6727 67.0068 51.6732 67.6779C51.6739 67.9991 51.6756 68.3202 51.6782 68.6413C51.6817 69.0903 51.6816 69.5393 51.6806 69.9883C51.6833 70.1863 51.6833 70.1863 51.6861 70.3882C51.6793 71.2386 51.5593 71.7438 51.0432 72.4297C50.3891 72.964 49.8745 73.0825 49.0514 73.0724C48.8835 73.0738 48.8835 73.0738 48.7123 73.0751C48.3386 73.0774 47.965 73.0756 47.5913 73.0738C47.3228 73.0746 47.0544 73.0756 46.786 73.0768C46.0578 73.0794 45.3296 73.0784 44.6014 73.0766C43.8391 73.0752 43.0769 73.0765 42.3146 73.0774C41.0345 73.0784 39.7544 73.0771 38.4744 73.0744C36.9947 73.0712 35.515 73.0723 34.0353 73.0754C32.7646 73.078 31.4939 73.0783 30.2232 73.0769C29.4644 73.076 28.7056 73.0758 27.9468 73.0777C27.2334 73.0794 26.52 73.0782 25.8066 73.0749C25.5449 73.0742 25.2831 73.0744 25.0214 73.0757C24.6639 73.0772 24.3066 73.0753 23.9491 73.0724C23.794 73.0743 23.794 73.0743 23.6357 73.0763C22.9168 73.0652 22.5105 72.8817 21.9573 72.4297C21.3578 71.6297 21.305 70.9918 21.3155 70.011C21.3147 69.8717 21.3139 69.7325 21.3131 69.589C21.3113 69.1299 21.3137 68.671 21.3163 68.2119C21.3162 67.8903 21.316 67.5686 21.3156 67.2469C21.3154 66.5722 21.3172 65.8976 21.3205 65.223C21.3245 64.3651 21.3241 63.5073 21.3223 62.6494C21.3213 61.9843 21.3224 61.3193 21.3242 60.6542C21.3248 60.3383 21.3249 60.0225 21.3243 59.7066C21.3203 55.4763 22.0458 51.4469 24.9514 48.1914C25.0956 48.0169 25.0956 48.0169 25.2427 47.8389C26.3276 46.5603 27.6205 45.5781 29.0862 44.7695C28.8642 44.2618 28.5545 43.8878 28.1951 43.4685C26.3516 41.2321 25.4417 38.5568 25.6643 35.6445C25.9426 33.3808 26.6195 31.436 28.0882 29.6563C28.1727 29.5469 28.2572 29.4375 28.3444 29.3249C31.7052 25.2099 38.3093 24.4528 42.6133 27.4998ZM31.7211 32.1859C30.6128 33.5832 29.8767 35.2538 30.0843 37.0703C30.4222 38.9714 31.161 40.5681 32.7604 41.7113C34.2012 42.6475 35.7485 43.1511 37.4716 42.8447C39.3792 42.4165 40.841 41.5798 41.9182 39.9219C42.8294 38.3882 43.1394 36.84 42.747 35.092C42.2384 33.2011 41.2636 31.879 39.5819 30.8799C37.0218 29.5094 33.6804 29.9395 31.7211 32.1859ZM29.5139 49.9023C29.3864 50.015 29.2588 50.1277 29.1274 50.2438C27.2311 52.018 25.9343 54.5577 25.7911 57.1772C25.7669 57.9948 25.7741 58.8126 25.7791 59.6305C25.7795 59.8639 25.7798 60.0973 25.7799 60.3307C25.7814 61.1884 25.7854 62.046 25.7891 62.9037C25.795 64.8239 25.8009 66.7442 25.8069 68.7227C32.8645 68.7227 39.9221 68.7227 47.1936 68.7227C47.2025 66.8112 47.2113 64.8998 47.2204 62.9304C47.2243 62.3308 47.2282 61.7311 47.2322 61.1133C47.2336 60.5676 47.2336 60.5676 47.2345 60.0218C47.2351 59.782 47.2366 59.5422 47.2388 59.3024C47.2579 57.1057 47.0278 55.1904 46.053 53.1816C45.9878 53.0442 45.9225 52.9067 45.8553 52.765C44.5007 50.1856 42.0836 48.4929 39.3518 47.6211C39.2419 47.586 39.132 47.5509 39.0188 47.5147C35.7244 46.6767 32.018 47.6504 29.5139 49.9023Z" fill="#3B5BA6"/>
<path d="M54.7094 15.1825C55.2565 15.6711 55.7896 16.1739 56.3191 16.6813C56.4799 16.8332 56.4799 16.8332 56.6438 16.9882C61.3758 21.5703 64.3624 28.5861 64.4751 35.1513C64.5471 41.4534 63.1807 47.2883 59.5628 52.5486C59.4621 52.6976 59.4621 52.6976 59.3594 52.8495C58.842 53.5718 58.2984 54.0669 57.3968 54.2501C56.7004 54.2309 56.2004 54.1523 55.6062 53.7517C55.0056 53.1023 54.8226 52.5543 54.8365 51.6854C54.9465 50.9936 55.3587 50.4699 55.7488 49.902C59.271 44.7361 60.7737 38.3808 59.6034 32.1828C58.238 25.7192 54.5571 20.3012 49.0609 16.6398C44.1976 13.5305 37.8243 12.2424 32.1421 13.397C31.9313 13.4449 31.7208 13.4942 31.5105 13.5446C31.3915 13.573 31.2724 13.6013 31.1498 13.6305C24.9429 15.1576 19.6263 19.0452 16.2905 24.5C13.1192 29.979 12.2352 36.495 13.8237 42.6218C14.5947 45.4302 15.8886 48.1261 17.622 50.4701C18.1183 51.1795 18.2267 51.7541 18.1082 52.611C17.8802 53.2233 17.5388 53.7051 16.9676 54.0368C16.5871 54.1636 16.3281 54.2108 15.9339 54.2239C15.8302 54.2293 15.7266 54.2346 15.6198 54.2401C14.8717 54.115 14.3827 53.7495 13.8943 53.1969C13.7817 53.039 13.6715 52.8792 13.5635 52.718C13.5035 52.6309 13.4436 52.5438 13.3818 52.4541C12.7036 51.4514 12.1079 50.4051 11.5496 49.3317C11.5 49.2364 11.4504 49.141 11.3992 49.0428C9.40946 45.1586 8.52334 40.9432 8.51982 36.5977C8.51973 36.4904 8.51963 36.3831 8.51953 36.2725C8.52203 34.5115 8.61935 32.8097 8.9832 31.0817C9.00767 30.964 9.03214 30.8463 9.05735 30.725C10.2208 25.306 12.8684 20.6612 16.6824 16.6813C16.7837 16.5742 16.885 16.467 16.9893 16.3566C21.1518 12.0579 26.9606 9.59947 32.7937 8.69697C32.8899 8.68206 32.986 8.66715 33.085 8.65179C40.7746 7.63234 48.8726 10.1057 54.7094 15.1825Z" fill="#3B5BA6"/>
<path d="M49.3898 21.948C53.2026 25.2315 55.4744 29.9368 55.8877 34.9324C56.049 38.0693 55.8655 42.0719 54.0342 44.7703C53.5225 45.3136 53.0483 45.6457 52.2965 45.6703C51.6093 45.6592 51.1324 45.5108 50.6123 45.0554C50.0853 44.4535 49.9949 43.8916 50.0093 43.1115C50.0609 42.5791 50.2418 42.1254 50.443 41.6335C51.7513 38.156 51.6976 34.2583 50.252 30.8188C49.5642 29.3483 48.838 28.0335 47.7608 26.8054C47.6749 26.6992 47.5891 26.5929 47.5007 26.4835C45.519 24.0988 42.6101 22.6518 39.6338 21.9578C39.4916 21.923 39.3493 21.8883 39.2027 21.8525C35.411 21.0718 31.4703 22.0929 28.2276 24.0964C27.7259 24.4499 27.2629 24.8326 26.8018 25.237C26.6956 25.3229 26.5893 25.4087 26.4799 25.4971C24.0952 27.4788 22.6482 30.3877 21.9541 33.364C21.9194 33.5063 21.8847 33.6485 21.8489 33.7951C21.293 36.4948 21.6324 39.3878 22.6696 41.923C22.9776 42.706 23.1358 43.5368 22.8483 44.352C22.5802 44.9135 22.2131 45.2566 21.6584 45.5322C21.0059 45.7545 20.4397 45.6951 19.7887 45.4653C18.9754 44.9231 18.5618 44.2228 18.2382 43.3177C18.1848 43.172 18.1848 43.172 18.1303 43.0234C16.9091 39.5385 16.7347 35.6755 17.5342 32.0808C17.5564 31.9808 17.5786 31.8809 17.6015 31.7779C18.722 26.9905 21.8984 22.8197 25.9463 20.1042C33.4564 15.4783 42.6949 16.3081 49.3898 21.948Z" fill="#3B5BA6"/>
</g>
<defs>
<clipPath id="clip0_1322_301">
<rect width="73" height="73" fill="white"/>
</clipPath>
</defs>
</svg>
