<svg width="99" height="77" viewBox="0 0 99 77" fill="none" xmlns="http://www.w3.org/2000/svg">
<g clip-path="url(#clip0_1322_396)">
<path d="M26.851 34.0103C26.9306 34.0405 27.0102 34.0707 27.0922 34.1019C27.3546 34.202 27.6162 34.304 27.8778 34.4062C28.0603 34.4766 28.2427 34.5469 28.4252 34.6172C28.8075 34.7648 29.1893 34.9134 29.5709 35.0626C30.0596 35.2536 30.5493 35.4418 31.0393 35.6292C31.4164 35.7738 31.7928 35.9201 32.169 36.0668C32.3493 36.1369 32.5298 36.2064 32.7105 36.2753C32.9633 36.372 33.2151 36.4709 33.4668 36.5704C33.5787 36.6124 33.5787 36.6124 33.6928 36.6552C34.159 36.8431 34.3921 37.0269 34.645 37.4808C34.8256 37.9924 34.6389 38.3656 34.4377 38.8398C34.3933 38.9487 34.3933 38.9487 34.3481 39.0598C34.2754 39.2379 34.201 39.4153 34.1264 39.5926C34.2165 39.5777 34.3067 39.5628 34.3996 39.5475C35.1995 39.4274 35.9714 39.3894 36.7797 39.429C36.9057 39.4348 36.9057 39.4348 37.0341 39.4408C38.1205 39.5057 39.078 39.767 40.0906 40.162C40.1767 40.1955 40.1767 40.1955 40.2645 40.2297C42.1767 40.9808 44.1946 42.2905 45.1633 44.1778C45.7724 45.3432 46.4178 45.7412 47.6336 46.1687C47.7958 46.2304 47.9579 46.2927 48.1197 46.3555C48.5424 46.5182 48.9671 46.6749 49.3927 46.83C50.0739 47.0792 50.7521 47.3365 51.4296 47.5956C51.6643 47.6842 51.9 47.7697 52.136 47.8547C53.4825 48.3525 54.3271 49.032 54.955 50.3572C55.3053 51.2189 55.3163 52.0794 55.0821 52.9629C55.7074 52.8287 56.3327 52.6942 56.9579 52.5597C57.2901 52.4883 57.6222 52.417 57.9544 52.3458C58.9479 52.1323 59.941 51.9177 60.9317 51.6912C61.0819 51.6571 61.2321 51.6229 61.3824 51.5888C61.6534 51.5271 61.9241 51.4642 62.1946 51.4005C63.654 51.0638 64.9043 51.1166 66.202 51.9168C67.0955 52.5842 67.6726 53.4574 67.9462 54.5406C68.1072 55.7832 67.821 56.9284 67.1419 57.9875C66.1453 59.169 64.8653 59.5288 63.4159 59.8536C62.898 59.9718 62.3822 60.099 61.8661 60.2247C61.0772 60.4161 60.2879 60.6054 59.4975 60.7908C58.8448 60.9444 58.1931 61.1023 57.5414 61.2603C55.6362 61.7217 55.6362 61.7217 54.6982 61.9391C54.4869 61.9886 54.2761 62.0396 54.0652 62.0907C53.2167 62.2926 52.3808 62.4571 51.5032 62.4348C51.4336 62.4332 51.3641 62.4317 51.2924 62.43C50.2074 62.3492 49.2263 61.8919 48.2246 61.4972C48.0101 61.4138 47.7956 61.3305 47.581 61.2473C47.1208 61.0686 46.6609 60.8891 46.2013 60.7088C45.5368 60.4482 44.8717 60.1891 44.2065 59.9303C43.127 59.5103 42.0479 59.0892 40.9692 58.6673C39.9219 58.2577 38.8744 57.8486 37.8266 57.4403C37.7619 57.4151 37.6972 57.3899 37.6305 57.3639C37.306 57.2374 36.9814 57.1109 36.6568 56.9845C33.9682 55.937 31.2804 54.8875 28.5931 53.8369C28.5573 53.9366 28.5573 53.9366 28.5207 54.0384C28.4724 54.1689 28.4724 54.1689 28.423 54.302C28.3914 54.3883 28.3599 54.4746 28.3273 54.5636C28.1744 54.8967 27.9923 55.0277 27.6664 55.1867C27.1489 55.3442 26.8003 55.1956 26.3186 55.0055C26.239 54.9752 26.1594 54.945 26.0774 54.9139C25.815 54.8138 25.5534 54.7118 25.2918 54.6096C25.1093 54.5392 24.9268 54.4688 24.7443 54.3985C24.3621 54.2509 23.9803 54.1024 23.5987 53.9531C23.11 53.7622 22.6203 53.574 22.1302 53.3865C21.7532 53.2419 21.3768 53.0957 21.0006 52.9489C20.8203 52.8789 20.6398 52.8094 20.459 52.7404C20.2063 52.6437 19.9545 52.5448 19.7028 52.4453C19.5909 52.4033 19.5909 52.4033 19.4768 52.3605C19.0125 52.1735 18.7652 51.9947 18.5246 51.5349C18.3892 51.0645 18.4896 50.7371 18.6648 50.297C18.6909 50.2283 18.7171 50.1596 18.744 50.0888C18.8318 49.859 18.9215 49.63 19.0112 49.4009C19.0746 49.2362 19.1379 49.0714 19.2011 48.9066C19.3731 48.4593 19.5467 48.0127 19.7207 47.5662C19.8658 47.1934 20.0101 46.8203 20.1545 46.4473C20.495 45.5671 20.8368 44.6875 21.1795 43.8083C21.5331 42.9011 21.8844 41.9931 22.2346 41.0846C22.5353 40.3046 22.8374 39.5252 23.1406 38.7462C23.3217 38.2809 23.5023 37.8155 23.6816 37.3495C23.8502 36.9114 24.0205 36.4739 24.1922 36.0369C24.2549 35.8765 24.317 35.7158 24.3784 35.5549C24.4625 35.3352 24.5486 35.1164 24.6353 34.8977C24.6711 34.802 24.6711 34.802 24.7075 34.7044C24.885 34.2662 25.0966 34.0634 25.5032 33.8291C26.0083 33.6544 26.377 33.8233 26.851 34.0103ZM26.8587 37.0711C25.1783 41.3969 23.498 45.7226 21.7667 50.1794C23.2663 50.7619 24.7659 51.3444 26.3109 51.9446C27.9912 47.6189 29.6716 43.2932 31.4029 38.8364C29.9033 38.2539 28.4037 37.6713 26.8587 37.0711ZM35.0682 42.4417C34.7693 42.4795 34.4755 42.5017 34.1746 42.5121C33.6499 42.5475 33.0972 42.5851 32.719 42.9866C32.3761 43.5104 32.1889 44.105 31.9878 44.6934C31.9178 44.8813 31.8472 45.0689 31.776 45.2563C31.5912 45.7479 31.4149 46.2422 31.2403 46.7376C31.0604 47.2434 30.8724 47.7462 30.685 48.2493C30.3193 49.2351 29.9626 50.224 29.6115 51.2152C32.2305 52.2372 34.8499 53.2583 37.4698 54.2782C37.7795 54.3987 38.0891 54.5192 38.3988 54.6398C38.4913 54.6758 38.4913 54.6758 38.5856 54.7125C39.5823 55.1006 40.5787 55.4892 41.5751 55.8781C42.5983 56.2775 43.6217 56.6762 44.6455 57.0742C45.2201 57.2977 45.7946 57.5215 46.3688 57.746C46.9097 57.9575 47.451 58.1682 47.9925 58.3783C48.1907 58.4553 48.3888 58.5327 48.5868 58.6104C50.923 59.5266 52.4485 59.5033 54.8557 58.8806C55.2321 58.7844 55.6099 58.6956 55.9883 58.6077C56.7168 58.4372 57.4441 58.2617 58.1712 58.0854C58.8915 57.9107 59.612 57.7369 60.3336 57.5676C61.0772 57.3926 61.8204 57.2162 62.5633 57.0383C62.6724 57.0124 62.7815 56.9865 62.8939 56.9599C63.9297 56.7751 63.9297 56.7751 64.7771 56.2262C64.9973 55.8465 65.0896 55.5285 65.0552 55.0896C64.8822 54.6367 64.6682 54.4119 64.2624 54.153C63.1883 53.9234 61.822 54.4518 60.7681 54.6958C60.2459 54.8165 59.7232 54.9354 59.2006 55.0543C59.0383 55.0912 59.0383 55.0912 58.8728 55.1289C57.7685 55.3798 56.663 55.6256 55.5564 55.8664C55.3484 55.9118 55.1404 55.9574 54.9325 56.0033C53.0982 56.4082 51.664 56.6958 49.8685 55.9941C49.6979 55.9285 49.6979 55.9285 49.5237 55.8617C49.2135 55.7425 48.9036 55.6222 48.5939 55.5016C48.3348 55.4009 48.0756 55.3007 47.8163 55.2004C47.2048 54.964 46.5937 54.7267 45.9827 54.4887C45.353 54.2435 44.7227 53.9999 44.092 53.757C43.5496 53.5481 43.0076 53.3382 42.4659 53.1274C42.1428 53.0017 41.8195 52.8764 41.4959 52.7521C41.1353 52.6135 40.7757 52.4729 40.416 52.332C40.309 52.2912 40.2019 52.2503 40.0915 52.2083C39.9937 52.1695 39.8958 52.1308 39.7949 52.0909C39.7099 52.0579 39.6248 52.0249 39.5372 51.9908C39.1862 51.7949 39.0154 51.5542 38.9023 51.1722C38.8855 50.8539 38.9413 50.6545 39.0586 50.3592C39.1091 50.2263 39.1091 50.2263 39.1605 50.0908C39.3562 49.7371 39.5678 49.5671 39.9495 49.4361C40.4286 49.4118 40.8082 49.5883 41.2498 49.762C41.348 49.7995 41.4462 49.8369 41.5473 49.8755C41.8718 49.9995 42.1956 50.1253 42.5194 50.2511C42.7449 50.3375 42.9706 50.4239 43.1963 50.51C43.8514 50.7605 44.5058 51.0127 45.1602 51.2653C46.049 51.6081 46.9384 51.9496 47.8283 52.2899C48.1601 52.4172 48.4914 52.5455 48.8228 52.6739C49.0267 52.7521 49.2305 52.8303 49.4344 52.9084C49.5263 52.9443 49.6181 52.9803 49.7127 53.0173C50.5643 53.3425 50.5643 53.3425 51.4448 53.2158C51.9456 52.9463 52.0925 52.748 52.2816 52.2279C52.3664 51.8887 52.3164 51.6615 52.1932 51.3379C51.8405 50.7764 51.3378 50.5896 50.7366 50.365C50.5882 50.3087 50.4398 50.2523 50.2915 50.1959C50.2131 50.1662 50.1347 50.1366 50.054 50.106C49.5487 49.914 49.0453 49.7172 48.5414 49.5215C48.0999 49.3503 47.658 49.1807 47.2146 49.0143C46.7844 48.8528 46.356 48.687 45.9285 48.5183C45.7664 48.4552 45.6037 48.3936 45.4403 48.3337C44.2458 47.894 43.6774 47.4219 43.0897 46.2929C43.0059 46.1647 42.9201 46.0378 42.8304 45.9136C42.7626 45.8195 42.6948 45.7253 42.625 45.6284C40.8109 43.1556 38.0828 42.0485 35.0682 42.4417Z" fill="white"/>
<path d="M57.8785 15.6877C57.9625 15.721 58.0465 15.7544 58.133 15.7887C58.7671 16.0516 59.277 16.3543 59.7487 16.8605C59.805 16.9176 59.8612 16.9748 59.9192 17.0336C60.9413 18.1559 61.2794 19.5773 61.2357 21.0588C61.1997 21.4553 61.06 21.7987 60.9127 22.1654C60.887 22.2304 60.8613 22.2953 60.8348 22.3623C60.7717 22.5218 60.7079 22.6812 60.6441 22.8406C60.7506 22.8798 60.8571 22.9191 60.9669 22.9595C61.3631 23.1062 61.7585 23.2551 62.1536 23.4048C62.3245 23.4692 62.4956 23.5329 62.6669 23.596C62.9137 23.687 63.1596 23.7802 63.4053 23.8739C63.4817 23.9015 63.5581 23.9291 63.6367 23.9575C64.114 24.1427 64.3715 24.313 64.6156 24.7856C64.7725 25.3089 64.6322 25.7366 64.494 26.2472C64.4568 26.3899 64.4568 26.3899 64.4188 26.5354C64.3322 26.8651 64.2439 27.1943 64.1555 27.5235C64.1228 27.6461 64.0902 27.7687 64.0576 27.8913C63.7916 28.8916 63.5218 29.8909 63.2512 30.89C63.2081 31.0493 63.165 31.2086 63.1219 31.3679C62.9195 32.1155 62.717 32.863 62.5143 33.6105C62.2822 34.466 62.0509 35.3217 61.82 36.1775C61.64 36.845 61.4593 37.5122 61.2782 38.1794C61.1707 38.5754 61.0634 38.9715 60.9568 39.3678C60.8567 39.74 60.7558 40.112 60.6543 40.4839C60.6175 40.619 60.5811 40.7541 60.5449 40.8893C60.3558 41.5962 60.1459 42.2934 59.8953 42.981C59.874 43.0429 59.8528 43.1048 59.8309 43.1686C59.6621 43.6129 59.4607 43.8195 59.0453 44.0443C58.534 44.2234 58.1543 44.0426 57.6747 43.8525C57.5917 43.8208 57.5087 43.7892 57.4232 43.7565C57.1451 43.6499 56.8678 43.5415 56.5904 43.433C56.3913 43.3562 56.1921 43.2795 55.9929 43.203C55.4517 42.9945 54.9112 42.7844 54.3708 42.574C53.9198 42.3985 53.4685 42.2238 53.0173 42.0491C51.8919 41.6134 50.7672 41.1761 49.6427 40.7381C48.6664 40.3579 47.6893 39.9796 46.7118 39.6023C45.7078 39.2147 44.7044 38.8259 43.7015 38.4357C43.1386 38.2166 42.5754 37.9981 42.0118 37.7809C41.4818 37.5766 40.9526 37.3706 40.4238 37.1633C40.2295 37.0875 40.035 37.0122 39.8403 36.9376C39.5746 36.8358 39.3099 36.7318 39.0453 36.6272C38.9679 36.5981 38.8905 36.569 38.8108 36.539C38.3408 36.35 38.0863 36.1744 37.8439 35.7078C37.694 35.2475 37.8053 34.9199 37.986 34.4891C38.0123 34.4244 38.0385 34.3597 38.0655 34.293C38.3711 33.5551 38.7334 32.8471 39.1009 32.1387C39.1769 31.9908 39.2529 31.8428 39.3288 31.6948C39.5328 31.2977 39.7376 30.9011 39.9427 30.5047C40.1581 30.0878 40.3728 29.6705 40.5876 29.2533C40.9477 28.554 41.3084 27.8551 41.6695 27.1563C42.0865 26.3494 42.5026 25.542 42.9182 24.7343C43.3193 23.9548 43.7211 23.1755 44.1231 22.3965C44.2937 22.0658 44.4641 21.7351 44.6343 21.4043C44.8345 21.0153 45.0353 20.6265 45.2365 20.238C45.3101 20.0956 45.3835 19.9532 45.4567 19.8106C45.5569 19.6157 45.6577 19.4211 45.7587 19.2267C45.8148 19.1178 45.871 19.009 45.9289 18.8969C46.2512 18.3329 46.495 18.0054 47.1185 17.7875C47.456 17.713 47.5142 17.7152 47.8149 17.8341C47.8866 17.862 47.9583 17.8898 48.0322 17.9185C48.1472 17.9648 48.1472 17.9648 48.2645 18.0119C48.3831 18.0584 48.3831 18.0584 48.5041 18.1059C48.7566 18.2051 49.0086 18.3055 49.2606 18.406C49.4317 18.4734 49.6028 18.5408 49.7739 18.6081C50.1935 18.7733 50.6126 18.9396 51.0314 19.1064C51.0666 19.0112 51.1018 18.916 51.138 18.8179C51.1857 18.6913 51.2334 18.5647 51.2812 18.4381C51.3042 18.3756 51.3272 18.313 51.3509 18.2486C51.788 17.0989 52.7759 16.2408 53.8668 15.7071C55.1902 15.1736 56.5593 15.1585 57.8785 15.6877ZM54.9033 18.4921C54.171 18.9864 54.0918 19.2251 53.6531 20.1248C55.095 20.6849 56.5369 21.2451 58.0225 21.8222C58.3898 20.5899 58.3898 20.5899 58.0519 19.4324C57.3242 18.3541 56.1058 17.8805 54.9033 18.4921ZM48.1779 21.0152C47.3659 22.506 46.579 24.0081 45.8034 25.518C45.6404 25.8354 45.4768 26.1525 45.3131 26.4696C45.185 26.7178 45.0573 26.9661 44.9297 27.2145C44.8695 27.3316 44.8092 27.4486 44.7487 27.5656C44.6646 27.7284 44.581 27.8916 44.4974 28.0548C44.45 28.1468 44.4027 28.2388 44.3539 28.3336C44.1875 28.6859 44.0504 29.0514 43.9093 29.4145C48.8695 31.3413 53.8296 33.2682 58.9401 35.2534C59.1466 34.7217 59.3277 34.2138 59.4748 33.6671C59.4955 33.5915 59.5162 33.5158 59.5376 33.4379C59.6052 33.1906 59.6722 32.9432 59.7391 32.6958C59.7863 32.5227 59.8335 32.3496 59.8807 32.1765C59.9792 31.8151 60.0774 31.4535 60.1754 31.0919C60.3009 30.6289 60.427 30.1659 60.5533 29.703C60.6506 29.3462 60.7477 28.9893 60.8447 28.6323C60.8912 28.4616 60.9376 28.2908 60.9842 28.1201C61.0491 27.8818 61.1137 27.6433 61.1782 27.4049C61.1974 27.3347 61.2166 27.2645 61.2363 27.1921C61.3278 26.8528 61.4002 26.5222 61.4609 26.1751C60.8553 25.9398 60.2497 25.7046 59.6257 25.4622C59.525 25.6813 59.525 25.6813 59.4223 25.9049C59.2401 26.269 59.1047 26.5304 58.733 26.7246C58.3127 26.8326 58.0589 26.8057 57.6572 26.6461C57.5686 26.6125 57.48 26.5789 57.3888 26.5442C57.0389 26.3506 56.861 26.117 56.7255 25.7436C56.7181 25.439 56.7181 25.439 57.0041 24.4438C55.5622 23.8837 54.1203 23.3236 52.6347 22.7465C52.4826 23.0525 52.3305 23.3585 52.1739 23.6738C51.8713 23.9888 51.633 24.0592 51.2032 24.1013C50.933 24.0364 50.933 24.0364 50.6661 23.9304C50.5776 23.8968 50.489 23.8631 50.3977 23.8285C50.0478 23.6349 49.87 23.4013 49.7344 23.0279C49.7231 22.5614 49.8708 22.1714 50.013 21.7281C49.4074 21.4928 48.8018 21.2576 48.1779 21.0152ZM42.5414 31.9004C42.1188 32.7319 41.6962 33.5635 41.2608 34.4202C46.6247 36.5038 51.9886 38.5875 57.515 40.7343C57.7646 39.8355 58.0141 38.9368 58.2712 38.0108C53.0804 35.9944 47.8895 33.9779 42.5414 31.9004Z" fill="white"/>
</g>
<defs>
<clipPath id="clip0_1322_396">
<rect width="48" height="48" fill="white" transform="translate(35.5028 7.03979) rotate(21.2291)"/>
</clipPath>
</defs>
</svg>
