<svg width="73" height="73" viewBox="0 0 73 73" fill="none" xmlns="http://www.w3.org/2000/svg">
<g clip-path="url(#clip0_1322_313)">
<path d="M60.4515 0.569211C60.6525 0.65495 60.6525 0.65495 60.8575 0.742421C62.8953 1.73119 63.9815 3.34605 64.7417 5.4113C64.9967 6.26916 65.0339 7.08043 65.0235 7.96712C65.0225 8.13456 65.0225 8.13456 65.0214 8.30538C65.0197 8.57823 65.0169 8.85106 65.014 9.1239C65.0946 9.12295 65.1752 9.122 65.2582 9.12102C66.0978 9.11155 66.9374 9.1051 67.777 9.1004C68.0902 9.09825 68.4035 9.09534 68.7167 9.09163C69.1672 9.08644 69.6177 9.08401 70.0683 9.08213C70.278 9.07882 70.278 9.07882 70.4919 9.07544C71.7329 9.07513 71.7329 9.07513 72.2855 9.55163C72.8254 10.098 73.0782 10.4162 73.0924 11.2158C73.0906 11.3171 73.0888 11.4184 73.087 11.5228C73.0879 11.6325 73.0888 11.7422 73.0898 11.8552C73.0919 12.2214 73.089 12.5873 73.0861 12.9535C73.0866 13.2165 73.0874 13.4796 73.0885 13.7426C73.0905 14.4561 73.0881 15.1695 73.0848 15.883C73.0819 16.6297 73.0827 17.3765 73.0831 18.1232C73.0831 19.3771 73.0802 20.6309 73.0757 21.8847C73.0704 23.3344 73.0692 24.7841 73.0702 26.2338C73.0711 27.6285 73.0695 29.0231 73.0667 30.4178C73.0656 31.0114 73.0652 31.6049 73.0654 32.1984C73.0655 32.8972 73.0635 33.596 73.0598 34.2947C73.0588 34.5513 73.0585 34.8078 73.059 35.0643C73.0595 35.4143 73.0574 35.7642 73.0546 36.1142C73.0554 36.2158 73.0562 36.3175 73.0569 36.4222C73.0484 37.0432 72.9464 37.4286 72.5707 37.9247C71.8366 38.5692 71.4005 38.6588 70.4453 38.6586C70.3274 38.6591 70.2096 38.6596 70.0882 38.6601C69.6911 38.6617 69.294 38.6623 68.8969 38.6628C68.6131 38.6637 68.3293 38.6646 68.0455 38.6656C67.2728 38.6681 66.5001 38.6696 65.7274 38.6708C65.2449 38.6715 64.7624 38.6724 64.2799 38.6733C62.771 38.676 61.2622 38.6781 59.7533 38.6792C58.0102 38.6806 56.2671 38.6844 54.5239 38.6901C53.1776 38.6944 51.8312 38.6966 50.4849 38.697C49.6803 38.6974 48.8758 38.6986 48.0712 38.7022C47.3142 38.7055 46.5574 38.7062 45.8004 38.7047C45.5226 38.7046 45.2447 38.7055 44.9669 38.7075C44.5876 38.71 44.2084 38.709 43.829 38.7071C43.6641 38.7095 43.6641 38.7095 43.4959 38.7119C42.755 38.703 42.3344 38.5498 41.7738 38.0673C41.2337 37.4303 41.1208 36.9154 41.1311 36.1025C41.1297 35.939 41.1297 35.939 41.1284 35.7722C41.1261 35.4083 41.1279 35.0446 41.1297 34.6807C41.1289 34.4193 41.1279 34.1579 41.1267 33.8965C41.1241 33.1874 41.1251 32.4784 41.1269 31.7694C41.1283 31.0271 41.127 30.2848 41.1261 29.5425C41.125 28.296 41.1264 27.0495 41.1291 25.803C41.1322 24.3621 41.1312 22.9214 41.1281 21.4805C41.1255 20.2431 41.1251 19.0058 41.1266 17.7684C41.1275 17.0295 41.1276 16.2906 41.1257 15.5517C41.1241 14.857 41.1252 14.1624 41.1285 13.4677C41.1293 13.2128 41.1291 12.958 41.1278 12.7031C41.1263 12.355 41.1282 12.0071 41.1311 11.659C41.1298 11.5583 41.1285 11.4577 41.1272 11.3539C41.1384 10.6428 41.3332 10.2446 41.7738 9.69421C42.5182 9.01715 43.1931 9.048 44.1475 9.0682C44.2919 9.06901 44.4362 9.06982 44.585 9.07065C45.0441 9.07383 45.503 9.08099 45.962 9.08825C46.2741 9.09112 46.5862 9.09372 46.8982 9.09605C47.6615 9.10232 48.4247 9.11186 49.1879 9.1239C49.186 8.97039 49.1841 8.81687 49.1822 8.65871C49.1807 8.45362 49.1792 8.24852 49.1778 8.04342C49.1765 7.94268 49.1751 7.84194 49.1738 7.73815C49.1627 5.60377 49.9348 3.71475 51.409 2.17377C53.8292 -0.0785771 57.3867 -0.757352 60.4515 0.569211ZM54.4632 5.41687C53.4903 6.58943 53.6078 7.58254 53.6078 9.1239C55.9133 9.1239 58.2188 9.1239 60.5941 9.1239C60.6388 6.90796 60.6388 6.90796 59.5576 5.20857C57.9885 3.81304 55.9819 4.13916 54.4632 5.41687ZM45.6234 13.5438C45.6234 20.3662 45.6234 27.1885 45.6234 34.2176C53.2456 34.2176 60.8679 34.2176 68.7211 34.2176C68.7211 27.3953 68.7211 20.5729 68.7211 13.5438C67.4977 13.5438 66.2744 13.5438 65.014 13.5438C64.9842 14.4906 64.9842 14.4906 64.9587 15.4375C64.9291 16.187 64.8662 16.7483 64.4437 17.3934C63.8995 17.8443 63.2889 17.9843 62.5902 17.9637C61.9666 17.837 61.5536 17.64 61.102 17.1885C60.4361 16.0963 60.6607 14.8083 60.5941 13.5438C58.2886 13.5438 55.9831 13.5438 53.6078 13.5438C53.5607 14.4848 53.5137 15.4259 53.4652 16.3954C52.9356 17.4545 52.9356 17.4545 52.3246 17.8212C51.5066 18.0059 50.9881 17.9617 50.1859 17.6786C50.0447 17.6315 49.9036 17.5845 49.7582 17.536C49.5978 17.1885 49.5978 17.1885 49.473 16.8231C49.426 16.729 49.3789 16.6349 49.3304 16.538C49.3088 16.3109 49.2949 16.083 49.2853 15.8551C49.2772 15.6738 49.2772 15.6738 49.2689 15.4889C49.2627 15.3352 49.2566 15.1814 49.2502 15.0231C49.2296 14.5349 49.2091 14.0468 49.1879 13.5438C48.0116 13.5438 46.8353 13.5438 45.6234 13.5438Z" fill="#3B5BA6"/>
<path d="M33.7152 36.7622C33.8343 36.8637 33.9534 36.9651 34.0761 37.0697C34.1805 37.1564 34.2849 37.2432 34.3924 37.3325C35.0699 37.9058 35.6536 38.5216 36.2147 39.2083C36.3777 39.4035 36.3777 39.4035 36.5439 39.6027C39.8946 43.7636 41.437 49.0477 40.9319 54.3559C40.3063 60.0439 37.8298 65.076 33.3632 68.722C31.0094 70.5407 28.2553 71.7262 25.3788 72.429C25.2805 72.4542 25.1821 72.4794 25.0808 72.5053C21.9109 73.2846 18.1016 73.1228 14.9706 72.2865C14.8473 72.2536 14.7241 72.2207 14.5971 72.1868C9.50009 70.7667 5.26418 67.5088 2.62868 62.9209C0.00624041 58.2446 -0.882257 52.2487 0.570207 47.0501C1.52411 43.7172 3.25792 40.6623 5.70302 38.2103C5.8234 38.0892 5.94379 37.9681 6.06782 37.8433C6.18269 37.7291 6.29756 37.615 6.41591 37.4974C6.52398 37.3897 6.63205 37.282 6.74339 37.171C14.1038 30.1622 26.0984 30.3712 33.7152 36.7622ZM8.46881 41.528C5.24102 45.2027 4.12994 49.7999 4.41982 54.6068C4.51802 55.4883 4.72297 56.3288 4.99013 57.1732C5.02068 57.271 5.05124 57.3688 5.08272 57.4695C5.73628 59.4973 6.72857 61.2637 8.12685 62.8763C8.21985 62.9899 8.31285 63.1035 8.40866 63.2205C10.4844 65.6695 13.3119 67.3197 16.3964 68.1517C16.6302 68.2195 16.6302 68.2195 16.8687 68.2887C20.178 69.1085 23.8563 68.6902 26.9472 67.2962C27.1931 67.1862 27.1931 67.1862 27.444 67.074C31.0562 65.3665 34.1082 62.1783 35.508 58.4141C35.9444 57.1755 36.3672 55.9184 36.4999 54.6068C36.5186 54.4384 36.5374 54.2701 36.5567 54.0966C36.9159 50.0252 35.7318 45.5732 33.1522 42.368C32.6778 41.8117 32.1735 41.2889 31.6522 40.7767C31.5438 40.6684 31.4354 40.5602 31.3236 40.4487C28.2421 37.5421 23.8517 36.3815 19.7197 36.4643C15.4546 36.6193 11.4186 38.4494 8.46881 41.528Z" fill="#3B5BA6"/>
<path d="M71.5744 45.767C72.2384 46.1171 72.7602 46.4727 73.0002 47.1927C73.1449 49.0703 73.0097 50.9258 72.5724 52.7533C72.5403 52.8949 72.5403 52.8949 72.5075 53.0393C71.8802 55.7251 70.6062 58.3163 68.8654 60.4525C68.7999 60.5337 68.7344 60.6148 68.6669 60.6985C64.6516 65.642 59.5302 67.7707 53.3244 68.5795C53.4042 68.6475 53.4841 68.7155 53.5664 68.7856C53.7223 68.9198 53.7223 68.9198 53.8813 69.0568C53.9847 69.1454 54.0881 69.234 54.1946 69.3252C54.6996 69.7963 54.7385 70.1702 54.8036 70.8429C54.7861 71.5057 54.5599 71.8907 54.1798 72.4291C53.6043 72.9523 52.9796 73.1071 52.214 73.0883C51.6367 72.9762 51.2182 72.7128 50.7351 72.3945C50.637 72.3315 50.5388 72.2684 50.4377 72.2034C50.1154 71.9953 49.795 71.7848 49.4748 71.5736C49.3649 71.5015 49.255 71.4295 49.1418 71.3552C48.4516 70.902 47.7648 70.4438 47.0801 69.9823C46.7252 69.7435 46.3693 69.5064 46.0134 69.2692C45.7851 69.1157 45.557 68.9621 45.3289 68.8084C45.2236 68.7385 45.1183 68.6687 45.0098 68.5968C44.3626 68.1572 43.8443 67.7267 43.4865 67.0111C43.4525 66.7064 43.4525 66.7064 43.4419 66.3428C43.4339 66.1655 43.4339 66.1655 43.4258 65.9846C43.5296 65.3018 43.8191 64.7938 44.3357 64.345C44.6853 64.0908 45.0415 63.8515 45.4035 63.6154C45.6013 63.4829 45.6013 63.4829 45.8032 63.3477C46.2237 63.0668 46.6462 62.7889 47.0688 62.511C47.3496 62.3237 47.6303 62.1363 47.9109 61.9487C51.8065 59.3534 51.8065 59.3534 53.0392 59.4545C53.7256 59.6555 54.1874 59.9334 54.5363 60.5683C54.8065 61.221 54.8803 61.7752 54.651 62.4592C54.3396 63.167 53.9996 63.5061 53.3244 63.8744C56.8849 63.7647 60.1208 62.3911 62.8771 60.1673C62.9883 60.0799 63.0995 59.9924 63.2141 59.9022C66.0548 57.5409 67.9905 53.6724 68.4377 50.0443C68.4554 49.8015 68.472 49.5587 68.4878 49.3158C68.5021 49.1179 68.5021 49.1179 68.5167 48.9159C68.5349 48.6518 68.5498 48.3874 68.5608 48.1228C68.6173 47.3103 68.7825 46.8451 69.3417 46.2469C70.0242 45.6849 70.7207 45.655 71.5744 45.767Z" fill="#3B5BA6"/>
<path d="M22.5841 5.33167C22.7299 5.42546 22.7299 5.42546 22.8786 5.52115C23.1907 5.72278 23.501 5.92687 23.8111 6.13145C23.9144 6.19905 24.0177 6.26665 24.1241 6.3363C24.7575 6.75084 25.3875 7.17008 26.0152 7.59308C26.3374 7.80975 26.6608 8.0246 26.9843 8.23949C27.1926 8.37954 27.4008 8.5197 27.6089 8.65998C27.7041 8.72282 27.7993 8.78567 27.8974 8.85041C28.5724 9.30972 29.1419 9.80677 29.5142 10.5514C29.5722 11.182 29.5926 11.7743 29.3627 12.3692C28.6003 13.2546 27.623 13.8819 26.6537 14.5185C26.5183 14.608 26.3828 14.6976 26.2432 14.7899C25.9583 14.978 25.6731 15.1657 25.3877 15.3531C24.9524 15.6392 24.5181 15.9269 24.084 16.2147C23.8059 16.3979 23.5278 16.5811 23.2497 16.7641C23.1207 16.8497 22.9918 16.9352 22.8589 17.0233C20.9925 18.244 20.9925 18.244 19.8495 18.0662C19.1629 17.8471 18.6978 17.3778 18.3307 16.7713C18.1696 16.0194 18.1285 15.406 18.4911 14.7218C18.807 14.2778 19.1049 14.0152 19.5337 13.6881C15.2203 13.821 11.392 15.8231 8.4572 18.9278C6.11941 21.6474 4.68673 25.0127 4.50065 28.6053C4.38546 30.4946 4.38546 30.4946 3.78943 31.1706C3.1802 31.7058 2.66471 31.8394 1.8624 31.8261C1.21105 31.7582 0.813059 31.4782 0.383711 31.0024C-0.484248 29.7487 -0.0890342 27.4232 0.169843 25.9765C0.246572 25.5849 0.333967 25.197 0.428266 24.8092C0.451976 24.711 0.475685 24.6128 0.500112 24.5116C1.86241 19.065 5.44884 14.5388 10.2305 11.6563C13.2356 10.0194 16.4254 9.24285 19.8189 8.98301C19.7415 8.93118 19.6641 8.87935 19.5844 8.82595C18.9488 8.37927 18.4956 8.03801 18.2505 7.27207C18.1424 6.50277 18.2433 5.93599 18.6783 5.27598C19.9352 4.01907 21.2793 4.46934 22.5841 5.33167Z" fill="#3B5BA6"/>
<path d="M21.2467 40.0644C21.8177 40.3499 22.1961 40.6604 22.5299 41.205C22.695 41.7002 22.6823 42.1119 22.6725 42.6308C22.86 42.6545 22.86 42.6545 23.0512 42.6787C24.2534 42.9174 25.2691 43.6159 25.9518 44.6269C26.2493 45.2219 26.1925 46.006 26.007 46.6336C25.7141 47.2283 25.3137 47.5618 24.7065 47.8204C24.0955 47.9826 23.5612 47.943 22.9577 47.7636C22.7212 47.626 22.4894 47.48 22.2626 47.327C21.4614 46.8013 20.7563 46.773 19.821 46.9081C19.1475 47.1366 18.7563 47.4334 18.3952 48.0488C18.3096 48.4765 18.2766 48.8972 18.2526 49.332C19.2528 49.8302 20.2633 50.1079 21.3448 50.3746C23.4545 50.923 25.4896 51.5491 26.7215 53.4968C27.4099 54.81 27.4458 56.4031 27.1158 57.8326C26.4375 59.7289 25.1756 61.3326 23.3514 62.2169C23.1003 62.3066 23.1003 62.3066 22.6725 62.3066C22.6843 62.4742 22.696 62.6418 22.7082 62.8145C22.7046 63.4813 22.5363 63.9379 22.1022 64.4452C21.5212 64.9555 20.9115 65.1176 20.1457 65.0796C19.3746 64.9275 18.8382 64.5296 18.3952 63.8928C18.234 63.3892 18.2211 62.9747 18.2526 62.4492C18.1765 62.4282 18.1004 62.4072 18.022 62.3857C16.8624 62.0366 15.6353 61.518 14.9733 60.4531C14.708 59.6571 14.697 58.8774 15.0624 58.1183C15.6235 57.4982 16.0781 57.1437 16.9248 57.0846C17.7033 57.1118 18.2607 57.4294 18.9159 57.8282C19.5826 58.2286 20.2045 58.2563 20.9616 58.1718C21.5234 58.017 21.9484 57.809 22.2999 57.3347C22.5848 56.8059 22.7488 56.3583 22.6725 55.748C21.7398 55.2332 20.8132 54.9556 19.7853 54.6876C17.5371 54.076 15.3759 53.4651 14.1178 51.3281C13.4917 50.147 13.505 48.6002 13.7887 47.318C14.2957 45.8247 15.1474 44.4615 16.3991 43.4863C16.7016 43.3393 17.0077 43.1996 17.3169 43.0674C17.9181 42.8129 17.9181 42.8129 18.2571 42.2916C18.2953 42.0449 18.3254 41.7968 18.3467 41.5481C18.4269 40.9806 18.6991 40.7391 19.1081 40.3495C19.775 39.9363 20.487 39.9741 21.2467 40.0644Z" fill="#3B5BA6"/>
</g>
<defs>
<clipPath id="clip0_1322_313">
<rect width="73" height="73" fill="white"/>
</clipPath>
</defs>
</svg>
