<svg width="73" height="73" viewBox="0 0 73 73" fill="none" xmlns="http://www.w3.org/2000/svg">
<g clip-path="url(#clip0_1682_374)">
<path d="M33.6824 -0.134221C33.9082 -0.134895 34.134 -0.135864 34.3598 -0.137115C34.8316 -0.138581 35.3031 -0.136465 35.7749 -0.131785C36.3771 -0.126097 36.9789 -0.129375 37.5811 -0.13535C38.047 -0.138971 38.5127 -0.137802 38.9785 -0.135223C39.2004 -0.134561 39.4224 -0.13536 39.6443 -0.137697C41.585 -0.153657 41.585 -0.153657 42.3279 0.45917C42.6931 0.854439 42.9364 1.21051 43.0653 1.7399C43.1167 1.93964 43.1167 1.93964 43.1691 2.14341C43.1998 2.27951 43.2304 2.4156 43.2619 2.55583C43.2963 2.69137 43.3308 2.82692 43.3663 2.96657C43.5559 3.73301 43.6892 4.48857 43.7698 5.27372C44.0201 5.29991 44.0201 5.29991 44.2755 5.32663C46.9672 5.66635 49.7081 7.03563 52.055 8.32586C52.1732 8.39034 52.2913 8.45483 52.4131 8.52127C52.5684 8.60782 52.5684 8.60782 52.7269 8.69612C53.0807 8.85798 53.3613 8.94911 53.7503 8.98075C54.0975 8.84877 54.0975 8.84877 54.4286 8.62542C54.6153 8.50991 54.6153 8.50991 54.8057 8.39206C54.9338 8.30991 55.0619 8.22775 55.1939 8.14311C55.4495 7.98275 55.7053 7.82271 55.9614 7.66302C56.1304 7.55526 56.1304 7.55526 56.3028 7.44532C56.7463 7.18502 57.1292 7.0995 57.6355 7.08268C57.7392 7.07735 57.8429 7.07202 57.9497 7.06653C59.1256 7.26312 59.9356 8.26009 60.7344 9.0643C60.8693 9.19895 61.0043 9.33354 61.1394 9.46807C61.421 9.74901 61.7018 10.0307 61.982 10.313C62.3399 10.6733 62.6998 11.0317 63.0602 11.3896C63.3389 11.6667 63.6165 11.9449 63.8939 12.2234C64.09 12.4199 64.2871 12.6157 64.4841 12.8114C64.6036 12.9322 64.7231 13.053 64.8462 13.1775C65.0036 13.3355 65.0036 13.3355 65.1642 13.4966C65.7073 14.146 65.9683 14.7663 65.9374 15.604C65.71 16.8189 64.8927 17.905 64.1902 18.8938C63.9716 19.3359 64.0295 19.4908 64.1585 19.9593C64.3093 20.2954 64.3093 20.2954 64.5016 20.6309C64.6069 20.8242 64.6069 20.8242 64.7143 21.0214C64.7897 21.159 64.865 21.2967 64.9427 21.4385C67.7229 26.6465 67.7229 26.6465 67.7229 29.2268C67.8635 29.2453 67.8635 29.2453 68.007 29.2642C68.9356 29.4013 69.8508 29.5898 70.7616 29.815C70.8689 29.8383 70.9761 29.8616 71.0865 29.8855C71.8258 30.0781 72.2991 30.3918 72.7883 30.9777C73.2345 31.8017 73.1405 32.7683 73.1309 33.6824C73.1316 33.9082 73.1325 34.134 73.1338 34.3598C73.1352 34.8316 73.1331 35.3031 73.1285 35.7749C73.1228 36.3771 73.126 36.9789 73.132 37.5811C73.1356 38.047 73.1345 38.5127 73.1319 38.9785C73.1312 39.2004 73.132 39.4224 73.1344 39.6443C73.1503 41.585 73.1503 41.585 72.5375 42.3279C72.1422 42.6931 71.7862 42.9364 71.2568 43.0653C71.1236 43.0996 70.9905 43.1338 70.8533 43.1691C70.7172 43.1998 70.5811 43.2304 70.4408 43.2619C70.2375 43.3136 70.2375 43.3136 70.0301 43.3663C69.2637 43.5559 68.5081 43.6892 67.7229 43.7698C67.7055 43.9367 67.688 44.1036 67.67 44.2755C67.3303 46.9672 65.961 49.7081 64.6708 52.055C64.6063 52.1732 64.5418 52.2913 64.4754 52.4131C64.4177 52.5166 64.36 52.6202 64.3005 52.7269C64.1387 53.0807 64.0476 53.3613 64.0159 53.7503C64.1479 54.0975 64.1479 54.0975 64.3712 54.4286C64.4483 54.5531 64.5253 54.6775 64.6046 54.8057C64.6868 54.9338 64.7689 55.0619 64.8536 55.1939C65.0139 55.4495 65.174 55.7053 65.3336 55.9614C65.4055 56.074 65.4773 56.1867 65.5513 56.3028C65.8116 56.7463 65.8972 57.1292 65.914 57.6355C65.9193 57.7392 65.9246 57.8429 65.9301 57.9497C65.7335 59.1256 64.7366 59.9356 63.9324 60.7344C63.7977 60.8693 63.6631 61.0043 63.5286 61.1394C63.2477 61.421 62.966 61.7018 62.6837 61.982C62.3233 62.3399 61.9649 62.6998 61.6071 63.0602C61.3299 63.3389 61.0518 63.6165 60.7733 63.8939C60.5767 64.09 60.381 64.2871 60.1853 64.4841C60.0645 64.6036 59.9436 64.7231 59.8191 64.8462C59.6612 65.0036 59.6612 65.0036 59.5 65.1642C58.8507 65.7073 58.2304 65.9683 57.3927 65.9374C56.1778 65.71 55.0917 64.8927 54.1028 64.1902C53.6607 63.9716 53.5059 64.0295 53.0374 64.1585C52.7013 64.3093 52.7013 64.3093 52.3657 64.5016C52.1725 64.6069 52.1725 64.6069 51.9753 64.7143C51.8376 64.7897 51.7 64.865 51.5581 64.9427C46.3501 67.7229 46.3501 67.7229 43.7698 67.7229C43.7513 67.8635 43.7513 67.8635 43.7325 68.007C43.5953 68.9356 43.4069 69.8508 43.1817 70.7616C43.1584 70.8689 43.1351 70.9761 43.1111 71.0865C42.9186 71.8258 42.6049 72.2991 42.0189 72.7883C41.195 73.2345 40.2283 73.1405 39.3142 73.1309C39.0885 73.1316 38.8627 73.1325 38.6369 73.1338C38.1651 73.1353 37.6935 73.1331 37.2218 73.1285C36.6196 73.1228 36.0178 73.126 35.4155 73.132C34.9497 73.1356 34.484 73.1345 34.0181 73.1319C33.7962 73.1312 33.5743 73.132 33.3524 73.1344C31.4117 73.1503 31.4117 73.1503 30.6687 72.5375C30.3036 72.1422 30.0603 71.7862 29.9314 71.2568C29.8971 71.1236 29.8628 70.9905 29.8275 70.8533C29.7969 70.7172 29.7663 70.5811 29.7348 70.4408C29.7003 70.3053 29.6659 70.1697 29.6304 70.0301C29.4407 69.2637 29.3075 68.5081 29.2268 67.7229C29.06 67.7055 28.8931 67.688 28.7211 67.67C26.0294 67.3303 23.2886 65.961 20.9416 64.6708C20.8235 64.6063 20.7053 64.5418 20.5836 64.4754C20.4801 64.4177 20.3765 64.36 20.2698 64.3005C19.916 64.1387 19.6353 64.0476 19.2464 64.0159C18.8992 64.1479 18.8992 64.1479 18.568 64.3712C18.4436 64.4483 18.3192 64.5253 18.191 64.6046C18.0629 64.6868 17.9348 64.7689 17.8028 64.8536C17.5472 65.0139 17.2913 65.174 17.0353 65.3336C16.9226 65.4055 16.8099 65.4773 16.6938 65.5513C16.2503 65.8116 15.8674 65.8972 15.3611 65.914C15.2575 65.9193 15.1538 65.9246 15.047 65.9301C13.8711 65.7335 13.0611 64.7366 12.2623 63.9324C12.1273 63.7977 11.9923 63.6631 11.8573 63.5286C11.5757 63.2477 11.2949 62.966 11.0147 62.6837C10.6567 62.3233 10.2969 61.9649 9.93649 61.6071C9.6578 61.3299 9.38015 61.0518 9.10279 60.7733C8.90663 60.5767 8.70961 60.381 8.51258 60.1853C8.39309 60.0645 8.2736 59.9436 8.15049 59.8191C7.99306 59.6612 7.99306 59.6612 7.83245 59.5C7.28937 58.8507 7.02837 58.2304 7.05929 57.3927C7.28662 56.1778 8.10394 55.0917 8.80643 54.1028C9.02504 53.6607 8.96716 53.5059 8.83818 53.0374C8.68736 52.7013 8.68736 52.7013 8.4951 52.3657C8.42489 52.2369 8.35468 52.108 8.28234 51.9753C8.16931 51.7688 8.16931 51.7688 8.054 51.5581C5.27372 46.3501 5.27372 46.3501 5.27372 43.7698C5.17999 43.7575 5.08625 43.7452 4.98968 43.7325C4.06109 43.5953 3.14586 43.4069 2.23503 43.1817C2.12781 43.1584 2.02059 43.1351 1.91012 43.1111C1.17089 42.9186 0.697583 42.6049 0.208337 42.0189C-0.237885 41.195 -0.143849 40.2283 -0.134221 39.3142C-0.134895 39.0885 -0.135864 38.8627 -0.137115 38.6369C-0.138581 38.1651 -0.136465 37.6935 -0.131785 37.2218C-0.126097 36.6196 -0.129375 36.0178 -0.13535 35.4155C-0.138971 34.9497 -0.137802 34.484 -0.135222 34.0181C-0.13456 33.7962 -0.13536 33.5743 -0.137698 33.3524C-0.153657 31.4117 -0.153657 31.4117 0.45917 30.6687C0.854439 30.3036 1.21051 30.0603 1.7399 29.9314C1.93964 29.88 1.93964 29.88 2.14341 29.8275C2.34756 29.7816 2.34756 29.7816 2.55583 29.7348C2.75915 29.6831 2.75915 29.6831 2.96657 29.6304C3.73301 29.4407 4.48857 29.3075 5.27372 29.2268C5.29991 28.9765 5.29991 28.9765 5.32663 28.7211C5.66635 26.0294 7.03563 23.2886 8.32586 20.9416C8.39034 20.8235 8.45483 20.7053 8.52127 20.5836C8.57897 20.4801 8.63667 20.3765 8.69612 20.2698C8.85798 19.916 8.94911 19.6353 8.98075 19.2464C8.84877 18.8992 8.84877 18.8992 8.62542 18.568C8.54841 18.4436 8.47141 18.3192 8.39206 18.191C8.30991 18.0629 8.22775 17.9348 8.14311 17.8028C7.98275 17.5472 7.82271 17.2913 7.66302 17.0353C7.59118 16.9226 7.51934 16.8099 7.44532 16.6938C7.18502 16.2503 7.0995 15.8674 7.08268 15.3611C7.07469 15.2056 7.07469 15.2056 7.06653 15.047C7.26312 13.8711 8.26009 13.0611 9.0643 12.2623C9.19895 12.1273 9.33354 11.9923 9.46807 11.8573C9.74901 11.5757 10.0307 11.2949 10.313 11.0147C10.6733 10.6567 11.0317 10.2969 11.3896 9.93649C11.6667 9.6578 11.9449 9.38014 12.2234 9.10279C12.4199 8.90663 12.6157 8.70961 12.8114 8.51258C12.9926 8.33334 12.9926 8.33334 13.1775 8.15049C13.2828 8.04553 13.3881 7.94058 13.4966 7.83245C14.146 7.28937 14.7663 7.02837 15.604 7.05929C16.8189 7.28662 17.905 8.10394 18.8938 8.80643C19.3359 9.02504 19.4908 8.96716 19.9593 8.83818C20.2954 8.68736 20.2954 8.68736 20.6309 8.4951C20.7598 8.42489 20.8886 8.35468 21.0214 8.28234C21.2279 8.16931 21.2279 8.16931 21.4385 8.054C26.6465 5.27372 26.6465 5.27372 29.2268 5.27372C29.2392 5.17999 29.2515 5.08625 29.2642 4.98968C29.4013 4.06109 29.5898 3.14586 29.815 2.23503C29.8383 2.12781 29.8616 2.02059 29.8855 1.91012C30.0781 1.17089 30.3918 0.697583 30.9777 0.208337C31.8017 -0.237885 32.7683 -0.143849 33.6824 -0.134221ZM33.9319 4.27568C33.6744 5.35646 33.6744 5.35646 33.4202 6.43805C32.9429 8.39328 32.9429 8.39328 32.1425 8.94734C31.4581 9.19224 30.7634 9.35295 30.0556 9.51542C27.1017 10.2291 24.274 11.3124 21.7374 13.0113C20.1744 14.0533 20.1744 14.0533 19.2364 13.9621C18.1236 13.606 17.0996 12.9407 16.1486 12.2717C15.8399 12.0786 15.8399 12.0786 15.5655 12.2058C15.1583 12.4633 14.8511 12.7739 14.5123 13.1166C14.4091 13.2205 14.4091 13.2205 14.3038 13.3264C14.0853 13.5465 13.8677 13.7677 13.6502 13.9888C13.5017 14.1387 13.3532 14.2885 13.2046 14.4383C12.8415 14.8045 12.4792 15.1717 12.1175 15.5393C12.2739 16.0379 12.4317 16.4909 12.7062 16.9362C12.7625 17.0286 12.8188 17.1211 12.8769 17.2163C12.935 17.3099 12.9932 17.4034 13.0531 17.4998C13.6855 18.531 13.9809 19.1542 13.8284 20.387C13.6339 20.8766 13.3584 21.2898 13.0621 21.7237C12.9034 21.9723 12.7458 22.2217 12.5892 22.4717C12.5098 22.5983 12.4304 22.7249 12.3485 22.8553C10.8169 25.3957 9.83822 28.2581 9.24596 31.1542C9.08158 31.8934 8.89869 32.3212 8.26786 32.7913C7.44461 33.2043 6.52042 33.388 5.63017 33.6022C5.18319 33.711 4.7362 33.8198 4.27568 33.9319C4.27568 35.6258 4.27568 37.3196 4.27568 39.0647C5.35646 39.3223 5.35646 39.3223 6.43805 39.5764C8.39328 40.0538 8.39328 40.0538 8.94734 40.8542C9.19224 41.5385 9.35295 42.2333 9.51542 42.9411C10.2291 45.895 11.3124 48.7226 13.0113 51.2592C14.0533 52.8223 14.0533 52.8223 13.9621 53.7603C13.606 54.8731 12.9407 55.8971 12.2717 56.848C12.0786 57.1567 12.0786 57.1567 12.2058 57.4312C12.4633 57.8384 12.7739 58.1456 13.1166 58.4843C13.2205 58.5875 13.2205 58.5875 13.3264 58.6929C13.5465 58.9114 13.7677 59.129 13.9888 59.3465C14.1387 59.4949 14.2885 59.6434 14.4383 59.792C14.8045 60.1552 15.1717 60.5174 15.5393 60.8792C16.0379 60.7227 16.4909 60.565 16.9362 60.2905C17.0286 60.2342 17.1211 60.1778 17.2163 60.1198C17.3099 60.0616 17.4034 60.0035 17.4998 59.9435C18.531 59.3112 19.1542 59.0157 20.387 59.1683C20.8766 59.3627 21.2898 59.6382 21.7237 59.9346C21.9723 60.0933 22.2217 60.2509 22.4717 60.4075C22.5983 60.4869 22.7249 60.5663 22.8553 60.6481C25.3957 62.1797 28.2581 63.1584 31.1542 63.7507C31.8934 63.9151 32.3212 64.098 32.7913 64.7288C33.2043 65.5521 33.388 66.4762 33.6022 67.3665C33.711 67.8135 33.8198 68.2605 33.9319 68.721C35.6258 68.721 37.3196 68.721 39.0647 68.721C39.3223 67.6402 39.3223 67.6402 39.5764 66.5586C40.0538 64.6034 40.0538 64.6034 40.8542 64.0493C41.5385 63.8044 42.2333 63.6437 42.9411 63.4812C45.895 62.7676 48.7226 61.6843 51.2592 59.9854C52.8223 58.9433 52.8223 58.9433 53.7603 59.0346C54.8731 59.3907 55.8971 60.056 56.848 60.7249C57.1567 60.9181 57.1567 60.9181 57.4312 60.7909C57.8384 60.5334 58.1456 60.2227 58.4843 59.88C58.5531 59.8108 58.622 59.7416 58.6929 59.6703C58.9114 59.4501 59.129 59.229 59.3465 59.0079C59.4949 58.858 59.6434 58.7081 59.792 58.5584C60.1552 58.1921 60.5174 57.825 60.8792 57.4573C60.7227 56.9587 60.565 56.5058 60.2905 56.0605C60.2342 55.968 60.1778 55.8756 60.1198 55.7804C60.0616 55.6868 60.0035 55.5933 59.9435 55.4969C59.3112 54.4657 59.0157 53.8425 59.1683 52.6097C59.3627 52.12 59.6382 51.7069 59.9346 51.273C60.0933 51.0243 60.2509 50.775 60.4075 50.525C60.4869 50.3984 60.5663 50.2718 60.6481 50.1413C62.1797 47.601 63.1584 44.7386 63.7507 41.8425C63.9151 41.1032 64.098 40.6755 64.7288 40.2054C65.5521 39.7923 66.4762 39.6087 67.3665 39.3944C67.8135 39.2856 68.2605 39.1768 68.721 39.0647C68.721 37.3709 68.721 35.6771 68.721 33.9319C67.6402 33.6744 67.6402 33.6744 66.5586 33.4202C64.6034 32.9429 64.6034 32.9429 64.0493 32.1425C63.8044 31.4581 63.6437 30.7634 63.4812 30.0556C62.7676 27.1017 61.6843 24.274 59.9854 21.7374C58.9433 20.1744 58.9433 20.1744 59.0346 19.2364C59.3907 18.1236 60.056 17.0996 60.7249 16.1486C60.9181 15.8399 60.9181 15.8399 60.7909 15.5655C60.5334 15.1583 60.2227 14.8511 59.88 14.5123C59.8108 14.4435 59.7416 14.3747 59.6703 14.3038C59.4501 14.0853 59.229 13.8677 59.0079 13.6502C58.858 13.5017 58.7081 13.3532 58.5584 13.2046C58.1921 12.8415 57.825 12.4792 57.4573 12.1175C56.9587 12.2739 56.5058 12.4317 56.0605 12.7062C55.968 12.7625 55.8756 12.8188 55.7804 12.8769C55.64 12.9641 55.64 12.9641 55.4969 13.0531C54.4657 13.6855 53.8425 13.9809 52.6097 13.8284C52.12 13.6339 51.7069 13.3584 51.273 13.0621C51.0243 12.9034 50.775 12.7458 50.525 12.5892C50.3984 12.5098 50.2718 12.4304 50.1413 12.3485C47.601 10.8169 44.7386 9.83822 41.8425 9.24596C41.1032 9.08158 40.6755 8.89869 40.2054 8.26786C39.7923 7.44461 39.6087 6.52042 39.3944 5.63017C39.2856 5.18319 39.1768 4.7362 39.0647 4.27568C37.3709 4.27568 35.6771 4.27568 33.9319 4.27568Z" fill="#3B5BA6"/>
<path d="M35.0371 12.9361C35.1411 12.9347 35.2452 12.9333 35.3524 12.9319C38.5481 12.898 41.448 13.1806 44.4778 14.2532C44.7089 14.3318 44.7089 14.3318 44.9446 14.412C50.565 16.4312 55.0633 20.821 57.7376 26.0872C57.8089 26.2258 57.8802 26.3644 57.9537 26.5072C59.2025 29.0918 60.0209 32.166 60.0528 35.039C60.0542 35.1431 60.0556 35.2472 60.057 35.3544C60.0909 38.5501 59.8083 41.4499 58.7357 44.4798C58.6571 44.7108 58.6571 44.7108 58.5769 44.9465C56.5577 50.567 52.1679 55.0652 46.9017 57.7396C46.7631 57.8109 46.6245 57.8822 46.4817 57.9557C43.8971 59.2045 40.8229 60.0229 37.9499 60.0548C37.8458 60.0562 37.7418 60.0576 37.6345 60.059C34.4388 60.0929 31.539 59.8103 28.5091 58.7376C28.2781 58.659 28.2781 58.659 28.0424 58.5789C22.4219 56.5597 17.9237 52.1699 15.2493 46.9036C15.178 46.7651 15.1067 46.6265 15.0332 46.4837C13.7844 43.8991 12.966 40.8248 12.9341 37.9518C12.9327 37.8478 12.9313 37.7437 12.9299 37.6365C12.896 34.4408 13.1786 31.5409 14.2513 28.5111C14.3299 28.28 14.3299 28.28 14.41 28.0443C16.4292 22.4239 20.819 17.9256 26.0853 15.2513C26.2239 15.18 26.3624 15.1087 26.5052 15.0352C29.0898 13.7864 32.1641 12.968 35.0371 12.9361ZM21.9211 23.94C21.2243 24.7402 20.6428 25.6069 20.097 26.515C20.0108 26.6574 20.0108 26.6574 19.9229 26.8026C18.9606 28.4237 18.3305 30.1237 17.8157 31.9329C17.7641 32.1101 17.7124 32.2873 17.6592 32.4698C16.5448 37.1764 17.6279 42.3618 20.0587 46.4688C21.6838 49.0948 23.867 51.3016 26.513 52.8919C26.6079 52.9494 26.7029 53.0068 26.8007 53.066C28.4217 54.0283 30.1217 54.6584 31.931 55.1732C32.1082 55.2248 32.2853 55.2765 32.4679 55.3297C37.1745 56.4441 42.3599 55.361 46.4668 52.9302C49.0928 51.3051 51.2997 49.1219 52.89 46.4759C52.9474 46.381 53.0049 46.286 53.0641 46.1882C54.0263 44.5672 54.6564 42.8672 55.1712 41.0579C55.2229 40.8808 55.2745 40.7036 55.3277 40.521C56.4422 35.8144 55.359 30.629 52.9282 26.5221C51.3031 23.8961 49.1199 21.6892 46.4739 20.0989C46.3316 20.0128 46.3316 20.0128 46.1863 19.9248C44.5652 18.9626 42.8653 18.3325 41.056 17.8177C40.8788 17.766 40.7016 17.7144 40.5191 17.6612C33.6715 16.0398 26.5514 18.8828 21.9211 23.94Z" fill="#3B5BA6"/>
<path d="M32.1158 21.4845C32.2364 21.4853 32.357 21.4861 32.4813 21.4869C33.8639 21.5138 34.8194 21.791 35.9147 22.6541C36.2103 22.8429 36.2103 22.8429 36.5658 22.7916C37.0864 22.6162 37.5001 22.3264 37.9553 22.0242C39.3316 21.2985 41.1733 21.336 42.6727 21.617C44.449 22.1963 45.814 23.4845 46.6676 25.1202C46.7536 25.2987 46.8334 25.4803 46.9082 25.6638C46.9852 25.8504 46.9852 25.8504 47.0636 26.0408C47.2319 26.6612 47.235 27.2342 47.229 27.8738C47.2301 27.9919 47.2313 28.1101 47.2324 28.2319C47.2302 28.9057 47.1672 29.4506 46.9082 30.0837C47.0031 30.0807 47.098 30.0777 47.1957 30.0747C47.6286 30.0628 48.0614 30.0554 48.4944 30.0481C48.6437 30.0433 48.7929 30.0385 48.9467 30.0336C49.8095 30.0227 50.3827 30.0338 51.043 30.654C51.6214 31.3987 51.5811 32.173 51.4707 33.0779C51.1618 33.7302 50.8421 34.0675 50.1875 34.3611C49.6725 34.4127 49.1629 34.4013 48.6459 34.3878C48.5063 34.3859 48.3667 34.3839 48.2229 34.3819C47.8797 34.3769 47.5366 34.3699 47.1934 34.3611C47.1947 34.5038 47.1959 34.6466 47.1972 34.7937C47.2088 36.1405 47.2174 37.4873 47.223 38.8341C47.2259 39.5265 47.23 40.2188 47.2364 40.9112C47.2426 41.5795 47.246 42.2479 47.2475 42.9163C47.2486 43.1711 47.2506 43.4259 47.2537 43.6806C47.2579 44.038 47.2584 44.3952 47.2581 44.7526C47.2612 44.91 47.2612 44.91 47.2644 45.0705C47.2586 45.799 47.094 46.2128 46.6231 46.7654C46.105 47.1364 45.7498 47.2468 45.1157 47.2484C44.9576 47.2498 44.7995 47.2512 44.6366 47.2526C44.4646 47.252 44.2925 47.2514 44.1152 47.2507C43.9329 47.2517 43.7506 47.2527 43.5628 47.2537C43.0638 47.2562 42.5648 47.2561 42.0657 47.2552C41.6487 47.2548 41.2317 47.2557 40.8146 47.2565C39.8306 47.2585 38.8466 47.2583 37.8625 47.2567C36.8483 47.255 35.8341 47.2571 34.8198 47.2609C33.9481 47.264 33.0764 47.265 32.2047 47.2641C31.6844 47.2637 31.1642 47.264 30.644 47.2665C30.0637 47.2691 29.4836 47.2671 28.9033 47.2646C28.6457 47.2667 28.6457 47.2667 28.3828 47.2688C27.51 47.2611 26.8981 47.2556 26.2344 46.6228C25.7564 46.0426 25.7476 45.4922 25.7581 44.7688C25.758 44.5997 25.758 44.5997 25.7579 44.4272C25.7582 44.0561 25.7616 43.685 25.7649 43.314C25.7657 43.0561 25.7663 42.7981 25.7667 42.5402C25.7684 41.8626 25.7726 41.185 25.7773 40.5073C25.7817 39.8154 25.7836 39.1234 25.7858 38.4315C25.7904 37.0747 25.7977 35.7179 25.8067 34.3611C25.6774 34.3655 25.6774 34.3655 25.5454 34.3701C25.1513 34.382 24.7573 34.3894 24.3631 34.3967C24.2274 34.4015 24.0918 34.4063 23.9521 34.4112C23.0924 34.4231 22.6113 34.3636 21.9571 33.7907C21.3787 33.0461 21.419 32.2718 21.5293 31.3669C21.841 30.7089 22.1709 30.4083 22.8125 30.0837C23.1945 30.0352 23.1945 30.0352 23.5995 30.0419C23.7452 30.0433 23.8908 30.0447 24.0409 30.0461C24.2665 30.0515 24.2665 30.0515 24.4967 30.057C24.7265 30.0599 24.7265 30.0599 24.961 30.0628C25.338 30.0679 25.7149 30.0749 26.0918 30.0837C26.0459 29.9696 25.9999 29.8554 25.9526 29.7379C25.5635 28.3791 25.6062 26.6001 26.1793 25.3051C27.0743 23.7017 28.2273 22.5138 29.9414 21.8142C30.0666 21.7631 30.1918 21.712 30.3207 21.6594C30.9285 21.493 31.4885 21.4801 32.1158 21.4845ZM30.387 26.8222C30.1123 27.5243 30.0674 28.245 30.3419 28.957C30.7096 29.5563 31.1494 29.8368 31.82 30.0236C32.6622 30.1494 33.5128 30.1139 34.3614 30.0837C34.4973 28.1402 34.4973 28.1402 33.7331 26.4263C33.155 25.934 32.5934 25.848 31.8473 25.8888C31.1915 26.0057 30.8161 26.3359 30.387 26.8222ZM39.0664 26.6618C38.4514 27.6789 38.5981 28.9422 38.6387 30.0837C40.4067 30.1873 40.4067 30.1873 42.0606 29.656C42.7152 28.985 42.8241 28.5055 42.8136 27.5947C42.7388 26.9185 42.3935 26.5446 41.9002 26.1094C40.8719 25.707 39.8059 25.7929 39.0664 26.6618ZM30.084 34.3611C30.084 37.1841 30.084 40.0072 30.084 42.9157C31.4956 42.9157 32.9071 42.9157 34.3614 42.9157C34.3614 40.0927 34.3614 37.2697 34.3614 34.3611C32.9498 34.3611 31.5383 34.3611 30.084 34.3611ZM38.6387 34.3611C38.6387 37.1841 38.6387 40.0072 38.6387 42.9157C40.0502 42.9157 41.4618 42.9157 42.9161 42.9157C42.9161 40.0927 42.9161 37.2697 42.9161 34.3611C41.5045 34.3611 40.093 34.3611 38.6387 34.3611Z" fill="#3B5BA6"/>
</g>
<defs>
<clipPath id="clip0_1682_374">
<rect width="73" height="73" fill="white"/>
</clipPath>
</defs>
</svg>
