<svg width="73" height="73" viewBox="0 0 73 73" fill="none" xmlns="http://www.w3.org/2000/svg">
<g clip-path="url(#clip0_1322_359)">
<path d="M33.6829 -0.133733C33.9087 -0.134406 34.1345 -0.135376 34.3603 -0.136626C34.832 -0.138093 35.3036 -0.135977 35.7753 -0.131296C36.3776 -0.125609 36.9794 -0.128886 37.5816 -0.134862C38.0475 -0.138483 38.5132 -0.137314 38.979 -0.134734C39.2009 -0.134072 39.4228 -0.134872 39.6447 -0.137209C41.5854 -0.153169 41.5854 -0.153169 42.3284 0.459658C42.6935 0.854927 42.9369 1.211 43.0658 1.74039C43.1172 1.94013 43.1172 1.94013 43.1696 2.1439C43.2002 2.28 43.2308 2.41609 43.2624 2.55632C43.2968 2.69186 43.3313 2.82741 43.3668 2.96706C43.5564 3.7335 43.6897 4.48906 43.7703 5.27421C44.0206 5.3004 44.0206 5.3004 44.276 5.32712C46.9677 5.66683 49.7086 7.03612 52.0555 8.32634C52.1737 8.39083 52.2918 8.45532 52.4135 8.52176C52.5689 8.60831 52.5689 8.60831 52.7273 8.69661C53.0812 8.85846 53.3618 8.9496 53.7508 8.98124C54.0979 8.84925 54.0979 8.84925 54.4291 8.62591C54.6158 8.5104 54.6158 8.5104 54.8062 8.39255C54.9343 8.3104 55.0624 8.22824 55.1944 8.1436C55.45 7.98324 55.7058 7.8232 55.9618 7.66351C56.1309 7.55575 56.1309 7.55575 56.3033 7.44581C56.7468 7.18551 57.1297 7.09999 57.636 7.08317C57.7397 7.07784 57.8433 7.07251 57.9501 7.06702C59.1261 7.26361 59.9361 8.26057 60.7349 9.06478C60.8698 9.19944 61.0048 9.33403 61.1399 9.46856C61.4215 9.7495 61.7022 10.0312 61.9825 10.3135C62.3404 10.6738 62.7002 11.0322 63.0607 11.3901C63.3394 11.6672 63.617 11.9454 63.8944 12.2238C64.0905 12.4204 64.2875 12.6162 64.4846 12.8119C64.6041 12.9327 64.7235 13.0535 64.8467 13.178C65.0041 13.336 65.0041 13.336 65.1647 13.4971C65.7078 14.1465 65.9688 14.7668 65.9379 15.6044C65.7105 16.8193 64.8932 17.9055 64.1907 18.8943C63.9721 19.3364 64.03 19.4913 64.159 19.9598C64.3098 20.2959 64.3098 20.2959 64.5021 20.6314C64.6074 20.8247 64.6074 20.8247 64.7148 21.0219C64.7902 21.1595 64.8655 21.2972 64.9432 21.439C67.7234 26.647 67.7234 26.647 67.7234 29.2273C67.864 29.2458 67.864 29.2458 68.0075 29.2647C68.9361 29.4018 69.8513 29.5902 70.7621 29.8155C70.8693 29.8388 70.9766 29.862 71.087 29.886C71.8263 30.0786 72.2996 30.3923 72.7888 30.9782C73.235 31.8022 73.141 32.7688 73.1314 33.6829C73.132 33.9087 73.133 34.1345 73.1343 34.3603C73.1357 34.832 73.1336 35.3036 73.1289 35.7753C73.1233 36.3776 73.1265 36.9794 73.1325 37.5816C73.1361 38.0475 73.135 38.5132 73.1324 38.979C73.1317 39.2009 73.1325 39.4228 73.1348 39.6447C73.1508 41.5854 73.1508 41.5854 72.538 42.3284C72.1427 42.6935 71.7866 42.9369 71.2572 43.0658C71.1241 43.1 70.9909 43.1343 70.8537 43.1696C70.7176 43.2002 70.5815 43.2308 70.4413 43.2624C70.238 43.3141 70.238 43.3141 70.0306 43.3668C69.2641 43.5564 68.5086 43.6897 67.7234 43.7703C67.706 43.9372 67.6885 44.1041 67.6705 44.276C67.3308 46.9677 65.9615 49.7086 64.6713 52.0555C64.6068 52.1737 64.5423 52.2918 64.4759 52.4135C64.4182 52.5171 64.3605 52.6207 64.301 52.7273C64.1392 53.0812 64.048 53.3618 64.0164 53.7508C64.1484 54.0979 64.1484 54.0979 64.3717 54.4291C64.4487 54.5536 64.5257 54.678 64.6051 54.8062C64.6872 54.9343 64.7694 55.0624 64.854 55.1944C65.0144 55.45 65.1744 55.7058 65.3341 55.9618C65.406 56.0745 65.4778 56.1872 65.5518 56.3033C65.8121 56.7468 65.8977 57.1297 65.9145 57.636C65.9198 57.7397 65.9251 57.8433 65.9306 57.9501C65.734 59.1261 64.7371 59.9361 63.9329 60.7349C63.7982 60.8698 63.6636 61.0048 63.5291 61.1399C63.2481 61.4215 62.9664 61.7022 62.6842 61.9825C62.3238 62.3404 61.9654 62.7002 61.6075 63.0607C61.3304 63.3394 61.0523 63.617 60.7738 63.8944C60.5772 64.0905 60.3815 64.2875 60.1858 64.4846C60.0649 64.6041 59.9441 64.7235 59.8196 64.8467C59.6617 65.0041 59.6617 65.0041 59.5005 65.1647C58.8511 65.7078 58.2309 65.9688 57.3932 65.9379C56.1783 65.7105 55.0922 64.8932 54.1033 64.1907C53.6612 63.9721 53.5064 64.03 53.0379 64.159C52.7018 64.3098 52.7018 64.3098 52.3662 64.5021C52.1729 64.6074 52.1729 64.6074 51.9758 64.7148C51.8381 64.7902 51.7005 64.8655 51.5586 64.9432C46.3506 67.7234 46.3506 67.7234 43.7703 67.7234C43.7518 67.864 43.7518 67.864 43.733 68.0075C43.5958 68.9361 43.4074 69.8513 43.1822 70.7621C43.1589 70.8693 43.1356 70.9766 43.1116 71.087C42.9191 71.8263 42.6054 72.2996 42.0194 72.7888C41.1955 73.235 40.2288 73.141 39.3147 73.1314C39.0889 73.132 38.8631 73.133 38.6374 73.1343C38.1656 73.1357 37.694 73.1336 37.2223 73.1289C36.62 73.1233 36.0182 73.1265 35.416 73.1325C34.9502 73.1361 34.4845 73.135 34.0186 73.1324C33.7967 73.1317 33.5748 73.1325 33.3529 73.1348C31.4122 73.1508 31.4122 73.1508 30.6692 72.538C30.3041 72.1427 30.0608 71.7866 29.9319 71.2572C29.8976 71.1241 29.8633 70.9909 29.828 70.8537C29.7974 70.7176 29.7668 70.5815 29.7353 70.4413C29.7008 70.3058 29.6663 70.1702 29.6308 70.0306C29.4412 69.2641 29.308 68.5086 29.2273 67.7234C29.0605 67.706 28.8936 67.6885 28.7216 67.6705C26.0299 67.3308 23.2891 65.9615 20.9421 64.6713C20.824 64.6068 20.7058 64.5423 20.5841 64.4759C20.4805 64.4182 20.377 64.3605 20.2703 64.301C19.9165 64.1392 19.6358 64.048 19.2469 64.0164C18.8997 64.1484 18.8997 64.1484 18.5685 64.3717C18.4441 64.4487 18.3197 64.5257 18.1915 64.6051C18.0634 64.6872 17.9352 64.7694 17.8033 64.854C17.5476 65.0144 17.2918 65.1744 17.0358 65.3341C16.9231 65.406 16.8104 65.4778 16.6943 65.5518C16.2508 65.8121 15.8679 65.8977 15.3616 65.9145C15.258 65.9198 15.1543 65.9251 15.0475 65.9306C13.8716 65.734 13.0616 64.7371 12.2628 63.9329C12.1278 63.7982 11.9928 63.6636 11.8578 63.5291C11.5762 63.2481 11.2954 62.9664 11.0151 62.6842C10.6572 62.3238 10.2974 61.9654 9.93697 61.6075C9.65829 61.3304 9.38063 61.0523 9.10327 60.7738C8.90711 60.5772 8.7101 60.3815 8.51307 60.1858C8.39358 60.0649 8.27409 59.9441 8.15098 59.8196C7.99354 59.6617 7.99354 59.6617 7.83293 59.5005C7.28986 58.8511 7.02886 58.2309 7.05978 57.3932C7.28711 56.1783 8.10443 55.0922 8.80692 54.1033C9.02553 53.6612 8.96765 53.5064 8.83866 53.0379C8.68785 52.7018 8.68785 52.7018 8.49559 52.3662C8.42538 52.2374 8.35517 52.1085 8.28283 51.9758C8.1698 51.7693 8.1698 51.7693 8.05448 51.5586C5.27421 46.3506 5.27421 46.3506 5.27421 43.7703C5.18048 43.758 5.08674 43.7457 4.99017 43.733C4.06157 43.5958 3.14635 43.4074 2.23551 43.1822C2.12829 43.1589 2.02108 43.1356 1.91061 43.1116C1.17138 42.9191 0.698071 42.6054 0.208826 42.0194C-0.237397 41.1955 -0.143361 40.2288 -0.133733 39.3147C-0.134406 39.0889 -0.135376 38.8631 -0.136626 38.6374C-0.138093 38.1656 -0.135977 37.694 -0.131296 37.2223C-0.125609 36.62 -0.128887 36.0182 -0.134862 35.416C-0.138483 34.9502 -0.137314 34.4845 -0.134734 34.0186C-0.134072 33.7967 -0.134872 33.5748 -0.137209 33.3529C-0.153169 31.4122 -0.153169 31.4122 0.459658 30.6692C0.854927 30.3041 1.211 30.0608 1.74039 29.9319C1.94013 29.8805 1.94013 29.8805 2.1439 29.828C2.34804 29.7821 2.34804 29.7821 2.55632 29.7353C2.75964 29.6836 2.75964 29.6836 2.96706 29.6308C3.7335 29.4412 4.48906 29.308 5.27421 29.2273C5.3004 28.977 5.3004 28.977 5.32712 28.7216C5.66683 26.0299 7.03612 23.2891 8.32634 20.9421C8.39083 20.824 8.45532 20.7058 8.52176 20.5841C8.57946 20.4805 8.63716 20.377 8.69661 20.2703C8.85846 19.9165 8.9496 19.6358 8.98124 19.2469C8.84925 18.8997 8.84925 18.8997 8.62591 18.5685C8.5489 18.4441 8.47189 18.3197 8.39255 18.1915C8.3104 18.0634 8.22824 17.9352 8.1436 17.8033C7.98324 17.5476 7.8232 17.2918 7.66351 17.0358C7.59167 16.9231 7.51983 16.8104 7.44581 16.6943C7.18551 16.2508 7.09999 15.8679 7.08317 15.3616C7.07518 15.2061 7.07518 15.2061 7.06702 15.0475C7.26361 13.8716 8.26057 13.0616 9.06478 12.2628C9.19944 12.1278 9.33403 11.9928 9.46856 11.8578C9.7495 11.5762 10.0312 11.2954 10.3135 11.0151C10.6738 10.6572 11.0322 10.2974 11.3901 9.93698C11.6672 9.65829 11.9454 9.38063 12.2238 9.10327C12.4204 8.90711 12.6162 8.7101 12.8119 8.51307C12.9931 8.33383 12.9931 8.33383 13.178 8.15098C13.2833 8.04602 13.3886 7.94107 13.4971 7.83293C14.1465 7.28986 14.7668 7.02886 15.6044 7.05978C16.8193 7.28711 17.9055 8.10443 18.8943 8.80692C19.3364 9.02553 19.4913 8.96765 19.9598 8.83866C20.2959 8.68785 20.2959 8.68785 20.6314 8.49559C20.7603 8.42538 20.8891 8.35517 21.0219 8.28283C21.2283 8.1698 21.2283 8.1698 21.439 8.05448C26.647 5.27421 26.647 5.27421 29.2273 5.27421C29.2397 5.18048 29.252 5.08674 29.2647 4.99017C29.4018 4.06157 29.5902 3.14635 29.8155 2.23551C29.8388 2.12829 29.862 2.02108 29.886 1.91061C30.0786 1.17138 30.3923 0.698071 30.9782 0.208826C31.8022 -0.237397 32.7688 -0.143361 33.6829 -0.133733ZM33.9324 4.27616C33.6748 5.35695 33.6748 5.35695 33.4207 6.43854C32.9434 8.39376 32.9434 8.39376 32.1429 8.94783C31.4586 9.19273 30.7638 9.35344 30.0561 9.51591C27.1022 10.2296 24.2745 11.3129 21.7379 13.0118C20.1749 14.0538 20.1749 14.0538 19.2368 13.9626C18.124 13.6065 17.1001 12.9412 16.1491 12.2722C15.8404 12.0791 15.8404 12.0791 15.5659 12.2063C15.1587 12.4638 14.8516 12.7744 14.5128 13.1171C14.4096 13.221 14.4096 13.221 14.3043 13.3269C14.0857 13.547 13.8682 13.7681 13.6507 13.9893C13.5022 14.1392 13.3537 14.289 13.2051 14.4388C12.842 14.805 12.4797 15.1722 12.118 15.5398C12.2744 16.0384 12.4321 16.4914 12.7067 16.9367C12.763 17.0291 12.8193 17.1216 12.8774 17.2168C12.9355 17.3104 12.9937 17.4039 13.0536 17.5003C13.686 18.5314 13.9814 19.1547 13.8289 20.3875C13.6344 20.8771 13.3589 21.2903 13.0625 21.7242C12.9039 21.9728 12.7463 22.2222 12.5897 22.4721C12.5103 22.5987 12.4309 22.7254 12.349 22.8558C10.8174 25.3962 9.83871 28.2585 9.24645 31.1547C9.08207 31.8939 8.89918 32.3217 8.26835 32.7918C7.4451 33.2048 6.52091 33.3885 5.63066 33.6027C5.18367 33.7115 4.73669 33.8203 4.27616 33.9324C4.27616 35.6262 4.27616 37.3201 4.27616 39.0652C5.35695 39.3228 5.35695 39.3228 6.43854 39.5769C8.39376 40.0542 8.39376 40.0542 8.94783 40.8547C9.19273 41.539 9.35344 42.2338 9.51591 42.9416C10.2296 45.8955 11.3129 48.7231 13.0118 51.2597C14.0538 52.8228 14.0538 52.8228 13.9626 53.7608C13.6065 54.8736 12.9412 55.8975 12.2722 56.8485C12.0791 57.1572 12.0791 57.1572 12.2063 57.4317C12.4638 57.8389 12.7744 58.146 13.1171 58.4848C13.221 58.588 13.221 58.588 13.3269 58.6933C13.547 58.9119 13.7681 59.1294 13.9893 59.347C14.1392 59.4954 14.289 59.6439 14.4388 59.7925C14.805 60.1557 15.1722 60.5179 15.5398 60.8797C16.0384 60.7232 16.4914 60.5655 16.9367 60.291C17.0291 60.2347 17.1216 60.1783 17.2168 60.1203C17.3104 60.0621 17.4039 60.0039 17.5003 59.944C18.5314 59.3117 19.1547 59.0162 20.3875 59.1687C20.8771 59.3632 21.2903 59.6387 21.7242 59.9351C21.9728 60.0938 22.2222 60.2514 22.4721 60.4079C22.5987 60.4874 22.7254 60.5668 22.8558 60.6486C25.3962 62.1802 28.2585 63.1589 31.1547 63.7512C31.8939 63.9156 32.3217 64.0985 32.7918 64.7293C33.2048 65.5525 33.3885 66.4767 33.6027 67.367C33.7115 67.814 33.8203 68.2609 33.9324 68.7215C35.6262 68.7215 37.3201 68.7215 39.0652 68.7215C39.3228 67.6407 39.3228 67.6407 39.5769 66.5591C40.0542 64.6039 40.0542 64.6039 40.8547 64.0498C41.539 63.8049 42.2338 63.6442 42.9416 63.4817C45.8955 62.768 48.7231 61.6848 51.2597 59.9858C52.8228 58.9438 52.8228 58.9438 53.7608 59.0351C54.8736 59.3912 55.8975 60.0565 56.8485 60.7254C57.1572 60.9186 57.1572 60.9186 57.4317 60.7914C57.8389 60.5338 58.146 60.2232 58.4848 59.8805C58.5536 59.8113 58.6224 59.7421 58.6933 59.6708C58.9119 59.4506 59.1294 59.2295 59.347 59.0083C59.4954 58.8585 59.6439 58.7086 59.7925 58.5589C60.1557 58.1926 60.5179 57.8254 60.8797 57.4578C60.7232 56.9592 60.5655 56.5062 60.291 56.061C60.2347 55.9685 60.1783 55.8761 60.1203 55.7808C60.0621 55.6873 60.0039 55.5937 59.944 55.4974C59.3117 54.4662 59.0162 53.843 59.1687 52.6101C59.3632 52.1205 59.6387 51.7073 59.9351 51.2735C60.0938 51.0248 60.2514 50.7755 60.4079 50.5255C60.4874 50.3989 60.5668 50.2723 60.6486 50.1418C62.1802 47.6015 63.1589 44.7391 63.7512 41.843C63.9156 41.1037 64.0985 40.6759 64.7293 40.2058C65.5525 39.7928 66.4767 39.6092 67.367 39.3949C67.814 39.2861 68.2609 39.1773 68.7215 39.0652C68.7215 37.3714 68.7215 35.6776 68.7215 33.9324C67.6407 33.6748 67.6407 33.6748 66.5591 33.4207C64.6039 32.9434 64.6039 32.9434 64.0498 32.1429C63.8049 31.4586 63.6442 30.7638 63.4817 30.0561C62.768 27.1022 61.6848 24.2745 59.9858 21.7379C58.9438 20.1749 58.9438 20.1749 59.0351 19.2368C59.3912 18.124 60.0565 17.1001 60.7254 16.1491C60.9186 15.8404 60.9186 15.8404 60.7914 15.5659C60.5338 15.1587 60.2232 14.8516 59.8805 14.5128C59.8113 14.444 59.7421 14.3752 59.6708 14.3043C59.4506 14.0857 59.2295 13.8682 59.0083 13.6507C58.8585 13.5022 58.7086 13.3537 58.5589 13.2051C58.1926 12.842 57.8254 12.4797 57.4578 12.118C56.9592 12.2744 56.5062 12.4321 56.061 12.7067C55.9685 12.763 55.8761 12.8193 55.7808 12.8774C55.6405 12.9646 55.6405 12.9646 55.4974 13.0536C54.4662 13.686 53.843 13.9814 52.6101 13.8289C52.1205 13.6344 51.7073 13.3589 51.2735 13.0625C51.0248 12.9039 50.7755 12.7463 50.5255 12.5897C50.3989 12.5103 50.2723 12.4309 50.1418 12.349C47.6015 10.8174 44.7391 9.83871 41.843 9.24645C41.1037 9.08207 40.6759 8.89918 40.2058 8.26835C39.7928 7.4451 39.6092 6.52091 39.3949 5.63066C39.2861 5.18367 39.1773 4.73669 39.0652 4.27616C37.3714 4.27616 35.6776 4.27616 33.9324 4.27616Z" fill="#3B5BA6"/>
<path d="M35.0437 12.9407C35.1477 12.9393 35.2518 12.9379 35.359 12.9365C38.5547 12.9026 41.4545 13.1852 44.4844 14.2579C44.7155 14.3364 44.7155 14.3364 44.9512 14.4166C50.5716 16.4358 55.0699 20.8256 57.7442 26.0919C57.8155 26.2304 57.8868 26.369 57.9603 26.5118C59.2091 29.0964 60.0275 32.1707 60.0594 35.0437C60.0608 35.1477 60.0622 35.2518 60.0636 35.359C60.0975 38.5547 59.8149 41.4545 58.7423 44.4844C58.6637 44.7155 58.6637 44.7155 58.5835 44.9512C56.5643 50.5716 52.1745 55.0699 46.9083 57.7442C46.7697 57.8155 46.6311 57.8868 46.4883 57.9603C43.9037 59.2091 40.8294 60.0275 37.9565 60.0594C37.8524 60.0608 37.7483 60.0622 37.6411 60.0636C34.4454 60.0975 31.5456 59.8149 28.5157 58.7423C28.2847 58.6637 28.2847 58.6637 28.049 58.5835C22.4285 56.5643 17.9303 52.1745 15.2559 46.9083C15.1846 46.7697 15.1133 46.6311 15.0398 46.4883C13.791 43.9037 12.9726 40.8294 12.9407 37.9565C12.9393 37.8524 12.9379 37.7483 12.9365 37.6411C12.9026 34.4454 13.1852 31.5456 14.2579 28.5157C14.3364 28.2847 14.3364 28.2847 14.4166 28.049C16.4358 22.4285 20.8256 17.9303 26.0919 15.2559C26.2304 15.1846 26.369 15.1133 26.5118 15.0398C29.0964 13.791 32.1707 12.9726 35.0437 12.9407ZM21.9277 23.9446C21.2309 24.7448 20.6493 25.6115 20.1036 26.5196C20.0174 26.662 20.0174 26.662 19.9295 26.8073C18.9672 28.4283 18.3371 30.1283 17.8223 31.9376C17.7707 32.1147 17.719 32.2919 17.6658 32.4745C16.5514 37.1811 17.6345 42.3665 20.0653 46.4734C21.6904 49.0994 23.8736 51.3063 26.5196 52.8965C26.6145 52.954 26.7095 53.0115 26.8073 53.0707C28.4283 54.0329 30.1283 54.663 31.9376 55.1778C32.1147 55.2294 32.2919 55.2811 32.4745 55.3343C37.1811 56.4487 42.3665 55.3656 46.4734 52.9348C49.0994 51.3097 51.3063 49.1265 52.8965 46.4805C52.954 46.3856 53.0115 46.2907 53.0707 46.1929C54.0329 44.5718 54.663 42.8718 55.1778 41.0626C55.2294 40.8854 55.2811 40.7082 55.3343 40.5257C56.4487 35.8191 55.3656 30.6336 52.9348 26.5267C51.3097 23.9007 49.1265 21.6938 46.4805 20.1036C46.3381 20.0174 46.3381 20.0174 46.1929 19.9295C44.5718 18.9672 42.8718 18.3371 41.0626 17.8223C40.8854 17.7707 40.7082 17.719 40.5257 17.6658C33.678 16.0444 26.558 18.8875 21.9277 23.9446Z" fill="#3B5BA6"/>
<path d="M32.1141 21.4842C32.2347 21.485 32.3553 21.4858 32.4796 21.4867C33.8622 21.5135 34.8177 21.7907 35.913 22.6538C36.2085 22.8426 36.2085 22.8426 36.5641 22.7914C37.0847 22.616 37.4983 22.3262 37.9536 22.0239C39.3299 21.2983 41.1716 21.3358 42.671 21.6168C44.4473 22.1961 45.8123 23.4843 46.6659 25.12C46.7519 25.2985 46.8317 25.4801 46.9065 25.6636C46.9835 25.8502 46.9835 25.8502 47.0619 26.0406C47.2302 26.661 47.2333 27.234 47.2273 27.8735C47.2284 27.9917 47.2295 28.1099 47.2307 28.2316C47.2285 28.9054 47.1655 29.4504 46.9065 30.0835C47.0014 30.0805 47.0963 30.0775 47.194 30.0744C47.6269 30.0625 48.0597 30.0551 48.4927 30.0478C48.642 30.043 48.7912 30.0383 48.945 30.0333C49.8078 30.0224 50.381 30.0336 51.0413 30.6538C51.6196 31.3984 51.5794 32.1727 51.469 33.0776C51.16 33.7299 50.8404 34.0673 50.1858 34.3608C49.6708 34.4125 49.1611 34.4011 48.6442 34.3875C48.5046 34.3856 48.365 34.3837 48.2212 34.3817C47.878 34.3767 47.5349 34.3697 47.1917 34.3608C47.193 34.5036 47.1942 34.6464 47.1955 34.7935C47.2071 36.1403 47.2156 37.487 47.2212 38.8338C47.2242 39.5262 47.2282 40.2186 47.2347 40.9109C47.2409 41.5793 47.2443 42.2477 47.2458 42.9161C47.2469 43.1709 47.2489 43.4256 47.252 43.6804C47.2561 44.0378 47.2567 44.395 47.2564 44.7524C47.2595 44.9098 47.2595 44.9098 47.2626 45.0703C47.2568 45.7988 47.0923 46.2125 46.6214 46.7651C46.1033 47.1362 45.7481 47.2465 45.114 47.2481C44.9559 47.2495 44.7978 47.2509 44.6349 47.2524C44.4629 47.2518 44.2908 47.2511 44.1135 47.2505C43.9312 47.2514 43.7489 47.2524 43.5611 47.2534C43.062 47.256 42.563 47.2558 42.064 47.255C41.647 47.2546 41.23 47.2554 40.8129 47.2563C39.8289 47.2583 38.8448 47.2581 37.8608 47.2564C36.8465 47.2548 35.8323 47.2568 34.8181 47.2606C33.9464 47.2638 33.0747 47.2647 32.203 47.2639C31.6827 47.2634 31.1625 47.2638 30.6423 47.2662C30.062 47.2688 29.4819 47.2668 28.9016 47.2644C28.6439 47.2664 28.6439 47.2664 28.3811 47.2686C27.5083 47.2608 26.8964 47.2553 26.2327 46.6225C25.7546 46.0423 25.7459 45.492 25.7564 44.7686C25.7563 44.5994 25.7563 44.5994 25.7562 44.4269C25.7565 44.0558 25.7598 43.6848 25.7632 43.3137C25.764 43.0558 25.7646 42.7979 25.765 42.54C25.7667 41.8623 25.7709 41.1847 25.7756 40.5071C25.78 39.8152 25.7819 39.1232 25.7841 38.4313C25.7887 37.0744 25.796 35.7176 25.805 34.3608C25.6756 34.3653 25.6756 34.3653 25.5437 34.3699C25.1496 34.3818 24.7556 34.3892 24.3614 34.3965C24.2257 34.4012 24.0901 34.406 23.9503 34.4109C23.0906 34.4229 22.6096 34.3634 21.9554 33.7905C21.377 33.0459 21.4173 32.2716 21.5276 31.3667C21.8393 30.7087 22.1691 30.4081 22.8108 30.0835C23.1928 30.0349 23.1928 30.0349 23.5978 30.0417C23.7435 30.0431 23.8891 30.0445 24.0392 30.0459C24.2648 30.0513 24.2648 30.0513 24.495 30.0567C24.7248 30.0596 24.7248 30.0596 24.9593 30.0626C25.3363 30.0676 25.7132 30.0746 26.0901 30.0835C26.0442 29.9693 25.9982 29.8552 25.9509 29.7376C25.5618 28.3789 25.6045 26.5999 26.1776 25.3049C27.0725 23.7015 28.2255 22.5135 29.9397 21.8139C30.0649 21.7628 30.1901 21.7118 30.319 21.6591C30.9268 21.4928 31.4867 21.4799 32.1141 21.4842ZM30.3853 26.822C30.1106 27.5241 30.0657 28.2447 30.3402 28.9568C30.7079 29.556 31.1476 29.8366 31.8183 30.0233C32.6605 30.1491 33.5111 30.1137 34.3597 30.0835C34.4956 28.14 34.4956 28.14 33.7314 26.426C33.1533 25.9338 32.5917 25.8477 31.8456 25.8886C31.1898 26.0054 30.8144 26.3357 30.3853 26.822ZM39.0647 26.6616C38.4497 27.6786 38.5964 28.942 38.637 30.0835C40.405 30.187 40.405 30.187 42.0589 29.6557C42.7135 28.9847 42.8224 28.5053 42.8119 27.5945C42.7371 26.9183 42.3918 26.5444 41.8985 26.1091C40.8702 25.7067 39.8042 25.7927 39.0647 26.6616ZM30.0823 34.3608C30.0823 37.1839 30.0823 40.0069 30.0823 42.9155C31.4938 42.9155 32.9054 42.9155 34.3597 42.9155C34.3597 40.0925 34.3597 37.2694 34.3597 34.3608C32.9481 34.3608 31.5366 34.3608 30.0823 34.3608ZM38.637 34.3608C38.637 37.1839 38.637 40.0069 38.637 42.9155C40.0485 42.9155 41.4601 42.9155 42.9143 42.9155C42.9143 40.0925 42.9143 37.2694 42.9143 34.3608C41.5028 34.3608 40.0913 34.3608 38.637 34.3608Z" fill="#3B5BA6"/>
</g>
<defs>
<clipPath id="clip0_1322_359">
<rect width="73" height="73" fill="white"/>
</clipPath>
</defs>
</svg>
