<svg width="73" height="73" viewBox="0 0 73 73" fill="none" xmlns="http://www.w3.org/2000/svg">
<g clip-path="url(#clip0_1322_347)">
<path d="M66.0109 39.6363C66.1362 39.7418 66.2615 39.8473 66.3907 39.956C70.1561 43.2318 72.3986 47.8396 72.7989 52.8044C73.1182 57.6782 71.6283 62.5734 68.4347 66.2984C68.3728 66.3713 68.3108 66.4442 68.2471 66.5192C65.6948 69.4995 62.3643 71.516 58.5968 72.5719C58.3591 72.6402 58.3591 72.6402 58.1167 72.71C53.3905 73.8269 48.1193 72.8268 44.0026 70.3396C43.1648 69.8113 42.3857 69.2189 41.63 68.5797C41.5198 68.4865 41.5198 68.4865 41.4073 68.3914C37.7851 65.2876 35.6757 61.0282 35.0714 56.3179C34.9623 54.0973 34.8984 51.773 35.4991 49.6168C35.5474 49.4431 35.5474 49.4431 35.5967 49.266C37.0071 44.3689 40.0382 40.3621 44.4337 37.76C51.3072 33.969 59.9524 34.4742 66.0109 39.6363ZM43.2713 44.5007C41.5935 46.4263 40.5135 48.7119 39.9191 51.1851C39.8708 51.3649 39.8708 51.3649 39.8216 51.5483C39.0042 55.0883 39.9402 58.787 41.7581 61.8473C42.1934 62.5141 42.6772 63.1305 43.1983 63.732C43.4789 63.2392 43.5888 62.7499 43.7152 62.1993C44.1202 60.5847 44.8221 58.9851 46.0143 57.7983C46.2244 57.6102 46.2244 57.6102 46.1925 57.316C46.2741 57.2796 46.3557 57.2432 46.4398 57.2057C46.7973 57.0122 47.0669 56.7856 47.3688 56.514C47.4695 56.4239 47.5702 56.3339 47.674 56.2411C47.7497 56.1723 47.8254 56.1036 47.9034 56.0328C47.6435 55.3491 47.3091 54.7155 46.9678 54.0696C46.1903 52.3225 46.2163 50.1089 46.8575 48.3241C47.1827 47.61 47.5866 46.972 48.046 46.3375C48.1548 46.1846 48.2636 46.0316 48.3757 45.8741C49.8159 44.4004 51.7745 43.6271 53.8293 43.5928C55.8783 43.6182 57.8097 44.3075 59.3052 45.7298C60.7688 47.3595 61.5141 49.3982 61.4266 51.5856C61.262 53.1176 60.8095 54.5083 59.88 55.7476C60.0899 56.2706 60.3617 56.493 60.8157 56.817C63.035 58.5534 63.9179 61.0698 64.4425 63.732C66.7991 61.4365 68.1362 58.1914 68.1912 54.9123C68.2167 50.641 66.8887 46.941 63.8633 43.8334C61.0415 41.0327 57.4114 39.8812 53.4981 39.8763C49.4882 39.9213 46.058 41.6396 43.2713 44.5007ZM51.6105 49.0465C50.9459 49.9325 50.7943 50.6658 50.8976 51.7554C51.2202 52.7234 51.6781 53.4422 52.6024 53.9231C53.4441 54.2514 54.2167 54.2624 55.068 53.9654C55.8776 53.5975 56.3834 53.0695 56.7622 52.2701C57.0398 51.4349 57.0204 50.5101 56.6542 49.7059C56.1721 48.8817 55.4877 48.4159 54.5957 48.1203C53.4892 47.8325 52.4101 48.2691 51.6105 49.0465ZM50.1847 60.025C50.0612 60.1073 49.9377 60.1897 49.8104 60.2745C48.7208 61.3067 47.9642 62.6295 47.8808 64.1426C47.856 65.1469 47.8718 66.15 47.9034 67.1539C51.2013 68.6922 54.9832 68.9926 58.4435 67.7698C58.9325 67.585 59.4065 67.3748 59.88 67.1539C59.8968 66.5925 59.9068 66.0312 59.9156 65.4697C59.9204 65.3128 59.9252 65.1559 59.9301 64.9943C59.9471 63.5512 59.633 62.3221 58.7394 61.1656C58.6829 61.0871 58.6265 61.0086 58.5684 60.9278C57.5791 59.6437 56.1839 58.9777 54.6046 58.7418C52.9477 58.5622 51.4919 59.0155 50.1847 60.025Z" fill="#3B5BA6"/>
<path d="M24.2381 0.570768C24.3401 0.599808 24.4422 0.628847 24.5473 0.658766C27.0036 1.38128 29.2877 2.60562 31.2244 4.2778C31.3011 4.34282 31.3779 4.40783 31.4569 4.47482C34.2322 6.845 36.1907 9.93519 37.2572 13.4206C37.2918 13.5327 37.3264 13.6449 37.362 13.7604C37.8443 15.4183 37.978 17.0641 37.9701 18.7851C37.9698 18.8789 37.9694 18.9726 37.969 19.0692C37.9604 20.552 37.897 21.9505 37.4978 23.3833C37.4656 23.499 37.4335 23.6148 37.4003 23.7341C35.9703 28.6988 32.8585 32.7914 28.3506 35.3509C27.0504 36.062 25.7006 36.6157 24.2826 37.044C24.1914 37.0718 24.1002 37.0996 24.0062 37.1283C22.4068 37.5829 20.7967 37.693 19.1409 37.6856C18.9529 37.6849 18.765 37.6842 18.5714 37.6835C17.1785 37.6668 15.8926 37.5636 14.5428 37.2133C14.4516 37.1904 14.3604 37.1674 14.2665 37.1438C9.5954 35.9378 5.42107 32.8409 2.95772 28.6926C1.97225 27 1.22107 25.28 0.712673 23.3833C0.669665 23.2302 0.626658 23.0771 0.582347 22.9193C-0.100292 20.0133 0.0217432 16.5448 0.855251 13.688C0.88429 13.5859 0.913329 13.4839 0.943248 13.3787C1.66705 10.918 2.89485 8.64655 4.56228 6.70163C4.6242 6.62875 4.68611 6.55588 4.7499 6.4808C7.34104 3.45512 10.7049 1.43883 14.5428 0.42819C14.7043 0.38261 14.8659 0.337029 15.0323 0.290068C17.9226 -0.393715 21.3979 -0.257892 24.2381 0.570768ZM14.6853 5.13327C14.5919 5.16307 14.4986 5.19286 14.4023 5.22356C12.356 5.90532 10.6672 7.05723 9.12478 8.55514C8.99411 8.67259 8.99411 8.67259 8.86079 8.7924C6.47937 10.9998 4.9221 14.7253 4.79954 17.9386C4.74117 21.9121 5.74778 25.3457 8.41189 28.3735C8.45894 28.3735 8.50599 28.3735 8.55447 28.3735C8.58241 28.225 8.61034 28.0765 8.63912 27.9235C9.04616 25.9178 9.78485 24.1024 11.1209 22.5278C11.2076 22.4131 11.2944 22.2984 11.3838 22.1803C11.7068 21.7963 12.0438 21.5074 12.4397 21.2C12.5669 21.1006 12.6941 21.0012 12.8251 20.8987C12.9214 20.8247 13.0177 20.7506 13.117 20.6743C12.8553 19.9873 12.5212 19.348 12.1813 18.6971C11.385 16.9617 11.4328 14.7309 12.081 12.9506C12.9304 11.0526 14.1695 9.62001 16.1111 8.79574C18.1587 8.05261 20.2487 8.0583 22.2765 8.88653C24.1466 9.77493 25.4403 11.1665 26.1629 13.1266C26.774 15.0079 26.7697 17.1439 25.949 18.9633C25.7239 19.3504 25.4923 19.722 25.2328 20.0867C25.0571 20.3817 25.0571 20.3817 25.1771 20.6804C25.4068 20.9983 25.6517 21.2383 25.949 21.4941C26.049 21.5816 26.149 21.6691 26.252 21.7592C26.502 21.9858 26.502 21.9858 26.8045 21.9575C26.861 22.0818 26.861 22.0818 26.9186 22.2087C27.0963 22.5402 27.2989 22.7869 27.5441 23.0714C28.7756 24.6441 29.2763 26.4467 29.656 28.3735C32.0383 26.0562 33.3295 22.6965 33.4038 19.4089C33.4429 15.2186 31.9655 11.5039 29.0501 8.45712C26.017 5.52532 22.3087 4.45488 18.1841 4.5184C16.969 4.56055 15.8418 4.76418 14.6853 5.13327ZM17.0646 13.4295C16.3865 14.1391 16.0809 14.7661 16.0398 15.7553C16.081 16.7472 16.3848 17.3768 17.0735 18.0811C17.9599 18.6777 18.6785 18.9236 19.753 18.7684C20.8046 18.4976 21.405 17.8703 21.9568 16.9673C22.2356 16.1308 22.2428 15.1715 21.8855 14.3563C21.4182 13.5522 20.7118 13.0936 19.8538 12.779C18.7947 12.5753 17.9489 12.8456 17.0646 13.4295ZM15.3982 24.6665C15.2512 24.7694 15.1042 24.8723 14.9527 24.9784C13.921 25.8721 13.1875 27.3102 13.0835 28.6678C13.0751 29.1437 13.0795 29.6175 13.0902 30.0934C13.0922 30.2576 13.0941 30.4218 13.0961 30.591C13.1011 30.9925 13.1081 31.3939 13.117 31.7954C16.4148 33.3337 20.1967 33.6341 23.657 32.4113C24.146 32.2265 24.62 32.0162 25.0935 31.7954C25.1761 29.1773 25.201 27.1533 23.3826 25.0942C22.2956 24.0253 20.6875 23.3785 19.1676 23.3476C17.7085 23.3693 16.544 23.7751 15.3982 24.6665Z" fill="#3B5BA6"/>
<path d="M44.4972 8.67226C44.6319 8.67132 44.7666 8.67038 44.9055 8.66942C45.3533 8.6666 45.8011 8.66494 46.2489 8.66352C46.4786 8.66265 46.4786 8.66265 46.713 8.66176C47.5249 8.65878 48.3369 8.65674 49.1489 8.65541C49.9843 8.65384 50.8197 8.64894 51.6551 8.64327C52.2998 8.63952 52.9446 8.63834 53.5893 8.63783C53.897 8.63714 54.2047 8.63549 54.5124 8.63284C57.2748 8.61048 59.5415 8.95017 61.6356 10.9431C63.2052 12.611 64.0143 14.5207 64.0442 16.8135C64.0456 16.9082 64.047 17.0029 64.0484 17.1005C64.0529 17.4106 64.0565 17.7207 64.06 18.0308C64.0629 18.2469 64.0659 18.4631 64.069 18.6792C64.0768 19.246 64.0839 19.8128 64.0908 20.3795C64.0979 20.9587 64.1059 21.5379 64.1137 22.1171C64.129 23.252 64.1435 24.3868 64.1575 25.5217C64.2178 25.4592 64.2781 25.3966 64.3402 25.3322C64.6168 25.0467 64.895 24.7629 65.1733 24.4791C65.2682 24.3807 65.363 24.2823 65.4607 24.1809C66.0513 23.5816 66.5965 23.0594 67.4546 22.8985C68.3678 22.9099 68.9748 23.1681 69.62 23.8286C69.9989 24.3035 70.1256 24.7106 70.2003 25.3073C70.0036 26.5938 69.0313 27.4333 68.1513 28.3048C68.0106 28.4459 67.87 28.5871 67.7294 28.7283C67.4358 29.0227 67.1413 29.3161 66.846 29.6087C66.4692 29.9823 66.095 30.3584 65.7215 30.7353C65.432 31.0268 65.1412 31.317 64.8499 31.6068C64.7114 31.7449 64.5734 31.8834 64.4357 32.0224C62.8848 33.585 62.8848 33.585 61.8133 33.6793C60.9468 33.566 60.3573 33.3165 59.7643 32.6417C59.4871 32.1895 59.4345 31.8185 59.4337 31.3005C59.4331 31.17 59.4325 31.0395 59.4319 30.905C59.432 30.7622 59.4321 30.6193 59.4322 30.4721C59.4317 30.3213 59.4312 30.1706 59.4307 30.0153C59.4296 29.6874 59.4288 29.3595 59.4283 29.0315C59.4273 28.5119 59.4251 27.9922 59.4224 27.4725C59.415 25.9946 59.4081 24.5168 59.4059 23.039C59.4045 22.1352 59.4003 21.2316 59.3943 20.3279C59.3926 19.984 59.3918 19.6402 59.3922 19.2963C59.3925 18.8138 59.3893 18.3314 59.3854 17.8489C59.3863 17.7081 59.3873 17.5672 59.3882 17.4221C59.3753 16.4524 59.1591 15.7002 58.7395 14.8284C58.6981 14.7267 58.6566 14.6251 58.6139 14.5205C58.4125 14.1893 58.2389 14.1192 57.884 13.9729C57.7882 13.9234 57.6923 13.8739 57.5936 13.8229C56.8043 13.439 56.1651 13.3203 55.293 13.3293C55.1074 13.3277 55.1074 13.3277 54.9181 13.3262C54.5132 13.3235 54.1085 13.3246 53.7036 13.3257C53.4201 13.3243 53.1366 13.3226 52.8532 13.3206C52.1096 13.316 51.366 13.3145 50.6224 13.3139C49.4315 13.3127 48.2405 13.3076 47.0495 13.3008C46.6348 13.299 46.2201 13.2991 45.8054 13.2994C45.5502 13.2985 45.2949 13.2975 45.0397 13.2964C44.8681 13.2973 44.8681 13.2973 44.693 13.2982C43.9133 13.2926 43.1162 13.2605 42.4912 12.7437C42.4246 12.6582 42.3581 12.5728 42.2895 12.4847C42.1864 12.3571 42.1864 12.3571 42.0812 12.2269C41.6804 11.6229 41.7071 10.9629 41.7727 10.2659C42.267 8.88691 43.1676 8.67624 44.4972 8.67226Z" fill="#3B5BA6"/>
<path d="M13.0307 39.1199C13.5457 39.6349 13.7257 39.9918 13.726 40.718C13.7268 40.8484 13.7276 40.9789 13.7283 41.1134C13.7278 41.2555 13.7272 41.3976 13.7266 41.5441C13.7271 41.6946 13.7276 41.8451 13.7281 42.0002C13.7291 42.3273 13.7295 42.6544 13.7293 42.9814C13.7291 43.5 13.731 44.0185 13.7334 44.537C13.74 46.0115 13.7435 47.4859 13.7445 48.9604C13.7452 49.8624 13.7486 50.7644 13.7538 51.6664C13.7552 52.0093 13.7555 52.3523 13.7547 52.6952C13.7537 53.1766 13.7562 53.658 13.7594 54.1394C13.7583 54.2795 13.7571 54.4196 13.7559 54.564C13.7693 55.7014 13.9976 56.7967 14.7094 57.7091C14.8141 57.7942 14.9189 57.8793 15.0268 57.967C15.1309 58.0554 15.2349 58.1438 15.3421 58.2349C16.133 58.7455 16.8901 58.7843 17.8009 58.7832C17.9246 58.7842 18.0483 58.7851 18.1757 58.7861C18.4432 58.7881 18.7106 58.7894 18.9781 58.7901C19.4019 58.7913 19.8256 58.7942 20.2494 58.7976C21.1492 58.8044 22.049 58.8091 22.9488 58.8135C23.9913 58.8186 25.0339 58.8246 26.0764 58.8329C26.493 58.8358 26.9096 58.837 27.3262 58.8381C27.5828 58.8399 27.8394 58.8419 28.0961 58.8439C28.2111 58.8438 28.3262 58.8436 28.4447 58.8435C29.3163 58.853 30.0773 58.9278 30.7728 59.4997C31.3181 60.1697 31.4272 60.7157 31.406 61.5637C31.3206 62.3074 30.9312 62.8327 30.3718 63.3048C29.9874 63.4329 29.7638 63.4659 29.3692 63.4683C29.1942 63.4698 29.1942 63.4698 29.0157 63.4714C28.8244 63.472 28.8244 63.472 28.6292 63.4726C28.4944 63.4735 28.3597 63.4744 28.2208 63.4754C27.7738 63.4782 27.3268 63.4799 26.8797 63.4813C26.7267 63.4819 26.5737 63.4825 26.416 63.4831C25.605 63.486 24.794 63.4881 23.9829 63.4894C23.1486 63.491 22.3144 63.4959 21.4801 63.5016C20.8359 63.5053 20.1918 63.5065 19.5476 63.507C19.2404 63.5077 18.9331 63.5093 18.6258 63.512C15.8586 63.5344 13.5855 63.1934 11.498 61.1839C9.94748 59.5316 9.12808 57.6138 9.09838 55.3313C9.09697 55.2366 9.09556 55.1419 9.0941 55.0444C9.08963 54.7343 9.08608 54.4241 9.08254 54.114C9.07961 53.8979 9.07661 53.6817 9.07356 53.4656C9.06572 52.8988 9.05867 52.3321 9.05177 51.7653C9.04459 51.1861 9.03666 50.6069 9.0288 50.0277C9.0135 48.8929 8.99903 47.758 8.98508 46.6231C8.91971 46.6907 8.85433 46.7583 8.78698 46.828C8.48879 47.1351 8.18893 47.4405 7.88901 47.7459C7.73476 47.9055 7.73476 47.9055 7.5774 48.0684C7.47677 48.1704 7.37614 48.2724 7.27247 48.3775C7.13471 48.5186 7.13471 48.5186 6.99417 48.6626C6.3917 49.1643 5.78304 49.2536 5.02297 49.2346C4.3693 49.1411 3.98167 48.7486 3.53146 48.2984C3.1116 47.6386 2.96919 47.0639 3.04135 46.2845C3.80739 44.6389 5.60864 43.2718 6.87669 42.0039C7.24035 41.6399 7.60284 41.2748 7.96531 40.9097C8.19749 40.6771 8.42973 40.4446 8.66205 40.2121C8.76974 40.1034 8.87742 39.9947 8.98838 39.8827C10.1686 38.7075 11.5393 37.9413 13.0307 39.1199Z" fill="#3B5BA6"/>
</g>
<defs>
<clipPath id="clip0_1322_347">
<rect width="73" height="73" fill="white"/>
</clipPath>
</defs>
</svg>
