<svg width="155" height="150" viewBox="0 0 155 150" fill="none" xmlns="http://www.w3.org/2000/svg">
<g clip-path="url(#clip0_1322_405)">
<path d="M67.1071 57.8257C67.2287 57.7404 67.3501 57.655 67.4715 57.5695C67.7254 57.3913 67.9806 57.2152 68.2369 57.0404C68.5639 56.8171 68.8873 56.5891 69.21 56.3594C69.4599 56.1824 69.7116 56.0079 69.9639 55.8342C70.0839 55.7511 70.2033 55.6673 70.3221 55.5826C71.3631 54.8445 71.3631 54.8445 71.9943 54.8958C72.3398 54.9717 72.6049 55.0724 72.8735 55.3095C72.9763 55.3979 72.9763 55.3979 73.0812 55.4881C73.1489 55.5501 73.2166 55.612 73.2863 55.6758C73.3558 55.7359 73.4254 55.7961 73.497 55.8581C73.8874 56.2003 74.2433 56.5578 74.582 56.9511C74.7269 56.8711 74.7269 56.8711 74.8747 56.7895C76.4545 55.9609 78.4479 55.6693 80.1991 55.4831C80.287 55.4734 80.375 55.4638 80.4657 55.4539C80.582 55.4422 80.582 55.4422 80.7007 55.4303C80.9524 55.3846 81.1381 55.3282 81.3598 55.1991C81.4975 54.9974 81.4975 54.9974 81.5922 54.7524C81.6494 54.6199 81.6494 54.6199 81.7079 54.4848C81.7461 54.3923 81.7843 54.2998 81.8237 54.2045C81.9013 54.0219 81.9792 53.8394 82.0573 53.657C82.1079 53.5353 82.1079 53.5353 82.1596 53.4112C82.301 53.1041 82.4755 52.914 82.7423 52.7146C82.7962 52.6727 82.8501 52.6309 82.9057 52.5878C83.6139 52.2518 84.4257 52.4851 85.159 52.6187C85.2824 52.6406 85.4058 52.6625 85.5292 52.6843C85.7868 52.73 86.0441 52.7764 86.3014 52.8233C86.63 52.8832 86.9588 52.9413 87.2878 52.9989C87.5423 53.0436 87.7967 53.0893 88.051 53.1352C88.2307 53.1676 88.4106 53.1991 88.5904 53.2306C88.7003 53.2509 88.8102 53.2711 88.9234 53.292C89.0677 53.318 89.0677 53.318 89.215 53.3446C89.752 53.4908 90.126 53.7273 90.4242 54.1908C90.7583 54.9317 90.7257 55.8249 90.7184 56.6224C90.7667 56.9431 90.8561 57.0049 91.1018 57.2091C91.3095 57.3338 91.3095 57.3338 91.5394 57.4425C91.6689 57.5072 91.6689 57.5072 91.8009 57.5732C91.8933 57.6191 91.9857 57.665 92.0809 57.7124C95.5386 59.4768 95.5386 59.4768 96.5086 60.8688C96.5914 60.8259 96.5914 60.8259 96.6759 60.7822C97.2284 60.5071 97.793 60.2647 98.369 60.0438C98.4356 60.0161 98.5022 59.9883 98.5708 59.9597C99.042 59.7857 99.4153 59.777 99.8995 59.9092C100.45 60.186 100.763 60.7428 101.101 61.2396C101.186 61.3611 101.272 61.4826 101.357 61.6039C101.535 61.8579 101.711 62.1131 101.886 62.3693C102.11 62.6963 102.338 63.0198 102.567 63.3424C102.744 63.5924 102.919 63.844 103.092 64.0963C103.176 64.2163 103.259 64.3357 103.344 64.4545C104.082 65.4955 104.082 65.4955 104.031 66.1267C103.955 66.4723 103.854 66.7374 103.617 67.0059C103.558 67.0745 103.499 67.143 103.439 67.2136C103.377 67.2813 103.315 67.349 103.251 67.4187C103.161 67.523 103.161 67.523 103.069 67.6295C102.726 68.0199 102.369 68.3758 101.976 68.7144C102.029 68.811 102.082 68.9076 102.137 69.0071C102.966 70.587 103.257 72.5803 103.444 74.3315C103.453 74.4195 103.463 74.5074 103.473 74.5981C103.481 74.6756 103.488 74.7532 103.496 74.8331C103.542 75.0848 103.598 75.2705 103.728 75.4922C103.929 75.6299 103.929 75.6299 104.174 75.7246C104.263 75.7628 104.351 75.801 104.442 75.8403C104.534 75.8785 104.627 75.9167 104.722 75.9561C104.905 76.0337 105.087 76.1116 105.27 76.1897C105.351 76.2235 105.432 76.2573 105.515 76.2921C105.823 76.4335 106.013 76.6079 106.212 76.8747C106.254 76.9286 106.296 76.9825 106.339 77.0381C106.675 77.7464 106.442 78.5581 106.308 79.2914C106.286 79.4148 106.264 79.5382 106.242 79.6617C106.197 79.9192 106.15 80.1766 106.103 80.4339C106.043 80.7624 105.985 81.0913 105.928 81.4202C105.883 81.6748 105.837 81.9291 105.791 82.1834C105.759 82.3631 105.728 82.543 105.696 82.7229C105.676 82.8328 105.656 82.9426 105.635 83.0559C105.609 83.2002 105.609 83.2002 105.582 83.3474C105.436 83.8845 105.199 84.2585 104.736 84.5567C103.995 84.8907 103.102 84.8581 102.304 84.8509C101.984 84.8991 101.922 84.9885 101.718 85.2342C101.593 85.442 101.593 85.442 101.484 85.6718C101.419 85.8013 101.419 85.8013 101.354 85.9334C101.308 86.0258 101.262 86.1182 101.214 86.2134C99.4499 89.6711 99.4499 89.6711 98.0578 90.641C98.1007 90.7238 98.1007 90.7238 98.1445 90.8083C98.4196 91.3608 98.662 91.9254 98.8829 92.5014C98.9106 92.568 98.9383 92.6346 98.9669 92.7033C99.141 93.1744 99.1496 93.5477 99.0174 94.0319C98.7407 94.5824 98.1838 94.895 97.6871 95.2334C97.5655 95.3187 97.4441 95.4041 97.3228 95.4897C97.0688 95.6678 96.8136 95.8439 96.5574 96.0187C96.2303 96.2421 95.9069 96.47 95.5843 96.6997C95.3343 96.8767 95.0826 97.0512 94.8303 97.2249C94.7104 97.308 94.591 97.3918 94.4721 97.4765C93.4312 98.2146 93.4312 98.2146 92.8 98.1633C92.4544 98.0874 92.1893 97.9867 91.9207 97.7496C91.8522 97.6906 91.7836 97.6317 91.713 97.571C91.6453 97.509 91.5777 97.4471 91.508 97.3833C91.4384 97.3232 91.3689 97.263 91.2972 97.201C90.9068 96.8588 90.5509 96.5013 90.2122 96.108C90.1156 96.1613 90.019 96.2147 89.9195 96.2696C88.3397 97.0982 86.3463 97.3898 84.5952 97.576C84.5072 97.5857 84.4192 97.5953 84.3286 97.6052C84.251 97.613 84.1735 97.6208 84.0936 97.6288C83.8418 97.6745 83.6562 97.7309 83.4344 97.86C83.2968 98.0617 83.2968 98.0617 83.2021 98.3067C83.1639 98.395 83.1257 98.4833 83.0864 98.5743C83.0481 98.6668 83.0099 98.7593 82.9705 98.8546C82.8929 99.0372 82.8151 99.2197 82.737 99.4021C82.7032 99.4832 82.6694 99.5643 82.6346 99.6479C82.4932 99.955 82.3188 100.145 82.052 100.345C81.998 100.386 81.9441 100.428 81.8886 100.471C81.1803 100.807 80.3685 100.574 79.6353 100.44C79.5119 100.418 79.3884 100.397 79.265 100.375C79.0075 100.329 78.7501 100.283 78.4928 100.236C78.1642 100.176 77.8354 100.118 77.5064 100.06C77.2519 100.016 76.9976 99.9698 76.7432 99.9239C76.5635 99.8915 76.3837 99.86 76.2038 99.8285C76.0939 99.8082 75.984 99.788 75.8708 99.7671C75.7265 99.7411 75.7265 99.7411 75.5793 99.7145C75.0422 99.5683 74.6682 99.3318 74.37 98.8683C74.0359 98.1274 74.0686 97.2342 74.0758 96.4367C74.0275 96.116 73.9381 96.0542 73.6924 95.85C73.4847 95.7253 73.4847 95.7253 73.2548 95.6166C73.1685 95.5735 73.0822 95.5304 72.9933 95.4859C72.8547 95.417 72.8547 95.417 72.7133 95.3467C69.2556 93.5823 69.2556 93.5823 68.2856 92.1903C68.2304 92.2189 68.1752 92.2475 68.1184 92.2769C67.5658 92.552 67.0013 92.7944 66.4252 93.0153C66.3586 93.043 66.292 93.0708 66.2234 93.0994C65.7522 93.2734 65.379 93.2821 64.8948 93.1499C64.3443 92.8731 64.0316 92.3163 63.6932 91.8195C63.608 91.698 63.5226 91.5765 63.437 91.4552C63.2589 91.2012 63.0828 90.946 62.9079 90.6898C62.6846 90.3628 62.4566 90.0393 62.227 89.7167C62.0499 89.4667 61.8755 89.2151 61.7018 88.9628C61.6187 88.8428 61.5349 88.7234 61.4502 88.6046C60.712 87.5636 60.712 87.5636 60.7633 86.9324C60.8393 86.5868 60.9399 86.3217 61.1771 86.0532C61.2655 85.9503 61.2655 85.9503 61.3557 85.8454C61.4486 85.7439 61.4486 85.7439 61.5433 85.6404C61.6336 85.5361 61.6336 85.5361 61.7257 85.4296C62.0679 85.0392 62.4254 84.6833 62.8186 84.3447C62.7387 84.1998 62.7387 84.1998 62.6571 84.052C61.8285 82.4721 61.5369 80.4788 61.3506 78.7276C61.341 78.6396 61.3314 78.5517 61.3215 78.461C61.3137 78.3835 61.3059 78.3059 61.2978 78.226C61.2521 77.9743 61.1958 77.7886 61.0667 77.5669C60.8649 77.4292 60.8649 77.4292 60.62 77.3345C60.5316 77.2963 60.4433 77.2581 60.3523 77.2188C60.2598 77.1806 60.1674 77.1424 60.0721 77.103C59.8895 77.0253 59.707 76.9475 59.5246 76.8694C59.4435 76.8356 59.3624 76.8018 59.2788 76.767C58.9716 76.6256 58.7816 76.4512 58.5822 76.1844C58.5194 76.1035 58.5194 76.1035 58.4554 76.021C58.1194 75.3127 58.3527 74.501 58.4863 73.7677C58.5082 73.6443 58.53 73.5209 58.5518 73.3974C58.5976 73.1399 58.644 72.8825 58.6909 72.6252C58.7508 72.2967 58.8088 71.9678 58.8664 71.6389C58.9112 71.3843 58.9568 71.13 59.0028 70.8757C59.0351 70.696 59.0666 70.5161 59.0982 70.3362C59.1286 70.1714 59.1286 70.1714 59.1596 70.0032C59.1769 69.907 59.1943 69.8108 59.2122 69.7117C59.3583 69.1746 59.5949 68.8006 60.0584 68.5024C60.7992 68.1684 61.6924 68.201 62.49 68.2082C62.8107 68.16 62.8724 68.0706 63.0767 67.8249C63.2013 67.6171 63.2013 67.6171 63.3101 67.3873C63.3532 67.301 63.3963 67.2147 63.4407 67.1257C63.5096 66.9871 63.5096 66.9871 63.5799 66.8457C65.3444 63.388 65.3444 63.388 66.7364 62.4181C66.7078 62.3629 66.6792 62.3077 66.6497 62.2508C66.3747 61.6983 66.1323 61.1337 65.9114 60.5577C65.8836 60.4911 65.8559 60.4245 65.8273 60.3558C65.6533 59.8847 65.6446 59.5114 65.7768 59.0272C66.0536 58.4767 66.6104 58.1641 67.1071 57.8257ZM68.8995 60.1109C69.1668 60.7908 69.1668 60.7908 69.4363 61.4698C69.9138 62.704 69.9138 62.704 69.6903 63.3039C69.4132 63.6932 69.0988 64.0411 68.778 64.3948C67.4527 65.8903 66.3345 67.5376 65.6047 69.4077C65.1532 70.5574 65.1532 70.5574 64.6129 70.8608C63.8787 71.0871 63.0762 71.1131 62.3117 71.1097C62.0725 71.1215 62.0725 71.1215 61.9723 71.2933C61.8494 71.5853 61.8005 71.8684 61.7465 72.1806C61.7299 72.2754 61.7299 72.2754 61.7129 72.3721C61.6777 72.5731 61.6435 72.7741 61.6093 72.9752C61.5856 73.1119 61.5618 73.2485 61.5379 73.3852C61.4797 73.7193 61.4223 74.0535 61.3653 74.3879C61.6371 74.598 61.8925 74.7831 62.208 74.9201C62.2731 74.9488 62.3383 74.9775 62.4054 75.0071C62.4719 75.0357 62.5385 75.0643 62.607 75.0937C63.3358 75.4123 63.7295 75.6375 64.1106 76.3599C64.1898 76.6972 64.1965 77.0236 64.1997 77.3691C64.2076 77.5629 64.2163 77.7566 64.2258 77.9504C64.2305 78.0485 64.2353 78.1467 64.2402 78.2478C64.3689 80.194 64.9169 82.1061 65.6861 83.8912C65.8753 84.3518 65.9375 84.6513 65.7739 85.142C65.485 85.6743 65.0555 86.1209 64.6557 86.5711C64.4555 86.7978 64.2552 87.0245 64.0489 87.2581C64.6857 88.1719 65.3224 89.0857 65.9785 90.0272C66.6584 89.7598 66.6584 89.7598 67.3374 89.4903C68.5716 89.0128 68.5716 89.0128 69.1714 89.2364C69.5608 89.5135 69.9087 89.8279 70.2624 90.1486C71.7578 91.4739 73.4052 92.5922 75.2753 93.3219C76.425 93.7734 76.425 93.7734 76.7284 94.3138C76.9546 95.048 76.9806 95.8505 76.9772 96.615C76.9891 96.8541 76.9891 96.8541 77.1609 96.9544C77.4529 97.0773 77.7359 97.1262 78.0482 97.1801C78.143 97.1968 78.143 97.1968 78.2397 97.2138C78.4406 97.2489 78.6417 97.2832 78.8428 97.3174C78.9794 97.3411 79.1161 97.3649 79.2527 97.3888C79.5869 97.447 79.9211 97.5044 80.2554 97.5614C80.4656 97.2895 80.6507 97.0342 80.7877 96.7187C80.8164 96.6535 80.8451 96.5884 80.8746 96.5213C80.9032 96.4547 80.9318 96.3882 80.9613 96.3196C81.2799 95.5908 81.505 95.1972 82.2275 94.816C82.5647 94.7369 82.8912 94.7302 83.2367 94.727C83.4304 94.7191 83.6242 94.7104 83.8179 94.7009C83.9161 94.6961 84.0142 94.6914 84.1154 94.6865C86.0616 94.5578 87.9737 94.0098 89.7587 93.2406C90.2193 93.0514 90.5189 92.9892 91.0096 93.1528C91.5419 93.4417 91.9884 93.8712 92.4386 94.2709C92.6654 94.4712 92.8921 94.6714 93.1257 94.8777C94.0395 94.241 94.9533 93.6042 95.8947 92.9482C95.6274 92.2683 95.6274 92.2683 95.3579 91.5893C94.8804 90.3551 94.8804 90.3551 95.1039 89.7552C95.3811 89.3659 95.6955 89.018 96.0162 88.6643C97.3415 87.1688 98.4597 85.5215 99.1895 83.6514C99.641 82.5017 99.641 82.5017 100.181 82.1983C100.916 81.972 101.718 81.946 102.483 81.9494C102.722 81.9376 102.722 81.9376 102.822 81.7658C102.945 81.4738 102.994 81.1907 103.048 80.8785C103.059 80.8153 103.07 80.7521 103.081 80.687C103.116 80.486 103.151 80.285 103.185 80.0839C103.209 79.9472 103.232 79.8106 103.256 79.6739C103.315 79.3398 103.372 79.0056 103.429 78.6712C103.157 78.4611 102.902 78.276 102.586 78.139C102.521 78.1103 102.456 78.0816 102.389 78.052C102.322 78.0234 102.256 77.9948 102.187 77.9654C101.458 77.6468 101.065 77.4216 100.684 76.6992C100.604 76.3619 100.598 76.0355 100.595 75.69C100.587 75.4962 100.578 75.3025 100.568 75.1087C100.564 75.0106 100.559 74.9124 100.554 74.8113C100.425 72.8651 99.8773 70.953 99.1081 69.1679C98.9189 68.7073 98.8568 68.4078 99.0204 67.917C99.3092 67.3848 99.7388 66.9382 100.139 66.488C100.339 66.2613 100.539 66.0346 100.745 65.801C100.109 64.8872 99.4718 63.9734 98.8158 63.0319C98.1359 63.2993 98.1359 63.2993 97.4569 63.5688C96.2226 64.0463 96.2226 64.0463 95.6228 63.8227C95.2334 63.5456 94.8856 63.2312 94.5318 62.9104C93.0364 61.5852 91.389 60.4669 89.5189 59.7372C88.3692 59.2856 88.3692 59.2856 88.0658 58.7453C87.8396 58.0111 87.8136 57.2086 87.817 56.4441C87.8052 56.205 87.8052 56.205 87.6333 56.1047C87.3413 55.9818 87.0583 55.9329 86.7461 55.879C86.6829 55.8679 86.6197 55.8568 86.5545 55.8453C86.3536 55.8102 86.1525 55.7759 85.9515 55.7417C85.8148 55.718 85.6781 55.6942 85.5415 55.6703C85.2074 55.6121 84.8731 55.5547 84.5388 55.4977C84.3286 55.7696 84.1436 56.0249 84.0065 56.3404C83.9779 56.4056 83.9492 56.4707 83.9196 56.5378C83.8767 56.6376 83.8767 56.6376 83.8329 56.7395C83.5143 57.4683 83.2892 57.8619 82.5668 58.2431C82.2295 58.3222 81.9031 58.3289 81.5576 58.3321C81.3638 58.34 81.17 58.3487 80.9763 58.3582C80.8782 58.363 80.78 58.3677 80.6789 58.3726C78.7326 58.5013 76.8205 59.0493 75.0355 59.8185C74.5749 60.0077 74.2754 60.0699 73.7846 59.9063C73.2523 59.6174 72.8058 59.1879 72.3556 58.7882C72.1289 58.5879 71.9021 58.3877 71.6685 58.1814C70.7548 58.8181 69.841 59.4549 68.8995 60.1109Z" fill="white"/>
<path d="M72.7514 64.3675C72.807 64.3277 72.8626 64.2878 72.9199 64.2467C74.6312 63.0271 76.3018 62.0895 78.3396 61.5292C78.4938 61.4847 78.4938 61.4847 78.6511 61.4393C82.4423 60.4158 86.5192 61.093 89.9416 62.9287C90.0322 62.9767 90.1227 63.0246 90.216 63.074C91.8613 63.9989 93.4585 65.3498 94.5558 66.8877C94.5956 66.9433 94.6355 66.9989 94.6766 67.0562C95.8962 68.7675 96.8338 70.4381 97.3941 72.4759C97.4386 72.6301 97.4386 72.6301 97.484 72.7874C98.5075 76.5786 97.8302 80.6555 95.9946 84.0779C95.9466 84.1685 95.8986 84.259 95.8492 84.3523C94.9244 85.9977 93.5735 87.5948 92.0356 88.6921C91.98 88.7319 91.9244 88.7718 91.8671 88.8129C90.1558 90.0325 88.4851 90.9701 86.4474 91.5304C86.2932 91.5749 86.2932 91.5749 86.1359 91.6203C82.3447 92.6438 78.2678 91.9666 74.8454 90.1309C74.7548 90.0829 74.6643 90.035 74.5709 89.9856C72.9256 89.0607 71.3285 87.7098 70.2312 86.1719C70.1914 86.1163 70.1515 86.0607 70.1104 86.0034C68.8908 84.2921 67.9532 82.6215 67.3928 80.5837C67.3484 80.4295 67.3484 80.4295 67.303 80.2722C66.2795 76.481 66.9567 72.4041 68.7924 68.9817C68.8404 68.8911 68.8883 68.8006 68.9377 68.7073C69.8626 67.0619 71.2135 65.4648 72.7514 64.3675ZM69.8122 75.2344C69.7371 75.9281 69.7492 76.6143 69.7961 77.3093C69.8031 77.4185 69.8031 77.4185 69.8103 77.5299C69.9006 78.7662 70.1997 79.9202 70.6021 81.0897C70.6409 81.2047 70.6796 81.3197 70.7195 81.4382C71.8876 84.3963 74.4212 86.7865 77.2765 88.0883C79.1403 88.8941 81.1477 89.2639 83.173 89.1272C83.2458 89.1225 83.3186 89.1178 83.3936 89.113C84.6299 89.0227 85.7838 88.7236 86.9534 88.3212C87.0684 88.2824 87.1834 88.2437 87.3019 88.2038C90.26 87.0357 92.6502 84.5021 93.952 81.6468C94.7578 79.7829 95.1276 77.7756 94.9909 75.7503C94.9862 75.6775 94.9815 75.6047 94.9767 75.5297C94.8864 74.2934 94.5873 73.1394 94.1848 71.9699C94.1461 71.8549 94.1074 71.7399 94.0674 71.6214C92.8994 68.6633 90.3658 66.2731 87.5105 64.9712C85.6466 64.1655 83.6392 63.7957 81.614 63.9324C81.5048 63.9394 81.5048 63.9394 81.3933 63.9466C80.1571 64.0369 79.0031 64.336 77.8335 64.7384C77.7186 64.7772 77.6036 64.8159 77.4851 64.8558C73.1814 66.5553 70.4091 70.7656 69.8122 75.2344Z" fill="white"/>
<path d="M74.389 70.0775C74.4543 70.0326 74.5197 69.9877 74.5871 69.9414C75.3431 69.4361 75.9627 69.2265 76.8781 69.2804C77.1085 69.2711 77.1085 69.2711 77.281 69.1098C77.496 68.8195 77.6102 68.5077 77.7422 68.1734C78.2118 67.2646 79.2195 66.5925 80.134 66.1805C81.3101 65.8252 82.5307 66.0071 83.6061 66.5686C83.7196 66.6326 83.8309 66.7005 83.9403 66.7714C84.0519 66.8431 84.0519 66.8431 84.1658 66.9164C84.4898 67.1878 84.7069 67.4957 84.9441 67.843C84.9891 67.9063 85.0341 67.9697 85.0805 68.0349C85.3327 68.3992 85.5035 68.7169 85.6018 69.1558C85.6518 69.1185 85.7019 69.0813 85.7535 69.0429C85.9825 68.8737 86.2133 68.707 86.4441 68.5403C86.5228 68.4816 86.6015 68.423 86.6826 68.3625C87.144 68.0322 87.4575 67.8228 88.0468 67.9092C88.6387 68.0935 88.9081 68.5263 89.1887 69.056C89.2672 69.524 89.2216 69.8262 88.9788 70.2306C88.7204 70.4521 88.4412 70.6375 88.1572 70.8245C88.0812 70.876 88.0051 70.9274 87.9268 70.9804C87.7397 71.1067 87.552 71.2319 87.3636 71.3562C87.4179 71.4327 87.4723 71.5093 87.5283 71.5881C88.0408 72.3103 88.5517 73.0337 89.061 73.7581C89.3229 74.1305 89.5853 74.5025 89.8491 74.8736C90.1037 75.2319 90.3568 75.5911 90.6088 75.9512C90.7052 76.0882 90.8021 76.2249 90.8995 76.3612C91.0361 76.5524 91.1707 76.7449 91.3049 76.9378C91.3657 77.0216 91.3657 77.0216 91.4277 77.107C91.6984 77.5022 91.7652 77.7873 91.7189 78.2624C91.5789 78.6573 91.4288 78.8504 91.0873 79.0896C91.0025 79.1498 90.9178 79.21 90.8304 79.272C90.7374 79.3364 90.6443 79.4007 90.5484 79.467C90.4504 79.536 90.3524 79.6051 90.2515 79.6762C89.9832 79.8652 89.714 80.0527 89.4445 80.2399C89.2193 80.3964 88.9947 80.5536 88.77 80.7109C88.2399 81.0819 87.7089 81.4517 87.1775 81.8207C86.6297 82.2011 86.0833 82.5834 85.5376 82.9668C85.0685 83.2962 84.5986 83.6244 84.128 83.9516C83.8471 84.1469 83.5666 84.3427 83.2869 84.5396C82.9749 84.7591 82.6611 84.9761 82.3472 85.1929C82.2089 85.2909 82.2089 85.2909 82.0679 85.3909C81.5942 85.7148 81.262 85.9418 80.6661 85.85C80.19 85.7167 79.9784 85.423 79.7122 85.0288C79.6485 84.9376 79.6485 84.9376 79.5836 84.8446C79.4443 84.6443 79.3066 84.4429 79.1689 84.2414C79.0724 84.102 78.9758 83.9626 78.8791 83.8233C78.6252 83.4571 78.3727 83.09 78.1206 82.7226C77.8628 82.3477 77.6037 81.9737 77.3448 81.5996C76.8372 80.8659 76.3311 80.1312 75.8259 79.3958C75.7578 79.4469 75.7578 79.4469 75.6884 79.4989C75.4802 79.6535 75.2704 79.8056 75.0605 79.9577C74.9891 80.0113 74.9178 80.0649 74.8442 80.1201C74.3849 80.4497 74.103 80.5984 73.5347 80.5353C72.9428 80.351 72.6734 79.9181 72.3928 79.3885C72.3136 78.9163 72.3785 78.6302 72.6027 78.2138C72.7905 78.0441 72.7905 78.0441 73.0115 77.8955C73.0906 77.8415 73.1697 77.7875 73.2512 77.7318C73.375 77.6499 73.375 77.6499 73.5012 77.5663C73.6263 77.4815 73.6263 77.4815 73.7539 77.3949C73.9592 77.2559 74.1651 77.118 74.3718 76.9811C74.3041 76.9368 74.2364 76.8925 74.1667 76.8468C73.446 76.2601 72.8003 75.2843 72.6226 74.3703C72.5027 73.1688 72.6781 72.0945 73.3399 71.0727C73.3882 70.9981 73.4365 70.9235 73.4863 70.8466C73.7517 70.5284 74.0489 70.311 74.389 70.0775ZM75.4629 73.607C75.5786 74.089 75.8253 74.4946 76.2411 74.7756C76.6647 74.9607 77.0074 74.9467 77.4394 74.7953C77.941 74.5466 78.3866 74.2077 78.833 73.8724C78.1758 72.7729 78.1758 72.7729 77.1192 72.1355C76.6223 72.0873 76.287 72.2519 75.8998 72.5544C75.5899 72.864 75.5116 73.1833 75.4629 73.607ZM80.085 70.2577C80.1355 71.0375 80.6896 71.6639 81.1406 72.2645C82.1333 71.6557 82.1333 71.6557 82.8258 70.7474C82.9267 70.1393 82.8052 69.8397 82.4572 69.3523C82.1626 69.0156 81.8357 68.9437 81.406 68.8944C80.7 69.0638 80.1573 69.5109 80.085 70.2577ZM78.1334 77.7879C79.1947 79.3109 80.2559 80.8338 81.3493 82.403C82.1108 81.8723 82.8723 81.3417 83.6568 80.795C82.5956 79.272 81.5344 77.7491 80.441 76.18C79.6795 76.7106 78.918 77.2412 78.1334 77.7879ZM82.7485 74.572C83.8097 76.095 84.871 77.618 85.9644 79.1871C86.7259 78.6565 87.4873 78.1258 88.2719 77.5792C87.2107 76.0562 86.1494 74.5332 85.056 72.9641C84.2945 73.4947 83.5331 74.0253 82.7485 74.572Z" fill="white"/>
</g>
<defs>
<clipPath id="clip0_1322_405">
<rect width="48" height="48" fill="white" transform="translate(48.9844 70.5598) rotate(-34.8695)"/>
</clipPath>
</defs>
</svg>
