<svg width="73" height="73" viewBox="0 0 73 73" fill="none" xmlns="http://www.w3.org/2000/svg">
<g clip-path="url(#clip0_1682_320)">
<path d="M51.0397 0.00214595C51.6107 0.287644 51.9891 0.598121 52.3229 1.14277C52.4626 1.56193 52.4831 1.82955 52.4826 2.26607C52.4829 2.48109 52.4829 2.48109 52.4832 2.70046C52.4827 2.85757 52.4822 3.01469 52.4817 3.17656C52.4817 3.34211 52.4817 3.50766 52.4817 3.67823C52.4816 4.22674 52.4805 4.77525 52.4794 5.32376C52.4791 5.70355 52.4789 6.08334 52.4788 6.46313C52.4784 7.36143 52.4772 8.25973 52.4758 9.15802C52.4742 10.1807 52.4734 11.2034 52.4727 12.2261C52.4712 14.3298 52.4687 16.4336 52.4655 18.5373C52.7314 18.5675 52.7314 18.5675 53.0027 18.5982C55.4656 18.8775 57.6357 20.652 59.1845 22.476C60.8177 24.6085 61.6189 26.9967 61.6172 29.6762C61.6173 29.822 61.6174 29.9677 61.6175 30.1179C61.6104 31.1328 61.5438 32.0904 61.3053 33.0803C61.3967 33.1461 61.488 33.2119 61.5821 33.2797C62.25 33.7833 62.7577 34.2132 63.1767 34.9427C63.7393 35.8195 64.5371 36.0541 65.4668 36.4214C66.1235 36.6821 66.6384 37.0132 67.151 37.5002C67.2591 37.6026 67.3672 37.7049 67.4785 37.8104C68.4036 38.7582 68.8756 39.7555 69.2624 41.0112C69.4848 41.4544 69.7478 41.609 70.163 41.8756C71.6786 42.9369 72.6044 44.3828 72.9967 46.1975C73.175 48.4051 73.0261 50.2443 71.6266 52.0348C71.3885 52.3284 71.3885 52.3284 71.4284 52.756C71.5747 52.9727 71.7308 53.1828 71.8918 53.3887C73.0867 55.0805 73.1849 56.8737 72.9967 58.8869C72.6672 60.7002 71.6057 62.2127 70.1452 63.3068C70.0217 63.3699 69.8982 63.4329 69.7709 63.4979C69.3225 63.8113 69.2575 64.0822 69.0937 64.5989C68.4115 66.5153 67.1252 67.9722 65.2975 68.8674C65.0311 68.9505 64.7637 69.0307 64.4955 69.108C63.6539 69.3901 63.3503 69.8813 62.8754 70.6039C61.9421 71.9122 60.4295 72.6675 58.8815 73.0021C56.6739 73.1805 54.8347 73.0315 53.0442 71.632C52.7506 71.3939 52.7506 71.3939 52.3229 71.4338C52.1063 71.5801 51.8962 71.7362 51.6902 71.8972C49.9984 73.0921 48.2052 73.1903 46.192 73.0021C44.3787 72.6726 42.8663 71.6111 41.7721 70.1506C41.7122 70.0285 41.6523 69.9065 41.5906 69.7808C41.2559 69.3143 40.8526 69.2018 40.3285 69.0278C39.3884 68.682 38.6548 68.2833 37.9225 67.5842C37.7736 67.4438 37.7736 67.4438 37.6218 67.3007C36.7308 66.3846 36.191 65.2816 35.8061 64.0682C35.5879 63.6266 35.3228 63.4735 34.9106 63.2088C33.3952 62.1477 32.4687 60.7015 32.0768 58.8869C31.8705 56.3137 32.3635 54.6073 33.7878 52.4709C33.6577 52.2922 33.5268 52.1141 33.3957 51.9362C33.3229 51.837 33.2501 51.7377 33.1751 51.6355C32.7157 51.0581 32.2797 50.6832 31.6166 50.3549C31.4682 50.2807 31.3199 50.2066 31.167 50.1301C30.9281 50.0129 30.9281 50.0129 30.6844 49.8933C30.5207 49.8119 30.3569 49.7304 30.1882 49.6465C29.7546 49.4307 29.3204 49.2164 28.8859 49.0024C28.442 48.7833 27.9988 48.563 27.5555 48.3428C26.6869 47.9116 25.8177 47.4818 24.9479 47.0529C24.9483 47.1308 24.9487 47.2086 24.9491 47.2888C24.9586 49.1845 24.9656 51.0802 24.9701 52.9759C24.9723 53.8927 24.9753 54.8095 24.9802 55.7262C24.9848 56.6109 24.9874 57.4956 24.9885 58.3804C24.9893 58.7179 24.9908 59.0555 24.9931 59.393C24.9962 59.8658 24.9967 60.3385 24.9965 60.8112C24.998 60.9508 24.9995 61.0904 25.0011 61.2342C24.9977 61.9856 24.9465 62.5171 24.5202 63.1642C23.8228 63.7936 23.454 63.8954 22.5217 63.9024C22.4187 63.9033 22.3158 63.9042 22.2097 63.9052C21.8682 63.908 21.5267 63.9097 21.1852 63.9111C21.0685 63.9117 20.9519 63.9123 20.8317 63.9129C20.2141 63.9158 19.5965 63.9179 18.9789 63.9192C18.3416 63.9208 17.7043 63.9257 17.067 63.9314C16.5765 63.9351 16.086 63.9363 15.5955 63.9368C15.3606 63.9375 15.1257 63.9391 14.8909 63.9418C14.5615 63.9453 14.2323 63.9451 13.903 63.9441C13.7158 63.945 13.5286 63.9458 13.3357 63.9467C12.6262 63.8493 12.1833 63.5458 11.7149 63.0128C11.4273 62.5435 11.3853 62.1613 11.3858 61.624C11.3855 61.4126 11.3855 61.4126 11.3852 61.1969C11.386 60.9653 11.386 60.9652 11.3868 60.7289C11.3868 60.5661 11.3868 60.4034 11.3867 60.2357C11.3868 59.6964 11.3879 59.1572 11.3891 58.6179C11.3893 58.2445 11.3895 57.8711 11.3897 57.4977C11.3901 56.6146 11.3913 55.7314 11.3927 54.8483C11.3943 53.8428 11.3951 52.8374 11.3958 51.8319C11.3973 49.7637 11.3998 47.6954 11.403 45.6271C11.1678 45.5968 11.1678 45.5968 10.9279 45.5659C10.1847 45.4503 9.85008 45.2637 9.39297 44.6653C8.95184 43.8682 9.02504 42.959 9.0148 42.0716C9.00846 41.8029 9.00846 41.8029 9.00199 41.5289C8.99195 41.089 8.98442 40.6492 8.97916 40.2092C8.88071 40.1607 8.78227 40.1123 8.68084 40.0624C7.75084 39.6046 6.82154 39.1453 5.89299 38.6846C5.41565 38.4477 4.93806 38.2115 4.45985 37.9764C3.99791 37.7493 3.5367 37.5208 3.07593 37.2914C2.90048 37.2043 2.72478 37.1177 2.54883 37.0317C2.30144 36.9106 2.05502 36.7875 1.80865 36.6644C1.59826 36.5604 1.59827 36.5604 1.38363 36.4543C0.788877 36.0913 0.381419 35.6534 -0.00326657 35.0764C-0.0323446 34.7278 -0.0451471 34.3953 -0.0446894 34.0467C-0.0456471 33.9423 -0.0466049 33.8379 -0.0475916 33.7304C-0.0503022 33.385 -0.0508575 33.0397 -0.0511639 32.6943C-0.0520802 32.454 -0.0530395 32.2137 -0.05404 31.9735C-0.0557483 31.4695 -0.0562756 30.9655 -0.0561068 30.4615C-0.0560779 29.8166 -0.0599687 29.1719 -0.0648831 28.527C-0.068059 28.0305 -0.0686321 27.5341 -0.0684814 27.0376C-0.0688174 26.7999 -0.0700721 26.5622 -0.07228 26.3246C-0.0750843 25.9915 -0.0742519 25.6586 -0.0725367 25.3255C-0.0749404 25.1791 -0.0749404 25.1791 -0.0773926 25.0298C-0.0681843 24.3236 0.119023 23.9243 0.567046 23.385C0.877456 23.1435 0.877456 23.1435 1.21394 22.9558C1.33959 22.8851 1.46525 22.8143 1.59472 22.7415C2.26525 22.3844 2.93906 22.036 3.61911 21.6974C3.76832 21.6227 3.91753 21.5479 4.07126 21.4709C4.3836 21.3147 4.69607 21.1587 5.00869 21.003C5.48902 20.7636 5.96873 20.5229 6.44839 20.2822C6.75282 20.1301 7.05728 19.978 7.36178 19.8261C7.50554 19.7539 7.64929 19.6817 7.7974 19.6074C7.99599 19.5088 7.99599 19.5088 8.1986 19.4082C8.31524 19.3499 8.43189 19.2917 8.55206 19.2318C8.83658 19.1076 8.83658 19.1076 9.12173 19.1076C9.11949 18.9955 9.11725 18.8833 9.11495 18.7678C9.10603 18.2573 9.10048 17.7468 9.095 17.2363C9.09142 17.0598 9.08783 16.8834 9.08414 16.7016C9.08276 16.5307 9.08138 16.3598 9.07996 16.1836C9.07772 16.0268 9.07548 15.8701 9.07317 15.7085C9.1486 15.0088 9.392 14.5482 9.90591 14.0728C10.5076 13.6667 10.8847 13.6899 11.5869 13.768C18.1951 14.4392 23.449 13.5802 29.394 10.5702C29.5406 10.496 29.6873 10.4218 29.8384 10.3454C31.6421 9.42845 33.4246 8.47397 35.2002 7.50413C37.1808 6.42352 39.1816 5.38142 41.181 4.33621C41.478 4.18086 41.775 4.02549 42.072 3.8701C42.2169 3.79429 42.3619 3.71848 42.5112 3.64038C43.3634 3.1937 44.2122 2.74123 45.0582 2.28287C45.5798 2.00055 46.1025 1.72053 46.6254 1.44074C46.8661 1.31109 47.1062 1.1803 47.3456 1.04827C49.7611 -0.283247 49.7611 -0.283247 51.0397 0.00214595ZM47.0207 6.13734C46.9276 6.18381 46.8344 6.23029 46.7384 6.27818C46.4238 6.4352 46.1094 6.59263 45.7949 6.75007C45.5704 6.86223 45.3459 6.97438 45.1213 7.0865C44.5097 7.39201 43.8982 7.69788 43.2867 8.00383C42.6483 8.32324 42.0097 8.64237 41.3711 8.96154C40.2985 9.49773 39.2259 10.0342 38.1535 10.5707C36.9119 11.1919 35.67 11.8127 34.4281 12.4333C33.3637 12.9651 32.2995 13.4972 31.2354 14.0294C30.599 14.3478 29.9625 14.666 29.326 14.9841C28.7276 15.283 28.1294 15.5823 27.5313 15.8818C27.3111 15.9919 27.0909 16.102 26.8707 16.212C26.5712 16.3615 26.272 16.5114 25.9727 16.6613C25.8048 16.7453 25.6369 16.8293 25.4639 16.9158C25.1104 17.0774 25.1104 17.0774 24.9479 17.2541C24.9341 17.5735 24.9305 17.8934 24.9308 18.2131C24.9306 18.3145 24.9305 18.4159 24.9304 18.5204C24.9302 18.8628 24.9309 19.2052 24.9317 19.5476C24.9318 19.7921 24.9317 20.0365 24.9317 20.2809C24.9316 20.9467 24.9325 21.6124 24.9334 22.2781C24.9343 22.9731 24.9344 23.668 24.9346 24.3629C24.935 25.6798 24.9362 26.9968 24.9376 28.3137C24.9392 29.8125 24.94 31.3114 24.9407 32.8102C24.9422 35.8944 24.9447 38.9785 24.9479 42.0627C25.8721 42.5281 26.7967 42.9929 27.7216 43.4569C28.1511 43.6724 28.5804 43.8881 29.0095 44.1042C29.5026 44.3525 29.996 44.6 30.4895 44.8474C30.7212 44.9644 30.7212 44.9644 30.9576 45.0837C31.1003 45.155 31.243 45.2264 31.39 45.2999C31.579 45.3949 31.579 45.3949 31.7719 45.4918C32.0647 45.6464 32.0647 45.6464 32.362 45.6271C32.3899 45.5424 32.4178 45.4577 32.4466 45.3704C33.0028 43.8291 33.8654 42.6957 35.2135 41.7775C35.9147 41.2231 36.1336 40.5993 36.4538 39.7903C37.1823 38.0754 38.4923 36.9155 40.2038 36.217C40.3006 36.1929 40.3975 36.1688 40.4973 36.144C41.3611 35.9268 41.7237 35.3363 42.221 34.6462C43.1831 33.3363 44.5504 32.5688 46.1403 32.2699C46.7768 32.1751 47.4014 32.0822 48.0456 32.0822C48.0456 23.3778 48.0456 14.6734 48.0456 5.70527C47.7117 5.70527 47.3034 5.99607 47.0207 6.13734ZM13.5417 18.1096C13.5417 25.7318 13.5417 33.354 13.5417 41.2072C15.8471 41.2072 18.1526 41.2072 20.528 41.2072C20.528 33.585 20.528 25.9628 20.528 18.1096C18.2225 18.1096 15.917 18.1096 13.5417 18.1096ZM52.4655 23.0998C52.4655 26.6757 52.4655 30.2515 52.4655 33.9357C52.983 33.6064 53.5006 33.277 54.0338 32.9377C54.7699 32.6056 55.3698 32.3745 56.1636 32.2694C56.5244 32.1922 56.6879 32.152 56.9177 31.86C57.4893 30.4472 57.317 28.588 56.7801 27.1978C55.9776 25.4536 54.9112 24.1241 53.1784 23.2424C52.9431 23.1953 52.7079 23.1483 52.4655 23.0998ZM7.87807 24.5607C7.78387 24.6078 7.68967 24.6549 7.59262 24.7035C7.39342 24.8033 7.19436 24.9034 6.99542 25.0038C6.69004 25.1577 6.38421 25.3108 6.0783 25.4638C5.88511 25.5607 5.69194 25.6577 5.4988 25.7548C5.40687 25.8008 5.31494 25.8468 5.22022 25.8943C4.78999 26.0947 4.78999 26.0947 4.41666 26.3791C4.4034 26.5848 4.39991 26.7912 4.40047 26.9973C4.40048 27.1286 4.40049 27.2599 4.4005 27.3952C4.40124 27.5379 4.40197 27.6807 4.40273 27.8277C4.40293 27.9731 4.40314 28.1185 4.40335 28.2682C4.40415 28.7346 4.40593 29.2009 4.40774 29.6673C4.40846 29.9826 4.40911 30.298 4.40969 30.6133C4.41127 31.3881 4.41366 32.1629 4.41666 32.9377C5.06363 33.2629 5.7108 33.5878 6.35813 33.9123C6.5785 34.0229 6.79882 34.1335 7.01909 34.2443C7.33499 34.4031 7.65107 34.5615 7.96719 34.7199C8.06625 34.7698 8.16531 34.8197 8.26737 34.8711C8.67579 35.113 8.67579 35.113 9.12173 35.2189C9.12173 31.549 9.12173 27.879 9.12173 24.0978C8.65988 24.0978 8.28295 24.356 7.87807 24.5607ZM45.595 37.3286C45.2128 37.7933 45.0134 38.3059 44.7885 38.8597C44.5296 39.4118 44.1552 39.6592 43.6256 39.924C43.3347 39.9582 43.0436 39.9906 42.7523 40.022C41.8606 40.1542 41.2455 40.3947 40.6315 41.0646C40.2423 41.6057 40.1391 42.0369 40.0701 42.6954C39.9648 43.459 39.8716 43.9183 39.3483 44.4865C39.0334 44.714 38.722 44.8766 38.3664 45.0312C37.6095 45.3743 37.1051 45.7879 36.6393 46.4826C36.3894 47.2322 36.3392 48.0685 36.6259 48.8151C36.9976 49.4488 37.3932 49.8714 38.0651 50.1896C38.3967 50.263 38.7296 50.3308 39.0631 50.3946C39.8948 50.5578 40.3695 50.6767 40.9167 51.3303C41.2809 52.0271 41.2661 52.7228 41.0592 53.4689C40.7209 54.0842 40.2923 54.3899 39.6335 54.6096C39.3817 54.6502 39.1291 54.6857 38.876 54.7165C37.8757 54.8893 37.2416 55.324 36.6393 56.1334C36.3843 56.9781 36.3784 57.8051 36.6482 58.6463C37.1957 59.4057 37.8156 59.8506 38.6621 60.2414C39.3031 60.5527 39.6283 60.7758 39.9186 61.4533C39.9652 61.7556 40.0062 62.0587 40.0434 62.3622C40.1575 63.2471 40.3964 63.84 41.0592 64.4474C41.6003 64.8367 42.0315 64.9398 42.69 65.0089C43.4536 65.1141 43.9129 65.2073 44.4811 65.7307C44.7086 66.0456 44.8712 66.357 45.0258 66.7125C45.4166 67.5746 45.8935 68.1889 46.7819 68.5705C47.6213 68.8122 48.2707 68.6842 49.0436 68.2971C49.6971 67.9184 50.0371 67.4453 50.2594 66.7343C50.452 65.9035 50.3392 65.3025 49.9375 64.57C49.4966 63.9242 48.9221 63.5619 48.1881 63.3068C47.9277 63.2597 47.6662 63.2182 47.404 63.1821C46.7614 63.0705 46.3533 62.9554 45.9069 62.4514C45.5375 61.8357 45.5417 61.1531 45.6217 60.4553C45.8436 59.8562 46.0681 59.4996 46.6198 59.1721C47.8155 58.7735 49.1268 59.1146 50.3268 59.3146C50.3268 57.809 50.3268 56.3034 50.3268 54.7521C49.2862 54.7223 49.2862 54.7223 48.2454 54.6968C47.4645 54.6687 46.8617 54.6286 46.192 54.1818C45.646 53.5792 45.5803 53.011 45.5905 52.2264C45.6492 51.6132 45.8834 51.1956 46.3346 50.7867C46.8266 50.4946 47.2462 50.4514 47.8066 50.4297C47.9387 50.4242 48.0708 50.4188 48.2069 50.4132C48.4579 50.404 48.4579 50.404 48.7139 50.3946C49.2462 50.374 49.7784 50.3534 50.3268 50.3322C50.3268 48.8266 50.3268 47.321 50.3268 45.7697C49.4799 45.9109 49.4799 45.9109 48.6159 46.0549C46.9311 46.1445 46.9311 46.1445 46.192 45.6271C45.646 45.0246 45.5803 44.4563 45.5905 43.6717C45.6464 43.0877 45.8634 42.6648 46.289 42.266C46.7179 42.0024 47.105 41.9434 47.6 41.8577C48.7425 41.629 49.3675 41.3389 50.0417 40.3517C50.363 39.7573 50.4258 39.162 50.3268 38.4982C50.076 37.7511 49.7298 37.199 49.0436 36.7873C47.6813 36.2494 46.7125 36.2897 45.595 37.3286ZM55.6289 37.0279C55.0778 37.6105 54.7218 38.2567 54.6754 39.0685C54.7194 39.8137 55.0151 40.4527 55.5203 40.9995C56.1755 41.5768 56.8209 41.7855 57.6696 41.9023C58.3122 42.0138 58.7202 42.1289 59.1667 42.633C59.5623 43.2735 59.5453 44.0428 59.4518 44.7717C59.2027 45.2985 58.9834 45.5526 58.5161 45.8945C57.263 46.3046 56.0269 45.9831 54.7467 45.7697C54.7467 47.2753 54.7467 48.781 54.7467 50.3322C55.7874 50.3621 55.7874 50.3621 56.8281 50.3875C57.6091 50.4157 58.2119 50.4558 58.8815 50.9025C59.4529 51.533 59.5021 52.1479 59.4914 52.9688C59.4322 53.5041 59.2442 53.7904 58.8815 54.1818C58.0813 54.7196 57.2635 54.6874 56.3329 54.7076C55.8095 54.7223 55.286 54.737 54.7467 54.7521C54.7467 56.2578 54.7467 57.7634 54.7467 59.3146C55.5936 59.1735 55.5936 59.1735 56.4577 59.0295C58.1424 58.9399 58.1424 58.9399 58.8815 59.4572C59.4276 60.0598 59.4932 60.628 59.483 61.4127C59.4271 61.9966 59.2101 62.4196 58.7846 62.8184C58.3557 63.0819 57.9685 63.1409 57.4735 63.2266C56.3311 63.4554 55.7061 63.7454 55.0319 64.7326C54.7263 65.3132 54.6905 65.7917 54.7467 66.4435C55.0371 67.2857 55.3789 67.9268 56.1458 68.404C57.0173 68.7458 57.6939 68.7973 58.5674 68.4675C59.4047 68.0132 59.8537 67.2486 60.2449 66.4079C60.5518 65.7687 60.7733 65.4494 61.4479 65.1603C61.9188 65.0787 62.3904 65.0157 62.8642 64.9537C63.5917 64.8231 63.9823 64.4892 64.4777 63.9662C64.9429 63.2684 65.0454 62.6078 65.0781 61.7875C65.1915 61.2944 65.4091 60.9909 65.7253 60.5978C66.1563 60.3311 66.1563 60.3311 66.6342 60.1077C67.5205 59.6596 68.1229 59.2245 68.5768 58.3166C68.6831 57.3299 68.6826 56.5079 68.0717 55.695C67.4593 55.017 66.8877 54.8577 66.0104 54.6898C64.6674 54.4206 64.6674 54.4206 64.1569 53.7541C63.9045 53.0784 63.8494 52.4986 63.943 51.7847C64.2075 51.2228 64.4565 50.8863 65.0124 50.6174C65.5188 50.4896 66.0271 50.3914 66.5401 50.2932C67.3467 50.1148 67.7931 49.7603 68.2738 49.1114C68.6862 48.3998 68.6862 47.7108 68.5768 46.9103C68.326 46.1283 67.8197 45.6499 67.151 45.1994C66.8232 45.0452 66.4912 44.9088 66.1558 44.7722C65.6506 44.5211 65.4004 44.122 65.1549 43.631C65.1207 43.3401 65.0883 43.049 65.0569 42.7578C64.9247 41.866 64.6842 41.2509 64.0143 40.6369C63.3407 40.1523 62.7198 40.11 61.9118 40.0271C61.351 39.9025 61.034 39.7208 60.5924 39.3537C60.3257 38.9226 60.3257 38.9226 60.1023 38.4448C59.6402 37.5437 59.2417 36.9176 58.2934 36.5166C57.2849 36.219 56.5048 36.5024 55.6289 37.0279ZM15.8229 45.6271C15.8229 50.1911 15.8229 54.755 15.8229 59.4572C17.3756 59.4572 18.9283 59.4572 20.528 59.4572C20.528 54.8933 20.528 50.3294 20.528 45.6271C18.9753 45.6271 17.4226 45.6271 15.8229 45.6271Z" fill="#3B5BA6"/>
<path d="M67.0075 9.12815C67.6977 9.46049 68.1057 9.86114 68.4332 10.5539C68.554 11.3808 68.5677 12.0392 68.0613 12.7372C67.6305 13.2596 67.1558 13.7376 66.6778 14.2164C66.5731 14.3246 66.4684 14.4327 66.3606 14.5442C65.609 15.2997 65.0213 15.7682 63.9331 15.8828C63.2225 15.8053 62.785 15.5881 62.2667 15.0986C61.8379 14.3941 61.6604 13.745 61.8323 12.9308C62.0352 12.3567 62.2491 12.089 62.68 11.665C62.8116 11.5345 62.9432 11.4039 63.0788 11.2693C63.1817 11.17 63.1817 11.17 63.2867 11.0686C63.4967 10.8656 63.7039 10.6601 63.9109 10.454C64.9345 9.44817 65.5358 8.94187 67.0075 9.12815Z" fill="#3B5BA6"/>
<path d="M69.6846 27.3399C69.8704 27.3355 69.8704 27.3355 70.06 27.331C70.9023 27.3259 71.5212 27.4448 72.2866 27.8033C72.9976 28.5507 73.0499 29.0805 73.0391 30.0862C72.9858 30.6604 72.8307 30.9557 72.4292 31.3677C71.5967 31.9468 70.6941 31.8638 69.7202 31.8578C69.4715 31.8621 69.4715 31.8621 69.2179 31.8665C68.2981 31.8659 67.7067 31.8509 67.0112 31.2251C66.8833 31.1149 66.8833 31.1149 66.7528 31.0024C66.327 30.4869 66.3941 29.8232 66.4008 29.1906C66.4573 28.6423 66.6398 28.3474 67.0112 27.9458C67.8608 27.3299 68.6721 27.3458 69.6846 27.3399Z" fill="#3B5BA6"/>
</g>
<defs>
<clipPath id="clip0_1682_320">
<rect width="73" height="73" fill="white"/>
</clipPath>
</defs>
</svg>
