<svg width="113" height="48" viewBox="0 0 113 48" fill="none" xmlns="http://www.w3.org/2000/svg">
<g clip-path="url(#clip0_1322_401)">
<path d="M48.1451 -0.0251079C48.2184 -0.0255327 48.2918 -0.0259575 48.3674 -0.0263952C48.6139 -0.0275851 48.8605 -0.0274283 49.1071 -0.0272737C49.2835 -0.0278345 49.46 -0.0284725 49.6365 -0.029182C50.1165 -0.0308413 50.5964 -0.031278 51.0764 -0.0313975C51.4769 -0.0315753 51.8774 -0.0322649 52.2779 -0.0329297C53.2227 -0.0344576 54.1676 -0.0349142 55.1125 -0.034781C56.0875 -0.0346684 57.0625 -0.0366464 58.0375 -0.039608C58.8742 -0.042059 59.7109 -0.0430655 60.5476 -0.0429456C61.0475 -0.0428978 61.5474 -0.0434337 62.0473 -0.0454165C62.5176 -0.0472307 62.9878 -0.0472473 63.458 -0.0458822C63.6306 -0.0456859 63.8031 -0.0461299 63.9757 -0.0472622C64.2114 -0.0487086 64.4469 -0.0478399 64.6826 -0.0463939C64.7849 -0.0478406 64.7849 -0.0478406 64.8893 -0.0493164C65.3622 -0.0429098 65.6317 0.0751425 65.9942 0.374963C66.4245 1.0743 66.6678 1.89031 66.953 2.65829C67.0087 2.80744 67.0645 2.95659 67.1203 3.10571C67.2663 3.4964 67.4119 3.88727 67.5574 4.27818C67.7344 4.75338 67.9119 5.22838 68.0893 5.70339C68.2273 6.07286 68.3653 6.44235 68.5029 6.81195C68.5283 6.87993 68.5536 6.94792 68.5797 7.01796C68.6267 7.14416 68.6737 7.27037 68.7207 7.39661C68.8125 7.6429 68.9058 7.88756 69.0075 8.12996C69.3214 8.9641 69.1095 10.0049 68.7646 10.79C68.1696 11.9051 67.3263 12.5356 66.1817 13.0312C65.1775 13.3255 63.9123 13.2294 62.9722 12.8016C61.8791 12.1886 61.0579 11.2728 60.6947 10.0523C60.3657 8.50086 61.042 7.13197 61.6066 5.7201C61.7328 5.40273 61.8562 5.08425 61.9798 4.76583C62.2212 4.14469 62.4671 3.52566 62.713 2.90621C61.1042 2.87528 59.4955 2.84434 57.838 2.81246C57.838 6.86528 57.838 10.9181 57.838 15.0937C59.388 15.0905 60.938 15.0872 62.535 15.0838C63.5151 15.0824 64.4952 15.081 65.4753 15.08C65.9901 15.0794 66.5048 15.0789 67.0196 15.0783C67.0841 15.0782 67.1486 15.0781 67.2151 15.078C68.2566 15.0768 69.2982 15.0746 70.3397 15.072C71.4087 15.0694 72.4776 15.0678 73.5465 15.0673C74.1469 15.0669 74.7473 15.066 75.3477 15.064C75.9127 15.0621 76.4776 15.0615 77.0426 15.0619C77.25 15.0618 77.4575 15.0613 77.665 15.0602C77.9481 15.0588 78.2311 15.0591 78.5142 15.0599C78.5965 15.0591 78.6787 15.0583 78.7635 15.0574C79.2335 15.0609 79.556 15.114 79.963 15.375C80.3357 15.7879 80.4432 16.015 80.4474 16.5648C80.4485 16.6783 80.4496 16.7919 80.4507 16.9089C80.4514 17.0354 80.4521 17.1619 80.4528 17.2885C80.4538 17.4212 80.4549 17.5539 80.456 17.6867C80.4594 18.1234 80.4618 18.5601 80.4639 18.9968C80.4643 19.0711 80.4647 19.1454 80.4651 19.222C80.4685 19.923 80.4714 20.624 80.4734 21.325C80.476 22.2213 80.4808 23.1175 80.4885 24.0138C80.4937 24.6442 80.4964 25.2745 80.4973 25.9049C80.4979 26.2812 80.4996 26.6575 80.504 27.0339C80.5081 27.3883 80.509 27.7427 80.5077 28.0972C80.5077 28.2269 80.5088 28.3566 80.5112 28.4863C80.522 29.1084 80.5295 29.5859 80.1164 30.0772C79.7971 30.3941 79.5376 30.4807 79.0922 30.4794C79.0115 30.4793 78.9309 30.4793 78.8477 30.4793C78.761 30.4789 78.6743 30.4784 78.5849 30.4779C78.4958 30.4777 78.4068 30.4776 78.315 30.4775C78.0303 30.4769 77.7457 30.4758 77.461 30.4746C77.2681 30.4741 77.0751 30.4737 76.8822 30.4733C76.4091 30.4723 75.9361 30.4706 75.463 30.4687C75.4496 30.5564 75.4363 30.6441 75.4225 30.7345C75.23 31.8065 74.3579 32.7286 73.5118 33.3574C72.6002 33.9599 71.7114 34.235 70.6272 34.2279C70.5127 34.2277 70.5127 34.2277 70.3958 34.2275C70.1532 34.2269 69.9106 34.2258 69.668 34.2246C69.5031 34.2241 69.3381 34.2237 69.1731 34.2233C68.7697 34.2223 68.3663 34.2206 67.963 34.2187C67.9492 34.2916 67.9354 34.3644 67.9212 34.4395C67.7259 35.3707 67.0716 36.2018 66.3037 36.7397C66.0785 36.8751 65.8509 37.0012 65.6192 37.125C65.5264 37.1868 65.4336 37.2487 65.338 37.3125C65.3603 37.3821 65.3603 37.3821 65.383 37.4531C65.6331 38.6565 65.4272 39.8726 64.7579 40.8984C64.0609 41.8223 63.1571 42.5093 62.0021 42.724C61.2728 42.8076 60.6021 42.7783 59.9005 42.5625C59.8831 42.6359 59.8657 42.7094 59.8477 42.7851C59.4249 43.8515 58.6266 44.6202 57.5955 45.0937C57.0038 45.3388 56.4941 45.3917 55.8575 45.3984C55.7936 45.3993 55.7297 45.4002 55.6639 45.4011C55.2603 45.3985 54.9319 45.3347 54.5567 45.1875C54.5469 45.2545 54.5371 45.3216 54.5271 45.3907C54.3094 46.2923 53.6151 46.9414 52.8692 47.4375C51.8143 48.0731 50.563 48.1799 49.366 47.9355C48.7883 47.7391 48.2944 47.4246 47.8067 47.0625C47.737 47.0142 47.6673 46.966 47.5954 46.9163C47.5414 46.8717 47.4874 46.8272 47.4317 46.7812C47.4317 46.7193 47.4317 46.6575 47.4317 46.5937C47.3698 46.5937 47.308 46.5937 47.2442 46.5937C47.2442 46.5318 47.2442 46.47 47.2442 46.4062C47.1823 46.4062 47.1205 46.4062 47.0567 46.4062C46.9417 46.2857 46.9417 46.2857 46.8106 46.1191C46.5405 45.7922 46.2445 45.5221 45.9226 45.2472C45.6928 45.0495 45.48 44.8487 45.2755 44.625C45.2755 44.5631 45.2755 44.5012 45.2755 44.4375C45.1827 44.4065 45.0898 44.3756 44.9942 44.3437C44.9942 44.2818 44.9942 44.22 44.9942 44.1562C44.9014 44.1253 44.8086 44.0943 44.713 44.0625C44.5548 43.9277 44.5548 43.9277 44.4317 43.7812C44.4317 43.7193 44.4317 43.6575 44.4317 43.5937C44.3698 43.5937 44.308 43.5937 44.2442 43.5937C44.2442 43.5318 44.2442 43.47 44.2442 43.4062C44.1514 43.3753 44.0586 43.3443 43.963 43.3125C43.8023 43.1607 43.647 43.0034 43.4942 42.8437C43.4361 42.7875 43.378 42.7313 43.3181 42.6734C43.2582 42.6155 43.1984 42.5577 43.1368 42.498C43.0518 42.4163 43.0518 42.4163 42.965 42.3328C42.838 42.1875 42.838 42.1875 42.838 42C42.7761 42 42.7142 42 42.6505 42C42.6505 41.9381 42.6505 41.8762 42.6505 41.8125C42.5577 41.7815 42.4648 41.7506 42.3692 41.7187C42.3692 41.6568 42.3692 41.595 42.3692 41.5312C42.2764 41.5003 42.1836 41.4693 42.088 41.4375C42.088 41.3756 42.088 41.3137 42.088 41.25C41.9642 41.1881 41.8405 41.1262 41.713 41.0625C41.713 41.0006 41.713 40.9387 41.713 40.875C41.6202 40.844 41.5273 40.8131 41.4317 40.7812C40.841 40.2722 40.599 39.6713 40.3679 38.9447C40.3328 38.8395 40.2977 38.7343 40.2615 38.626C40.1479 38.2844 40.0369 37.942 39.9259 37.5996C39.8479 37.3635 39.7697 37.1275 39.6913 36.8916C39.5727 36.5341 39.4542 36.1766 39.3367 35.8188C39.0926 35.0762 38.844 34.3353 38.5896 33.5962C38.5587 33.5066 38.5279 33.417 38.4961 33.3247C38.3803 32.9884 38.2642 32.6522 38.148 32.316C38.0702 32.0906 37.9927 31.865 37.9154 31.6395C37.8928 31.5745 37.8702 31.5095 37.847 31.4425C37.7367 31.1202 37.6449 30.8048 37.588 30.4687C37.5362 30.4693 37.4843 30.47 37.431 30.4706C36.8911 30.4768 36.3512 30.4811 35.8113 30.4842C35.6098 30.4856 35.4084 30.4875 35.207 30.4899C34.9173 30.4933 34.6276 30.4949 34.3378 30.4962C34.248 30.4976 34.1581 30.4991 34.0655 30.5006C33.43 30.5007 33.1415 30.3961 32.6571 29.9768C32.2764 29.5084 32.3673 28.8945 32.3725 28.3222C32.3721 28.1891 32.3714 28.056 32.3705 27.9229C32.3688 27.5624 32.37 27.202 32.3718 26.8415C32.3734 26.4638 32.3725 26.086 32.3721 25.7083C32.3716 25.074 32.3731 24.4398 32.3758 23.8056C32.3788 23.0729 32.3788 22.3402 32.3771 21.6076C32.3756 20.902 32.3763 20.1964 32.3779 19.4908C32.3785 19.1908 32.3784 18.8909 32.3777 18.591C32.377 18.2376 32.3782 17.8843 32.3807 17.5309C32.3814 17.4015 32.3814 17.272 32.3807 17.1425C32.3751 15.931 32.3751 15.931 32.8067 15.4687C33.2719 15.0599 33.7217 15.0805 34.3154 15.0824C34.4478 15.0823 34.4478 15.0823 34.5829 15.0822C34.88 15.082 35.1772 15.0826 35.4743 15.0831C35.6867 15.0831 35.8992 15.0831 36.1117 15.083C36.6897 15.083 37.2676 15.0836 37.8456 15.0842C38.4492 15.0848 39.0527 15.0848 39.6563 15.085C40.6698 15.0852 41.6832 15.0858 42.6967 15.0866C43.7406 15.0875 44.7845 15.0882 45.8284 15.0886C45.8934 15.0886 45.9584 15.0886 46.0254 15.0886C46.5907 15.0889 47.156 15.0891 47.7213 15.0893C50.156 15.0901 52.5907 15.092 55.0255 15.0937C55.0255 11.0409 55.0255 6.98809 55.0255 2.81246C53.4167 2.8434 51.808 2.87434 50.1505 2.90621C50.2994 3.28133 50.4482 3.65645 50.6016 4.04293C50.7204 4.34629 50.8386 4.64984 50.9565 4.95352C51.0803 5.27202 51.2049 5.59012 51.3318 5.9074C52.5351 8.92079 52.5351 8.92079 52.0196 10.4941C51.4614 11.7647 50.5582 12.4893 49.3067 13.0312C48.3025 13.3255 47.0373 13.2294 46.0972 12.8016C44.9928 12.1823 44.2071 11.2767 43.8177 10.0574C43.5858 8.8842 43.8621 7.90156 44.2922 6.82504C44.3459 6.68515 44.3995 6.54518 44.4528 6.40513C44.5923 6.04024 44.7349 5.67657 44.8781 5.31309C45.0223 4.94552 45.1637 4.57686 45.3053 4.20828C45.5374 3.60529 45.771 3.0029 46.0075 2.40163C46.1222 2.10945 46.2352 1.81678 46.3445 1.52252C46.3853 1.41334 46.4261 1.30417 46.4681 1.19168C46.5036 1.0954 46.539 0.999119 46.5755 0.899919C46.8826 0.195374 47.4084 -0.0282154 48.1451 -0.0251079ZM47.9005 5.71871C47.7232 6.15989 47.548 6.60181 47.3746 7.04451C47.3154 7.19484 47.2557 7.34496 47.1953 7.49486C47.1085 7.71099 47.0237 7.92781 46.9392 8.14486C46.912 8.2112 46.8849 8.27753 46.8569 8.34588C46.6891 8.78441 46.6543 9.09423 46.7755 9.56246C47.0399 9.8756 47.3171 10.1879 47.7382 10.2502C48.2784 10.2585 48.607 10.2213 49.0255 9.84371C49.2608 9.56288 49.3124 9.44376 49.282 9.07611C49.2093 8.69952 49.0958 8.35457 48.9577 7.99838C48.9329 7.93272 48.908 7.86706 48.8824 7.79941C48.8038 7.59193 48.7242 7.38481 48.6446 7.1777C48.5908 7.03618 48.537 6.89464 48.4833 6.75308C48.3522 6.40801 48.2203 6.06328 48.088 5.71871C48.0261 5.71871 47.9642 5.71871 47.9005 5.71871ZM64.7755 5.71871C64.5982 6.15989 64.423 6.60181 64.2496 7.04451C64.1904 7.19484 64.1307 7.34496 64.0703 7.49486C63.9835 7.71099 63.8987 7.92781 63.8142 8.14486C63.787 8.2112 63.7599 8.27753 63.7319 8.34588C63.5641 8.78441 63.5293 9.09423 63.6505 9.56246C63.9149 9.8756 64.1921 10.1879 64.6132 10.2502C65.1534 10.2585 65.482 10.2213 65.9005 9.84371C66.1358 9.56288 66.1874 9.44376 66.157 9.07611C66.0843 8.69952 65.9708 8.35457 65.8327 7.99838C65.8079 7.93272 65.783 7.86706 65.7575 7.79941C65.6788 7.59193 65.5992 7.38481 65.5196 7.1777C65.4658 7.03618 65.412 6.89464 65.3583 6.75308C65.2272 6.40801 65.0953 6.06328 64.963 5.71871C64.9011 5.71871 64.8392 5.71871 64.7755 5.71871ZM35.2442 18C35.2442 21.1556 35.2442 24.3112 35.2442 27.5625C36.9612 27.6089 36.9612 27.6089 38.713 27.6562C39.5567 27.9375 39.5567 27.9375 39.7825 28.1974C39.9331 28.5028 40.0552 28.7998 40.163 29.1228C40.1832 29.1825 40.2034 29.2422 40.2242 29.3038C40.2906 29.5008 40.3558 29.6982 40.421 29.8956C40.4681 30.0362 40.5153 30.1768 40.5626 30.3173C40.6874 30.6889 40.8113 31.0609 40.9349 31.4329C41.0325 31.7263 41.1306 32.0195 41.2288 32.3127C41.2772 32.4571 41.3255 32.6017 41.3737 32.7462C41.4959 33.1119 41.6193 33.4771 41.7452 33.8416C41.9658 34.4837 42.1794 35.1211 42.3403 35.7812C42.9713 38.3639 44.4548 39.8624 46.3608 41.6505C46.7441 42.0128 47.1206 42.3821 47.498 42.7505C48.0478 43.2848 48.5992 43.8172 49.1569 44.3432C49.243 44.4252 49.243 44.4252 49.3308 44.5088C49.8212 44.9682 50.1659 45.1483 50.8496 45.1362C51.2475 45.0653 51.495 44.8399 51.7442 44.5312C51.9558 44.1748 52.0171 43.8128 51.9317 43.4062C51.6118 42.83 51.1337 42.4143 50.6568 41.9676C50.1773 41.5043 49.9058 41.129 49.8341 40.4472C49.8868 39.9638 50.0277 39.676 50.3848 39.3457C50.7786 39.0799 51.089 39.0554 51.5567 39.0937C52.148 39.3036 52.5549 39.6677 52.982 40.114C53.0425 40.1754 53.103 40.2369 53.1653 40.3002C53.3566 40.4948 53.5466 40.6906 53.7364 40.8867C53.9277 41.0832 54.1194 41.2795 54.3116 41.4752C54.4306 41.5965 54.5492 41.7184 54.6672 41.8408C54.721 41.8959 54.7749 41.9509 54.8304 42.0077C54.9007 42.0803 54.9007 42.0803 54.9724 42.1544C55.3051 42.4418 55.6067 42.5107 56.0479 42.4984C56.4828 42.4327 56.7989 42.2189 57.0762 41.8769C57.2585 41.4415 57.3236 41.1179 57.1766 40.6623C56.9826 40.2367 56.6713 39.9458 56.3376 39.6258C56.2739 39.5631 56.2103 39.5004 56.1447 39.4359C55.9424 39.2369 55.7389 39.0393 55.5352 38.8418C55.3314 38.6431 55.1278 38.4442 54.9248 38.2447C54.7987 38.1209 54.6722 37.9976 54.5451 37.875C54.4878 37.8189 54.4306 37.7629 54.3716 37.7052C54.3212 37.6563 54.2708 37.6075 54.219 37.5572C53.8682 37.1528 53.8605 36.7699 53.8708 36.2526C53.9243 35.7969 54.1415 35.5556 54.4747 35.2617C54.8896 35.0993 55.2433 35.0849 55.6817 35.1562C56.3829 35.4935 56.9182 36.0784 57.4527 36.6284C57.5827 36.76 57.7127 36.8916 57.8428 37.0232C58.0683 37.2518 58.293 37.4814 58.5177 37.7109C58.7875 37.9865 59.0576 38.262 59.3288 38.5364C59.4969 38.7066 59.6644 38.8775 59.8312 39.0491C59.9072 39.1261 59.9833 39.2031 60.0617 39.2824C60.1281 39.3502 60.1944 39.4181 60.2628 39.488C60.5336 39.7156 60.7885 39.834 61.1423 39.858C61.6879 39.8045 61.9615 39.6852 62.338 39.2812C62.5564 38.9138 62.6147 38.4807 62.5255 38.0625C62.1973 37.4805 61.7162 37.047 61.2419 36.583C61.1527 36.4948 61.0635 36.4066 60.9744 36.3183C60.5979 35.9455 60.2202 35.5739 59.8422 35.2026C59.6102 34.9746 59.3788 34.7459 59.1479 34.5168C59.0178 34.3882 58.887 34.2604 58.7561 34.1326C58.6766 34.0538 58.5971 33.9749 58.5152 33.8937C58.4454 33.825 58.3755 33.7564 58.3036 33.6856C57.9479 33.2672 57.7875 32.8801 57.8112 32.3393C57.8701 31.936 58.0476 31.6717 58.3184 31.3769C58.6788 31.1654 59.0142 31.0887 59.4317 31.125C60.0031 31.319 60.3352 31.6061 60.7475 32.039C60.8077 32.1004 60.8678 32.1617 60.9298 32.225C61.1208 32.4199 61.3106 32.6161 61.5001 32.8125C61.69 33.0088 61.8802 33.2048 62.0713 33.4C62.1899 33.521 62.3077 33.6428 62.4248 33.7653C62.7943 34.1432 63.1457 34.4413 63.6827 34.5406C64.1849 34.5415 64.4784 34.4693 64.8692 34.125C65.1853 33.7668 65.1861 33.4199 65.197 32.9622C65.07 32.2974 64.4611 31.8164 64.0014 31.3608C63.9236 31.283 63.8458 31.2052 63.7657 31.1251C63.5095 30.869 63.2526 30.6135 62.9957 30.3581C62.8175 30.1803 62.6394 30.0024 62.4613 29.8245C62.041 29.4048 61.6203 28.9856 61.1993 28.5666C60.7199 28.0892 60.241 27.6113 59.7621 27.1334C58.7776 26.1508 57.7924 25.1689 56.8067 24.1875C56.493 24.3362 56.2883 24.4969 56.0441 24.7458C55.9686 24.8222 55.8931 24.8986 55.8153 24.9773C55.7344 25.0601 55.6534 25.1429 55.57 25.2282C55.441 25.3587 55.3119 25.4892 55.1828 25.6196C54.8657 25.9403 54.5496 26.262 54.2337 26.5839C54.0565 26.7644 53.8788 26.9445 53.7008 27.1242C53.5338 27.2928 53.3674 27.4621 53.2018 27.632C52.1009 28.7417 50.995 29.5221 49.3946 29.5605C48.2253 29.5485 47.2738 29.1331 46.418 28.3535C45.5849 27.4251 45.1954 26.4747 45.1817 25.2187C45.3314 23.3152 46.5502 22.1435 47.8452 20.8619C47.9251 20.7823 48.0051 20.7027 48.0875 20.6207C48.3394 20.3699 48.5916 20.1195 48.8438 19.8691C49.1792 19.5362 49.5142 19.2031 49.8491 18.8697C49.9264 18.7932 50.0037 18.7166 50.0834 18.6377C50.1539 18.5676 50.2244 18.4974 50.297 18.4251C50.3906 18.3322 50.3906 18.3322 50.4861 18.2375C50.6298 18.1149 50.6298 18.1149 50.6192 18C45.5455 18 40.4717 18 35.2442 18ZM48.6267 23.9666C48.5836 24.0255 48.5406 24.0844 48.4962 24.1451C48.149 24.6453 47.9603 25.1255 48.0352 25.7461C48.226 26.1581 48.4423 26.4009 48.838 26.625C49.2442 26.7512 49.5458 26.7758 49.9419 26.6093C50.279 26.4177 50.5308 26.1865 50.7983 25.9109C50.8505 25.8582 50.9027 25.8056 50.9565 25.7514C51.0692 25.6377 51.1815 25.5236 51.2935 25.4093C51.471 25.2282 51.6494 25.048 51.8281 24.8679C52.2072 24.4856 52.5852 24.1023 52.963 23.7187C53.4009 23.2741 53.8394 22.8299 54.279 22.3869C54.4544 22.2097 54.6289 22.0317 54.8034 21.8536C54.9114 21.7446 55.0195 21.6356 55.1276 21.5266C55.1756 21.4772 55.2235 21.4278 55.2729 21.3769C55.6917 20.9579 56.1093 20.6787 56.713 20.6777C57.2603 20.6981 57.5305 20.9099 57.9405 21.2625C59.3089 22.4066 60.8331 22.913 62.6087 22.8006C64.067 22.6577 65.2536 21.9553 66.326 21.0036C66.7095 20.6859 67.0614 20.6868 67.5404 20.6923C67.9831 20.742 68.2288 20.97 68.5137 21.2929C68.6699 21.6919 68.6968 22.0784 68.6192 22.5C68.3834 23.0008 68.1068 23.3247 67.6641 23.6601C67.6074 23.7037 67.5507 23.7473 67.4922 23.7922C65.9502 24.9393 64.3085 25.4094 62.4317 25.6875C62.9059 26.2623 63.4248 26.7818 63.9555 27.3043C64.0482 27.3961 64.1409 27.4879 64.2335 27.5798C64.6238 27.967 65.0144 28.3537 65.4061 28.7395C65.6468 28.9767 65.8869 29.2146 66.1265 29.453C66.2608 29.5862 66.3959 29.7187 66.5311 29.8511C66.8949 30.2136 67.2165 30.5379 67.4597 30.9927C67.557 31.1733 67.557 31.1733 67.6817 31.3125C67.9736 31.3901 68.142 31.4124 68.4328 31.4022C68.5409 31.4023 68.5409 31.4023 68.6511 31.4023C68.8032 31.4016 68.9554 31.3991 69.1075 31.3948C69.3377 31.3887 69.5672 31.389 69.7975 31.3903C70.603 31.3856 71.3292 31.3572 71.9942 30.8437C72.5814 30.2177 72.7596 29.614 72.8698 28.7754C72.9609 28.3702 73.1033 28.1099 73.4415 27.8671C74.6714 27.2672 76.575 27.5899 77.6192 27.5625C77.6192 24.4068 77.6192 21.2512 77.6192 18C73.7332 17.8052 73.7332 17.8052 69.8462 17.675C69.3147 17.6619 68.7832 17.6485 68.2517 17.6343C68.1851 17.6326 68.1185 17.6308 68.0499 17.629C67.1217 17.604 66.1954 17.5631 65.2684 17.5092C63.6697 17.4162 62.073 17.3539 60.4714 17.3499C60.4092 17.3497 60.347 17.3495 60.2829 17.3493C54.8149 17.3396 51.7537 19.617 48.6267 23.9666Z" fill="white"/>
</g>
<defs>
<clipPath id="clip0_1322_401">
<rect width="48" height="48" fill="white" transform="translate(32.4333)"/>
</clipPath>
</defs>
</svg>
