<svg width="48" height="48" viewBox="0 0 48 48" fill="none" xmlns="http://www.w3.org/2000/svg">
<g clip-path="url(#clip0_1322_383)">
<path d="M7.48261 16.837C7.62126 16.836 7.62126 16.836 7.76271 16.835C8.06792 16.8333 8.37309 16.8337 8.67831 16.8342C8.89068 16.8338 9.10306 16.8333 9.31544 16.8327C9.76047 16.8319 10.2055 16.8321 10.6505 16.833C11.2206 16.8341 11.7906 16.8322 12.3607 16.8295C12.7993 16.8278 13.2378 16.8278 13.6764 16.8283C13.8866 16.8283 14.0968 16.8278 14.3069 16.8266C14.6009 16.8252 14.8948 16.8262 15.1888 16.8278C15.2754 16.8269 15.3621 16.826 15.4514 16.8251C15.9716 16.831 16.2741 16.9002 16.6855 17.2499C17.0477 17.7245 17.0719 18.237 17.0735 18.8181C17.074 18.9229 17.0745 19.0278 17.075 19.1358C17.0751 19.2495 17.0752 19.3632 17.0753 19.4803C17.076 19.6658 17.0768 19.8512 17.0775 20.0366C17.0782 20.2353 17.0787 20.434 17.0792 20.6327C17.0802 21.0481 17.0821 21.4636 17.0842 21.879C17.09 23.0601 17.095 24.2412 17.0981 25.4224C17.0999 26.0752 17.1026 26.7281 17.1064 27.3809C17.1084 27.7257 17.1098 28.0705 17.11 28.4153C17.1103 28.8008 17.1127 29.1862 17.1152 29.5716C17.1149 29.6842 17.1146 29.7967 17.1144 29.9126C17.1243 30.927 17.3184 31.8429 17.7929 32.742C17.8257 32.8058 17.8585 32.8696 17.8923 32.9353C18.1358 33.399 18.4087 33.8187 18.748 34.2186C18.807 34.295 18.866 34.3714 18.9267 34.4501C19.6223 35.291 20.5853 35.749 21.5605 36.1874C21.6346 36.2213 21.7087 36.2553 21.785 36.2903C23.4242 36.9337 25.3348 36.6806 26.9043 35.9999C28.6721 35.189 29.6916 33.8849 30.4668 32.1561C30.5007 32.0809 30.5347 32.0058 30.5697 31.9283C31.1125 30.5262 30.9623 28.8161 30.9612 27.3449C30.961 26.9504 30.9623 26.556 30.964 26.1615C30.9683 25.0411 30.9706 23.9208 30.9712 22.8004C30.9716 22.1787 30.9733 21.5569 30.9764 20.9351C30.9783 20.5433 30.9785 20.1516 30.9775 19.7598C30.9772 19.4594 30.9793 19.1591 30.9811 18.8587C30.9799 18.6972 30.9799 18.6972 30.9787 18.5324C30.9846 17.9687 30.9996 17.5868 31.4043 17.1561C31.822 16.7942 32.2695 16.8344 32.7951 16.837C32.9338 16.836 32.9338 16.836 33.0752 16.835C33.3804 16.8333 33.6856 16.8337 33.9908 16.8342C34.2032 16.8338 34.4156 16.8333 34.6279 16.8327C35.073 16.8319 35.518 16.8321 35.963 16.833C36.5331 16.8341 37.1031 16.8322 37.6732 16.8295C38.1118 16.8278 38.5503 16.8278 38.9889 16.8283C39.1991 16.8283 39.4093 16.8278 39.6194 16.8266C39.9134 16.8252 40.2073 16.8262 40.5013 16.8278C40.6313 16.8265 40.6313 16.8265 40.7639 16.8251C41.2841 16.831 41.5866 16.9002 41.998 17.2499C42.4692 17.8673 42.3865 18.6255 42.3851 19.3651C42.3854 19.5281 42.3854 19.5281 42.3856 19.6943C42.3861 20.0536 42.3858 20.4128 42.3855 20.7721C42.3855 21.0232 42.3856 21.2743 42.3857 21.5255C42.3859 22.0527 42.3857 22.5799 42.3852 23.1072C42.3847 23.7118 42.3849 24.3164 42.3854 24.921C42.3858 25.4433 42.3859 25.9657 42.3856 26.488C42.3855 26.7985 42.3855 27.1089 42.3858 27.4194C42.3884 31.2118 42.3884 31.2118 42.1211 32.7127C42.1048 32.8062 42.0885 32.8996 42.0717 32.9959C41.1774 37.8861 38.3568 42.1258 34.2849 44.9552C33.6922 45.356 33.0698 45.7012 32.4355 46.0311C32.3728 46.0637 32.3101 46.0964 32.2455 46.13C30.6542 46.9452 28.9464 47.5037 27.1855 47.8124C27.0937 47.8289 27.0019 47.8455 26.9073 47.8625C25.9563 48.0175 25.0183 48.0374 24.0566 48.035C23.974 48.0349 23.8913 48.0348 23.8062 48.0348C22.4648 48.0304 21.1798 47.9501 19.873 47.6249C19.7794 47.6017 19.6858 47.5786 19.5893 47.5548C18.3141 47.2299 17.1139 46.8026 15.9355 46.2186C15.8693 46.1865 15.803 46.1544 15.7347 46.1213C13.2989 44.9327 11.1118 43.1221 9.46676 40.9686C9.42511 40.9148 9.38346 40.8611 9.34055 40.8056C7.01445 37.7733 5.68631 34.0033 5.68952 30.1798C5.68896 30.0439 5.68832 29.9079 5.68761 29.7719C5.68598 29.407 5.68552 29.0422 5.6854 28.6773C5.68526 28.4488 5.68486 28.2204 5.68437 27.992C5.68264 27.1938 5.68187 26.3956 5.68202 25.5975C5.68213 24.855 5.68014 24.1125 5.67719 23.37C5.67474 22.7303 5.67373 22.0907 5.67385 21.451C5.6739 21.0698 5.67337 20.6887 5.67138 20.3076C5.66956 19.9499 5.66955 19.5922 5.67091 19.2345C5.67111 19.1036 5.67067 18.9726 5.66953 18.8416C5.66054 17.7306 5.66054 17.7306 5.87781 17.3726C6.38849 16.8558 6.78391 16.8336 7.48261 16.837ZM8.62301 19.6874C8.62301 20.6155 8.62301 21.5436 8.62301 22.4999C10.4483 22.4999 12.2736 22.4999 14.1543 22.4999C14.1543 21.5717 14.1543 20.6436 14.1543 19.6874C12.3289 19.6874 10.5036 19.6874 8.62301 19.6874ZM33.9355 19.6874C33.9355 20.6155 33.9355 21.5436 33.9355 22.4999C35.7608 22.4999 37.5861 22.4999 39.4668 22.4999C39.4668 21.5717 39.4668 20.6436 39.4668 19.6874C37.6414 19.6874 35.8161 19.6874 33.9355 19.6874ZM8.62301 25.3124C8.61205 26.3451 8.61205 26.3451 8.6047 27.3778C8.60248 27.8009 8.5999 28.2239 8.59472 28.647C8.57516 30.2883 8.59475 31.8649 8.99801 33.4686C9.02541 33.5788 9.05281 33.689 9.08105 33.8026C9.15416 34.0683 9.23589 34.3274 9.32613 34.5877C9.35745 34.6795 9.38876 34.7713 9.42103 34.8658C10.189 37.0183 11.4215 38.8152 12.9355 40.4999C12.9919 40.5632 13.0484 40.6265 13.1065 40.6918C13.6419 41.2582 14.2806 41.7233 14.9043 42.1874C14.9579 42.2274 15.0115 42.2675 15.0668 42.3087C18.2299 44.6322 22.2965 45.5686 26.1645 45.0299C29.4931 44.5167 32.2998 43.0094 34.7793 40.7811C34.8426 40.7247 34.9059 40.6682 34.9712 40.6101C35.5376 40.0747 36.0027 39.436 36.4668 38.8124C36.5068 38.7587 36.5469 38.7051 36.5881 38.6498C37.9417 36.8071 38.7875 34.6665 39.2148 32.4315C39.2298 32.3541 39.2448 32.2768 39.2602 32.1971C39.5344 30.6231 39.4789 29.0011 39.4726 27.41C39.4697 26.3717 39.4697 26.3717 39.4668 25.3124C37.6414 25.3124 35.8161 25.3124 33.9355 25.3124C33.9123 26.6738 33.9123 26.6738 33.8907 28.0352C33.8319 31.382 33.8319 31.382 33.414 32.6483C33.3901 32.7241 33.3661 32.7998 33.3415 32.8779C32.9428 34.0747 32.3382 35.1522 31.498 36.0936C31.4348 36.1701 31.3716 36.2466 31.3065 36.3254C29.8369 38.0573 27.579 39.2517 25.3105 39.4686C22.2806 39.5941 19.56 39.0534 17.2714 36.952C15.5016 35.2616 14.2961 32.9164 14.2075 30.4423C14.2037 30.2033 14.2012 29.9642 14.2 29.7252C14.1985 29.5968 14.1967 29.4683 14.1949 29.3399C14.1905 29.0067 14.1877 28.6735 14.1852 28.3403C14.1824 27.9983 14.1781 27.6564 14.1739 27.3144C14.1657 26.6471 14.16 25.9798 14.1543 25.3124C12.3289 25.3124 10.5036 25.3124 8.62301 25.3124Z" fill="white"/>
<path d="M23.2477 0.374819C23.3541 0.443729 23.4597 0.513912 23.5641 0.585757C23.8129 0.784488 23.8129 0.784488 24.1852 0.749819C24.3644 0.659116 24.3644 0.659116 24.5368 0.533022C25.1718 0.0888015 25.7925 -0.0510413 26.5583 -0.0411964C26.6756 -0.0400295 26.6756 -0.0400295 26.7954 -0.0388389C27.9259 -0.00798915 28.6966 0.408267 29.5022 1.18634C30.4093 2.16499 30.6165 3.33245 30.5895 4.61774C30.5116 6.25648 29.4284 7.44081 28.3102 8.53107C28.251 8.59234 28.1918 8.65361 28.1308 8.71674C27.6865 9.17278 27.2238 9.58313 26.7267 9.98053C26.3126 10.3144 25.9156 10.669 25.5178 11.0221C25.0084 11.4694 24.6058 11.776 23.904 11.8123C23.3873 11.7073 23.0569 11.5111 22.6735 11.1619C22.5672 11.0685 22.4609 10.9751 22.3545 10.8818C22.3008 10.834 22.247 10.7862 22.1916 10.7369C21.9828 10.5528 21.7698 10.374 21.5563 10.1954C21.0542 9.77506 20.5625 9.34506 20.0789 8.90351C19.9029 8.74559 19.723 8.59705 19.5387 8.44904C18.512 7.57242 17.5664 6.22696 17.4124 4.85948C17.3202 3.62615 17.4675 2.52292 18.2204 1.49982C19.4259 0.0999079 21.5403 -0.642101 23.2477 0.374819ZM20.7165 3.09357C20.3732 3.52484 20.2658 3.89349 20.2964 4.44489C20.5577 5.85118 22.2757 7.04412 23.3415 7.87482C23.4571 7.97 23.5725 8.06561 23.6872 8.16193C23.7587 8.22187 23.8303 8.28181 23.904 8.34357C24.3279 8.2095 24.6034 7.97227 24.9177 7.66974C25.0174 7.5758 25.1173 7.48193 25.2172 7.38812C25.2653 7.34267 25.3135 7.29722 25.3631 7.25038C25.5347 7.09034 25.7118 6.93731 25.8903 6.78498C27.0632 5.7948 27.0632 5.7948 27.7012 4.44269C27.7272 3.88958 27.6032 3.53821 27.279 3.09357C26.9313 2.86178 26.6508 2.8334 26.2477 2.90607C25.7376 3.22002 25.5507 3.59075 25.3102 4.12482C25.082 4.53566 24.9224 4.81658 24.4665 4.96857C24.2969 4.98203 24.1268 4.98924 23.9567 4.99201C23.8679 4.99442 23.7791 4.99684 23.6875 4.99933C23.3964 4.96384 23.2815 4.87214 23.0602 4.68732C22.9984 4.68732 22.9365 4.68732 22.8727 4.68732C22.8495 4.60998 22.8263 4.53263 22.8024 4.45294C22.5408 3.72049 22.2851 3.18344 21.5661 2.81232C21.2408 2.81232 20.9818 2.91565 20.7165 3.09357Z" fill="white"/>
<path d="M39.433 3.20656C40.2812 3.84411 40.6939 4.62532 40.9696 5.62502C41.0649 5.63203 41.1601 5.63903 41.2582 5.64626C42.4591 5.75303 43.406 6.07028 44.2531 6.97743C45.093 8.0713 45.1968 9.17142 45.0946 10.5C44.8762 11.6147 44.1493 12.6719 43.2196 13.3125C41.4899 14.3406 39.5138 14.4109 37.5502 14.5132C37.2388 14.5302 36.9279 14.551 36.6169 14.573C36.435 14.5846 36.2531 14.5961 36.0712 14.6074C35.95 14.6166 35.95 14.6166 35.8264 14.626C35.3003 14.6546 34.7686 14.6336 34.3134 14.3438C33.8804 13.89 33.7385 13.4046 33.6209 12.8017C33.6033 12.7179 33.5856 12.6341 33.5675 12.5477C33.5119 12.2814 33.4585 12.0148 33.4052 11.7481C33.3684 11.5708 33.3315 11.3937 33.2944 11.2165C33.1929 10.7284 33.0959 10.2394 33.0009 9.75002C32.9792 9.64021 32.9576 9.5304 32.9352 9.41727C32.8118 8.74559 32.779 8.08855 32.7782 7.40627C32.7759 7.30451 32.7736 7.20276 32.7713 7.09792C32.7667 5.81498 33.2236 4.6692 34.0966 3.72658C35.5828 2.32526 37.7187 2.11759 39.433 3.20656ZM36.1884 5.81252C35.5941 6.57878 35.6331 7.41666 35.7196 8.34377C35.8857 9.44217 36.0975 10.5495 36.3759 11.625C37.5378 11.6002 38.6989 11.5748 39.8505 11.4082C39.9233 11.3983 39.9961 11.3884 40.071 11.3783C40.7219 11.275 41.4459 11.082 41.8603 10.5352C41.9255 10.4521 41.9255 10.4521 41.9921 10.3674C42.2485 9.99566 42.2454 9.6273 42.1884 9.18752C42.0202 8.91843 41.9088 8.76645 41.6259 8.62502C41.0787 8.55274 40.7619 8.66174 40.2665 8.90627C39.7651 9.15062 39.4597 9.28278 38.9071 9.18752C38.5692 9.05849 38.3148 8.88263 38.0692 8.6133C37.8769 8.09275 37.931 7.56078 38.0634 7.03127C38.1403 6.32332 38.1403 6.32332 37.8407 5.70705C37.2583 5.29102 36.748 5.36838 36.1884 5.81252Z" fill="white"/>
<path d="M13.2401 3.19917C14.2685 3.98517 14.8923 4.92651 15.1854 6.18745C15.3629 7.92214 15.0635 9.5896 14.6982 11.275C14.6283 11.5997 14.5624 11.925 14.4976 12.2508C14.4595 12.4348 14.4212 12.6188 14.3826 12.8027C14.3583 12.9246 14.3583 12.9246 14.3335 13.0491C14.2063 13.6209 13.9983 14.1063 13.5154 14.4726C12.9441 14.6358 12.3745 14.6348 11.7877 14.5997C11.7157 14.5958 11.6438 14.592 11.5697 14.588C11.4179 14.5797 11.2662 14.5711 11.1145 14.5622C10.8885 14.549 10.6624 14.537 10.4363 14.5252C9.68367 14.484 8.93396 14.4281 8.18451 14.3466C8.11749 14.3395 8.05047 14.3323 7.98141 14.3249C6.49641 14.1545 4.96135 13.7195 3.93536 12.5625C3.02419 11.3626 2.74892 10.201 2.90411 8.7187C3.127 7.63309 3.81815 6.84223 4.68536 6.18745C5.38529 5.72897 6.2176 5.70063 7.02911 5.62495C7.04857 5.55353 7.06803 5.48211 7.08807 5.40852C7.3991 4.36613 7.96037 3.55568 8.89825 2.98274C10.2718 2.25038 11.9385 2.34955 13.2401 3.19917ZM10.1229 5.7187C9.91294 6.03359 9.9123 6.14206 9.91779 6.50972C9.91869 6.64296 9.91869 6.64296 9.91962 6.77888C9.93365 7.00376 9.97289 7.18953 10.0291 7.4062C10.0761 7.87288 10.0795 8.23717 9.87677 8.66597C9.52975 9.04039 9.205 9.19953 8.69904 9.24019C8.30978 9.23037 8.06483 9.10296 7.73224 8.9062C7.27121 8.63372 6.90551 8.4966 6.37286 8.62495C6.10377 8.79313 5.9518 8.90457 5.81036 9.18745C5.75781 9.61818 5.76688 9.94424 5.96271 10.3359C6.79371 11.2981 7.81116 11.4062 9.02679 11.5129C9.89062 11.5756 10.7573 11.5993 11.6229 11.625C11.7014 11.2481 11.7798 10.8712 11.858 10.4943C11.8846 10.3662 11.9113 10.2382 11.938 10.1102C11.9765 9.92545 12.0148 9.74066 12.0532 9.55586C12.0762 9.44491 12.0993 9.33395 12.1231 9.21963C12.2377 8.64306 12.3011 8.09813 12.3084 7.51167C12.3111 7.44001 12.3138 7.36834 12.3167 7.29451C12.3238 6.64509 12.1334 6.1617 11.699 5.67769C11.1689 5.38317 10.6081 5.30698 10.1229 5.7187Z" fill="white"/>
</g>
<defs>
<clipPath id="clip0_1322_383">
<rect width="48" height="48" fill="white"/>
</clipPath>
</defs>
</svg>
