<svg width="66" height="66" viewBox="0 0 66 66" fill="none" xmlns="http://www.w3.org/2000/svg">
<g clip-path="url(#clip0_1322_390)">
<path d="M38.5163 2.6987C40.0712 2.8088 41.4524 3.44096 42.5256 4.57662C42.7371 4.82275 42.897 5.09569 43.0555 5.37722C43.0917 5.44007 43.128 5.50292 43.1654 5.56768C43.2862 5.77769 43.406 5.98835 43.5257 6.19903C43.6131 6.35154 43.7007 6.50401 43.7883 6.65644C44.0285 7.07491 44.2676 7.49396 44.5066 7.9131C44.7647 8.36523 45.0236 8.81683 45.2825 9.2685C45.7893 10.1532 46.2951 11.0383 46.8006 11.9237C47.2114 12.6431 47.6224 13.3624 48.0336 14.0816C49.0094 15.7883 49.9851 17.4952 50.9596 19.2027C51.0064 19.2845 51.0064 19.2845 51.054 19.3681C51.2119 19.6447 51.3698 19.9213 51.5277 20.198C51.559 20.2529 51.5904 20.3078 51.6227 20.3644C51.6861 20.4755 51.7495 20.5866 51.8129 20.6977C52.8001 22.4273 53.7885 24.1561 54.778 25.8844C55.8897 27.8262 57.0004 29.7687 58.1095 31.7121C58.6968 32.741 59.2845 33.7696 59.8736 34.7976C60.3749 35.6724 60.8751 36.5478 61.3739 37.4241C61.6284 37.8714 61.8836 38.3183 62.1401 38.7644C62.3748 39.1726 62.6079 39.5816 62.8399 39.9913C62.9242 40.1396 63.0091 40.2876 63.0946 40.4352C63.2104 40.6356 63.3243 40.8369 63.4376 41.0387C63.4884 41.1248 63.4884 41.1248 63.5401 41.2126C63.7667 41.623 63.798 41.9131 63.7131 42.3719C63.5473 42.7744 63.3533 42.9416 62.9795 43.1555C62.8824 43.2118 62.7853 43.2682 62.6852 43.3262C62.5781 43.3867 62.471 43.4472 62.3606 43.5095C62.246 43.5754 62.1314 43.6415 62.0168 43.7076C61.7019 43.8889 61.3861 44.0687 61.0701 44.2483C60.7295 44.4422 60.3897 44.6375 60.0498 44.8326C59.3837 45.2147 58.7169 45.5954 58.0498 45.9756C57.5077 46.2846 56.9659 46.5941 56.4242 46.9039C56.3471 46.9479 56.2701 46.992 56.1907 47.0374C56.0342 47.1269 55.8777 47.2164 55.7211 47.3059C54.2528 48.1455 52.7836 48.9836 51.3141 49.8212C49.9693 50.5877 48.6256 51.3562 47.2824 52.1255C45.9036 52.9151 44.5241 53.7036 43.1439 54.4907C42.3689 54.9328 41.5941 55.3753 40.82 55.819C40.1611 56.1967 39.5015 56.5733 38.841 56.9484C38.504 57.1399 38.1673 57.3319 37.8314 57.5252C37.5239 57.7023 37.2156 57.8777 36.9066 58.052C36.742 58.1454 36.5783 58.2403 36.4146 58.3353C35.5016 58.8467 35.5016 58.8467 34.9256 58.6963C34.5481 58.5372 34.3749 58.3696 34.1746 58.0162C34.1259 57.9316 34.0771 57.847 34.0269 57.7598C33.9752 57.6671 33.9234 57.5744 33.8701 57.4789C33.7864 57.3323 33.7864 57.3323 33.701 57.1828C33.5485 56.9154 33.3972 56.6475 33.2463 56.3792C33.0883 56.0988 32.9288 55.8191 32.7695 55.5393C32.4682 55.0098 32.1682 54.4795 31.8686 53.949C31.5274 53.3449 31.1849 52.7417 30.8422 52.1384C30.1374 50.8978 29.4344 49.6563 28.7325 48.414C28.6099 48.4427 28.6099 48.4427 28.4847 48.472C28.1356 48.5327 27.8175 48.5389 27.4635 48.5312C27.2901 48.5279 27.2901 48.5279 27.1131 48.5246C26.9822 48.5212 26.9822 48.5212 26.8487 48.5178C26.8285 48.5923 26.8285 48.5923 26.808 48.6683C26.4806 49.8774 26.1526 51.0864 25.8238 52.2951C25.6648 52.8797 25.506 53.4643 25.3478 54.049C25.1951 54.6133 25.0418 55.1774 24.8881 55.7414C24.8295 55.9566 24.7712 56.1719 24.7131 56.3873C24.6317 56.6889 24.5495 56.9902 24.4671 57.2914C24.4313 57.4252 24.4313 57.4252 24.3948 57.5617C24.2165 58.2089 24.0707 58.6776 23.4622 59.026C23.0371 59.2537 22.7565 59.3436 22.2738 59.2253C21.8918 59.0476 21.697 58.8718 21.4813 58.5106C21.4324 58.4331 21.3836 58.3556 21.3333 58.2758C21.1118 57.579 21.4129 56.771 21.6036 56.0878C21.6285 55.9966 21.6534 55.9054 21.6791 55.8114C21.7606 55.5132 21.8431 55.2152 21.9256 54.9173C21.9827 54.7093 22.0397 54.5013 22.0967 54.2933C22.2461 53.7482 22.3963 53.2034 22.5467 52.6586C22.7003 52.1017 22.8531 51.5446 23.006 50.9875C23.3057 49.8962 23.6061 48.8051 23.9071 47.7141C23.8185 47.6622 23.7299 47.6104 23.6387 47.5569C23.5208 47.4877 23.403 47.4185 23.2852 47.3493C23.227 47.3153 23.1688 47.2812 23.1088 47.2461C20.9389 45.9701 19.1279 43.859 18.4287 41.4025C18.3663 41.1609 18.3176 40.9222 18.2706 40.6764C18.2586 40.6149 18.2466 40.5533 18.2343 40.4899C17.7696 38.0157 18.1969 35.5469 19.5066 33.3861C19.6366 33.2372 19.7682 33.0897 19.9022 32.9444C19.8497 32.8541 19.7972 32.7638 19.7431 32.6707C19.2482 31.8192 18.7551 30.9666 18.2636 30.1131C18.0109 29.6743 17.7576 29.2359 17.5029 28.7983C17.2571 28.3759 17.0129 27.9525 16.7698 27.5286C16.6768 27.3671 16.5832 27.2059 16.4891 27.045C16.3572 26.8195 16.2274 26.5929 16.098 26.3659C16.0587 26.2998 16.0195 26.2337 15.979 26.1656C15.7361 25.7328 15.6718 25.4463 15.7662 24.9422C15.8951 24.5212 16.0737 24.2507 16.3703 23.9281C16.4496 23.8411 16.5289 23.754 16.6106 23.6644C16.6984 23.5696 16.7862 23.4748 16.8741 23.3801C16.9664 23.2792 17.0588 23.1783 17.151 23.0774C17.3496 22.8604 17.5486 22.6438 17.7481 22.4276C18.0673 22.0816 18.3854 21.7345 18.7034 21.3873C19.0915 20.9637 19.4798 20.5403 19.8684 20.1172C20.548 19.3774 21.2255 18.6358 21.9017 17.8929C21.9742 17.8132 21.9742 17.8132 22.0482 17.7319C22.291 17.4651 22.5338 17.1983 22.7766 16.9314C23.2165 16.4479 23.6568 15.9648 24.097 15.4816C24.2436 15.3207 24.3902 15.1599 24.5368 14.999C26.0539 13.3337 27.5714 11.6687 29.0894 10.0043C29.6137 9.42947 30.1377 8.85451 30.6616 8.27937C31.0471 7.85614 31.4327 7.43303 31.8184 7.01002C32.0457 6.76079 32.2729 6.5115 32.4999 6.26206C32.7487 5.98872 32.9977 5.71566 33.2468 5.44263C33.3197 5.36248 33.3925 5.28232 33.4676 5.19974C34.8394 3.69798 36.4175 2.68527 38.5163 2.6987ZM35.4955 8.06711C35.453 8.95497 35.7559 9.60601 36.2503 10.335C36.7812 10.8838 37.4932 11.1783 38.2514 11.2167C38.7686 11.1974 39.2265 11.0265 39.7036 10.8385C40.185 10.6523 40.5308 10.5783 41.015 10.7794C41.2728 10.9669 41.3925 11.1358 41.5479 11.413C41.5955 11.495 41.6431 11.5769 41.6922 11.6613C41.8436 12.0361 41.8422 12.3075 41.7034 12.6866C41.4208 13.0734 41.0458 13.2564 40.6332 13.4895C40.4955 13.5692 40.4955 13.5692 40.355 13.6505C40.0465 13.8285 39.7372 14.0049 39.4277 14.1812C39.2066 14.3082 38.9857 14.4356 38.7648 14.563C38.2888 14.8371 37.8122 15.1104 37.3353 15.3831C36.6458 15.7774 35.9571 16.173 35.2685 16.569C34.1514 17.2114 33.0336 17.8526 31.9154 18.4933C30.8292 19.1155 29.7433 19.7383 28.6578 20.3618C28.5575 20.4194 28.5575 20.4194 28.4551 20.4783C28.1194 20.6711 27.7837 20.8639 27.448 21.0567C24.6634 22.6563 21.8776 24.2539 19.0915 25.8508C20.027 27.4897 20.9626 29.1287 21.9265 30.8173C22.7325 30.3572 23.5386 29.8971 24.369 29.4231C24.9208 29.2254 25.3785 29.069 25.9391 28.9587C26.0452 28.9359 26.1513 28.9132 26.2607 28.8898C28.7848 28.4241 31.3221 28.9656 33.4495 30.3867C34.7294 31.2788 35.7119 32.3553 36.4757 33.7188C36.5361 33.8259 36.5965 33.933 36.6587 34.0433C37.1074 34.8604 37.4307 35.6327 37.6103 36.5457C37.6444 36.7049 37.6444 36.7049 37.6792 36.8673C38.145 39.3917 37.6034 41.9289 36.182 44.0563C35.8341 44.5563 35.4525 45.0188 35.0364 45.4634C34.963 45.542 34.8896 45.6206 34.814 45.7016C33.867 46.6093 32.7614 47.0858 31.5934 47.7525C33.0197 50.2513 34.446 52.7501 35.9156 55.3245C43.9761 50.7235 52.0366 46.1224 60.3413 41.3819C56.8716 35.2923 56.8716 35.2923 53.4003 29.2036C52.9323 28.383 52.4644 27.5624 51.9964 26.7418C51.9377 26.639 51.8791 26.5361 51.8187 26.4301C50.8717 24.7695 49.9252 23.1085 48.979 21.4473C48.008 19.7427 47.0364 18.0385 46.0642 16.3345C45.4643 15.283 44.8648 14.2312 44.266 13.1791C43.8554 12.4577 43.4441 11.7367 43.0324 11.0159C42.7949 10.6 42.5576 10.184 42.3211 9.76749C42.1044 9.38602 41.8869 9.005 41.6689 8.6243C41.5902 8.48669 41.5119 8.34892 41.4338 8.21098C40.5449 6.63602 40.5449 6.63602 39.0337 5.72233C38.0819 5.49518 37.4606 5.69223 36.6294 6.1953C35.9882 6.65252 35.6576 7.30355 35.4955 8.06711ZM32.3363 10.777C32.274 10.846 32.2117 10.9149 32.1476 10.9859C32.0798 11.0617 32.0119 11.1374 31.942 11.2155C31.8705 11.2947 31.799 11.374 31.7254 11.4557C31.5703 11.6276 31.4154 11.7997 31.2607 11.9719C30.8908 12.3833 30.5201 12.794 30.1494 13.2046C30.0645 13.2986 29.9795 13.3927 29.8946 13.4868C28.8632 14.6294 27.8221 15.7631 26.7795 16.8956C26.0097 17.7322 25.2457 18.5735 24.4899 19.4228C24.5053 19.4497 24.5206 19.4766 24.5364 19.5043C28.1099 17.4645 31.6834 15.4246 35.3652 13.323C35.0451 13.0357 35.0451 13.0357 34.7157 12.7593C33.9152 12.0775 33.4203 11.2068 32.8897 10.3102C32.6468 10.4489 32.5215 10.571 32.3363 10.777ZM21.1678 36.8637C20.6777 38.8066 21.0828 40.6211 22.0802 42.3197C22.8944 43.654 24.0945 44.6098 25.5711 45.145C25.6776 45.1911 25.7841 45.2372 25.8937 45.2847C26.9504 45.6592 28.0222 45.6012 29.1176 45.4955C29.1988 45.4883 29.2799 45.4811 29.3636 45.4736C31.1068 45.2197 32.6389 44.0526 33.6655 42.6836C34.8498 41.0508 35.163 39.1987 34.8774 37.2421C34.8577 37.1052 34.8577 37.1052 34.8375 36.9655C34.4594 35.2083 33.2358 33.681 31.7689 32.7189C31.3267 32.4389 30.8841 32.2092 30.3913 32.0306C30.2848 31.9845 30.1783 31.9384 30.0687 31.8909C28.4069 31.299 26.5392 31.5453 24.9542 32.233C23.0514 33.1957 21.777 34.8299 21.1678 36.8637Z" fill="white"/>
<path d="M50.1015 30.8187C50.5796 30.7822 50.8572 30.8733 51.2526 31.1332C51.4252 31.3404 51.4252 31.3404 51.5685 31.5803C51.6417 31.6965 51.6417 31.6965 51.7164 31.8151C52.0003 32.7078 51.4884 33.8647 51.2482 34.7372C51.2036 34.901 51.1589 35.0649 51.1143 35.2287C51.0212 35.5705 50.9275 35.9121 50.8336 36.2537C50.7133 36.6909 50.5943 37.1283 50.4755 37.5659C50.3838 37.9036 50.2914 38.2412 50.1988 38.5787C50.1546 38.7399 50.1107 38.9013 50.0669 39.0626C50.0057 39.2879 49.9437 39.513 49.8814 39.7381C49.8636 39.8042 49.8458 39.8704 49.8275 39.9386C49.6614 40.5326 49.4899 40.9297 48.9521 41.2509C48.8358 41.3241 48.8358 41.3241 48.7173 41.3988C48.0537 41.6098 47.2884 41.3411 46.6345 41.16C46.5574 41.139 46.4804 41.1181 46.401 41.0966C46.2399 41.0526 46.0789 41.0084 45.9179 40.9638C45.6723 40.896 45.4263 40.8295 45.1803 40.7632C45.0229 40.7201 44.8655 40.6769 44.7081 40.6336C44.6351 40.614 44.5622 40.5943 44.487 40.5741C43.8774 40.4037 43.4497 40.2379 43.1227 39.6668C42.895 39.2417 42.805 38.961 42.9234 38.4784C43.1011 38.0964 43.2769 37.9016 43.6381 37.6859C43.7156 37.637 43.7931 37.5882 43.8729 37.5379C44.5967 37.3078 45.4103 37.6278 46.1156 37.8302C46.2029 37.8546 46.2902 37.8791 46.3802 37.9043C46.5925 37.964 46.8047 38.0242 47.0167 38.085C47.2386 37.7941 47.3254 37.5161 47.4191 37.1641C47.4661 36.9898 47.4661 36.9898 47.514 36.8119C47.5303 36.7501 47.5467 36.6881 47.5635 36.6244C47.6149 36.4298 47.6671 36.2355 47.7195 36.0412C47.8496 35.5586 47.9782 35.0756 48.1069 34.5927C48.2157 34.1844 48.3251 33.7763 48.4351 33.3683C48.4864 33.1774 48.5369 32.9863 48.5874 32.7951C48.6188 32.6785 48.6502 32.5618 48.6826 32.4417C48.7098 32.3393 48.7371 32.2369 48.7652 32.1314C49.0061 31.3997 49.4049 31.1111 50.1015 30.8187Z" fill="white"/>
<path d="M45.9221 23.4911C46.4002 23.4545 46.6777 23.5456 47.0731 23.8056C47.2458 24.0127 47.2458 24.0127 47.3891 24.2527C47.4623 24.3689 47.4623 24.3689 47.537 24.4875C47.8208 25.3802 47.3089 26.5371 47.0688 27.4096C47.0241 27.5734 46.9795 27.7372 46.9349 27.9011C46.8417 28.2429 46.7481 28.5845 46.6541 28.9261C46.5339 29.3632 46.4148 29.8007 46.2961 30.2382C46.2043 30.576 46.1119 30.9135 46.0193 31.251C45.9752 31.4123 45.9312 31.5736 45.8875 31.735C45.8263 31.9603 45.7642 32.1854 45.702 32.4104C45.6842 32.4766 45.6664 32.5428 45.648 32.611C45.482 33.205 45.3105 33.6021 44.7726 33.9233C44.6564 33.9965 44.6564 33.9965 44.5378 34.0712C43.8742 34.2822 43.1089 34.0135 42.455 33.8323C42.378 33.8114 42.301 33.7905 42.2216 33.7689C42.0605 33.725 41.8994 33.6808 41.7385 33.6362C41.4929 33.5684 41.2469 33.5019 41.0009 33.4355C40.8434 33.3924 40.686 33.3492 40.5286 33.306C40.4557 33.2863 40.3827 33.2667 40.3076 33.2464C39.698 33.076 39.2702 32.9103 38.9432 32.3391C38.7156 31.9141 38.6256 31.6334 38.7439 31.1508C38.9216 30.7688 39.0974 30.574 39.4587 30.3582C39.5362 30.3094 39.6136 30.2606 39.6935 30.2103C40.4173 29.9802 41.2308 30.3001 41.9362 30.5025C42.0235 30.527 42.1108 30.5515 42.2007 30.5767C42.4131 30.6363 42.6252 30.6965 42.8372 30.7573C43.0592 30.4664 43.146 30.1885 43.2397 29.8365C43.2866 29.6622 43.2866 29.6622 43.3345 29.4843C43.3509 29.4224 43.3672 29.3605 43.3841 29.2967C43.4355 29.1022 43.4877 28.9078 43.5401 28.7136C43.6701 28.231 43.7988 27.748 43.9274 27.265C44.0363 26.8568 44.1456 26.4486 44.2557 26.0407C44.307 25.8497 44.3575 25.6586 44.4079 25.4675C44.4394 25.3508 44.4708 25.2342 44.5031 25.1141C44.5304 25.0117 44.5576 24.9092 44.5857 24.8037C44.8267 24.072 45.2254 23.7834 45.9221 23.4911Z" fill="white"/>
<path d="M41.738 16.1634C42.2161 16.1269 42.4937 16.218 42.889 16.4779C43.0617 16.6851 43.0617 16.6851 43.205 16.925C43.2782 17.0413 43.2782 17.0413 43.3529 17.1598C43.6367 18.0525 43.1248 19.2095 42.8847 20.0819C42.84 20.2458 42.7954 20.4096 42.7508 20.5734C42.6576 20.9152 42.564 21.2569 42.47 21.5984C42.3498 22.0356 42.2307 22.473 42.112 22.9106C42.0202 23.2483 41.9278 23.5859 41.8353 23.9234C41.7911 24.0847 41.7471 24.246 41.7034 24.4073C41.6422 24.6327 41.5801 24.8577 41.5179 25.0828C41.5001 25.149 41.4823 25.2152 41.4639 25.2833C41.2979 25.8774 41.1264 26.2744 40.5885 26.5956C40.4723 26.6689 40.4723 26.6689 40.3538 26.7436C39.6901 26.9546 38.9248 26.6859 38.271 26.5047C38.1939 26.4838 38.1169 26.4628 38.0375 26.4413C37.8764 26.3974 37.7154 26.3531 37.5544 26.3086C37.3088 26.2407 37.0628 26.1742 36.8168 26.1079C36.6593 26.0648 36.5019 26.0216 36.3445 25.9783C36.2716 25.9587 36.1986 25.939 36.1235 25.9188C35.5139 25.7484 35.0861 25.5827 34.7591 25.0115C34.5315 24.5864 34.4415 24.3058 34.5598 23.8232C34.7375 23.4411 34.9133 23.2463 35.2746 23.0306C35.3521 22.9818 35.4296 22.933 35.5094 22.8827C36.2332 22.6525 37.0468 22.9725 37.7521 23.1749C37.8394 23.1994 37.9267 23.2238 38.0166 23.2491C38.229 23.3087 38.4411 23.3689 38.6532 23.4297C38.8751 23.1388 38.9619 22.8608 39.0556 22.5089C39.1026 22.3345 39.1026 22.3345 39.1505 22.1567C39.1668 22.0948 39.1832 22.0329 39.2 21.9691C39.2514 21.7745 39.3036 21.5802 39.356 21.3859C39.486 20.9033 39.6147 20.4204 39.7433 19.9374C39.8522 19.5291 39.9615 19.121 40.0716 18.7131C40.1229 18.5221 40.1734 18.331 40.2239 18.1398C40.2553 18.0232 40.2867 17.9066 40.319 17.7864C40.3463 17.684 40.3736 17.5816 40.4017 17.4761C40.6426 16.7444 41.0413 16.4558 41.738 16.1634Z" fill="white"/>
</g>
<defs>
<clipPath id="clip0_1322_390">
<rect width="48" height="48" fill="white" transform="translate(0 23.7954) rotate(-29.7185)"/>
</clipPath>
</defs>
</svg>
