<svg width="73" height="73" viewBox="0 0 73 73" fill="none" xmlns="http://www.w3.org/2000/svg">
<g clip-path="url(#clip0_1322_326)">
<path d="M36.4494 28.7564C36.5946 28.7567 36.7398 28.757 36.8894 28.7573C38.9741 28.7644 41.0128 28.808 43.0615 29.2287C43.278 29.2712 43.278 29.2712 43.499 29.3145C49.7945 30.5734 55.6562 33.3557 60.456 37.6408C60.5762 37.7454 60.6964 37.8499 60.8203 37.9577C62.3505 39.3046 63.7659 40.7361 65.0185 42.3459C65.1292 42.4826 65.2398 42.6193 65.3538 42.7602C69.1882 47.5807 71.5691 53.4004 72.5751 59.4552C72.5919 59.5514 72.6086 59.6475 72.6258 59.7465C72.8652 61.1722 72.8963 62.6012 72.9138 64.0445C72.9175 64.225 72.9212 64.4056 72.925 64.5916C72.9281 66.2214 72.9281 66.2214 72.29 66.8693C71.692 67.3212 71.1721 67.3571 70.4467 67.3485C70.3337 67.3488 70.2207 67.3492 70.1043 67.3496C69.7262 67.3503 69.3482 67.3479 68.9701 67.3456C68.6989 67.3455 68.4277 67.3455 68.1565 67.3458C67.4204 67.3459 66.6843 67.3434 65.9482 67.3404C65.1789 67.3377 64.4096 67.3375 63.6402 67.337C62.1834 67.3356 60.7267 67.3321 59.2699 67.3278C57.6114 67.3231 55.9529 67.3207 54.2944 67.3186C50.8828 67.3141 47.4711 67.3066 44.0595 67.297C44.0291 67.4613 44.0291 67.4613 43.998 67.6289C43.6107 69.4501 42.2469 70.927 40.7357 71.9258C38.7955 73.0341 36.7307 73.2837 34.538 72.9077C32.377 72.294 30.6468 71.0227 29.5477 69.0598C28.9462 67.8934 28.9462 67.8934 28.9462 67.297C28.8052 67.2976 28.6642 67.2981 28.5189 67.2986C25.0883 67.3113 21.6577 67.3206 18.227 67.3266C16.568 67.3295 14.909 67.3335 13.25 67.34C11.8041 67.3457 10.3582 67.3494 8.91229 67.3507C8.1466 67.3514 7.38094 67.3532 6.61526 67.3573C5.8946 67.3612 5.174 67.3624 4.45333 67.3615C4.18883 67.3617 3.92432 67.3628 3.65982 67.365C3.29856 67.3679 2.93748 67.3672 2.57621 67.3656C2.47163 67.3673 2.36706 67.3689 2.25931 67.3706C1.53695 67.3622 1.13063 67.1787 0.573195 66.7267C0.164123 66.2019 0.0907895 65.8133 0.0886526 65.155C0.0877566 64.9876 0.0868606 64.8202 0.0859375 64.6478C0.0879362 64.4693 0.089935 64.2908 0.0919943 64.1068C0.0934416 63.9217 0.094889 63.7366 0.0963802 63.5459C0.22541 55.394 3.57474 47.2657 8.9853 41.2052C9.14217 41.0249 9.14217 41.0249 9.30221 40.841C10.6491 39.3108 12.0806 37.8953 13.6904 36.6427C13.8955 36.4768 13.8955 36.4768 14.1048 36.3074C18.4841 32.8239 23.6637 30.571 29.1156 29.4069C29.2474 29.3785 29.3793 29.3502 29.5151 29.321C31.8258 28.8516 34.0976 28.7474 36.4494 28.7564ZM22.5302 36.3576C22.704 36.8166 22.8964 37.2296 23.1551 37.6463C24.5488 39.9609 24.5488 39.9609 24.2412 41.2052C23.989 41.8637 23.5864 42.1799 22.958 42.4884C22.265 42.6 21.7126 42.5682 21.0688 42.2835C20.0136 41.3002 19.38 39.8866 18.6806 38.6388C17.3605 39.4039 16.2509 40.3366 15.1162 41.3478C14.9693 41.4769 14.8225 41.6059 14.6756 41.7349C13.9059 42.4201 13.2087 43.1234 12.5498 43.9142C12.4262 44.0554 12.3027 44.1965 12.1755 44.3419C11.3486 45.2908 10.6303 46.2522 9.98335 47.3361C10.0754 47.3885 10.1674 47.4409 10.2622 47.4949C10.6811 47.7346 11.0986 47.9764 11.5161 48.2183C11.6609 48.3007 11.8057 48.3832 11.9549 48.4681C12.0946 48.5494 12.2343 48.6307 12.3782 48.7145C12.5066 48.7884 12.6351 48.8624 12.7674 48.9385C13.2415 49.276 13.5726 49.667 13.833 50.1877C13.9109 50.8978 13.9102 51.456 13.5924 52.1035C13.1582 52.5846 12.8793 52.8508 12.2212 52.9424C11.0683 52.9958 10.363 52.6507 9.40413 52.0412C9.14133 51.8803 8.87828 51.7199 8.61494 51.56C8.50097 51.4883 8.38701 51.4166 8.26959 51.3428C7.99957 51.1626 7.99957 51.1626 7.7021 51.1857C5.8813 54.7363 4.56538 58.9992 4.56538 63.0197C12.6111 63.0197 20.6567 63.0197 28.9462 63.0197C29.1815 62.4551 29.4167 61.8905 29.6591 61.3087C30.8253 59.305 32.7024 57.6829 34.3286 56.0512C34.406 55.9733 34.4835 55.8955 34.5633 55.8153C35.3469 55.0287 36.1301 54.2479 36.9789 53.5306C37.2365 53.3063 37.4757 53.0692 37.7148 52.8253C38.0367 52.4984 38.3649 52.1888 38.7128 51.8897C39.2981 51.3855 39.8606 50.8587 40.4238 50.3302C41.0622 49.7316 41.702 49.1376 42.3659 48.5669C42.6918 48.2837 43.0098 47.9924 43.3288 47.7014C43.8148 47.2648 44.305 46.8352 44.8081 46.4182C44.9176 46.3273 45.0271 46.2363 45.14 46.1426C45.8314 45.6775 46.4108 45.5751 47.2113 45.7098C47.5754 45.7879 47.8714 45.8629 48.1943 46.0529C48.3725 46.4093 48.3725 46.4093 48.4794 46.7658C48.5265 46.8599 48.5735 46.954 48.622 47.0509C48.6886 48.0689 48.4833 48.9985 48.2667 49.9899C48.2289 50.1668 48.1912 50.3437 48.1523 50.526C48.0717 50.903 47.9904 51.2799 47.9084 51.6567C47.7884 52.2088 47.6705 52.7614 47.5527 53.3141C46.8548 56.5594 46.0949 59.7853 45.3427 63.0197C52.965 63.0197 60.5872 63.0197 68.4404 63.0197C68.1447 58.88 67.1824 54.9031 65.3037 51.1857C64.8396 51.3465 64.4332 51.5575 64.0149 51.8106C61.7003 53.2043 61.7003 53.2043 60.456 52.8966C59.7976 52.6445 59.4813 52.2419 59.1728 51.6134C59.0612 50.9204 59.093 50.3681 59.3778 49.7243C60.361 48.6691 61.7746 48.0354 63.0224 47.3361C62.2573 46.016 61.3247 44.9064 60.3134 43.7716C60.1844 43.6248 60.0553 43.478 59.9264 43.3311C59.2411 42.5614 58.5378 41.8642 57.747 41.2052C57.6059 41.0817 57.4647 40.9582 57.3193 40.831C56.3704 40.0041 55.409 39.2858 54.3251 38.6388C54.2727 38.7309 54.2203 38.8229 54.1663 38.9177C53.9267 39.3365 53.6848 39.754 53.4429 40.1715C53.3605 40.3164 53.2781 40.4612 53.1932 40.6104C53.1118 40.7501 53.0305 40.8898 52.9467 41.0337C52.8358 41.2263 52.8358 41.2263 52.7227 41.4229C52.3852 41.8969 51.9942 42.2281 51.4736 42.4884C50.7635 42.5663 50.2052 42.5657 49.5577 42.2478C48.9749 41.7219 48.736 41.3189 48.6488 40.5369C48.67 39.3385 49.4319 38.3384 50.0332 37.3446C50.2155 37.0267 50.3555 36.7037 50.4755 36.3576C46.9278 34.5382 42.6612 33.1973 38.6416 33.2209C38.6395 33.3474 38.6374 33.474 38.6353 33.6045C38.6265 34.0754 38.616 34.5462 38.6041 35.017C38.5994 35.2206 38.5954 35.4241 38.5922 35.6277C38.5874 35.9208 38.5799 36.2138 38.5719 36.5068C38.5682 36.683 38.5645 36.8593 38.5606 37.0408C38.4951 37.5267 38.3858 37.7063 38.0712 38.0685C38.0712 38.1626 38.0712 38.2567 38.0712 38.3537C37.3068 38.7013 36.6185 38.7212 35.79 38.6388C35.3214 38.4338 34.977 38.1765 34.6494 37.7834C34.4894 37.3035 34.4771 36.915 34.4617 36.4094C34.4527 36.1316 34.4527 36.1316 34.4436 35.8482C34.4379 35.6527 34.4322 35.4571 34.4266 35.2615C34.4204 35.0642 34.4142 34.867 34.4079 34.6697C34.3928 34.1868 34.3782 33.7038 34.3642 33.2209C30.3697 33.1801 26.044 34.5248 22.5302 36.3576ZM42.1603 54.6304C42.0264 54.7678 41.8932 54.9057 41.7605 55.0442C41.2109 55.6067 40.6508 56.1391 40.0523 56.6499C39.6703 56.9878 39.3165 57.3508 38.9624 57.7176C38.6915 57.9809 38.4154 58.2266 38.1292 58.4728C37.3909 59.1147 36.6974 59.7993 36.0039 60.4889C35.8117 60.6767 35.8117 60.6767 35.6157 60.8682C33.6789 62.7788 33.6789 62.7788 32.9384 65.3009C33.0461 66.3301 33.5394 67.2055 34.284 67.9119C35.209 68.521 36.0223 68.8346 37.1356 68.6337C38.1686 68.371 38.8643 67.8593 39.497 67.0119C40.1933 65.6918 40.5294 64.2245 40.8961 62.788C40.9575 62.5508 41.0189 62.3137 41.0804 62.0765C41.5015 60.4434 41.9047 58.8058 42.2951 57.1651C42.3199 57.0616 42.3448 56.9582 42.3703 56.8516C42.4401 56.5595 42.5087 56.2673 42.5769 55.9749C42.6156 55.81 42.6544 55.6451 42.6942 55.4753C42.7684 55.0776 42.7932 54.7254 42.7763 54.3224C42.4506 54.29 42.4506 54.29 42.1603 54.6304Z" fill="#3B5BA6"/>
<path d="M31.9084 -0.0447448C32.0475 -0.0441475 32.1866 -0.0435502 32.3299 -0.0429347C33.6043 -0.0228978 34.6133 0.201804 35.7581 0.757257C36.238 0.978717 36.238 0.978717 36.765 0.926569C36.912 0.855992 37.0591 0.785416 37.2106 0.712701C37.4741 0.612377 37.7385 0.514563 38.0037 0.418634C38.1332 0.369929 38.2628 0.321224 38.3963 0.271043C40.4679 -0.425509 43.0028 -0.158461 44.9287 0.790117C46.9704 1.90818 48.3991 3.50051 49.1871 5.70294C49.9016 8.19083 49.7269 10.6844 48.465 12.9703C48.1777 13.42 47.8663 13.7876 47.5031 14.1782C47.4013 14.2877 47.4013 14.2877 47.2974 14.3995C46.4045 15.3536 45.4815 16.2786 44.5589 17.2039C44.4637 17.2995 44.3685 17.3951 44.2704 17.4936C43.7689 17.9972 43.267 18.5004 42.7648 19.0033C42.2475 19.5214 41.7316 20.0408 41.2159 20.5604C40.8169 20.9621 40.4169 21.3628 40.0167 21.7633C39.8259 21.9545 39.6355 22.146 39.4454 22.338C39.1807 22.6051 38.9148 22.8708 38.6484 23.1362C38.5708 23.2152 38.4931 23.2941 38.4131 23.3755C37.7187 24.0623 37.2075 24.2639 36.2354 24.2899C35.3121 24.1346 34.7179 23.5186 34.0875 22.8836C33.9931 22.7901 33.8986 22.6966 33.8012 22.6003C33.4902 22.2918 33.1807 21.9818 32.8714 21.6717C32.6545 21.4554 32.4375 21.2392 32.2205 21.0231C31.766 20.5698 31.3122 20.1157 30.859 19.661C30.281 19.0814 29.7007 18.504 29.1198 17.9272C28.6709 17.481 28.2234 17.0335 27.7763 16.5856C27.5631 16.3723 27.3494 16.1595 27.1353 15.9472C24.9996 13.8266 23.4315 11.7256 23.3359 8.59014C23.3928 6.24348 24.2442 3.98432 25.8979 2.29666C27.6353 0.732977 29.5804 -0.058332 31.9084 -0.0447448ZM28.7985 5.84551C28.0377 6.96728 27.704 8.05978 27.943 9.40997C28.2861 10.8336 29.2743 11.7073 30.2844 12.6904C30.4596 12.864 30.6346 13.0377 30.8094 13.2117C31.2669 13.666 31.727 14.1177 32.1876 14.5688C32.6585 15.0308 33.1268 15.4954 33.5954 15.9597C34.513 16.868 35.4332 17.7737 36.3551 18.6775C36.9026 18.451 37.2553 18.1022 37.6748 17.689C37.7477 17.6175 37.8205 17.5461 37.8956 17.4724C38.1359 17.2363 38.3751 16.9991 38.6141 16.7617C38.7813 16.5961 38.9486 16.4305 39.1158 16.2649C39.4663 15.9173 39.8161 15.5692 40.1657 15.2207C40.6115 14.7764 41.0599 14.3348 41.509 13.8939C41.8556 13.5526 42.2003 13.2093 42.5445 12.8656C42.7089 12.7021 42.8739 12.5393 43.0397 12.3772C44.1016 11.3378 44.8716 10.4309 45.1381 8.92542C45.1484 7.6166 44.8093 6.58609 43.968 5.56871C43.1523 4.79564 42.1034 4.39567 40.9889 4.34844C39.6867 4.4053 38.7454 4.94753 37.7681 5.7759C37.2165 6.20562 36.5981 6.19992 35.9274 6.13067C35.3831 5.92658 34.9725 5.62959 34.5194 5.2752C32.7599 3.93808 30.2548 4.08443 28.7985 5.84551Z" fill="#3B5BA6"/>
</g>
<defs>
<clipPath id="clip0_1322_326">
<rect width="73" height="73" fill="white"/>
</clipPath>
</defs>
</svg>
