<svg width="73" height="73" viewBox="0 0 73 73" fill="none" xmlns="http://www.w3.org/2000/svg">
<g clip-path="url(#clip0_1682_341)">
<path d="M11.3754 25.6064C11.5863 25.6049 11.5863 25.6049 11.8014 25.6034C12.2656 25.6008 12.7297 25.6013 13.1938 25.6021C13.5168 25.6015 13.8398 25.6007 14.1628 25.5999C14.8396 25.5986 15.5164 25.599 16.1932 25.6004C17.0603 25.602 17.9272 25.5991 18.7942 25.595C19.4612 25.5923 20.1281 25.5924 20.7951 25.5932C21.1148 25.5932 21.4344 25.5924 21.754 25.5906C22.2011 25.5885 22.6481 25.59 23.0952 25.5924C23.227 25.5911 23.3588 25.5897 23.4946 25.5883C24.2858 25.5973 24.7458 25.7024 25.3715 26.2343C25.9224 26.9562 25.9591 27.7355 25.9615 28.6193C25.9622 28.7788 25.963 28.9382 25.9638 29.1025C25.964 29.2754 25.9641 29.4483 25.9643 29.6264C25.9654 29.9085 25.9665 30.1905 25.9676 30.4725C25.9687 30.7747 25.9695 31.0769 25.9702 31.379C25.9717 32.0108 25.9746 32.6426 25.9778 33.2744C25.9866 35.0707 25.9943 36.867 25.999 38.6633C26.0016 39.6562 26.0058 40.649 26.0116 41.6419C26.0145 42.1663 26.0168 42.6907 26.0171 43.2151C26.0175 43.8013 26.0211 44.3874 26.025 44.9736C26.0245 45.1448 26.0241 45.3159 26.0237 45.4923C26.0388 47.035 26.334 48.4279 27.0557 49.7953C27.1055 49.8923 27.1554 49.9893 27.2067 50.0893C27.5772 50.7945 27.9922 51.4328 28.5082 52.0409C28.5979 52.1571 28.6876 52.2732 28.78 52.3929C29.8379 53.6718 31.3024 54.3683 32.7855 55.0351C32.8982 55.0867 33.0109 55.1384 33.1269 55.1916C35.62 56.1701 38.5256 55.7852 40.9125 54.7499C43.6011 53.5167 45.1515 51.5333 46.3305 48.9042C46.3821 48.7899 46.4337 48.6756 46.487 48.5578C47.3125 46.4254 47.0841 43.8246 47.0825 41.5872C47.0821 40.9873 47.0841 40.3873 47.0866 39.7874C47.0933 38.0835 47.0967 36.3797 47.0976 34.6758C47.0982 33.7302 47.1008 32.7846 47.1055 31.8389C47.1084 31.2431 47.1087 30.6473 47.1072 30.0515C47.1067 29.5947 47.11 29.1379 47.1126 28.6811C47.1109 28.4355 47.1109 28.4355 47.1091 28.1849C47.118 27.3276 47.1409 26.7468 47.7562 26.0917C48.3916 25.5413 49.0722 25.6025 49.8715 25.6064C50.0823 25.6049 50.0823 25.6049 50.2975 25.6034C50.7616 25.6008 51.2258 25.6013 51.6899 25.6021C52.0129 25.6015 52.3359 25.6007 52.6589 25.5999C53.3357 25.5986 54.0125 25.599 54.6893 25.6004C55.5564 25.602 56.4233 25.5991 57.2903 25.595C57.9573 25.5923 58.6242 25.5924 59.2912 25.5932C59.6109 25.5932 59.9305 25.5924 60.2501 25.5906C60.6972 25.5885 61.1442 25.59 61.5913 25.5924C61.789 25.5904 61.789 25.5904 61.9907 25.5883C62.7819 25.5973 63.2419 25.7024 63.8676 26.2343C64.5841 27.1732 64.4584 28.3263 64.4563 29.4513C64.4567 29.6991 64.4567 29.6991 64.4571 29.9519C64.4577 30.4983 64.4573 31.0446 64.4568 31.591C64.4569 31.9729 64.4571 32.3549 64.4572 32.7368C64.4575 33.5386 64.4571 34.3405 64.4565 35.1423C64.4557 36.0618 64.4559 36.9813 64.4567 37.9008C64.4574 38.6952 64.4575 39.4896 64.4571 40.284C64.4569 40.7561 64.4569 41.2283 64.4573 41.7004C64.4613 47.4681 64.4613 47.4681 64.0547 49.7508C64.0299 49.8929 64.0052 50.035 63.9797 50.1814C62.6196 57.6186 58.3299 64.0664 52.1372 68.3695C51.2358 68.9791 50.2893 69.504 49.3246 70.0058C49.2293 70.0554 49.1339 70.105 49.0357 70.1561C46.6155 71.3959 44.0182 72.2453 41.3402 72.7148C41.2006 72.7399 41.061 72.7651 40.9171 72.7911C39.4708 73.0267 38.0443 73.0569 36.5817 73.0534C36.456 73.0532 36.3303 73.0531 36.2009 73.053C34.1608 73.0463 32.2065 72.9242 30.2191 72.4296C30.0767 72.3944 29.9343 72.3592 29.7876 72.323C27.8484 71.8289 26.023 71.1791 24.2308 70.2909C24.1301 70.2421 24.0293 70.1932 23.9255 70.1429C20.221 68.3353 16.8947 65.5816 14.393 62.3065C14.3296 62.2248 14.2663 62.143 14.201 62.0587C10.6634 57.4471 8.64351 51.7135 8.64841 45.8986C8.64755 45.6918 8.64658 45.485 8.6455 45.2782C8.64301 44.7233 8.64232 44.1684 8.64213 43.6135C8.64193 43.2661 8.64132 42.9186 8.64057 42.5712C8.63794 41.3573 8.63676 40.1435 8.63699 38.9296C8.63716 37.8004 8.63414 36.6712 8.62965 35.542C8.62592 34.5692 8.62439 33.5963 8.62457 32.6235C8.62464 32.0438 8.62384 31.4642 8.62081 30.8845C8.61805 30.3405 8.61803 29.7966 8.62011 29.2527C8.6204 29.0534 8.61973 28.8542 8.61801 28.655C8.60432 26.9654 8.60432 26.9654 8.93476 26.421C9.71142 25.635 10.3128 25.6012 11.3754 25.6064ZM13.1098 29.9413C13.1098 31.3528 13.1098 32.7644 13.1098 34.2187C15.8857 34.2187 18.6617 34.2187 21.5219 34.2187C21.5219 32.8071 21.5219 31.3956 21.5219 29.9413C18.7459 29.9413 15.9699 29.9413 13.1098 29.9413ZM51.6058 29.9413C51.6058 31.3528 51.6058 32.7644 51.6058 34.2187C54.3818 34.2187 57.1578 34.2187 60.018 34.2187C60.018 32.8071 60.018 31.3956 60.018 29.9413C57.242 29.9413 54.466 29.9413 51.6058 29.9413ZM13.1098 38.496C13.0931 40.0666 13.0931 40.0666 13.0819 41.6372C13.0785 42.2806 13.0746 42.924 13.0667 43.5674C13.037 46.0636 13.0668 48.4614 13.6801 50.9003C13.7217 51.0679 13.7634 51.2355 13.8064 51.4082C13.9175 51.8123 14.0418 52.2064 14.1791 52.6023C14.2267 52.7419 14.2743 52.8815 14.3234 53.0253C15.4914 56.2988 17.3657 59.0315 19.6683 61.5937C19.7542 61.69 19.84 61.7863 19.9284 61.8855C20.7427 62.7469 21.7141 63.4543 22.6625 64.1601C22.7441 64.221 22.8256 64.2819 22.9097 64.3446C27.7202 67.8782 33.9049 69.3024 39.7875 68.4831C44.8497 67.7027 49.1181 65.4103 52.889 62.0214C52.9854 61.9356 53.0817 61.8497 53.1809 61.7613C54.0423 60.9471 54.7496 59.9757 55.4555 59.0273C55.5164 58.9457 55.5773 58.8641 55.64 58.78C57.6986 55.9776 58.9848 52.7222 59.6348 49.323C59.6576 49.2054 59.6803 49.0877 59.7038 48.9665C60.1209 46.5728 60.0365 44.1059 60.0269 41.6862C60.0225 40.107 60.0225 40.107 60.018 38.496C57.242 38.496 54.466 38.496 51.6058 38.496C51.5705 40.5665 51.5705 40.5665 51.5377 42.637C51.4483 47.7269 51.4483 47.7269 50.8128 49.6527C50.7763 49.768 50.7399 49.8832 50.7024 50.0019C50.0962 51.822 49.1767 53.4608 47.8988 54.8925C47.8027 55.0088 47.7066 55.1252 47.6075 55.245C45.3726 57.8789 41.9386 59.6954 38.4887 60.0253C33.8807 60.2161 29.7432 59.3938 26.2626 56.198C23.5709 53.6272 21.7376 50.0605 21.6028 46.2978C21.597 45.9343 21.5933 45.5707 21.5915 45.2072C21.5891 45.0119 21.5865 44.8165 21.5837 44.6212C21.577 44.1145 21.5727 43.6077 21.569 43.101C21.5647 42.5809 21.5581 42.0609 21.5517 41.5408C21.5393 40.5259 21.5307 39.511 21.5219 38.496C18.7459 38.496 15.9699 38.496 13.1098 38.496Z" fill="#3B5BA6"/>
<path d="M35.3515 0.570109C35.5133 0.674909 35.6738 0.781646 35.8327 0.89091C36.2111 1.19315 36.2111 1.19315 36.7772 1.14042C37.0498 1.00248 37.0498 1.00248 37.3119 0.810709C38.2776 0.135123 39.2217 -0.0775541 40.3863 -0.0625817C40.5647 -0.0608069 40.5647 -0.0608069 40.7468 -0.0589963C42.4662 -0.0120789 43.6384 0.620978 44.8635 1.8043C46.2431 3.29266 46.5582 5.06817 46.5171 7.02288C46.3987 9.51514 44.7513 11.3163 43.0507 12.9744C42.9606 13.0676 42.8706 13.1608 42.7778 13.2568C42.1021 13.9503 41.3985 14.5744 40.6424 15.1788C40.0125 15.6866 39.4089 16.2258 38.8039 16.7629C38.0292 17.4432 37.4168 17.9094 36.3495 17.9646C35.5637 17.8049 35.0613 17.5065 34.4782 16.9755C34.3165 16.8334 34.1548 16.6914 33.9931 16.5494C33.9113 16.4767 33.8295 16.404 33.7453 16.3291C33.4276 16.0492 33.1037 15.7773 32.7791 15.5055C32.0155 14.8663 31.2677 14.2124 30.5322 13.5408C30.2645 13.3007 29.991 13.0748 29.7107 12.8497C28.1492 11.5165 26.7111 9.47024 26.4769 7.39054C26.3367 5.51484 26.5607 3.83701 27.7057 2.28105C29.539 0.152014 32.7547 -0.976458 35.3515 0.570109ZM31.5019 4.70487C30.9798 5.36076 30.8164 5.92141 30.863 6.76C31.2604 8.89874 33.8732 10.713 35.494 11.9764C35.6699 12.1211 35.8453 12.2665 36.0198 12.413C36.1286 12.5042 36.2374 12.5953 36.3495 12.6893C36.9942 12.4854 37.4132 12.1246 37.8911 11.6645C38.0429 11.5216 38.1948 11.3788 38.3467 11.2362C38.4199 11.1671 38.4931 11.0979 38.5685 11.0267C38.8296 10.7833 39.0989 10.5506 39.3704 10.3189C41.1542 8.813 41.1542 8.813 42.1245 6.75666C42.164 5.91547 41.9754 5.38109 41.4823 4.70487C40.9536 4.35236 40.527 4.30921 39.914 4.41972C39.1381 4.89719 38.8539 5.46101 38.4882 6.27323C38.1411 6.89806 37.8984 7.32529 37.205 7.55644C36.9471 7.57691 36.6884 7.58787 36.4297 7.59208C36.2946 7.59576 36.1595 7.59943 36.0204 7.60322C35.5776 7.54925 35.4029 7.40979 35.0663 7.1287C34.9722 7.1287 34.8781 7.1287 34.7811 7.1287C34.7459 7.01108 34.7106 6.89345 34.6742 6.77226C34.2764 5.65831 33.8875 4.84156 32.794 4.27714C32.2992 4.27714 31.9054 4.43429 31.5019 4.70487Z" fill="#3B5BA6"/>
<path d="M59.9669 4.8766C61.2569 5.84621 61.8846 7.03429 62.3038 8.55467C62.4487 8.56533 62.5935 8.57599 62.7427 8.58697C64.5691 8.74936 66.0091 9.23184 67.2974 10.6115C68.5748 12.2751 68.7327 13.9482 68.5773 15.9687C68.245 17.664 67.1396 19.2718 65.7257 20.2461C63.0951 21.8097 60.0897 21.9165 57.1035 22.0722C56.6299 22.098 56.1571 22.1296 55.684 22.1631C55.4074 22.1807 55.1308 22.1982 54.8541 22.2154C54.6699 22.2294 54.6699 22.2294 54.4819 22.2437C53.6818 22.2871 52.873 22.2553 52.1808 21.8144C51.5223 21.1243 51.3064 20.386 51.1276 19.4691C51.1008 19.3417 51.074 19.2142 51.0464 19.0829C50.9619 18.678 50.8807 18.2724 50.7996 17.8668C50.7436 17.5973 50.6875 17.3278 50.6311 17.0584C50.4768 16.316 50.3293 15.5724 50.1847 14.8281C50.1518 14.6611 50.1188 14.4941 50.0849 14.3221C49.8971 13.3005 49.8473 12.3013 49.8461 11.2637C49.8426 11.1089 49.8391 10.9541 49.8355 10.7947C49.8285 8.84357 50.5234 7.10103 51.8511 5.66746C54.1114 3.53629 57.3597 3.22046 59.9669 4.8766ZM55.0324 8.83982C54.1286 10.0052 54.1878 11.2795 54.3195 12.6894C54.572 14.3599 54.8942 16.044 55.3175 17.6797C57.0845 17.6419 58.8504 17.6032 60.6018 17.35C60.7125 17.3349 60.8232 17.3199 60.9372 17.3044C61.9271 17.1473 63.0282 16.8539 63.6583 16.0222C63.7576 15.8959 63.7576 15.8959 63.8588 15.7671C64.2488 15.2017 64.244 14.6415 64.1574 13.9726C63.9016 13.5634 63.7321 13.3323 63.3019 13.1172C62.4697 13.0073 61.9879 13.173 61.2345 13.5449C60.4719 13.9165 60.0074 14.1175 59.1671 13.9726C58.6532 13.7764 58.2663 13.509 57.8928 13.0993C57.6003 12.3077 57.6826 11.4986 57.8839 10.6933C58.0009 9.61668 58.0009 9.61668 57.5453 8.67942C56.6595 8.04672 55.8834 8.16437 55.0324 8.83982Z" fill="#3B5BA6"/>
<path d="M20.1317 4.86544C21.6958 6.0608 22.6445 7.49243 23.0902 9.41011C23.3602 12.0483 22.9049 14.5842 22.3493 17.1474C22.243 17.6413 22.1427 18.136 22.0442 18.6315C21.9863 18.9113 21.928 19.1911 21.8694 19.4708C21.8324 19.6563 21.8324 19.6563 21.7946 19.8455C21.6012 20.7151 21.2849 21.4533 20.5505 22.0105C19.6816 22.2587 18.8153 22.2572 17.9228 22.2037C17.8134 22.1979 17.7041 22.192 17.5913 22.186C17.3605 22.1734 17.1298 22.1603 16.899 22.1467C16.5553 22.1266 16.2115 22.1084 15.8677 22.0904C14.723 22.0278 13.5828 21.9427 12.443 21.8189C12.3411 21.808 12.2392 21.797 12.1342 21.7858C9.87573 21.5267 7.54116 20.8651 5.9808 19.1054C4.59506 17.2806 4.17642 15.5141 4.41244 13.2597C4.75141 11.6087 5.80254 10.4059 7.12143 9.41011C8.1859 8.71284 9.4517 8.66973 10.6859 8.55465C10.7155 8.44602 10.7451 8.3374 10.7755 8.22549C11.2486 6.64018 12.1022 5.40763 13.5285 4.53628C15.6174 3.42249 18.1522 3.5733 20.1317 4.86544ZM15.391 8.69722C15.0717 9.17612 15.0707 9.34107 15.0791 9.90023C15.0804 10.1029 15.0804 10.1029 15.0819 10.3096C15.1032 10.6516 15.1629 10.9341 15.2484 11.2636C15.3198 11.9734 15.325 12.5274 15.0167 13.1795C14.4889 13.7489 13.995 13.991 13.2256 14.0528C12.6336 14.0379 12.261 13.8441 11.7552 13.5449C11.0541 13.1305 10.4979 12.9219 9.68783 13.1171C9.27859 13.3729 9.04747 13.5424 8.83236 13.9726C8.75245 14.6277 8.76624 15.1236 9.06405 15.7192C10.3279 17.1826 11.8752 17.3469 13.724 17.5092C15.0377 17.6046 16.3558 17.6406 17.6722 17.6796C17.7916 17.1065 17.9109 16.5333 18.0299 15.9601C18.0703 15.7654 18.1108 15.5707 18.1514 15.376C18.21 15.095 18.2683 14.8139 18.3266 14.5329C18.3617 14.3642 18.3968 14.1954 18.433 14.0216C18.6072 13.1447 18.7036 12.3159 18.7148 11.424C18.7189 11.315 18.7231 11.2061 18.7273 11.0938C18.7382 10.1061 18.4487 9.37095 17.7881 8.63485C16.9818 8.18693 16.1289 8.07107 15.391 8.69722Z" fill="#3B5BA6"/>
</g>
<defs>
<clipPath id="clip0_1682_341">
<rect width="73" height="73" fill="white"/>
</clipPath>
</defs>
</svg>
